<svg width="48" height="48" viewBox="0 0 48 48" fill="none" xmlns="http://www.w3.org/2000/svg">
<rect width="48" height="36" fill="#1F2832"/>
<path d="M24 20C27.866 20 31 16.866 31 13C31 9.13401 27.866 6 24 6C20.134 6 17 9.13401 17 13C17 16.866 20.134 20 24 20Z" fill="#07E2B3"/>
<path d="M9 36C9 28.8106 15.7045 23 24 23C32.2955 23 39 28.8106 39 36" fill="#07E2B3"/>
<g clip-path="url(#clip0)">
<rect y="38.9683" width="9" height="9" rx="4.5" fill="#07E2B3"/>
<rect x="13" y="38.9683" width="9" height="9" fill="white"/>
<rect x="26" y="38.9683" width="9" height="9" fill="#07E2B3"/>
<rect x="39" y="38.9683" width="9" height="9" rx="4.5" fill="white"/>
</g>
<defs>
<clipPath id="clip0">
<rect y="38.937" width="48" height="9.06287" fill="white"/>
</clipPath>
</defs>
</svg>
