<svg width="36" height="70" viewBox="0 0 36 70" fill="none" xmlns="http://www.w3.org/2000/svg">
<ellipse cx="18.3512" cy="65.2556" rx="9.73796" ry="4.1199" fill="#ACB8C3"/>
<path d="M17.9778 9.96191C8.06475 9.96191 0 18.0872 0 28.0742C0 32.064 1.26298 35.8483 3.6522 39.0178C7.93786 44.7034 12.0688 50.4849 16.4464 56.109C16.697 56.7399 17.3034 57.1535 17.9778 57.1535C18.6522 57.1535 19.2586 56.7399 19.5092 56.109C23.8888 50.4822 28.0166 44.7048 32.3033 39.0178C34.6926 35.8483 35.9555 32.064 35.9555 28.0742C35.9555 18.0872 27.8908 9.96191 17.9778 9.96191ZM17.9778 21.5107C21.57 21.5107 24.4927 24.455 24.4927 28.0743C24.4927 31.6935 21.5702 34.6381 17.9778 34.6381C14.3855 34.6381 11.4629 31.6937 11.4629 28.0743C11.4629 24.455 14.3855 21.5107 17.9778 21.5107Z" fill="url(#paint0_linear)"/>
<defs>
<linearGradient id="paint0_linear" x1="0.573206" y1="33.5577" x2="28.3599" y2="13.907" gradientUnits="userSpaceOnUse">
<stop stop-color="#00F2D5"/>
<stop offset="0.953125" stop-color="#01BD95"/>
</linearGradient>
</defs>
</svg>
