<svg width="106" height="20" viewBox="0 0 106 20" fill="none" xmlns="http://www.w3.org/2000/svg">
<path d="M20.6261 15.1816V2.08563H25.3302C27.0152 2.08563 28.2954 2.39444 29.1709 3.01206C30.0524 3.62968 30.4931 4.52614 30.4931 5.70142C30.4931 6.37901 30.3372 6.95765 30.0254 7.43736C29.7136 7.91707 29.2549 8.27085 28.6492 8.49872C29.3328 8.67861 29.8575 9.0144 30.2233 9.5061C30.589 9.9978 30.7719 10.5974 30.7719 11.305C30.7719 12.5882 30.3642 13.5536 29.5487 14.2012C28.7392 14.8428 27.5369 15.1696 25.9419 15.1816H20.6261ZM23.7832 9.61404V12.7531H25.8519C26.4216 12.7531 26.8593 12.6242 27.1651 12.3664C27.4709 12.1025 27.6238 11.7337 27.6238 11.26C27.6238 10.1687 27.0812 9.62003 25.9958 9.61404H23.7832ZM23.7832 7.5453H25.4292C26.1188 7.5393 26.6105 7.41338 26.9043 7.16753C27.1981 6.92168 27.345 6.5589 27.345 6.07919C27.345 5.52753 27.1861 5.13177 26.8683 4.89191C26.5505 4.64606 26.0378 4.52314 25.3302 4.52314H23.7832V7.5453ZM41.4664 15.1816H32.328V13.2028L36.5374 8.77755C37.5748 7.59627 38.0935 6.65784 38.0935 5.96226C38.0935 5.39861 37.9705 4.96987 37.7247 4.67605C37.4788 4.38223 37.1221 4.23531 36.6543 4.23531C36.1926 4.23531 35.8179 4.43319 35.53 4.82895C35.2422 5.21872 35.0983 5.70742 35.0983 6.29506H32.0581C32.0581 5.49155 32.259 4.751 32.6608 4.07341C33.0625 3.38983 33.6202 2.85616 34.3338 2.47239C35.0473 2.08862 35.8448 1.89674 36.7263 1.89674C38.1414 1.89674 39.2298 2.22354 39.9913 2.87714C40.7588 3.53074 41.1426 4.46917 41.1426 5.69243C41.1426 6.20811 41.0467 6.7118 40.8548 7.2035C40.6629 7.68921 40.3631 8.2019 39.9553 8.74157C39.5536 9.27524 38.903 9.9918 38.0035 10.8913L36.3126 12.8431H41.4664V15.1816ZM52.7635 3.50676H48.5541V15.1816H46.8361V3.50676H42.6357V2.08563H52.7635V3.50676ZM58.466 6.94266C58.2142 6.90069 57.9414 6.8797 57.6475 6.8797C56.5562 6.8797 55.8157 7.34442 55.4259 8.27385V15.1816H53.7619V5.44957H55.3809L55.4079 6.57389C55.9536 5.70442 56.7271 5.26968 57.7285 5.26968C58.0523 5.26968 58.2981 5.31166 58.466 5.39561V6.94266ZM65.6527 15.1816C65.5567 14.9898 65.4788 14.648 65.4188 14.1563C64.6453 14.9598 63.7218 15.3615 62.6485 15.3615C61.6891 15.3615 60.9006 15.0917 60.2829 14.552C59.6713 14.0064 59.3655 13.3168 59.3655 12.4833C59.3655 11.4699 59.7493 10.6844 60.5168 10.1267C61.2903 9.56307 62.3757 9.28124 63.7728 9.28124H65.3918V8.5167C65.3918 7.93506 65.2179 7.47334 64.8701 7.13155C64.5224 6.78376 64.0097 6.60987 63.3321 6.60987C62.7384 6.60987 62.2407 6.75978 61.839 7.05959C61.4372 7.35941 61.2364 7.72219 61.2364 8.14793H59.5634C59.5634 7.66223 59.7343 7.19451 60.0761 6.74478C60.4239 6.28906 60.8916 5.92928 61.4792 5.66544C62.0728 5.4016 62.7234 5.26968 63.431 5.26968C64.5523 5.26968 65.4308 5.55151 66.0664 6.11517C66.702 6.67283 67.0318 7.44336 67.0558 8.42676V12.906C67.0558 13.7995 67.1697 14.5101 67.3976 15.0377V15.1816H65.6527ZM62.8913 13.9134C63.413 13.9134 63.9077 13.7785 64.3754 13.5087C64.8432 13.2388 65.1819 12.888 65.3918 12.4563V10.4595H64.0876C62.0489 10.4595 61.0295 11.0562 61.0295 12.2494C61.0295 12.7711 61.2034 13.1789 61.5512 13.4727C61.899 13.7665 62.3457 13.9134 62.8913 13.9134ZM69.2595 10.2347C69.2595 8.74157 69.6132 7.5423 70.3208 6.63685C71.0284 5.72541 71.9548 5.26968 73.1001 5.26968C74.2394 5.26968 75.1419 5.65945 75.8075 6.43897V1.36606H77.4715V15.1816H75.9424L75.8614 14.1383C75.1958 14.9538 74.2694 15.3615 73.0821 15.3615C71.9548 15.3615 71.0344 14.8998 70.3208 13.9764C69.6132 13.0529 69.2595 11.8477 69.2595 10.3606V10.2347ZM70.9234 10.4235C70.9234 11.5269 71.1513 12.3903 71.607 13.014C72.0628 13.6376 72.6924 13.9494 73.4959 13.9494C74.5512 13.9494 75.3218 13.4757 75.8075 12.5283V8.05798C75.3098 7.14054 74.5452 6.68182 73.5139 6.68182C72.6984 6.68182 72.0628 6.99663 71.607 7.62625C71.1513 8.25586 70.9234 9.18829 70.9234 10.4235ZM84.1004 15.3615C82.7812 15.3615 81.7079 14.9298 80.8804 14.0663C80.0529 13.1969 79.6391 12.0366 79.6391 10.5854V10.2796C79.6391 9.31422 79.822 8.45374 80.1878 7.6982C80.5596 6.93667 81.0753 6.34303 81.7349 5.91729C82.4004 5.48555 83.12 5.26968 83.8935 5.26968C85.1588 5.26968 86.1422 5.68643 86.8437 6.51992C87.5453 7.35341 87.8961 8.54669 87.8961 10.0997V10.7923H81.3031C81.3271 11.7517 81.6059 12.5283 82.1396 13.1219C82.6793 13.7095 83.3629 14.0034 84.1904 14.0034C84.778 14.0034 85.2757 13.8834 85.6834 13.6436C86.0912 13.4037 86.448 13.0859 86.7538 12.6902L87.7702 13.4817C86.9547 14.7349 85.7314 15.3615 84.1004 15.3615ZM83.8935 6.63685C83.2219 6.63685 82.6583 6.8827 82.2026 7.3744C81.7468 7.8601 81.465 8.54369 81.3571 9.42515H86.2321V9.29923C86.1841 8.45374 85.9563 7.80014 85.5485 7.33842C85.1408 6.87071 84.5891 6.63685 83.8935 6.63685ZM94.5341 6.94266C94.2822 6.90069 94.0094 6.8797 93.7155 6.8797C92.6242 6.8797 91.8837 7.34442 91.4939 8.27385V15.1816H89.8299V5.44957H91.4489L91.4759 6.57389C92.0216 5.70442 92.7951 5.26968 93.7965 5.26968C94.1203 5.26968 94.3662 5.31166 94.5341 5.39561V6.94266Z" fill="#2C2E31"/>
<circle r="2.61822" transform="matrix(1 0 0 -1 10.4737 2.79975)" fill="#59C59E"/>
<circle r="2.61822" transform="matrix(1 0 0 -1 10.4737 2.79975)" fill="#00C1AA"/>
<circle r="2.61822" transform="matrix(1 0 0 -1 10.4737 9.34516)" fill="#59C59E"/>
<circle r="2.61822" transform="matrix(1 0 0 -1 10.4737 9.34516)" fill="#00C1AA"/>
<circle r="2.61822" transform="matrix(1 0 0 -1 10.4737 15.8911)" fill="#59C59E"/>
<circle r="2.61822" transform="matrix(1 0 0 -1 10.4737 15.8911)" fill="#FF5252"/>
<circle r="2.61822" transform="matrix(1 0 0 -1 2.61822 2.79975)" fill="#59C59E"/>
<circle r="2.61822" transform="matrix(1 0 0 -1 2.61822 2.79975)" fill="#00C1AA"/>
<circle r="2.61822" transform="matrix(1 0 0 -1 2.61822 9.34516)" fill="#59C59E"/>
<circle r="2.61822" transform="matrix(1 0 0 -1 2.61822 9.34516)" fill="#FF5252"/>
<circle r="2.61822" transform="matrix(1 0 0 -1 2.61822 15.8911)" fill="#59C59E"/>
<circle r="2.61822" transform="matrix(1 0 0 -1 2.61822 15.8911)" fill="#FF5252"/>
</svg>
