<svg width="20" height="20" viewBox="0 0 20 20" fill="none" xmlns="http://www.w3.org/2000/svg">
<path d="M10.4766 13.8242C10.4766 14.6427 11.1425 15.3086 11.9609 15.3086H13.7051C14.5236 15.3086 15.1895 14.6427 15.1895 13.8242V12.0801C15.1895 11.2616 14.5236 10.5957 13.7051 10.5957H11.9609C11.1425 10.5957 10.4766 11.2616 10.4766 12.0801V13.8242ZM11.9609 12.0801H13.7051L13.706 13.8242C13.706 13.8242 13.7057 13.8242 13.7051 13.8242H11.9609V12.0801Z" fill="#3A3A3A" fill-opacity="0.75"/>
<path d="M14.4453 8.85156C14.8552 8.85156 15.1875 8.51927 15.1875 8.10938C15.1875 7.69948 14.8552 7.36719 14.4453 7.36719C14.0354 7.36719 13.7031 7.69948 13.7031 8.10938C13.7031 8.51927 14.0354 8.85156 14.4453 8.85156Z" fill="#3A3A3A" fill-opacity="0.75"/>
<path d="M11.2188 8.85156C11.6286 8.85156 11.9609 8.51927 11.9609 8.10938C11.9609 7.69948 11.6286 7.36719 11.2188 7.36719C10.8089 7.36719 10.4766 7.69948 10.4766 8.10938C10.4766 8.51927 10.8089 8.85156 11.2188 8.85156Z" fill="#3A3A3A" fill-opacity="0.75"/>
<path d="M18.3828 13.3789C18.7927 13.3789 19.125 13.0466 19.125 12.6367V4.76953C19.125 3.13256 17.7932 1.80078 16.1562 1.80078H15.1914V1.05859C15.1914 0.648684 14.8591 0.316406 14.4492 0.316406C14.0393 0.316406 13.707 0.648684 13.707 1.05859V1.80078H10.3301V1.05859C10.3301 0.648684 9.9978 0.316406 9.58789 0.316406C9.17798 0.316406 8.8457 0.648684 8.8457 1.05859V1.80078H5.50586V1.05859C5.50586 0.648684 5.17358 0.316406 4.76367 0.316406C4.35376 0.316406 4.02148 0.648684 4.02148 1.05859V1.80078H3.09375C1.45678 1.80078 0.125 3.13256 0.125 4.76953V16.3477C0.125 17.9846 1.45678 19.3164 3.09375 19.3164H16.1562C17.7932 19.3164 19.125 17.9846 19.125 16.3477C19.125 15.9377 18.7927 15.6055 18.3828 15.6055C17.9729 15.6055 17.6406 15.9377 17.6406 16.3477C17.6406 17.1661 16.9747 17.832 16.1562 17.832H3.09375C2.27527 17.832 1.60938 17.1661 1.60938 16.3477V4.76953C1.60938 3.95105 2.27527 3.28516 3.09375 3.28516H4.02148V4.02734C4.02148 4.43725 4.35376 4.76953 4.76367 4.76953C5.17358 4.76953 5.50586 4.43725 5.50586 4.02734V3.28516H8.8457V4.02734C8.8457 4.43725 9.17798 4.76953 9.58789 4.76953C9.9978 4.76953 10.3301 4.43725 10.3301 4.02734V3.28516H13.707V4.02734C13.707 4.43725 14.0393 4.76953 14.4492 4.76953C14.8591 4.76953 15.1914 4.43725 15.1914 4.02734V3.28516H16.1562C16.9747 3.28516 17.6406 3.95105 17.6406 4.76953V12.6367C17.6406 13.0466 17.9729 13.3789 18.3828 13.3789Z" fill="#3A3A3A" fill-opacity="0.75"/>
<path d="M4.76562 15.3086C5.17552 15.3086 5.50781 14.9763 5.50781 14.5664C5.50781 14.1565 5.17552 13.8242 4.76562 13.8242C4.35573 13.8242 4.02344 14.1565 4.02344 14.5664C4.02344 14.9763 4.35573 15.3086 4.76562 15.3086Z" fill="#3A3A3A" fill-opacity="0.75"/>
<path d="M4.76562 8.85156C5.17552 8.85156 5.50781 8.51927 5.50781 8.10938C5.50781 7.69948 5.17552 7.36719 4.76562 7.36719C4.35573 7.36719 4.02344 7.69948 4.02344 8.10938C4.02344 8.51927 4.35573 8.85156 4.76562 8.85156Z" fill="#3A3A3A" fill-opacity="0.75"/>
<path d="M4.76562 12.0801C5.17552 12.0801 5.50781 11.7478 5.50781 11.3379C5.50781 10.928 5.17552 10.5957 4.76562 10.5957C4.35573 10.5957 4.02344 10.928 4.02344 11.3379C4.02344 11.7478 4.35573 12.0801 4.76562 12.0801Z" fill="#3A3A3A" fill-opacity="0.75"/>
<path d="M7.99219 12.0801C8.40209 12.0801 8.73438 11.7478 8.73438 11.3379C8.73438 10.928 8.40209 10.5957 7.99219 10.5957C7.58229 10.5957 7.25 10.928 7.25 11.3379C7.25 11.7478 7.58229 12.0801 7.99219 12.0801Z" fill="#3A3A3A" fill-opacity="0.75"/>
<path d="M7.99219 8.85156C8.40209 8.85156 8.73438 8.51927 8.73438 8.10938C8.73438 7.69948 8.40209 7.36719 7.99219 7.36719C7.58229 7.36719 7.25 7.69948 7.25 8.10938C7.25 8.51927 7.58229 8.85156 7.99219 8.85156Z" fill="#3A3A3A" fill-opacity="0.75"/>
<path d="M7.99219 15.3086C8.40209 15.3086 8.73438 14.9763 8.73438 14.5664C8.73438 14.1565 8.40209 13.8242 7.99219 13.8242C7.58229 13.8242 7.25 14.1565 7.25 14.5664C7.25 14.9763 7.58229 15.3086 7.99219 15.3086Z" fill="#3A3A3A" fill-opacity="0.75"/>
</svg>
