<svg width="49" height="49" viewBox="0 0 49 49" fill="none" xmlns="http://www.w3.org/2000/svg">
<path d="M27.012 0.561523H0.179688V48.3703H27.012V0.561523Z" fill="white"/>
<path d="M24.3287 21.0232H16.0802V13.0869H8.52743V21.0232H0.179688V28.2901H8.52743V36.1307H16.0802V28.2901H24.3287V21.0232Z" fill="url(#paint0_linear)"/>
<path d="M48.1791 0.561523H24.3281V29.3424H48.1791V0.561523Z" fill="#637786"/>
<path d="M41.9639 15.5214C41.9798 12.6169 39.5011 10.2499 36.4275 10.2345C33.3539 10.2192 30.8494 12.5612 30.8335 15.4656C30.8176 18.3701 33.2963 20.7371 36.3699 20.7525C39.4435 20.7679 41.948 18.4258 41.9639 15.5214Z" fill="white"/>
<path d="M48.1791 28.291H24.3281V48.5619H48.1791V28.291Z" fill="#637786"/>
<path d="M41.9131 34.4052C41.929 31.5007 39.4503 29.1337 36.3767 29.1183C33.3031 29.1029 30.7986 31.445 30.7827 34.3494C30.7668 37.2539 33.2455 39.6209 36.3191 39.6363C39.3927 39.6516 41.8972 37.3096 41.9131 34.4052Z" fill="white"/>
<defs>
<linearGradient id="paint0_linear" x1="0.564678" y1="24.6088" x2="23.7328" y2="24.6088" gradientUnits="userSpaceOnUse">
<stop stop-color="#00F2D5"/>
<stop offset="0.953125" stop-color="#01BD95"/>
</linearGradient>
</defs>
</svg>
