<svg width="49" height="49" viewBox="0 0 49 49" fill="none" xmlns="http://www.w3.org/2000/svg">
<mask id="mask0" mask-type="alpha" maskUnits="userSpaceOnUse" x="0" y="0" width="49" height="49">
<rect x="0.472656" y="0.172852" width="48" height="48" fill="#C4C4C4"/>
</mask>
<g mask="url(#mask0)">
<path d="M0.472656 48.1729C0.472656 34.3729 11.1834 23.1729 24.4727 23.1729C37.7619 23.1729 48.4727 34.3729 48.4727 48.1729" fill="url(#paint0_linear)"/>
<path d="M0.472656 0.172852C0.472656 12.9175 11.1834 23.1729 24.4727 23.1729C37.7619 23.1729 48.4727 12.9175 48.4727 0.172852" fill="url(#paint1_linear)"/>
<path d="M15.1712 52.1729C9.37117 46.3729 9.37118 37.0728 15.0712 31.4728C16.8712 29.6728 19.0712 28.4728 21.3712 27.7728V19.6729H17.2712V15.1729H21.3712V11.4728H15.0712V6.97284H21.3712V0.172852H29.6712V27.7728C31.8712 28.4728 34.0712 29.6728 35.7712 31.4728C41.5712 37.2728 41.5712 46.5729 35.8712 52.1729C30.1712 57.7729 20.8712 57.9729 15.1712 52.1729Z" fill="#637786"/>
<path d="M28.5734 38.7725H22.7734V47.8724H28.5734V38.7725Z" fill="white"/>
</g>
<defs>
<linearGradient id="paint0_linear" x1="1.23789" y1="35.6728" x2="47.2883" y2="35.6728" gradientUnits="userSpaceOnUse">
<stop stop-color="#00F2D5"/>
<stop offset="0.953125" stop-color="#01BD95"/>
</linearGradient>
<linearGradient id="paint1_linear" x1="1.23789" y1="11.6728" x2="47.2883" y2="11.6728" gradientUnits="userSpaceOnUse">
<stop stop-color="#00F2D5"/>
<stop offset="0.953125" stop-color="#01BD95"/>
</linearGradient>
</defs>
</svg>
