<svg width="131" height="34" viewBox="0 0 131 34" fill="none" xmlns="http://www.w3.org/2000/svg">
<circle cx="5.48506" cy="6.43331" r="5.41616" transform="rotate(-0.723142 5.48506 6.43331)" fill="#5599FF"/>
<circle cx="16.2614" cy="6.43331" r="5.41616" transform="rotate(-0.723142 16.2614 6.43331)" fill="#87B7FF"/>
<circle cx="27.0398" cy="6.43331" r="5.41616" transform="rotate(-0.723142 27.0398 6.43331)" fill="#004DED"/>
<circle cx="5.48409" cy="17.2126" r="5.41616" transform="rotate(-0.723142 5.48409 17.2126)" fill="#87B7FF"/>
<circle cx="27.0388" cy="17.2126" r="5.41616" transform="rotate(-0.723142 27.0388 17.2126)" fill="#1073FF"/>
<circle cx="5.48409" cy="27.988" r="5.41616" transform="rotate(-0.723142 5.48409 27.988)" fill="#004DED"/>
<circle cx="16.2605" cy="27.988" r="5.41616" transform="rotate(-0.723142 16.2605 27.988)" fill="#1073FF"/>
<circle cx="27.0388" cy="27.988" r="5.41616" transform="rotate(-0.723142 27.0388 27.988)" fill="#5599FF"/>
<path d="M43.3457 27.5005H51.4623C55.3778 27.5005 57.806 25.4792 57.806 22.2628V22.2374C57.806 19.8855 56.0389 18.0676 53.6107 17.8769V17.6481C55.4922 17.3684 56.9288 15.6776 56.9288 13.7452V13.7198C56.9288 10.8976 54.8058 9.15592 51.2462 9.15592H43.3457V27.5005ZM50.2673 12.0036C52.0979 12.0036 53.1531 12.8935 53.1531 14.3809V14.4063C53.1531 15.9191 52.0216 16.7836 49.9495 16.7836H47.0636V12.0036H50.2673ZM50.3944 19.3135C52.6573 19.3135 53.8904 20.2288 53.8904 21.9323V21.9577C53.8904 23.6994 52.6954 24.6401 50.4834 24.6401H47.0636V19.3135H50.3944Z" fill="white"/>
<path d="M60.2659 27.5005H73.7426V24.4113H65.5359V24.1189L68.8089 20.9534C72.1523 17.8642 73.3543 16.1353 73.3543 14.0504V14.0122C73.3543 10.8467 70.4673 8.68555 66.6916 8.68555C62.6744 8.68555 60.0497 11.465 60.0497 14.9864L60.0625 15.0373H63.6093V14.9737C63.6093 13.232 64.8425 11.6731 66.635 11.6731C68.3894 11.6731 69.4572 12.7664 69.4572 14.33V14.3682C69.4572 15.6522 68.758 16.5802 66.1773 19.0846L60.2659 24.6772V27.5005Z" fill="white"/>
<path d="M84.4912 27.9328C88.394 27.9328 91.2925 25.5162 91.9028 22.16V22.1346H89.589L89.5636 22.16C88.9915 24.2703 87.0465 25.7011 84.4912 25.7011C80.957 25.7011 78.8663 22.9366 78.8663 18.3473V18.3219C78.8663 13.7325 80.957 10.9553 84.4785 10.9553C87.0083 10.9553 88.9661 12.3214 89.5763 14.6733L89.589 14.6987H91.8901L91.9028 14.6733C91.3561 11.1518 88.3432 8.72369 84.4785 8.72369C79.4951 8.72369 76.2718 12.4104 76.2718 18.3219V18.3473C76.2718 24.246 79.5078 27.9328 84.4912 27.9328Z" fill="white"/>
<path d="M100.452 27.7421C104.355 27.7421 106.892 25.0469 106.892 20.661V20.6356C106.892 16.237 104.355 13.5546 100.452 13.5546C96.5493 13.5546 94.1338 16.237 94.1338 20.6356V20.661C94.1338 25.0469 96.5493 27.7421 100.452 27.7421ZM100.452 25.7843C97.8587 25.7843 96.3967 23.8901 96.3967 20.661V20.6356C96.3967 17.3938 97.8587 15.5123 100.452 15.5123C103.046 15.5123 104.507 17.3938 104.507 20.6356V20.661C104.507 23.8901 103.046 25.7843 100.452 25.7843Z" fill="white"/>
<path d="M109.561 27.5005H111.894V19.0084C111.894 16.9997 113.394 15.6649 115.505 15.6649C115.988 15.6649 116.529 15.8371 116.986 15.9133V13.7649C116.77 13.7267 116.178 13.5546 115.759 13.5546C113.903 13.5546 112.619 14.3936 112.098 15.8301H111.894V13.7961H109.561V27.5005Z" fill="white"/>
<path d="M124.29 27.7421C127.519 27.7421 129.476 25.9114 129.947 24.0553L129.972 23.9536H127.76L127.709 24.0681C127.341 24.8944 126.197 25.7716 124.34 25.7716C121.9 25.7716 120.336 24.1189 120.272 21.2839H130.138V20.4195C130.138 16.3259 127.875 13.5546 124.15 13.5546C120.425 13.5546 117.888 16.4531 117.888 20.6864V20.6992C117.888 24.9961 120.374 27.7421 124.29 27.7421ZM124.137 15.525C126.158 15.525 127.659 16.809 127.887 19.5169H120.311C120.552 16.9107 122.103 15.525 124.137 15.525Z" fill="white"/>
</svg>
