<svg width="141" height="36" viewBox="0 0 141 36" fill="none" xmlns="http://www.w3.org/2000/svg">
<path d="M33.2384 28.543V10.6646H39.6604C41.9606 10.6646 43.7084 11.0862 44.9035 11.9294C46.1069 12.7725 46.7085 13.9963 46.7085 15.6008C46.7085 16.5258 46.4957 17.3158 46.07 17.9707C45.6444 18.6256 45.0181 19.1085 44.1913 19.4196C45.1245 19.6652 45.8408 20.1236 46.3402 20.7949C46.8395 21.4661 47.0892 22.2847 47.0892 23.2507C47.0892 25.0025 46.5325 26.3205 45.4192 27.2045C44.3141 28.0805 42.6728 28.5266 40.4953 28.543H33.2384ZM37.5484 20.9422V25.2276H40.3725C41.1502 25.2276 41.7478 25.0516 42.1653 24.6996C42.5828 24.3394 42.7915 23.836 42.7915 23.1893C42.7915 21.6994 42.0507 20.9504 40.569 20.9422H37.5484ZM37.5484 18.118H39.7954C40.7368 18.1098 41.4081 17.9379 41.8092 17.6023C42.2103 17.2667 42.4109 16.7714 42.4109 16.1165C42.4109 15.3634 42.1939 14.8231 41.7601 14.4957C41.3262 14.1601 40.6263 13.9923 39.6604 13.9923H37.5484V18.118ZM61.689 28.543H49.2135V25.8416L54.9601 19.8003C56.3763 18.1876 57.0844 16.9065 57.0844 15.9569C57.0844 15.1874 56.9166 14.6021 56.5809 14.201C56.2453 13.7999 55.7582 13.5993 55.1197 13.5993C54.4894 13.5993 53.9778 13.8695 53.5848 14.4097C53.1919 14.9418 52.9954 15.609 52.9954 16.4112H48.8451C48.8451 15.3143 49.1193 14.3033 49.6678 13.3783C50.2163 12.4451 50.9776 11.7165 51.9517 11.1926C52.9259 10.6687 54.0146 10.4068 55.218 10.4068C57.1499 10.4068 58.6356 10.8529 59.6753 11.7452C60.7231 12.6375 61.247 13.9186 61.247 15.5885C61.247 16.2925 61.116 16.9802 60.854 17.6514C60.5921 18.3145 60.1828 19.0144 59.6261 19.7511C59.0777 20.4797 58.1895 21.4579 56.9616 22.6858L54.6531 25.3504H61.689V28.543ZM67.804 10.6646L73.6489 25.2522L79.4937 10.6646H82.5512V28.543H80.1936V21.5807L80.4146 14.0659L74.5452 28.543H72.7402L66.8831 14.1028L67.1164 21.5807V28.543H64.7588V10.6646H67.804ZM94.5601 28.543C94.4292 28.281 94.3227 27.8144 94.2409 27.1432C93.1849 28.2401 91.9242 28.7886 90.4589 28.7886C89.1491 28.7886 88.0727 28.4202 87.2295 27.6834C86.3945 26.9385 85.977 25.9971 85.977 24.8592C85.977 23.4758 86.501 22.4034 87.5488 21.6421C88.6048 20.8726 90.0864 20.4879 91.9938 20.4879H94.204V19.4442C94.204 18.6501 93.9666 18.0198 93.4918 17.5532C93.0171 17.0784 92.3171 16.841 91.3921 16.841C90.5817 16.841 89.9023 17.0457 89.3538 17.455C88.8053 17.8643 88.5311 18.3595 88.5311 18.9407H86.2472C86.2472 18.2777 86.4805 17.6391 86.9471 17.0252C87.4219 16.403 88.0604 15.9119 88.8626 15.5517C89.6731 15.1915 90.5612 15.0114 91.5272 15.0114C93.058 15.0114 94.2572 15.3962 95.125 16.1657C95.9927 16.927 96.4429 17.9789 96.4757 19.3214V25.4364C96.4757 26.6561 96.6312 27.6261 96.9423 28.3465V28.543H94.5601ZM90.7905 26.8116C91.5026 26.8116 92.178 26.6274 92.8165 26.2591C93.455 25.8907 93.9175 25.4118 94.204 24.8224V22.0965H92.4236C89.6403 22.0965 88.2487 22.911 88.2487 24.54C88.2487 25.2522 88.4861 25.8088 88.9609 26.2099C89.4357 26.6111 90.0455 26.8116 90.7905 26.8116ZM106.459 17.2953C106.115 17.238 105.742 17.2094 105.341 17.2094C103.851 17.2094 102.84 17.8438 102.308 19.1126V28.543H100.037V15.257H102.247L102.284 16.7919C103.029 15.6049 104.085 15.0114 105.452 15.0114C105.894 15.0114 106.229 15.0687 106.459 15.1833V17.2953ZM107.772 21.7895C107.772 19.7184 108.251 18.073 109.209 16.8533C110.167 15.6254 111.436 15.0114 113.016 15.0114C114.636 15.0114 115.901 15.5844 116.81 16.7305L116.92 15.257H118.996V28.2237C118.996 29.9428 118.484 31.2976 117.461 32.2881C116.446 33.2786 115.078 33.7739 113.359 33.7739C112.402 33.7739 111.464 33.5692 110.547 33.1599C109.631 32.7506 108.931 32.1899 108.448 31.4777L109.627 30.1147C110.601 31.318 111.792 31.9197 113.2 31.9197C114.305 31.9197 115.164 31.6086 115.778 30.9865C116.401 30.3644 116.712 29.4885 116.712 28.3588V27.2168C115.803 28.2646 114.563 28.7886 112.991 28.7886C111.436 28.7886 110.175 28.1623 109.209 26.9099C108.251 25.6574 107.772 23.9506 107.772 21.7895ZM110.056 22.0473C110.056 23.5454 110.363 24.7242 110.977 25.5837C111.591 26.4351 112.451 26.8607 113.556 26.8607C114.988 26.8607 116.04 26.2099 116.712 24.9084V18.8425C116.016 17.5737 114.972 16.9392 113.58 16.9392C112.475 16.9392 111.612 17.369 110.99 18.2285C110.367 19.0881 110.056 20.361 110.056 22.0473ZM124.902 28.543H122.63V15.257H124.902V28.543ZM122.446 11.7329C122.446 11.3645 122.556 11.0535 122.777 10.7997C123.007 10.5459 123.342 10.419 123.784 10.419C124.226 10.419 124.562 10.5459 124.791 10.7997C125.02 11.0535 125.135 11.3645 125.135 11.7329C125.135 12.1013 125.02 12.4083 124.791 12.6538C124.562 12.8994 124.226 13.0222 123.784 13.0222C123.342 13.0222 123.007 12.8994 122.777 12.6538C122.556 12.4083 122.446 12.1013 122.446 11.7329ZM130.697 15.257L130.771 16.927C131.786 15.6499 133.112 15.0114 134.75 15.0114C137.557 15.0114 138.974 16.5954 138.998 19.7634V28.543H136.726V19.7511C136.718 18.7934 136.497 18.0853 136.063 17.6269C135.638 17.1684 134.971 16.9392 134.062 16.9392C133.325 16.9392 132.678 17.1357 132.122 17.5286C131.565 17.9216 131.131 18.4373 130.82 19.0758V28.543H128.549V15.257H130.697Z" fill="white"/>
<circle cx="10.1465" cy="19.2787" r="5.02951" transform="rotate(-126.56 10.1465 19.2787)" fill="#59C59E"/>
<circle cx="10.1465" cy="19.2787" r="5.02951" transform="rotate(-126.56 10.1465 19.2787)" fill="#A8DD12"/>
<circle cx="21.8701" cy="13.64" r="5.02951" transform="rotate(-126.56 21.8701 13.64)" fill="#A4FCDE"/>
<circle cx="21.8701" cy="13.64" r="5.02951" transform="rotate(-126.56 21.8701 13.64)" fill="#A8DD12"/>
<circle cx="20.8222" cy="26.9408" r="5.02951" transform="rotate(-126.56 20.8222 26.9408)" fill="#84F8CF"/>
<circle cx="20.8222" cy="26.9408" r="5.02951" transform="rotate(-126.56 20.8222 26.9408)" fill="#A8DD12"/>
</svg>
