<svg width="81" height="81" viewBox="0 0 81 81" fill="none" xmlns="http://www.w3.org/2000/svg">
<circle cx="40.6948" cy="40.4466" r="40.1625" fill="#FAFAFA"/>
<g clip-path="url(#clip0)">
<path d="M52.6948 36.4466C57.1063 36.4466 60.6948 32.8581 60.6948 28.4466C60.6948 24.0352 57.1063 20.4466 52.6948 20.4466C49.4914 20.4466 46.7293 22.3434 45.453 25.0694L43.3107 24.2787C43.3361 24.1146 43.3615 23.9505 43.3615 23.78C43.3615 21.9421 41.866 20.4466 40.0282 20.4466C38.1903 20.4466 36.6948 21.9421 36.6948 23.78C36.6948 25.6179 38.1903 27.1133 40.0282 27.1133C41.2222 27.1133 42.2635 26.4766 42.8521 25.5306L44.9907 26.32C44.8029 26.9987 44.6948 27.7093 44.6948 28.4466C44.6948 29.32 44.84 30.1585 45.1001 30.946L37.7681 34.0534C36.4256 31.5153 33.7609 29.78 30.6948 29.78C29.7013 29.78 28.7534 29.9707 27.8748 30.3027L26.0308 26.4274C26.8341 25.818 27.3615 24.8633 27.3615 23.78C27.3615 21.9421 25.866 20.4466 24.0282 20.4466C22.1903 20.4466 20.6948 21.9421 20.6948 23.78C20.6948 25.6179 22.1903 27.1133 24.0282 27.1133C24.3055 27.1133 24.5715 27.0694 24.8296 27.0046L26.6714 30.876C24.2974 32.2653 22.6948 34.836 22.6948 37.78C22.6948 40.5453 24.1056 42.986 26.2443 44.4232L25.0249 46.6152C24.7075 46.5153 24.3774 46.4466 24.0282 46.4466C22.1903 46.4466 20.6948 47.9421 20.6948 49.78C20.6948 51.6179 22.1903 53.1133 24.0282 53.1133C25.866 53.1133 27.3615 51.6179 27.3615 49.78C27.3615 48.7705 26.9009 47.8753 26.1903 47.264L27.4123 45.0674C28.4149 45.5212 29.5243 45.78 30.6948 45.78C32.5243 45.78 34.2069 45.1559 35.5562 44.1185L38.1802 47.0052C36.8494 48.4346 36.0282 50.3441 36.0282 52.4466C36.0282 52.8545 36.0688 53.252 36.1274 53.6432L33.0402 54.376C32.509 53.2399 31.3628 52.4466 30.0282 52.4466C28.1903 52.4466 26.6948 53.9421 26.6948 55.78C26.6948 57.6179 28.1903 59.1133 30.0282 59.1133C31.866 59.1133 33.3615 57.6179 33.3615 55.78C33.3615 55.7432 33.3514 55.7087 33.3507 55.6719L36.4321 54.9414C37.4829 58.1338 40.4881 60.4466 44.0282 60.4466C48.4396 60.4466 52.0282 56.8581 52.0282 52.4466C52.0282 51.0788 51.6821 49.7907 51.0741 48.6641L54.9901 46.1179C55.5955 46.7311 56.4341 47.1133 57.3615 47.1133C59.1994 47.1133 60.6948 45.6179 60.6948 43.78C60.6948 41.9421 59.1994 40.4466 57.3615 40.4466C55.5236 40.4466 54.0282 41.9421 54.0282 43.78C54.0282 44.2106 54.1167 44.6198 54.2661 44.9981L50.341 47.5498C49.5555 46.5401 48.5356 45.7246 47.3615 45.1833L50.6154 36.1628C51.2795 36.3418 51.9748 36.4466 52.6948 36.4466ZM40.0282 25.78C38.9256 25.78 38.0282 24.8825 38.0282 23.78C38.0282 22.6774 38.9256 21.78 40.0282 21.78C41.1307 21.78 42.0282 22.6774 42.0282 23.78C42.0282 24.8825 41.1307 25.78 40.0282 25.78ZM24.3948 24.2787C24.3948 23.1761 24.0282 21.78 24.0282 21.78L24.3948 24.2787ZM24.0282 51.78C22.9256 51.78 22.0282 50.8825 22.0282 49.78C22.0282 48.6774 22.9256 47.78 24.0282 47.78C25.1307 47.78 26.0282 48.6774 26.0282 49.78C26.0282 50.8825 25.1307 51.78 24.0282 51.78ZM48.7687 33.8226C49.0662 32.2806 50.4256 31.1133 52.0282 31.1133H53.3615C54.964 31.1133 56.3234 32.2806 56.6209 33.8226C55.5181 34.6299 54.1636 35.1133 52.6948 35.1133C51.2261 35.1133 49.8716 34.6299 48.7687 33.8226ZM52.6948 29.78C51.5923 29.78 50.6948 28.8825 50.6948 27.78C50.6948 26.6774 51.5923 25.78 52.6948 25.78C53.7974 25.78 54.6948 26.6774 54.6948 27.78C54.6948 28.8825 53.7974 29.78 52.6948 29.78ZM52.6948 21.78C56.3709 21.78 59.3615 24.7705 59.3615 28.4466C59.3615 30.1133 58.742 31.6361 57.7267 32.806C57.2596 31.5759 56.2856 30.5941 55.0721 30.1094C55.6623 29.5078 56.0282 28.6865 56.0282 27.78C56.0282 25.9421 54.5327 24.4466 52.6948 24.4466C50.8569 24.4466 49.3615 25.9421 49.3615 27.78C49.3615 28.6865 49.7274 29.5078 50.3175 30.1094C49.104 30.5941 48.13 31.5759 47.6629 32.806C46.6476 31.6361 46.0282 30.1133 46.0282 28.4466C46.0282 24.7705 49.0187 21.78 52.6948 21.78ZM24.0282 37.78C24.0282 34.1039 27.0187 31.1133 30.6948 31.1133C34.3709 31.1133 37.3615 34.1039 37.3615 37.78C37.3615 39.4518 36.7381 40.9785 35.7176 42.1501C35.2521 40.9154 34.2762 39.9287 33.0594 39.4427C33.6489 38.8412 34.0148 38.0199 34.0148 37.1133C34.0148 35.2754 32.5194 33.78 30.6815 33.78C28.8436 33.78 27.3481 35.2754 27.3481 37.1133C27.3481 38.0199 27.714 38.8412 28.3042 39.4427C27.0942 39.9251 26.1216 40.9033 25.6528 42.1286C24.6434 40.96 24.0282 39.4421 24.0282 37.78ZM28.6815 37.1133C28.6815 36.0108 29.5789 35.1133 30.6815 35.1133C31.784 35.1133 32.6815 36.0108 32.6815 37.1133C32.6815 38.2158 31.784 39.1133 30.6815 39.1133C29.5789 39.1133 28.6815 38.2158 28.6815 37.1133ZM26.7576 43.1472C27.0581 41.6094 28.4155 40.4466 30.0148 40.4466H31.3481C32.9536 40.4466 34.3156 41.6179 34.6089 43.1647C33.5083 43.9671 32.158 44.4466 30.6948 44.4466C29.2209 44.4466 27.8621 43.96 26.7576 43.1472ZM40.091 57.8138C40.3914 56.2761 41.7489 55.1133 43.3481 55.1133H44.6815C46.2869 55.1133 47.6489 56.2845 47.9422 57.8314C46.8416 58.6338 45.4914 59.1133 44.0282 59.1133C42.5542 59.1133 41.1955 58.6266 40.091 57.8138ZM44.0148 53.78C42.9123 53.78 42.0148 52.8825 42.0148 51.78C42.0148 50.6774 42.9123 49.78 44.0148 49.78C45.1174 49.78 46.0148 50.6774 46.0148 51.78C46.0148 52.8825 45.1174 53.78 44.0148 53.78ZM50.6948 52.4466C50.6948 54.1185 50.0715 55.6452 49.0509 56.8167C48.5855 55.582 47.6095 54.5954 46.3927 54.1094C46.9823 53.5078 47.3481 52.6865 47.3481 51.78C47.3481 49.9421 45.8527 48.4466 44.0148 48.4466C42.1769 48.4466 40.6815 49.9421 40.6815 51.78C40.6815 52.6865 41.0474 53.5078 41.6375 54.1094C40.4276 54.5918 39.4549 55.57 38.9862 56.7953C37.9767 55.6266 37.3615 54.1087 37.3615 52.4466C37.3615 48.7705 40.3521 45.78 44.0282 45.78C47.7043 45.78 50.6948 48.7705 50.6948 52.4466ZM46.1076 44.7305C45.4435 44.5514 44.7482 44.4466 44.0282 44.4466C42.1987 44.4466 40.5161 45.0707 39.1668 46.1081L36.5428 43.2214C37.8735 41.792 38.6948 39.8825 38.6948 37.78C38.6948 36.9066 38.5496 36.068 38.2896 35.2806L45.6216 32.1732C46.4429 33.7259 47.7609 34.972 49.3621 35.71L46.1076 44.7305Z" fill="#0ABE98"/>
</g>
<defs>
<clipPath id="clip0">
<rect width="40" height="40" fill="white" transform="translate(20.6948 20.4466)"/>
</clipPath>
</defs>
</svg>
