<svg width="82" height="81" viewBox="0 0 82 81" fill="none" xmlns="http://www.w3.org/2000/svg">
<circle cx="41.0398" cy="40.4466" r="40.1625" fill="#FAFAFA"/>
<g clip-path="url(#clip0)">
<path d="M32.0821 20.7317C25.9716 20.7317 21.0004 25.703 21.0004 31.8134C21.0004 37.9238 25.9716 42.8951 32.0821 42.8951C38.1926 42.8951 43.1638 37.9238 43.1638 31.8134C43.1639 25.703 38.1926 20.7317 32.0821 20.7317ZM32.0821 41.3015C26.8503 41.3015 22.594 37.0452 22.594 31.8134C22.594 26.5816 26.8504 22.3253 32.0821 22.3253C37.3138 22.3253 41.5702 26.5817 41.5702 31.8134C41.5702 37.0451 37.3139 41.3015 32.0821 41.3015Z" fill="#0ABE98"/>
<path d="M32.5633 30.6812V27.4704C33.6705 27.5494 34.0818 28.0556 34.4613 28.0556C34.9358 28.0556 35.1572 27.4545 35.1572 27.154C35.1572 26.379 33.6388 26.0469 32.5633 26.0152V25.5882C32.5633 25.3983 32.3261 25.2244 32.0888 25.2244C31.8199 25.2244 31.6301 25.3984 31.6301 25.5882V26.0469C30.1276 26.2051 28.625 26.9959 28.625 28.9888C28.625 31.0133 30.2066 31.5828 31.6301 32.0889V35.8058C30.0168 35.6793 29.5897 34.5722 29.0678 34.5722C28.6724 34.5722 28.3402 35.0942 28.3402 35.4737C28.3402 36.2487 29.6688 37.3084 31.6302 37.3401V37.8305C31.6302 38.0203 31.82 38.1942 32.0889 38.1942C32.326 38.1942 32.5633 38.0203 32.5633 37.8305V37.2927C34.2715 37.0555 35.442 35.9799 35.442 34.0344C35.4419 31.8833 33.9394 31.1873 32.5633 30.6812ZM31.725 30.3807C30.8866 30.0643 30.2065 29.7322 30.2065 28.8306C30.2065 28.0081 30.8392 27.6127 31.725 27.5019V30.3807ZM32.4684 35.7741V32.4369C33.2435 32.769 33.8603 33.2119 33.8603 34.2083C33.8603 35.1097 33.3225 35.616 32.4684 35.7741Z" fill="#0ABE98"/>
<path d="M49.9186 38.5681C43.808 38.5681 38.8369 43.5395 38.8369 49.6499C38.8369 55.7603 43.808 60.7317 49.9186 60.7317C56.0291 60.7317 61.0003 55.7603 61.0003 49.6499C61.0003 43.5395 56.029 38.5681 49.9186 38.5681ZM49.9186 59.1381C44.6868 59.1381 40.4304 54.8817 40.4304 49.6499C40.4304 44.4181 44.6868 40.1618 49.9186 40.1618C55.1504 40.1618 59.4067 44.4181 59.4067 49.6499C59.4067 54.8817 55.1504 59.1381 49.9186 59.1381Z" fill="#0ABE98"/>
<path d="M52.6538 51.7635C52.0882 51.7635 51.8211 51.9049 51.8211 52.2821C51.8054 53.2248 51.2868 54.0575 49.9827 54.0575C48.553 54.0575 48.0973 53.052 48.0973 52.1878V51.7321H50.0142C50.297 51.7321 50.5798 51.4808 50.5798 51.135C50.5798 50.7894 50.297 50.5223 50.0142 50.5223H48.0973V49.2653H50.0142C50.297 49.2653 50.5798 49.0139 50.5798 48.6683C50.5798 48.3225 50.297 48.0555 50.0142 48.0555H48.0973V47.4585C48.0972 46.0755 48.7728 45.4313 49.967 45.4313C51.3182 45.4313 51.8211 46.2954 51.8211 47.1125C51.8211 47.4739 52.0725 47.6311 52.6538 47.6311C53.2195 47.6311 53.4866 47.474 53.4866 46.8612C53.4866 45.0857 52.0096 43.9544 49.9199 43.9544C47.9715 43.9544 46.4317 44.9129 46.4317 47.4583V48.0554H45.599C45.2847 48.0554 45.0647 48.3225 45.0647 48.6839C45.0647 49.0295 45.2847 49.2652 45.599 49.2652H46.4317V50.5221H45.599C45.2847 50.5221 45.0647 50.7893 45.0647 51.1506C45.0647 51.4963 45.2847 51.7319 45.599 51.7319H46.4317V52.1876C46.4317 54.2931 47.7516 55.5344 49.9199 55.5344C52.0095 55.5344 53.4866 54.3559 53.4866 52.549C53.4867 51.9206 53.2352 51.7635 52.6538 51.7635Z" fill="#0ABE98"/>
<path d="M56.9026 35.0587C56.8129 34.8034 56.7154 34.5467 56.6132 34.2956C56.4469 33.8882 55.9822 33.6926 55.5744 33.8587C55.1669 34.025 54.9713 34.49 55.1376 34.8975C55.2301 35.1243 55.318 35.3563 55.399 35.5869C55.5142 35.9147 55.822 36.1198 56.1508 36.1198C56.2385 36.1198 56.3276 36.1052 56.4149 36.0746C56.83 35.9287 57.0484 35.4739 56.9026 35.0587Z" fill="#0ABE98"/>
<path d="M54.8315 31.031C52.9273 28.3162 50.2056 26.1994 47.1221 25.022L48.7242 24.1265C49.1083 23.9117 49.2457 23.4264 49.031 23.0422C48.8163 22.6581 48.3308 22.5209 47.9467 22.7353L44.5281 24.646C44.3437 24.7492 44.2077 24.9214 44.1501 25.1247C44.0926 25.3281 44.1182 25.5459 44.2213 25.7304L46.1322 29.1491C46.2781 29.4102 46.5491 29.5573 46.8284 29.5573C46.96 29.5573 47.0934 29.5246 47.2165 29.456C47.6006 29.2412 47.7379 28.7558 47.5233 28.3717L46.4644 26.4771C49.2896 27.5345 51.7857 29.4638 53.5269 31.9461C53.6819 32.1671 53.9289 32.2855 54.1799 32.2855C54.3379 32.2855 54.4975 32.2385 54.6367 32.141C54.9969 31.8882 55.0841 31.3914 54.8315 31.031Z" fill="#0ABE98"/>
<path d="M37.8796 55.2655L35.9688 51.847C35.7541 51.4628 35.2687 51.3254 34.8845 51.5402C34.5004 51.7549 34.3631 52.2403 34.5777 52.6244L35.6641 54.5681C31.6038 52.9569 28.3726 49.5834 26.9579 45.4398C26.8156 45.0234 26.3627 44.8012 25.9463 44.9432C25.5298 45.0855 25.3075 45.5384 25.4497 45.9548C26.2565 48.3176 27.617 50.5085 29.3841 52.2907C30.963 53.8828 32.8717 55.1523 34.9411 55.995L33.3767 56.8694C32.9926 57.0842 32.8552 57.5696 33.0699 57.9537C33.2159 58.2148 33.4869 58.3619 33.7662 58.3619C33.8977 58.3619 34.0312 58.3293 34.1542 58.2606L37.5728 56.3499C37.7573 56.2467 37.8932 56.0746 37.9507 55.8712C38.0083 55.6678 37.9827 55.4501 37.8796 55.2655Z" fill="#0ABE98"/>
</g>
<defs>
<clipPath id="clip0">
<rect width="40" height="40" fill="white" transform="translate(21.0004 20.7317)"/>
</clipPath>
</defs>
</svg>
