<svg width="22" height="18" viewBox="0 0 22 18" fill="none" xmlns="http://www.w3.org/2000/svg">
<path fill-rule="evenodd" clip-rule="evenodd" d="M10.4125 4.64318L10.459 5.39814L9.68425 5.3057C6.86419 4.95133 4.40052 3.74956 2.30872 1.7312L1.28607 0.729725L1.02266 1.46928C0.464844 3.11786 0.821224 4.85888 1.98333 6.02984C2.60313 6.67695 2.46367 6.76939 1.39453 6.38421C1.02266 6.26095 0.697266 6.16851 0.666276 6.21473C0.557813 6.32258 0.929688 7.72465 1.22409 8.27931C1.62695 9.04967 2.44818 9.80463 3.34688 10.2514L4.10612 10.6058L3.20742 10.6212C2.33971 10.6212 2.30872 10.6366 2.40169 10.9602C2.71159 11.9617 3.93568 13.0248 5.29922 13.487L6.2599 13.8105L5.42318 14.3036C4.18359 15.0123 2.72708 15.4129 1.27057 15.4437C0.573307 15.4591 0 15.5207 0 15.567C0 15.721 1.89037 16.5838 2.9905 16.9228C6.29089 17.9243 10.2111 17.4929 13.1551 15.7827C15.2469 14.5655 17.3387 12.1465 18.3148 9.80463C18.8417 8.55664 19.3685 6.27636 19.3685 5.18244C19.3685 4.4737 19.415 4.38126 20.2827 3.53386C20.794 3.04082 21.2744 2.50157 21.3673 2.34749C21.5223 2.05475 21.5068 2.05475 20.7165 2.31668C19.3995 2.7789 19.2135 2.71727 19.8643 2.02394C20.3447 1.53091 20.918 0.637281 20.918 0.375357C20.918 0.329135 20.6856 0.406171 20.4221 0.544837C20.1432 0.69891 19.5234 0.93002 19.0586 1.06869L18.2219 1.33061L17.4626 0.822169C17.0443 0.544837 16.4555 0.236691 16.1456 0.144247C15.3553 -0.0714552 14.1467 -0.0406406 13.434 0.205876C11.4971 0.899205 10.273 2.68645 10.4125 4.64318Z" fill="white"/>
</svg>
