<svg width="24" height="17" viewBox="0 0 24 17" fill="none" xmlns="http://www.w3.org/2000/svg">
<path fill-rule="evenodd" clip-rule="evenodd" d="M22.4532 1.24784C23.1613 1.96949 23.3924 3.60825 23.3924 3.60825C23.3924 3.60825 23.6287 5.53315 23.6287 7.4573V9.2618C23.6287 11.1867 23.3924 13.1108 23.3924 13.1108C23.3924 13.1108 23.1613 14.7496 22.4532 15.4713C21.6436 16.325 20.7459 16.4132 20.2385 16.463C20.1827 16.4685 20.1316 16.4735 20.0859 16.479C16.7793 16.7198 11.8143 16.7273 11.8143 16.7273C11.8143 16.7273 5.67089 16.6708 3.78059 16.488C3.69103 16.4711 3.58246 16.458 3.45951 16.4432C2.86075 16.3709 1.92095 16.2574 1.17479 15.4713C0.466667 14.7496 0.236287 13.1108 0.236287 13.1108C0.236287 13.1108 0 11.1867 0 9.2618V7.4573C0 5.53315 0.236287 3.60825 0.236287 3.60825C0.236287 3.60825 0.466667 1.96949 1.17479 1.24784C1.98618 0.392942 2.88473 0.305691 3.39217 0.256416C3.44719 0.251073 3.49761 0.246177 3.54283 0.240798C6.84937 0 11.8092 0 11.8092 0H11.8195C11.8195 0 16.7793 0 20.0859 0.240798C20.1311 0.246185 20.1815 0.251088 20.2366 0.25644C20.7437 0.305719 21.6426 0.393081 22.4532 1.24784ZM9.37395 4.76616L9.37468 11.4483L15.7582 8.11875L9.37395 4.76616Z" fill="white"/>
</svg>
