<svg width="180" height="177" viewBox="0 0 180 177" fill="none" xmlns="http://www.w3.org/2000/svg">
<g id="Bitcoin Cash">
<path id="Bitcoin Cash_2" fill-rule="evenodd" clip-rule="evenodd" d="M88.5799 62.773C90.9524 62.144 93.1083 61.8873 94.7899 62.2278C97.8562 62.9874 99.9858 65.5681 100.9 68.9424C102.33 74.2247 100.209 78.7185 94.8708 80.1337L82.7105 83.3576L77.9025 65.6038L88.5799 62.773ZM90.8964 113.583L85.413 93.3348L98.7594 89.7964C104.988 88.1451 109.808 91.2707 111.249 97.179C112.401 101.434 111.506 105.76 108.345 108.171C107.169 109.111 105.281 109.769 103.65 110.201L90.8964 113.583ZM107.578 120.011L110.36 130.282L103.39 132.13L100.608 121.859L93.3417 123.785L96.1233 134.056L89.1536 135.904L86.372 125.633C86.372 125.633 72.4322 129.329 72.4322 129.329C72.4322 129.329 69.8893 119.939 69.8893 119.939L74.19 118.799C76.4141 118.209 77.5685 116.016 77.0123 113.962L65.7672 72.4382C65.1712 70.2373 62.9547 69.0953 60.8788 69.6457C60.8788 69.6457 56.578 70.7859 56.578 70.7859C56.578 70.7859 54.0349 61.3953 54.0349 61.3953L67.9747 57.6996L65.1933 47.4289L72.163 45.5811L74.9444 55.8518L82.2107 53.9254C82.2107 53.9254 79.4292 43.6547 79.4292 43.6547C79.4292 43.6547 86.3993 41.8068 86.3993 41.8068L89.2204 52.2241C92.8191 51.4274 95.7558 51.1207 98.8915 51.5476C105.755 52.2437 111.606 56.8257 113.672 64.4557C115.42 70.9118 113.885 76.9801 109.153 81.2224C117.54 81.6726 122.738 87.3706 124.685 94.5604C127.041 103.843 122.64 112.244 115.861 116.557C113.134 118.224 110.544 119.225 107.578 120.011ZM18.8742 107.044C29.2848 145.485 69.3347 168.364 108.188 158.064C147.041 147.763 170.164 108.136 159.753 69.6944C149.342 31.2525 109.292 8.37407 70.4394 18.6746C31.5862 28.9751 8.4636 68.6016 18.8742 107.044Z" fill="white" fill-opacity="0.3"/>
</g>
</svg>
