<svg width="135" height="147" viewBox="0 0 135 147" fill="none" xmlns="http://www.w3.org/2000/svg">
<g id="Ripple">
<path id="Ripple_2" fill-rule="evenodd" clip-rule="evenodd" d="M73.7832 32.9481C73.7832 38.7753 75.8575 44.1385 78.5036 49.1116C80.7304 53.2953 81.8553 61.0579 74.2232 65.4621C68.5442 68.7386 61.4573 66.6647 57.9161 61.0037C54.9271 56.221 51.3178 51.7407 46.2636 48.8254C31.868 40.5203 13.4611 45.4484 5.15108 59.8322C2.43804 64.5272 1.13638 69.6481 1.11328 74.7066C1.16064 85.3257 6.55322 95.37 16.1661 100.916C25.4786 106.289 36.951 106.289 46.2636 100.916C51.3155 98.0014 54.9259 93.5246 57.915 88.7453C60.3682 84.8202 66.4965 79.8182 74.2221 84.28C79.8919 87.5531 81.6451 94.7249 78.5013 100.633C75.8564 105.606 73.7844 110.966 73.7844 116.793C73.7844 133.403 87.2595 146.868 103.882 146.868C120.503 146.868 133.977 133.403 133.977 116.793C133.977 106.048 128.241 96.1214 118.929 90.7478C113.834 87.8082 108.096 86.9565 102.414 86.7579C97.645 86.5906 90.5315 83.5379 90.5315 74.8705C90.5315 68.412 95.7705 63.215 102.416 62.9842C108.1 62.7856 113.835 61.9316 118.929 58.9932C133.325 50.6893 138.257 32.2949 129.946 17.9099C124.372 8.26254 114.254 2.86816 103.853 2.86816C98.7457 2.86816 93.5726 4.16771 88.8325 6.90183C79.52 12.2754 73.7832 22.2044 73.7832 32.9481Z" fill="white" fill-opacity="0.3"/>
</g>
</svg>
