<svg width="49" height="49" viewBox="0 0 49 49" fill="none" xmlns="http://www.w3.org/2000/svg">
<path d="M48.4414 0.0986328H0.441406V48.0986H48.4414V0.0986328Z" fill="#637786"/>
<path d="M25.7937 4.48041C28.8 5.27709 30.6037 8.26465 29.8021 11.2522C29.0004 14.2398 25.9941 15.9327 22.9879 15.2356C19.9816 14.5385 18.1778 11.4514 18.9795 8.46381C19.7812 5.47626 22.7875 3.78332 25.7937 4.48041Z" fill="url(#paint0_linear)"/>
<path d="M10.2625 4.48041C13.2687 5.27709 15.0725 8.26465 14.2708 11.2522C13.4691 14.2398 10.4629 15.9327 7.45662 15.2356C4.45036 14.5385 2.6466 11.4514 3.44827 8.46381C4.14973 5.47626 7.2562 3.78332 10.2625 4.48041Z" fill="url(#paint1_linear)"/>
<path d="M41.4265 4.48041C44.4328 5.27709 46.2366 8.26465 45.4349 11.2522C44.6332 14.2398 41.6269 15.9327 38.6207 15.2356C35.6144 14.5385 33.8107 11.4514 34.6123 8.46381C35.3138 5.47626 38.4203 3.78332 41.4265 4.48041Z" fill="url(#paint2_linear)"/>
<path d="M44.2335 33.7584H4.55078V44.0157H44.2335V33.7584Z" fill="white"/>
<path d="M10.2625 18.7211C13.2687 19.5178 15.0725 22.5054 14.2708 25.4929C13.4691 28.4805 10.4629 30.1734 7.45662 29.4763C4.45036 28.6796 2.6466 25.6921 3.44827 22.7045C4.14973 19.717 7.2562 17.9245 10.2625 18.7211Z" fill="url(#paint3_linear)"/>
<path d="M41.4265 18.7211C44.4328 19.5178 46.2366 22.5054 45.4349 25.4929C44.6332 28.4805 41.6269 30.1734 38.6207 29.4763C35.6144 28.6796 33.8107 25.6921 34.6123 22.7045C35.3138 19.717 38.4203 17.9245 41.4265 18.7211Z" fill="url(#paint4_linear)"/>
<path d="M25.7937 18.7211C28.8 19.5178 30.6037 22.5054 29.8021 25.4929C29.0004 28.4805 25.9941 30.1734 22.9879 29.4763C19.9816 28.6796 18.1778 25.6921 18.9795 22.7045C19.7812 19.717 22.7875 17.9245 25.7937 18.7211Z" fill="url(#paint5_linear)"/>
<defs>
<linearGradient id="paint0_linear" x1="18.9677" y1="9.858" x2="29.7161" y2="9.858" gradientUnits="userSpaceOnUse">
<stop stop-color="#00F2D5"/>
<stop offset="0.953125" stop-color="#01BD95"/>
</linearGradient>
<linearGradient id="paint1_linear" x1="3.43642" y1="9.858" x2="14.1848" y2="9.858" gradientUnits="userSpaceOnUse">
<stop stop-color="#00F2D5"/>
<stop offset="0.953125" stop-color="#01BD95"/>
</linearGradient>
<linearGradient id="paint2_linear" x1="34.6005" y1="9.858" x2="45.3489" y2="9.858" gradientUnits="userSpaceOnUse">
<stop stop-color="#00F2D5"/>
<stop offset="0.953125" stop-color="#01BD95"/>
</linearGradient>
<linearGradient id="paint3_linear" x1="3.43642" y1="24.0821" x2="14.1848" y2="24.0821" gradientUnits="userSpaceOnUse">
<stop stop-color="#00F2D5"/>
<stop offset="0.953125" stop-color="#01BD95"/>
</linearGradient>
<linearGradient id="paint4_linear" x1="34.6005" y1="24.0821" x2="45.3489" y2="24.0821" gradientUnits="userSpaceOnUse">
<stop stop-color="#00F2D5"/>
<stop offset="0.953125" stop-color="#01BD95"/>
</linearGradient>
<linearGradient id="paint5_linear" x1="18.9677" y1="24.0821" x2="29.7161" y2="24.0821" gradientUnits="userSpaceOnUse">
<stop stop-color="#00F2D5"/>
<stop offset="0.953125" stop-color="#01BD95"/>
</linearGradient>
</defs>
</svg>
