<svg width="83" height="3024" viewBox="0 0 83 3024" fill="none" xmlns="http://www.w3.org/2000/svg">
<path d="M82.7071 640.707C83.0976 640.317 83.0976 639.683 82.7071 639.293L76.3431 632.929C75.9526 632.538 75.3195 632.538 74.9289 632.929C74.5384 633.319 74.5384 633.953 74.9289 634.343L80.5858 640L74.9289 645.657C74.5384 646.047 74.5384 646.681 74.9289 647.071C75.3195 647.462 75.9526 647.462 76.3431 647.071L82.7071 640.707ZM82.7071 77.7072C83.0976 77.3165 83.0976 76.6835 82.7071 76.2928L76.3431 69.929C75.9526 69.5385 75.3195 69.5385 74.9289 69.929C74.5384 70.3195 74.5384 70.9526 74.9289 71.3431L80.5858 77L74.9289 82.6569C74.5384 83.0474 74.5384 83.6805 74.9289 84.071C75.3195 84.4615 75.9526 84.4615 76.3431 84.071L82.7071 77.7072ZM78.3321 2093.71C78.7226 2093.32 78.7226 2092.68 78.3321 2092.29L71.9681 2085.93C71.5776 2085.54 70.9445 2085.54 70.5539 2085.93C70.1634 2086.32 70.1634 2086.95 70.5539 2087.34L76.2108 2093L70.5539 2098.66C70.1634 2099.05 70.1634 2099.68 70.5539 2100.07C70.9445 2100.46 71.5776 2100.46 71.9681 2100.07L78.3321 2093.71ZM52 641H82V639H52V641ZM53 640V82H51V640H53ZM57 78H82V76H57V78ZM57 2094H77.625V2092H57V2094ZM53 2088V1035.5H51V2088H53ZM53 1035.5V640H51V1035.5H53ZM53 82C53 79.7908 54.7909 78 57 78V76C53.6863 76 51 78.6863 51 82H53ZM57 2092C54.7909 2092 53 2090.21 53 2088H51C51 2091.31 53.6863 2094 57 2094V2092Z" fill="#798E9E" fill-opacity="0.5"/>
<path d="M82.7071 2582.47C83.0976 2582.86 83.0976 2583.49 82.7071 2583.88L76.3431 2590.25C75.9526 2590.64 75.3195 2590.64 74.9289 2590.25C74.5384 2589.86 74.5384 2589.22 74.9289 2588.83L80.5858 2583.18L74.9289 2577.52C74.5384 2577.13 74.5384 2576.5 74.9289 2576.11C75.3195 2575.71 75.9526 2575.71 76.3431 2576.11L82.7071 2582.47ZM82.7071 7.29289C83.0976 7.68342 83.0976 8.31658 82.7071 8.70711L76.3431 15.0711C75.9526 15.4616 75.3195 15.4616 74.9289 15.0711C74.5384 14.6805 74.5384 14.0474 74.9289 13.6569L80.5858 8L74.9289 2.34315C74.5384 1.95262 74.5384 1.31946 74.9289 0.928932C75.3195 0.538408 75.9526 0.538408 76.3431 0.928932L82.7071 7.29289ZM82.7071 3015.29C83.0976 3015.68 83.0976 3016.32 82.7071 3016.71L76.3431 3023.07C75.9526 3023.46 75.3195 3023.46 74.9289 3023.07C74.5384 3022.68 74.5384 3022.05 74.9289 3021.66L80.5858 3016L74.9289 3010.34C74.5384 3009.95 74.5384 3009.32 74.9289 3008.93C75.3195 3008.54 75.9526 3008.54 76.3431 3008.93L82.7071 3015.29ZM82 2584.18H1V2582.18H82V2584.18ZM0 2583.18V13H2V2583.18H0ZM6 7H82V9H6V7ZM2 2583.18V3011H0V2583.18H2ZM6 3015H82V3017H6V3015ZM2 3011C2 3013.21 3.79086 3015 6 3015V3017C2.6863 3017 0 3014.31 0 3011H2ZM0 13C0 9.68631 2.68629 7 6 7V9C3.79087 9 2 10.7909 2 13H0Z" fill="#798E9E" fill-opacity="0.5"/>
</svg>
