<svg width="121" height="24" viewBox="0 0 121 24" fill="none" xmlns="http://www.w3.org/2000/svg">
<g clip-path="url(#clip0)">
<path d="M31.7027 19.7771C34.822 19.7771 36.9743 18.1972 36.9743 15.6248C36.9743 13.7209 35.3688 12.303 33.4041 12.1207V11.9384C34.8726 11.7055 36.2553 10.3484 36.2553 8.809C36.2553 6.56068 34.3358 5.16307 31.5609 5.16307H25.5782V19.7771H31.7027ZM28.3153 7.19871H30.9229C32.5028 7.19871 33.5486 7.95828 33.5486 9.26474C33.5486 10.6016 32.442 11.3206 30.5887 11.3206H28.3153V7.19871ZM28.3153 17.7415V13.174H31.0039C32.999 13.174 34.1765 13.9538 34.1765 15.4426C34.1765 16.9414 33.0294 17.7415 31.1052 17.7415H28.3153Z" fill="white"/>
<path d="M38.3269 9.61174H40.9019C40.9019 8.07235 41.7905 6.89489 43.3805 6.89489C44.9097 6.89489 45.8212 7.91777 45.8212 9.24448C45.8212 10.3585 45.3756 11.0573 43.5324 12.9208L38.4687 18.015V19.7771H48.7406V17.6098H42.0133V17.4377L45.277 14.3488C47.7886 11.8878 48.5279 10.7028 48.5279 9.00142C48.5279 6.5708 46.4289 4.79848 43.5223 4.79848C40.4739 4.79848 38.3269 6.84692 38.3269 9.61174Z" fill="white"/>
<path d="M57.2255 19.7771C60.3448 19.7771 62.4972 18.1972 62.4972 15.6248C62.4972 13.7209 60.8917 12.303 58.927 12.1207V11.9384C60.3954 11.7055 61.7781 10.3484 61.7781 8.809C61.7781 6.56068 59.8587 5.16307 57.0838 5.16307H51.1011V19.7771H57.2255ZM53.8382 7.19871H56.4457C58.0256 7.19871 59.0714 7.95828 59.0714 9.26474C59.0714 10.6016 57.9648 11.3206 56.1115 11.3206H53.8382V7.19871ZM53.8382 17.7415V13.174H56.5267C58.5219 13.174 59.6993 13.9538 59.6993 15.4426C59.6993 16.9414 58.5522 17.7415 56.628 17.7415H53.8382Z" fill="white"/>
<path d="M64.1258 19.7771H66.6374V13.3461C66.6374 11.7865 67.6475 10.8979 69.278 10.8979C69.7034 10.8979 70.3718 10.9688 70.5642 11.0397L71.061 8.6267C70.8281 8.56593 69.8857 8.52542 69.5211 8.52542C68.0931 8.52542 66.8981 9.33563 66.5943 10.4294H66.5463V8.58352H64.1258V19.7771Z" fill="white"/>
<path d="M76.2972 20C79.6089 20 81.7484 17.8327 81.7484 14.2374C81.7484 10.6623 79.5987 8.49504 76.2972 8.49504C73.0058 8.49504 70.8459 10.6725 70.8459 14.2374C70.8459 17.8327 72.9754 20 76.2972 20ZM76.2972 17.8199C74.5451 17.8199 73.4183 16.587 73.4183 14.2475C73.4183 11.908 74.5451 10.6751 76.2972 10.6751C78.0391 10.6751 79.1659 11.908 79.1659 14.2475C79.1659 16.587 78.0492 17.8199 76.2972 17.8199Z" fill="white"/>
<path d="M86.1115 13.2449H86.0635V4.29956H83.5519V19.7771H86.0635V15.8882L86.8306 15.1211L90.2611 19.7771H93.5477L88.8284 13.4575L93.2439 8.70772H90.3272L86.1115 13.2449Z" fill="white"/>
<path d="M101.141 16.5006C100.777 17.3311 99.9161 18.0453 98.6704 18.0453C97.0196 18.0453 96.0804 16.8705 96.0197 14.9969L95.8955 14.8653H103.757V14.0652C103.757 10.5914 101.739 8.49504 98.5792 8.49504C95.3688 8.49504 93.2495 10.7332 93.2495 14.288C93.2495 17.8327 95.3384 20 98.5995 20C101.212 20 103.19 18.6199 103.646 16.6248L101.141 16.5006ZM98.5691 10.4497C100.078 10.4497 101.071 11.5131 101.121 13.1942H96.0298C96.1412 11.5333 97.0703 10.4497 98.5691 10.4497Z" fill="white"/>
<path d="M105.449 19.7771H107.961V13.3461C107.961 11.7865 108.971 10.8979 110.601 10.8979C111.027 10.8979 111.695 10.9688 111.888 11.0397L112.384 8.6267C112.151 8.56593 111.209 8.52542 110.844 8.52542C109.416 8.52542 108.221 9.33563 107.918 10.4294H107.87V8.58352H105.449V19.7771Z" fill="white"/>
<path d="M115.634 6.6383V5.49452H116.137V5.16443H114.747V5.49452H115.249V6.6383H115.634Z" fill="white"/>
<path d="M117.852 6.6383V5.1697H117.417L117.113 6.00784H117.095L116.786 5.1697H116.369V6.6383H116.725V5.72609H116.743L116.997 6.50934H117.224L117.478 5.72609H117.496V6.6383H117.852Z" fill="white"/>
<ellipse cx="4.10925" cy="5.63584" rx="3.25659" ry="3.25669" fill="#0ABE98"/>
<ellipse cx="4.10864" cy="12.1495" rx="3.25659" ry="3.25669" fill="#079270"/>
<ellipse cx="4.10864" cy="18.6631" rx="3.25659" ry="3.25669" fill="#046A51"/>
<ellipse cx="10.6219" cy="5.63584" rx="3.25659" ry="3.25669" fill="#28F3C8"/>
<ellipse cx="10.6219" cy="12.1495" rx="3.25659" ry="3.25669" fill="#0ABE98"/>
<ellipse cx="10.6219" cy="18.6631" rx="3.25659" ry="3.25669" fill="#079270"/>
<ellipse cx="17.135" cy="5.63584" rx="3.25659" ry="3.25669" fill="#7DFFE0"/>
<ellipse cx="17.135" cy="12.1495" rx="3.25659" ry="3.25669" fill="#28F3C8"/>
<ellipse cx="17.135" cy="18.6631" rx="3.25659" ry="3.25669" fill="#0ABE98"/>
</g>
<defs>
<clipPath id="clip0">
<rect width="120" height="23" fill="white" transform="translate(0.852051 0.649414)"/>
</clipPath>
</defs>
</svg>
