<svg width="1374" height="223" viewBox="0 0 1374 223" fill="none" xmlns="http://www.w3.org/2000/svg">
<path d="M353.06 195.645C389.032 195.645 413.854 177.426 413.854 147.761C413.854 125.804 395.339 109.453 372.681 107.351V105.248C389.616 102.562 405.561 86.9119 405.561 69.1595C405.561 43.2317 383.426 27.1144 351.425 27.1144H282.432V195.645H353.06ZM313.996 50.5896H344.067C362.287 50.5896 374.347 59.349 374.347 74.4152C374.347 89.8317 361.586 98.124 340.213 98.124H313.996V50.5896ZM313.996 172.17V119.497H345.001C368.01 119.497 381.588 128.49 381.588 145.658C381.588 162.944 368.36 172.17 346.169 172.17H313.996Z" fill="white"/>
<path d="M429.452 78.4169H459.147C459.147 60.6645 469.394 47.0858 487.731 47.0858C505.366 47.0858 515.878 58.8818 515.878 74.1816C515.878 87.0287 510.739 95.0874 489.483 116.577L431.087 175.324V195.645H549.545V170.652H471.964V168.666L509.602 133.045C538.566 104.664 547.092 90.9997 547.092 71.3786C547.092 43.3485 522.885 22.9098 489.366 22.9098C454.211 22.9098 429.452 46.5326 429.452 78.4169Z" fill="white"/>
<path d="M647.395 195.645C683.367 195.645 708.188 177.426 708.188 147.761C708.188 125.804 689.674 109.453 667.016 107.351V105.248C683.951 102.562 699.896 86.9119 699.896 69.1595C699.896 43.2317 677.761 27.1144 645.76 27.1144H576.767V195.645H647.395ZM608.331 50.5896H638.402C656.622 50.5896 668.682 59.349 668.682 74.4152C668.682 89.8317 655.921 98.124 634.548 98.124H608.331V50.5896ZM608.331 172.17V119.497H639.336C662.344 119.497 675.923 128.49 675.923 145.658C675.923 162.944 662.695 172.17 640.504 172.17H608.331Z" fill="white"/>
<path d="M726.971 195.645H755.935V121.482C755.935 103.496 767.583 93.2495 786.387 93.2495C791.292 93.2495 799.001 94.067 801.22 94.8846L806.949 67.0573C804.263 66.3565 793.395 65.8893 789.19 65.8893C772.722 65.8893 758.941 75.2327 755.437 87.8463H754.884V66.5593H726.971V195.645Z" fill="white"/>
<path d="M867.333 198.215C905.524 198.215 930.198 173.221 930.198 131.76C930.198 90.5325 905.408 65.539 867.333 65.539C829.376 65.539 804.468 90.6493 804.468 131.76C804.468 173.221 829.026 198.215 867.333 198.215ZM867.333 173.074C847.128 173.074 834.134 158.856 834.134 131.877C834.134 104.898 847.128 90.6801 867.333 90.6801C887.422 90.6801 900.416 104.898 900.416 131.877C900.416 158.856 887.538 173.074 867.333 173.074Z" fill="white"/>
<path d="M980.514 120.314H979.961V17.1562H950.997V195.645H979.961V150.797L988.806 141.952L1028.37 195.645H1066.27L1011.85 122.767L1062.77 67.9916H1029.13L980.514 120.314Z" fill="white"/>
<path d="M1153.84 157.86C1149.64 167.437 1139.71 175.674 1125.35 175.674C1106.31 175.674 1095.48 162.126 1094.78 140.52L1093.34 139.001H1184.01V129.775C1184.01 89.715 1160.73 65.539 1124.29 65.539C1087.27 65.539 1062.83 91.35 1062.83 132.344C1062.83 173.221 1086.92 198.215 1124.53 198.215C1154.66 198.215 1177.47 182.3 1182.72 159.292L1153.84 157.86ZM1124.18 88.0799C1141.58 88.0799 1153.03 100.343 1153.61 119.731H1094.89C1096.18 100.577 1106.89 88.0799 1124.18 88.0799Z" fill="white"/>
<path d="M1203.52 195.645H1232.48V121.482C1232.48 103.496 1244.13 93.2495 1262.94 93.2495C1267.84 93.2495 1275.55 94.067 1277.77 94.8846L1283.5 67.0573C1280.81 66.3565 1269.94 65.8893 1265.74 65.8893C1249.27 65.8893 1235.49 75.2327 1231.99 87.8463H1231.43V66.5593H1203.52V195.645Z" fill="white"/>
<path d="M1324.45 71.9809V44.0067H1336.02V39.6875H1307.85V44.0067H1318.01V71.9809H1324.45Z" fill="white"/>
<path d="M1373.84 71.9809V39.6875H1366.68L1357.26 64.9538H1356.88L1347.35 39.6875L1340.18 39.7546V71.9809H1345.4V48.3259H1345.71L1355.18 69.9667H1358.98L1368.45 48.3259H1368.76V71.9809H1373.84Z" fill="white"/>
<circle cx="37.8405" cy="37.4011" r="36.9831" fill="#B2B2B2"/>
<circle cx="37.8386" cy="111.139" r="36.9831" fill="#737373"/>
<circle cx="37.8386" cy="184.878" r="36.9831" fill="#535353"/>
<circle cx="111.542" cy="37.9557" r="36.9831" fill="#DFDFDF"/>
<circle cx="111.542" cy="111.694" r="36.9831" fill="#B2B2B2"/>
<circle cx="111.542" cy="185.436" r="36.9831" fill="#737373"/>
<circle cx="185.247" cy="38.5104" r="36.9831" fill="white"/>
<circle cx="185.247" cy="112.253" r="36.9831" fill="#DFDFDF"/>
<circle cx="185.247" cy="185.991" r="36.9831" fill="#B2B2B2"/>
</svg>
