<svg width="48" height="49" viewBox="0 0 48 49" fill="none" xmlns="http://www.w3.org/2000/svg">
<path d="M48 0.879883H0V48.8799H48V0.879883Z" fill="#637786"/>
<path d="M30.4648 43.8003V5.95801H34.9742V43.8003H30.4648Z" fill="url(#paint0_linear)"/>
<path d="M13.8281 43.8003V5.95801H18.3375V43.8003H13.8281Z" fill="url(#paint1_linear)"/>
<path d="M20.0415 31.2529H12.125V44.3982H20.0415V31.2529Z" fill="white"/>
<path d="M36.6782 5.95801H28.7617V19.1032H36.6782V5.95801Z" fill="white"/>
<path d="M16.4353 19.8996H15.9343C13.9301 19.8996 12.2266 18.2066 12.2266 16.2149C12.2266 14.2232 13.9301 12.5303 15.9343 12.5303H16.4353C18.4395 12.5303 20.1431 14.2232 20.1431 16.2149C20.1431 18.3062 18.4395 19.8996 16.4353 19.8996Z" fill="white"/>
<path d="M32.9705 38.6222H32.4694C30.4653 38.6222 28.7617 36.9293 28.7617 34.9376C28.7617 32.9459 30.4653 31.2529 32.4694 31.2529H32.9705C34.9747 31.2529 36.6782 32.9459 36.6782 34.9376C36.6782 36.9293 34.9747 38.6222 32.9705 38.6222Z" fill="white"/>
<defs>
<linearGradient id="paint0_linear" x1="32.7008" y1="5.9364" x2="32.7008" y2="43.8021" gradientUnits="userSpaceOnUse">
<stop stop-color="#00F2D5"/>
<stop offset="0.9531" stop-color="#01BD95"/>
</linearGradient>
<linearGradient id="paint1_linear" x1="16.1225" y1="5.9364" x2="16.1225" y2="43.8021" gradientUnits="userSpaceOnUse">
<stop stop-color="#00F2D5"/>
<stop offset="0.9531" stop-color="#01BD95"/>
</linearGradient>
</defs>
</svg>
