<svg width="48" height="58" viewBox="0 0 48 58" fill="none" xmlns="http://www.w3.org/2000/svg">
<path d="M15.9301 57.7399C7.47895 57.6913 0.488281 40.4395 0.488281 31.6536C0.488281 17.3018 11.2545 14.1599 15.4038 14.1599C17.2737 14.1599 19.2703 14.8942 21.0314 15.544C22.2629 15.9973 23.5366 16.4652 24.2449 16.4652C24.6689 16.4652 25.6681 16.0671 26.5502 15.7179C28.4315 14.9689 30.7726 14.0381 33.4986 14.0381C33.5035 14.0381 33.5101 14.0381 33.5148 14.0381C35.5504 14.0381 41.7224 14.4848 45.433 20.0572L46.3021 21.3634L45.0512 22.3073C43.2642 23.6557 40.0035 26.1154 40.0035 30.9876C40.0035 36.7582 43.6963 38.9774 45.4703 40.0448C46.2535 40.5159 47.0641 41.0017 47.0641 42.0642C47.0641 42.7579 41.5274 57.6539 33.4872 57.6539C31.5198 57.6539 30.1292 57.0625 28.9026 56.541C27.6614 56.013 26.5907 55.5582 24.8215 55.5582C23.9247 55.5582 22.7907 55.9822 21.5902 56.4322C19.9495 57.0446 18.0925 57.7399 15.9854 57.7399H15.9301Z" fill="#474747"/>
<path d="M34.3516 0.958984C34.5609 8.50906 29.1615 13.747 23.7683 13.4185C22.8796 7.39323 29.1608 0.958984 34.3516 0.958984Z" fill="#474747"/>
</svg>
