<svg width="63" height="63" viewBox="0 0 63 63" fill="none" xmlns="http://www.w3.org/2000/svg">
<g clip-path="url(#clip0)">
<path d="M18.1462 23.9526H43.9779C44.6909 23.9526 45.2695 24.5313 45.2695 25.2443V45.9096C45.2695 49.0301 43.048 51.6365 40.1032 52.2384V58.8254C40.1032 60.9618 38.3647 62.7002 36.2284 62.7002C34.0921 62.7002 32.3537 60.9618 32.3537 58.8254V52.3676H29.7706V58.8254C29.7706 60.9618 28.0321 62.7002 25.8958 62.7002C23.7595 62.7002 22.0211 60.9618 22.0211 58.8254V52.2384C19.0763 51.6391 16.8547 49.0301 16.8547 45.9096V25.2443C16.8547 24.5288 17.4332 23.9526 18.1462 23.9526Z" fill="#474747"/>
<path d="M24.3021 7.58387L22.1245 2.50275C21.843 1.84658 22.1477 1.0898 22.8039 0.808153C23.4523 0.523965 24.2195 0.828859 24.4985 1.48757L26.6761 6.57123C28.058 6.12176 29.5304 5.87123 31.0598 5.87123C32.5889 5.87123 34.0613 6.12176 35.4434 6.57123L37.626 1.48757C37.905 0.828859 38.6722 0.521423 39.3206 0.808153C39.9768 1.08968 40.279 1.84913 39.9973 2.50275L37.8197 7.58387C42.255 9.99141 45.2695 14.6901 45.2695 20.0786C45.2695 20.7915 44.6909 21.3702 43.9779 21.3702H18.1463C17.4334 21.3702 16.8547 20.7915 16.8547 20.0786C16.8548 14.6901 19.8694 9.99141 24.3021 7.58387ZM36.2285 16.2038C36.9415 16.2038 37.5202 15.6252 37.5202 14.9122C37.5202 14.1993 36.9415 13.6206 36.2285 13.6206C35.5156 13.6206 34.9369 14.1993 34.9369 14.9122C34.9369 15.6252 35.5156 16.2038 36.2285 16.2038ZM25.8958 16.2038C26.6088 16.2038 27.1874 15.6252 27.1874 14.9122C27.1874 14.1993 26.6088 13.6206 25.8958 13.6206C25.1829 13.6206 24.6042 14.1993 24.6042 14.9122C24.6042 15.6252 25.1829 16.2038 25.8958 16.2038Z" fill="#474747"/>
<path d="M10.3948 23.9526C12.5311 23.9526 14.2695 25.6911 14.2695 27.8274V40.7432C14.2695 42.8795 12.5311 44.618 10.3948 44.618C8.25847 44.618 6.52004 42.8795 6.52004 40.7432V27.8274C6.52004 25.6912 8.25847 23.9526 10.3948 23.9526Z" fill="#474747"/>
<path d="M51.7307 23.9526C53.867 23.9526 55.6055 25.6911 55.6055 27.8274V40.7432C55.6055 42.8795 53.867 44.618 51.7307 44.618C49.5944 44.618 47.856 42.8795 47.856 40.7432V27.8274C47.856 25.6912 49.5944 23.9526 51.7307 23.9526Z" fill="#474747"/>
</g>
<defs>
<clipPath id="clip0">
<rect width="62" height="62" fill="white" transform="matrix(-1 0 0 1 62.0625 0.701172)"/>
</clipPath>
</defs>
</svg>
