<svg width="47" height="53" viewBox="0 0 47 53" fill="none" xmlns="http://www.w3.org/2000/svg">
<path d="M44.9007 42.7107C43.3384 42.0861 42.6701 41.2574 42.7347 40.0208C42.8013 38.5774 41.9623 37.5202 41.5639 37.1025C41.8046 36.205 42.508 33.1003 41.5646 30.4036C40.5508 27.5172 37.4556 23.1087 34.2618 18.7753C32.9544 16.9957 32.8925 15.0613 32.8211 12.8214C32.7526 10.6849 32.6754 8.26324 31.4548 5.57116C30.1276 2.63987 27.4645 0.958984 24.148 0.958984C22.175 0.958984 20.1499 1.56082 18.5914 2.61004C15.4001 4.75978 15.822 9.4468 16.1011 12.5482C16.1393 12.9729 16.1753 13.3741 16.1963 13.7166C16.3821 16.7541 16.213 18.3551 15.9919 18.8416C15.8489 19.1596 15.1446 20.0646 14.3992 21.0228C13.6284 22.0137 12.7545 23.1369 12.0382 24.1835C11.1835 25.443 10.4935 27.368 9.82625 29.2296C9.33804 30.5919 8.8769 31.8786 8.42798 32.6475C7.57714 34.1267 7.78885 35.506 7.96562 36.1434C7.64352 36.3618 7.17819 36.7918 6.78534 37.6023C6.31058 38.5912 5.34725 39.1226 3.34408 39.4986C2.42355 39.6824 1.78878 40.0602 1.4569 40.6214C0.973925 41.4383 1.23699 42.4646 1.47699 43.166C1.83158 44.1972 1.61061 44.8498 1.20886 46.0348C1.11628 46.3082 1.01131 46.6178 0.904929 46.9593C0.737416 47.4983 0.797853 47.9883 1.08414 48.4157C1.84066 49.5445 4.0482 49.9426 6.32071 50.2045C7.67758 50.3617 9.16266 50.8914 10.599 51.4039C12.0064 51.9059 13.4616 52.425 14.7844 52.5825C14.9854 52.6073 15.1846 52.6197 15.3765 52.6197C17.3738 52.6197 18.2761 51.3262 18.5622 50.7947C19.2796 50.6519 21.7539 50.1943 24.304 50.1329C26.85 50.062 29.3135 50.5527 30.0113 50.7052C30.2307 51.1151 30.809 52.0513 31.731 52.5336C32.2377 52.804 32.9428 52.959 33.6651 52.959C33.6653 52.959 33.6651 52.959 33.6653 52.959C34.4367 52.959 35.9041 52.781 37.0655 51.5884C38.224 50.3902 41.1183 48.8605 43.2319 47.7436C43.7035 47.4943 44.1447 47.2611 44.5316 47.0506C45.7189 46.4081 46.3668 45.4902 46.3089 44.5322C46.2607 43.7365 45.7212 43.0385 44.9007 42.7107ZM18.6174 42.48C18.4697 41.4638 17.1304 40.4561 15.5795 39.2892C14.3114 38.335 12.874 37.2535 12.478 36.3376C11.6596 34.4482 12.3047 31.126 13.4294 29.4153C13.9853 28.5587 14.4392 27.2597 14.8784 26.0035C15.3524 24.6471 15.8427 23.2446 16.391 22.6307C17.2593 21.6722 18.0618 19.8071 18.204 18.3373C19.0171 19.095 20.2784 20.0564 21.4437 20.0564C21.6231 20.0564 21.7972 20.0336 21.9637 19.9877C22.7609 19.763 23.9335 19.1016 25.0675 18.4623C26.0451 17.9109 27.2507 17.231 27.7044 17.1691C28.4822 18.2592 33.0019 28.0218 33.4637 31.157C33.8291 33.6377 33.4431 35.6884 33.2491 36.4916C33.0929 36.4708 32.9067 36.4539 32.7111 36.4539C31.4522 36.4539 31.1189 37.1246 31.0321 37.5251C30.8088 38.5656 30.7853 41.8928 30.7828 42.6404C30.3276 43.2049 28.0256 45.8632 24.7206 46.3411C23.3744 46.5321 22.1172 46.6289 20.9843 46.6289C20.0159 46.6289 19.3979 46.556 19.1413 46.5179L17.4805 44.6631C18.1353 44.3476 18.79 43.6816 18.6174 42.48ZM20.7249 11.8959C20.673 11.9178 20.622 11.9411 20.5719 11.966C20.5668 11.8562 20.5551 11.7449 20.5371 11.6332C20.3558 10.6145 19.6637 9.87508 18.8919 9.87508C18.8347 9.87508 18.7773 9.87934 18.7142 9.88872C18.255 9.9634 17.8948 10.3001 17.6974 10.7775C17.8705 9.72999 18.4786 8.95442 19.2 8.95442C20.0472 8.95442 20.7628 10.0688 20.7628 11.3877C20.7628 11.5539 20.7504 11.7193 20.7249 11.8959ZM27.3077 12.6814C27.3852 12.4403 27.4271 12.1795 27.4271 11.9087C27.4271 10.7129 26.6498 9.77603 25.6575 9.77603C24.6877 9.77603 23.8987 10.7327 23.8987 11.9087C23.8987 11.9889 23.9027 12.0692 23.9104 12.1493C23.8591 12.13 23.8089 12.1113 23.76 12.0932C23.6484 11.7633 23.592 11.4191 23.592 11.0677C23.592 9.63776 24.5283 8.47431 25.6794 8.47431C26.8303 8.47431 27.7667 9.63776 27.7667 11.0677C27.7667 11.6625 27.5985 12.2303 27.3077 12.6814ZM26.4589 15.4645C26.4423 15.5368 26.4071 15.5689 26.0168 15.767C25.8198 15.8671 25.5746 15.9917 25.2677 16.1741L25.0626 16.2953C24.2385 16.7829 22.3088 17.9251 21.785 17.9921C21.4292 18.0388 21.2091 17.9041 20.7142 17.5759C20.6026 17.5017 20.4838 17.423 20.3572 17.3437C19.4651 16.7724 18.8913 16.1431 18.8265 15.8971C19.1174 15.6776 19.8382 15.1285 20.2073 14.8034C20.9565 14.1234 21.7104 13.6665 22.0835 13.6665C22.1032 13.6665 22.1211 13.6679 22.1396 13.6713C22.578 13.7468 23.6594 14.1681 24.4493 14.4757C24.8144 14.6179 25.1297 14.7406 25.3515 14.8184C26.0504 15.0526 26.4147 15.3523 26.4589 15.4645ZM32.738 47.2393C33.1322 45.5035 33.5863 43.1422 33.5128 41.7501C33.4959 41.4338 33.4672 41.0896 33.4394 40.7568C33.3876 40.1345 33.3105 39.2096 33.39 38.9353C33.4057 38.9281 33.4232 38.922 33.4426 38.9167C33.4459 39.7125 33.623 41.3 34.9237 41.8536C35.3113 42.0186 35.7542 42.1022 36.2402 42.1022C37.5431 42.1022 38.9887 41.4783 39.5808 40.9004C39.9295 40.5601 40.2228 40.1437 40.4282 39.814C40.4731 39.9424 40.5007 40.1101 40.4862 40.3263C40.4088 41.5002 40.9932 43.0574 42.1056 43.6313L42.2675 43.7143C42.6637 43.9172 43.7159 44.4565 43.7328 44.7122C43.7327 44.7124 43.7239 44.7424 43.6652 44.7956C43.4017 45.0307 42.474 45.4931 41.5768 45.9403C39.9854 46.7334 38.1815 47.6324 37.3714 48.4641C36.2307 49.6357 34.9406 50.4227 34.1615 50.4227C34.0677 50.4227 33.9823 50.4111 33.9063 50.3876C33.0602 50.1302 32.3638 48.9386 32.738 47.2393ZM3.89728 42.8111C3.81099 42.4169 3.74286 42.1058 3.81605 41.8043C3.86915 41.581 4.99877 41.3416 5.48123 41.2395C6.15949 41.0957 6.86098 40.9473 7.31967 40.6755C7.93994 40.3088 8.27584 39.6324 8.57209 39.0357C8.78659 38.6042 9.00808 38.158 9.27166 38.0115C9.28651 38.003 9.30922 37.9931 9.35254 37.9931C9.84634 37.9931 10.8825 39.0064 11.4795 39.9132C11.631 40.1418 11.9115 40.6 12.2361 41.1304C13.2067 42.7156 14.5358 44.8868 15.23 45.6145C15.8555 46.2687 16.8681 47.5264 16.619 48.6051C16.4366 49.4421 15.4658 50.1227 15.2368 50.2732C15.1536 50.2916 15.0508 50.301 14.9297 50.301C13.6011 50.301 10.9712 49.2221 9.5583 48.6424L9.34922 48.5567C8.56021 48.2338 7.27216 48.0304 6.02656 47.8336C5.03546 47.6769 3.67824 47.4626 3.45325 47.269C3.27089 47.0693 3.48243 46.4202 3.66898 45.8476C3.8033 45.436 3.94199 45.0104 4.01798 44.5649C4.12575 43.8543 3.99894 43.2758 3.89728 42.8111Z" fill="#474747"/>
</svg>
