<svg width="62" height="49" viewBox="0 0 62 49" fill="none" xmlns="http://www.w3.org/2000/svg">
<path d="M0.0625 0.958984V48.959H33.8862H36.7155H61.0625V0.958984H35.8641H32.6221H0.0625ZM34.0575 3.62724H58.4046V46.2907H35.8251C35.4663 45.0233 35.2014 43.731 35.0153 42.4369C34.8691 41.4096 34.7881 40.4087 34.735 39.4481V39.4351C34.745 39.4333 34.7536 39.4292 34.7635 39.4273C34.7665 39.5122 34.7598 39.5894 34.7635 39.6748C35.6406 39.6214 36.5158 39.5548 37.3929 39.4481C42.0709 38.9011 46.6827 37.6584 51.0018 35.7506L49.9402 33.3116C45.9666 35.0593 41.7273 36.2175 37.4215 36.7512C36.5443 36.8579 35.6539 36.9532 34.7635 37.0065C34.7623 37.0332 34.7647 37.0632 34.7635 37.0899C34.7584 37.0888 34.7531 37.0884 34.748 37.0873C34.7483 37.0781 34.7476 37.0678 34.748 37.0587C34.748 37.032 34.7502 37.0199 34.7635 37.0065C34.7502 36.9132 34.7635 36.8312 34.7635 36.7512C34.8831 34.4965 35.2542 32.497 35.6928 30.7893C35.7592 30.5358 35.8262 30.2943 35.8926 30.0675C35.9059 30.0542 35.9053 30.029 35.9186 30.0024C36.0914 29.3887 36.2906 28.8136 36.4767 28.28L37.1282 26.4925H37.097H25.5127C26.2835 21.1293 27.812 15.9273 30.0447 10.991C31.2009 8.44283 32.5292 5.97531 34.0575 3.62724ZM13.1004 10.3135H15.8076C15.8089 12.5629 15.8115 14.8117 15.8128 17.0623C14.9038 17.0557 13.9938 17.0495 13.0848 17.0415C13.0888 14.7988 13.0951 12.5562 13.1004 10.3135ZM42.47 10.363V16.9946H44.9488V10.363H42.47ZM11.0472 33.2309C16.3777 35.5923 22.0259 36.8849 27.8228 37.0717C29.2355 37.1117 30.6501 37.0999 32.0615 37.0065C32.0216 37.8604 32.0216 38.7542 32.0615 39.6748C31.1153 39.7415 30.1538 39.7686 29.2089 39.7686C28.7158 39.7686 28.238 39.7533 27.7449 39.7399C21.6025 39.5398 15.6182 38.1806 9.96744 35.6724L11.0472 33.2309Z" fill="#474747"/>
</svg>
