<svg width="88" height="88" viewBox="0 0 88 88" fill="none" xmlns="http://www.w3.org/2000/svg">
<path d="M17.8936 35.0765C20.5646 29.0991 25.4124 24.3807 31.5427 21.7686C41.2736 17.6267 51.6282 18.4269 59.9706 23.9454C68.1248 29.3344 72.9844 38.3711 72.9844 48.1255C72.9844 55.4678 70.2428 62.4689 65.2538 67.8344C60.2883 73.1764 53.5696 76.4357 46.3215 77.0123C46.2156 77.0241 46.1097 77.0241 46.0038 77.0241C44.9801 77.0241 43.9799 76.6358 43.2269 75.9298C42.3797 75.1414 41.8855 74.0354 41.8855 72.8705V63.9397C41.8855 63.8103 41.8973 63.6809 41.9208 63.5632C41.8973 63.4455 41.8855 63.3161 41.8855 63.1867C41.8855 62.0218 42.8386 61.0687 44.0035 61.0687C49.3808 61.0687 53.7461 56.7033 53.7461 51.326V44.9015H34.2608V51.326C34.2608 54.0323 35.4021 56.6327 37.3789 58.4683C38.2379 59.2684 38.2849 60.598 37.4966 61.457C36.6965 62.3159 35.3669 62.363 34.5079 61.5746C31.6604 58.9389 30.0366 55.1972 30.0366 51.326V42.7835C30.0366 41.6186 30.9897 40.6656 32.1546 40.6656H36.7671V33.7233C36.7671 32.5584 37.7202 31.6054 38.885 31.6054C40.0499 31.6054 41.003 32.5584 41.003 33.7233V40.6656H47.0275V33.7233C47.0275 32.5584 47.9805 31.6054 49.1454 31.6054C50.3103 31.6054 51.2634 32.5584 51.2634 33.7233V40.6656H55.8759C57.0408 40.6656 57.9938 41.6186 57.9938 42.7835V51.326C57.9821 58.3271 52.8283 64.128 46.1214 65.1517V72.7881C58.8175 71.7174 68.7484 60.904 68.7484 48.1373C68.7484 39.8066 64.5949 32.0878 57.6291 27.4871C50.4986 22.7687 41.5913 22.1098 33.2018 25.675C28.0598 27.8518 24.0004 31.8171 21.7648 36.8179C16.9876 47.5137 19.2467 59.2096 27.5304 66.5989C28.4011 67.3755 28.4834 68.7169 27.6951 69.5876C26.9185 70.4584 25.5771 70.5407 24.7064 69.7524C20.1528 65.6812 17.0464 60.4098 15.7168 54.4794C14.3048 48.1491 15.0461 41.4422 17.8936 35.0765Z" fill="url(#paint0_linear)" fill-opacity="0.8"/>
<path d="M53.2461 51.326V45.4015H34.7608V51.326C34.7608 53.8926 35.8438 56.3605 37.7191 58.1019L37.7197 58.1024C38.7804 59.0904 38.8384 60.7344 37.865 61.7951L37.8624 61.7978C36.8744 62.8584 35.2304 62.9165 34.1698 61.943L34.1683 61.9416C31.2179 59.2107 29.5366 55.3357 29.5366 51.326V42.7835C29.5366 41.3425 30.7136 40.1656 32.1546 40.1656H36.2671V33.7233C36.2671 32.2823 37.444 31.1054 38.885 31.1054C40.3261 31.1054 41.503 32.2823 41.503 33.7233V40.1656H46.5275V33.7233C46.5275 32.2823 47.7044 31.1054 49.1454 31.1054C50.5865 31.1054 51.7634 32.2823 51.7634 33.7233V40.1656H55.8759C57.3169 40.1656 58.4938 41.3425 58.4938 42.7835L58.4938 51.326L58.4938 51.3269C58.4819 58.4298 53.3604 64.3391 46.6214 65.5746V72.238C58.7976 70.9318 68.2484 60.4624 68.2484 48.1373C68.2484 39.9748 64.1794 32.4126 57.3535 27.9043L57.3532 27.904C50.3734 23.2854 41.6447 22.6304 33.3974 26.1352L33.3967 26.1355C28.3694 28.2637 24.4045 32.1384 22.2212 37.022C17.5261 47.5343 19.7543 58.9923 27.8632 66.2258C28.938 67.1845 29.0426 68.8427 28.067 69.9218C27.1081 70.9954 25.4508 71.0995 24.3721 70.1242C19.7419 65.9842 16.5814 60.6213 15.2289 54.5888L15.2288 54.5883C13.7918 48.1457 14.5488 41.3294 17.4371 34.8725C20.1607 28.7773 25.1031 23.969 31.3467 21.3086L31.3469 21.3085C41.2221 17.1053 51.755 17.9113 60.2465 23.5283C68.5405 29.0099 73.4844 38.2031 73.4844 48.1255C73.4844 55.5935 70.6954 62.7164 65.6199 68.1749C60.5713 73.6063 53.7391 76.922 46.3684 77.5101C46.2376 77.5241 46.1112 77.5241 46.0131 77.5241H46.0038C44.8552 77.5241 43.7326 77.0889 42.8856 76.2952C41.9395 75.4145 41.3855 74.1771 41.3855 72.8705V63.9397C41.3855 63.8147 41.3944 63.6871 41.4133 63.5632C41.3944 63.4393 41.3855 63.3116 41.3855 63.1867C41.3855 61.7456 42.5624 60.5687 44.0035 60.5687C49.1046 60.5687 53.2461 56.4272 53.2461 51.326Z" stroke="url(#paint1_linear)" stroke-opacity="0.8"/>
<defs>
<linearGradient id="paint0_linear" x1="72.0603" y1="48.0862" x2="16.4509" y2="48.0862" gradientUnits="userSpaceOnUse">
<stop stop-color="#00E8B6"/>
<stop offset="0.953125" stop-color="#01BD95"/>
</linearGradient>
<linearGradient id="paint1_linear" x1="72.0603" y1="48.0862" x2="16.4509" y2="48.0862" gradientUnits="userSpaceOnUse">
<stop stop-color="#00E8B6"/>
<stop offset="0.953125" stop-color="#01BD95"/>
</linearGradient>
</defs>
</svg>
