<svg width="48" height="49" viewBox="0 0 48 49" fill="none" xmlns="http://www.w3.org/2000/svg">
<mask id="mask0" mask-type="alpha" maskUnits="userSpaceOnUse" x="0" y="0" width="48" height="49">
<rect y="0.699219" width="48" height="48" fill="#C4C4C4"/>
</mask>
<g mask="url(#mask0)">
<path d="M47.9 0.699219H0V48.8992H47.9V0.699219Z" fill="#637786"/>
<path d="M47.9 24.7993H0V48.8993H47.9V24.7993Z" fill="url(#paint0_linear)"/>
<path d="M24 37.6992C31.1797 37.6992 37 31.8789 37 24.6992C37 17.5195 31.1797 11.6992 24 11.6992C16.8203 11.6992 11 17.5195 11 24.6992C11 31.8789 16.8203 37.6992 24 37.6992Z" fill="white"/>
<path d="M24 29.6992C26.7614 29.6992 29 27.4606 29 24.6992C29 21.9378 26.7614 19.6992 24 19.6992C21.2386 19.6992 19 21.9378 19 24.6992C19 27.4606 21.2386 29.6992 24 29.6992Z" fill="#637786"/>
</g>
<defs>
<linearGradient id="paint0_linear" x1="0.763637" y1="36.8493" x2="46.7181" y2="36.8493" gradientUnits="userSpaceOnUse">
<stop stop-color="#0BF5C4"/>
<stop offset="1" stop-color="#03C89E"/>
</linearGradient>
</defs>
</svg>
