<svg width="49" height="49" viewBox="0 0 49 49" fill="none" xmlns="http://www.w3.org/2000/svg">
<mask id="mask0" mask-type="alpha" maskUnits="userSpaceOnUse" x="0" y="0" width="49" height="49">
<rect x="0.704102" y="0.699219" width="48" height="48" fill="#C4C4C4"/>
</mask>
<g mask="url(#mask0)">
<path d="M48.8115 48.6992C35.5223 48.6992 24.8115 37.9885 24.8115 24.6992C24.8115 11.41 35.5223 0.699219 48.8115 0.699219" fill="#637786"/>
<path d="M7.15038 13.5918C10.7106 13.5918 13.5967 10.7057 13.5967 7.1455C13.5967 3.58532 10.7106 0.699219 7.15038 0.699219C3.5902 0.699219 0.704102 3.58532 0.704102 7.1455C0.704102 10.7057 3.5902 13.5918 7.15038 13.5918Z" fill="url(#paint0_linear)"/>
<path d="M7.15038 31.1445C10.7106 31.1445 13.5967 28.2584 13.5967 24.6982C13.5967 21.138 10.7106 18.252 7.15038 18.252C3.5902 18.252 0.704102 21.138 0.704102 24.6982C0.704102 28.2584 3.5902 31.1445 7.15038 31.1445Z" fill="url(#paint1_linear)"/>
<path d="M48.8115 31.1448C52.3717 31.1448 55.2578 28.2587 55.2578 24.6985C55.2578 21.1383 52.3717 18.2522 48.8115 18.2522C45.2513 18.2522 42.3652 21.1383 42.3652 24.6985C42.3652 28.2587 45.2513 31.1448 48.8115 31.1448Z" fill="url(#paint2_linear)"/>
<path d="M7.15038 48.6992C10.7106 48.6992 13.5967 45.8131 13.5967 42.2529C13.5967 38.6927 10.7106 35.8066 7.15038 35.8066C3.5902 35.8066 0.704102 38.6927 0.704102 42.2529C0.704102 45.8131 3.5902 48.6992 7.15038 48.6992Z" fill="url(#paint3_linear)"/>
</g>
<defs>
<linearGradient id="paint0_linear" x1="0.909639" y1="7.14549" x2="13.2785" y2="7.14549" gradientUnits="userSpaceOnUse">
<stop stop-color="#0BF5C4"/>
<stop offset="1" stop-color="#03C89E"/>
</linearGradient>
<linearGradient id="paint1_linear" x1="0.909639" y1="24.6982" x2="13.2785" y2="24.6982" gradientUnits="userSpaceOnUse">
<stop stop-color="#0BF5C4"/>
<stop offset="1" stop-color="#03C89E"/>
</linearGradient>
<linearGradient id="paint2_linear" x1="42.37" y1="24.7102" x2="55.2625" y2="24.7102" gradientUnits="userSpaceOnUse">
<stop stop-color="#00E8B6"/>
<stop offset="1" stop-color="#01BD95"/>
</linearGradient>
<linearGradient id="paint3_linear" x1="0.909639" y1="42.2529" x2="13.2785" y2="42.2529" gradientUnits="userSpaceOnUse">
<stop stop-color="#0BF5C4"/>
<stop offset="1" stop-color="#03C89E"/>
</linearGradient>
</defs>
</svg>
