<svg width="171" height="40" viewBox="0 0 171 40" fill="none" xmlns="http://www.w3.org/2000/svg">
<ellipse cx="6.43931" cy="21.394" rx="6.28605" ry="5.98919" fill="#079270"/>
<ellipse cx="6.43931" cy="33.372" rx="6.28605" ry="5.98919" fill="#046A51"/>
<ellipse cx="19.0114" cy="21.394" rx="6.28605" ry="5.98919" fill="#0ABE98"/>
<ellipse cx="19.0114" cy="33.372" rx="6.28605" ry="5.98919" fill="#079270"/>
<ellipse cx="6.44035" cy="9.41546" rx="6.28605" ry="5.98919" fill="#0ABE98"/>
<ellipse cx="19.0119" cy="9.41546" rx="6.28605" ry="5.98919" fill="#28F3C8"/>
<ellipse cx="31.584" cy="9.41546" rx="6.28605" ry="5.98919" fill="#7DFFE0"/>
<ellipse cx="31.5835" cy="21.394" rx="6.28605" ry="5.98919" fill="#28F3C8"/>
<ellipse cx="31.5835" cy="33.372" rx="6.28605" ry="5.98919" fill="#0ABE98"/>
<path d="M45.5065 35.5033H48.6753V36.2195H44.6201V29.5778H45.5065V35.5033Z" fill="white"/>
<path d="M50.7062 36.2195H49.8565V31.2838H50.7062V36.2195ZM49.7877 29.9747C49.7877 29.8378 49.829 29.7223 49.9116 29.628C49.9974 29.5337 50.1229 29.4866 50.2882 29.4866C50.4536 29.4866 50.5791 29.5337 50.6648 29.628C50.7506 29.7223 50.7934 29.8378 50.7934 29.9747C50.7934 30.1115 50.7506 30.2256 50.6648 30.3168C50.5791 30.408 50.4536 30.4536 50.2882 30.4536C50.1229 30.4536 49.9974 30.408 49.9116 30.3168C49.829 30.2256 49.7877 30.1115 49.7877 29.9747Z" fill="white"/>
<path d="M52.0986 33.7106C52.0986 32.9351 52.2777 32.3224 52.6359 31.8723C52.9942 31.4192 53.4749 31.1926 54.078 31.1926C54.6659 31.1926 55.1297 31.3888 55.4696 31.7811L55.5063 31.2838H56.287V38.1171H55.4374V35.7633C55.0945 36.1282 54.6383 36.3107 54.0688 36.3107C53.4687 36.3107 52.9896 36.0796 52.6314 35.6174C52.2762 35.1521 52.0986 34.5363 52.0986 33.7699V33.7106ZM52.9482 33.8064C52.9482 34.372 53.0676 34.816 53.3065 35.1384C53.5483 35.4607 53.8729 35.6219 54.2801 35.6219C54.7853 35.6219 55.171 35.3999 55.4374 34.9559V32.5383C55.168 32.1034 54.7853 31.886 54.2893 31.886C53.879 31.886 53.5529 32.0487 53.3111 32.3741C53.0692 32.6964 52.9482 33.1739 52.9482 33.8064Z" fill="white"/>
<path d="M60.954 35.7314C60.6233 36.1176 60.138 36.3107 59.4981 36.3107C58.9685 36.3107 58.5643 36.1587 58.2857 35.8546C58.0101 35.5474 57.8708 35.0943 57.8678 34.4952V31.2838H58.7174V34.4724C58.7174 35.2205 59.0236 35.5945 59.6359 35.5945C60.285 35.5945 60.7167 35.3543 60.931 34.8738V31.2838H61.7806V36.2195H60.9723L60.954 35.7314Z" fill="white"/>
<path d="M64.234 36.2195H63.3843V31.2838H64.234V36.2195ZM63.3155 29.9747C63.3155 29.8378 63.3568 29.7223 63.4395 29.628C63.5252 29.5337 63.6507 29.4866 63.816 29.4866C63.9814 29.4866 64.1069 29.5337 64.1926 29.628C64.2784 29.7223 64.3212 29.8378 64.3212 29.9747C64.3212 30.1115 64.2784 30.2256 64.1926 30.3168C64.1069 30.408 63.9814 30.4536 63.816 30.4536C63.6507 30.4536 63.5252 30.408 63.4395 30.3168C63.3568 30.2256 63.3155 30.1115 63.3155 29.9747Z" fill="white"/>
<path d="M65.6264 33.7106C65.6264 32.9534 65.8071 32.3452 66.1683 31.886C66.5296 31.4237 67.0027 31.1926 67.5874 31.1926C68.1692 31.1926 68.63 31.3903 68.9698 31.7856V29.2129H69.8194V36.2195H69.0387L68.9974 35.6903C68.6575 36.1039 68.1845 36.3107 67.5783 36.3107C67.0027 36.3107 66.5327 36.0766 66.1683 35.6082C65.8071 35.1399 65.6264 34.5287 65.6264 33.7745V33.7106ZM66.476 33.8064C66.476 34.366 66.5924 34.8039 66.8251 35.1201C67.0578 35.4364 67.3792 35.5945 67.7895 35.5945C68.3284 35.5945 68.7218 35.3543 68.9698 34.8738V32.6067C68.7157 32.1414 68.3253 31.9088 67.7987 31.9088C67.3823 31.9088 67.0578 32.0684 66.8251 32.3878C66.5924 32.7071 66.476 33.1799 66.476 33.8064Z" fill="white"/>
<path d="M72.3003 36.2195H71.4507V31.2838H72.3003V36.2195ZM71.3818 29.9747C71.3818 29.8378 71.4231 29.7223 71.5058 29.628C71.5915 29.5337 71.7171 29.4866 71.8824 29.4866C72.0477 29.4866 72.1733 29.5337 72.259 29.628C72.3447 29.7223 72.3876 29.8378 72.3876 29.9747C72.3876 30.1115 72.3447 30.2256 72.259 30.3168C72.1733 30.408 72.0477 30.4536 71.8824 30.4536C71.7171 30.4536 71.5915 30.408 71.5058 30.3168C71.4231 30.2256 71.3818 30.1115 71.3818 29.9747Z" fill="white"/>
<path d="M75.0522 30.0887V31.2838H75.9799V31.9362H75.0522V34.997C75.0522 35.1946 75.0935 35.3437 75.1762 35.444C75.2588 35.5413 75.3997 35.59 75.5987 35.59C75.6967 35.59 75.8314 35.5717 76.0028 35.5352V36.2195C75.7793 36.2803 75.5619 36.3107 75.3507 36.3107C74.971 36.3107 74.6848 36.1967 74.4919 35.9686C74.299 35.7405 74.2025 35.4166 74.2025 34.997V31.9362H73.2978V31.2838H74.2025V30.0887H75.0522Z" fill="white"/>
<path d="M78.8373 34.9833L79.9947 31.2838H80.904L78.9062 36.9813C78.597 37.8023 78.1056 38.2129 77.432 38.2129L77.2713 38.1992L76.9544 38.1399V37.4557L77.184 37.4739C77.4718 37.4739 77.6953 37.4161 77.8545 37.3006C78.0168 37.185 78.15 36.9737 78.2541 36.6665L78.4424 36.1647L76.6697 31.2838H77.5974L78.8373 34.9833Z" fill="white"/>
<path d="M81.4239 35.777C81.4239 35.631 81.4667 35.5094 81.5525 35.4121C81.6413 35.3148 81.7729 35.2661 81.9474 35.2661C82.1219 35.2661 82.2536 35.3148 82.3424 35.4121C82.4342 35.5094 82.4802 35.631 82.4802 35.777C82.4802 35.9169 82.4342 36.034 82.3424 36.1282C82.2536 36.2225 82.1219 36.2697 81.9474 36.2697C81.7729 36.2697 81.6413 36.2225 81.5525 36.1282C81.4667 36.034 81.4239 35.9169 81.4239 35.777Z" fill="white"/>
<path d="M91.2584 30.2985H89.109V36.2195H88.2319V30.2985H86.0871V29.5778H91.2584V30.2985Z" fill="white"/>
<path d="M93.9551 36.3107C93.2815 36.3107 92.7335 36.0918 92.311 35.6538C91.8885 35.2129 91.6772 34.6244 91.6772 33.8885V33.7334C91.6772 33.2438 91.7706 32.8074 91.9573 32.4242C92.1472 32.038 92.4105 31.737 92.7473 31.5211C93.0871 31.3021 93.4545 31.1926 93.8495 31.1926C94.4955 31.1926 94.9976 31.404 95.3558 31.8267C95.714 32.2494 95.8932 32.8546 95.8932 33.6422V33.9934H92.5268C92.5391 34.48 92.6814 34.8738 92.9539 35.1749C93.2295 35.4729 93.5785 35.6219 94.001 35.6219C94.3011 35.6219 94.5552 35.5611 94.7634 35.4394C94.9716 35.3178 95.1538 35.1566 95.3099 34.9559L95.8289 35.3573C95.4125 35.9929 94.7879 36.3107 93.9551 36.3107ZM93.8495 31.886C93.5066 31.886 93.2188 32.0107 92.9861 32.26C92.7534 32.5064 92.6095 32.853 92.5544 33.3001H95.0435V33.2362C95.019 32.8074 94.9027 32.4759 94.6945 32.2418C94.4863 32.0046 94.2046 31.886 93.8495 31.886Z" fill="white"/>
<path d="M99.1089 35.6219C99.412 35.6219 99.6768 35.5307 99.9034 35.3482C100.13 35.1658 100.255 34.9377 100.28 34.664H101.084C101.068 34.9468 100.97 35.2159 100.79 35.4714C100.609 35.7268 100.367 35.9306 100.064 36.0826C99.7641 36.2347 99.4456 36.3107 99.1089 36.3107C98.4322 36.3107 97.8934 36.0872 97.4923 35.6402C97.0943 35.1901 96.8952 34.5758 96.8952 33.7973V33.6559C96.8952 33.1754 96.984 32.7481 97.1616 32.3741C97.3392 32 97.5933 31.7096 97.924 31.5028C98.2577 31.296 98.6511 31.1926 99.1043 31.1926C99.6615 31.1926 100.124 31.3584 100.491 31.6898C100.862 32.0213 101.059 32.4516 101.084 32.9808H100.28C100.255 32.6614 100.133 32.3999 99.9126 32.1962C99.6952 31.9894 99.4257 31.886 99.1043 31.886C98.6726 31.886 98.3373 32.0411 98.0985 32.3513C97.8627 32.6584 97.7449 33.1039 97.7449 33.6878V33.8475C97.7449 34.4161 97.8627 34.854 98.0985 35.1612C98.3342 35.4683 98.671 35.6219 99.1089 35.6219Z" fill="white"/>
<path d="M103.124 31.8814C103.5 31.4222 103.99 31.1926 104.593 31.1926C105.643 31.1926 106.173 31.7811 106.182 32.9579V36.2195H105.333V32.9534C105.33 32.5976 105.247 32.3345 105.085 32.1642C104.925 31.9939 104.676 31.9088 104.336 31.9088C104.061 31.9088 103.819 31.9818 103.61 32.1277C103.402 32.2737 103.24 32.4653 103.124 32.7025V36.2195H102.274V29.2129H103.124V31.8814Z" fill="white"/>
<path d="M108.493 31.2838L108.521 31.9042C108.9 31.4298 109.396 31.1926 110.009 31.1926C111.059 31.1926 111.589 31.7811 111.598 32.9579V36.2195H110.748V32.9534C110.745 32.5976 110.662 32.3345 110.5 32.1642C110.341 31.9939 110.091 31.9088 109.752 31.9088C109.476 31.9088 109.234 31.9818 109.026 32.1277C108.818 32.2737 108.656 32.4653 108.539 32.7025V36.2195H107.69V31.2838H108.493Z" fill="white"/>
<path d="M112.889 33.706C112.889 33.2225 112.984 32.7877 113.174 32.4014C113.367 32.0152 113.633 31.7172 113.973 31.5074C114.316 31.2975 114.706 31.1926 115.144 31.1926C115.821 31.1926 116.367 31.4253 116.784 31.8905C117.203 32.3558 117.413 32.9747 117.413 33.7471V33.8064C117.413 34.2869 117.32 34.7187 117.133 35.1019C116.949 35.482 116.684 35.7785 116.338 35.9914C115.995 36.2043 115.6 36.3107 115.153 36.3107C114.48 36.3107 113.933 36.0781 113.514 35.6128C113.097 35.1475 112.889 34.5317 112.889 33.7653V33.706ZM113.743 33.8064C113.743 34.3538 113.871 34.7932 114.125 35.1247C114.382 35.4562 114.725 35.6219 115.153 35.6219C115.585 35.6219 115.928 35.4547 116.182 35.1201C116.436 34.7826 116.563 34.3112 116.563 33.706C116.563 33.1647 116.433 32.7268 116.173 32.3923C115.916 32.0548 115.573 31.886 115.144 31.886C114.725 31.886 114.386 32.0517 114.129 32.3832C113.872 32.7147 113.743 33.1891 113.743 33.8064Z" fill="white"/>
<path d="M119.637 36.2195H118.787V29.2129H119.637V36.2195Z" fill="white"/>
<path d="M121.011 33.706C121.011 33.2225 121.106 32.7877 121.295 32.4014C121.488 32.0152 121.755 31.7172 122.095 31.5074C122.437 31.2975 122.828 31.1926 123.266 31.1926C123.942 31.1926 124.489 31.4253 124.905 31.8905C125.325 32.3558 125.534 32.9747 125.534 33.7471V33.8064C125.534 34.2869 125.441 34.7187 125.254 35.1019C125.071 35.482 124.806 35.7785 124.46 35.9914C124.117 36.2043 123.722 36.3107 123.275 36.3107C122.601 36.3107 122.055 36.0781 121.635 35.6128C121.219 35.1475 121.011 34.5317 121.011 33.7653V33.706ZM121.865 33.8064C121.865 34.3538 121.992 34.7932 122.246 35.1247C122.503 35.4562 122.846 35.6219 123.275 35.6219C123.707 35.6219 124.049 35.4547 124.304 35.1201C124.558 34.7826 124.685 34.3112 124.685 33.706C124.685 33.1647 124.555 32.7268 124.294 32.3923C124.037 32.0548 123.694 31.886 123.266 31.886C122.846 31.886 122.508 32.0517 122.251 32.3832C121.994 32.7147 121.865 33.1891 121.865 33.8064Z" fill="white"/>
<path d="M126.633 33.7106C126.633 32.9412 126.812 32.33 127.17 31.8769C127.528 31.4207 128.003 31.1926 128.594 31.1926C129.2 31.1926 129.673 31.4055 130.013 31.8312L130.054 31.2838H130.83V36.1009C130.83 36.7395 130.639 37.2428 130.256 37.6108C129.877 37.9787 129.365 38.1627 128.723 38.1627C128.364 38.1627 128.014 38.0867 127.671 37.9346C127.328 37.7826 127.066 37.5743 126.885 37.3097L127.326 36.8034C127.691 37.2504 128.136 37.4739 128.663 37.4739C129.076 37.4739 129.398 37.3584 129.627 37.1272C129.86 36.8961 129.976 36.5707 129.976 36.1511V35.7268C129.636 36.1161 129.173 36.3107 128.585 36.3107C128.003 36.3107 127.532 36.0781 127.17 35.6128C126.812 35.1475 126.633 34.5134 126.633 33.7106ZM127.487 33.8064C127.487 34.3629 127.602 34.8008 127.832 35.1201C128.061 35.4364 128.383 35.5945 128.796 35.5945C129.332 35.5945 129.725 35.3528 129.976 34.8693V32.6158C129.716 32.1445 129.326 31.9088 128.805 31.9088C128.392 31.9088 128.069 32.0684 127.836 32.3878C127.603 32.7071 127.487 33.1799 127.487 33.8064Z" fill="white"/>
<path d="M133.977 34.9833L135.135 31.2838H136.044L134.046 36.9813C133.737 37.8023 133.246 38.2129 132.572 38.2129L132.411 38.1992L132.094 38.1399V37.4557L132.324 37.4739C132.612 37.4739 132.835 37.4161 132.994 37.3006C133.157 37.185 133.29 36.9737 133.394 36.6665L133.582 36.1647L131.81 31.2838H132.737L133.977 34.9833Z" fill="white"/>
<path d="M136.564 35.777C136.564 35.631 136.607 35.5094 136.692 35.4121C136.781 35.3148 136.913 35.2661 137.087 35.2661C137.262 35.2661 137.394 35.3148 137.482 35.4121C137.574 35.5094 137.62 35.631 137.62 35.777C137.62 35.9169 137.574 36.034 137.482 36.1282C137.394 36.2225 137.262 36.2697 137.087 36.2697C136.913 36.2697 136.781 36.2225 136.692 36.1282C136.607 36.034 136.564 35.9169 136.564 35.777Z" fill="white"/>
<path d="M52.9248 24.2161C57.1545 24.2161 60.0731 22.1743 60.0731 18.8497C60.0731 16.389 57.8961 14.5565 55.232 14.3209V14.0853C57.2232 13.7843 59.0981 12.0304 59.0981 10.0409C59.0981 7.13516 56.4954 5.32889 52.7326 5.32889H44.6201V24.2161H52.9248ZM48.3316 7.95976H51.8674C54.0097 7.95976 55.4278 8.94142 55.4278 10.6299C55.4278 12.3576 53.9273 13.2869 51.4142 13.2869H48.3316V7.95976ZM48.3316 21.5853V15.6822H51.9773C54.6826 15.6822 56.2793 16.69 56.2793 18.6141C56.2793 20.5512 54.7238 21.5853 52.1146 21.5853H48.3316Z" fill="white"/>
<path d="M61.9072 11.0784H65.3989C65.3989 9.08885 66.6038 7.56709 68.7599 7.56709C70.8335 7.56709 72.0695 8.88907 72.0695 10.6037C72.0695 12.0435 71.4652 12.9466 68.9659 15.355L62.0995 21.9387V24.2161H76.0281V21.4151H66.9059V21.1926L71.3315 17.2005C74.7373 14.0199 75.7397 12.4885 75.7397 10.2896C75.7397 7.14825 72.8934 4.85769 68.9521 4.85769C64.8186 4.85769 61.9072 7.50509 61.9072 11.0784Z" fill="white"/>
<path d="M87.5337 24.2161C91.7634 24.2161 94.682 22.1743 94.682 18.8497C94.682 16.389 92.505 14.5565 89.8408 14.3209V14.0853C91.8321 13.7843 93.707 12.0304 93.707 10.0409C93.707 7.13516 91.1042 5.32889 87.3414 5.32889H79.229V24.2161H87.5337ZM82.9405 7.95976H86.4763C88.6186 7.95976 90.0367 8.94142 90.0367 10.6299C90.0367 12.3576 88.5362 13.2869 86.0231 13.2869H82.9405V7.95976ZM82.9405 21.5853V15.6822H86.5861C89.2915 15.6822 90.8881 16.69 90.8881 18.6141C90.8881 20.5512 89.3327 21.5853 86.7235 21.5853H82.9405Z" fill="white"/>
<path d="M96.8905 24.2161H100.296V15.9047C100.296 13.889 101.666 12.7406 103.877 12.7406C104.454 12.7406 105.36 12.8323 105.621 12.9239L106.295 9.80529C105.979 9.72675 104.701 9.6744 104.206 9.6744C102.27 9.6744 100.65 10.7215 100.238 12.1351H100.173V9.74948H96.8905V24.2161Z" fill="white"/>
<path d="M113.395 24.5041C117.885 24.5041 120.787 21.7031 120.787 17.0565C120.787 12.4361 117.872 9.63513 113.395 9.63513C108.932 9.63513 106.003 12.4492 106.003 17.0565C106.003 21.7031 108.89 24.5041 113.395 24.5041ZM113.395 21.6865C111.019 21.6865 109.491 20.0931 109.491 17.0696C109.491 14.0461 111.019 12.4527 113.395 12.4527C115.757 12.4527 117.285 14.0461 117.285 17.0696C117.285 20.0931 115.771 21.6865 113.395 21.6865Z" fill="white"/>
<path d="M126.703 15.7738H126.638V4.21289H123.232V24.2161H126.638V19.19L127.678 18.1987L132.33 24.2161H136.786L130.387 16.0487L136.374 9.91H132.419L126.703 15.7738Z" fill="white"/>
<path d="M147.084 19.9815C146.589 21.0548 145.422 21.9779 143.733 21.9779C141.494 21.9779 140.221 20.4596 140.138 18.0382L139.97 17.868H150.63V16.834C150.63 12.3445 147.894 9.63513 143.609 9.63513C139.256 9.63513 136.382 12.5278 136.382 17.122C136.382 21.7031 139.215 24.5041 143.637 24.5041C147.18 24.5041 149.861 22.7206 150.479 20.142L147.084 19.9815ZM143.595 12.1613C145.642 12.1613 146.987 13.5356 147.056 15.7084H140.152C140.303 13.5618 141.563 12.1613 143.595 12.1613Z" fill="white"/>
<path d="M152.925 24.2161H156.33V15.9047C156.33 13.889 157.7 12.7406 159.911 12.7406C160.488 12.7406 161.394 12.8323 161.655 12.9239L162.329 9.80529C162.013 9.72675 160.735 9.6744 160.241 9.6744C158.304 9.6744 156.684 10.7215 156.272 12.1351H156.207V9.74948H152.925V24.2161Z" fill="white"/>
<path d="M167.354 7.61687V5.86345H168.163V5.35742H165.926V5.86345H166.735V7.61687H167.354Z" fill="white"/>
<path d="M170.925 7.61687V5.36551H170.224L169.734 6.65038H169.705L169.208 5.36551H168.537V7.61687H169.11V6.21845H169.139L169.548 7.41919H169.913L170.323 6.21845H170.352V7.61687H170.925Z" fill="white"/>
</svg>
