<svg width="50" height="51" viewBox="0 0 50 51" fill="none" xmlns="http://www.w3.org/2000/svg">
<path d="M26.5 37.7324V44.7324H35H13.5H22.5V37.7324" stroke="#20457C" stroke-width="3.3" stroke-miterlimit="10" stroke-linecap="round" stroke-linejoin="round"/>
<path d="M45 5.68555L45 34.6855L48 34.6855L48 5.68555L45 5.68555ZM44.5 35.1855L4.5 35.1855L4.5 38.1855L44.5 38.1855L44.5 35.1855ZM4 34.6855L4 5.68555L1 5.68554L0.999999 34.6855L4 34.6855ZM4.5 5.18555L44.5 5.18555L44.5 2.18555L4.5 2.18555L4.5 5.18555ZM4 5.68555C4 5.4094 4.22386 5.18555 4.5 5.18555L4.5 2.18555C2.567 2.18554 1 3.75255 1 5.68554L4 5.68555ZM4.5 35.1855C4.22386 35.1855 4 34.9617 4 34.6855L0.999999 34.6855C0.999999 36.6185 2.567 38.1855 4.5 38.1855L4.5 35.1855ZM45 34.6855C45 34.9617 44.7761 35.1855 44.5 35.1855L44.5 38.1855C46.433 38.1855 48 36.6185 48 34.6855L45 34.6855ZM48 5.68555C48 3.75255 46.433 2.18555 44.5 2.18555L44.5 5.18555C44.7761 5.18555 45 5.40941 45 5.68555L48 5.68555Z" fill="#20457C"/>
<path d="M9.5 23.7324H17.5" stroke="#20457C" stroke-width="3.3" stroke-miterlimit="10" stroke-linecap="round" stroke-linejoin="round"/>
<path d="M9.5 17.7324H17.5" stroke="#20457C" stroke-width="3.3" stroke-miterlimit="10" stroke-linecap="round" stroke-linejoin="round"/>
<path d="M9.5 11.7324H40.5" stroke="#20457C" stroke-width="3.3" stroke-miterlimit="10" stroke-linecap="round" stroke-linejoin="round"/>
<path d="M9.5 29.7324H17.5" stroke="#01C89E" stroke-width="3.3" stroke-miterlimit="10" stroke-linecap="round" stroke-linejoin="round"/>
<path d="M39.5 17.7324H26.5V29.7324H39.5V17.7324Z" fill="white" stroke="#01C89E" stroke-width="3.3" stroke-miterlimit="10" stroke-linecap="round" stroke-linejoin="round"/>
</svg>
