<svg width="42" height="42" viewBox="0 0 42 42" fill="none" xmlns="http://www.w3.org/2000/svg">
<path fill-rule="evenodd" clip-rule="evenodd" d="M29.4068 8.49063C29.4068 7.74504 28.8024 7.14062 28.0568 7.14062C27.3113 7.14062 26.7068 7.74504 26.7068 8.49063V10.253C24.3709 10.6911 22.1936 11.7926 20.4101 13.3967C17.9814 11.2464 14.9801 10.0415 11.7304 10.0415H6.71133C6.35329 10.0415 6.00991 10.1838 5.75673 10.4369C5.50356 10.6901 5.36133 11.0335 5.36133 11.3915V36.31C5.36133 37.0555 5.96574 37.66 6.71133 37.66H8.73573C12.0078 37.66 15.2683 37.2716 18.4488 36.503L20.348 36.044L21.9123 36.4337C25.1817 37.2481 28.5384 37.66 31.9077 37.66H33.9945C34.7401 37.66 35.3445 37.0555 35.3445 36.31V11.3915C35.3445 10.646 34.7401 10.0415 33.9945 10.0415H29.4068V8.49063ZM26.7068 13.0139V16.1501C26.7068 16.8957 27.3113 17.5001 28.0568 17.5001C28.8024 17.5001 29.4068 16.8957 29.4068 16.1501V12.7415H32.6445V34.96H31.9077C28.7584 34.96 25.6209 34.575 22.5649 33.8138L21.7009 33.5985V15.8986L21.7051 15.8943C23.1016 14.4636 24.8403 13.4655 26.7068 13.0139ZM11.7304 12.7415C14.4426 12.7415 16.9629 13.8019 19.0009 15.7702V33.5918L17.8146 33.8785C14.8418 34.5969 11.7942 34.96 8.73573 34.96H8.06133V12.7415H11.7304Z" fill="url(#paint0_linear)"/>
<defs>
<linearGradient id="paint0_linear" x1="-4.59404" y1="-0.776045" x2="-3.60678" y2="46.3314" gradientUnits="userSpaceOnUse">
<stop stop-color="#00DFAD"/>
<stop offset="1" stop-color="#01B48C"/>
</linearGradient>
</defs>
</svg>
