<svg width="25" height="26" viewBox="0 0 25 26" fill="none" xmlns="http://www.w3.org/2000/svg">
<path d="M12.8007 0.965332C6.26725 0.965332 0.970703 6.35346 0.970703 13.0001C0.970703 19.6467 6.26725 25.0348 12.8007 25.0348C19.3341 25.0348 24.6307 19.6467 24.6307 13.0001C24.6307 6.35346 19.3341 0.965332 12.8007 0.965332Z" fill="#01BD95"/>
<path d="M17.624 13.7074L11.224 17.8739C11.0945 17.9581 10.9472 18.0005 10.8 18.0005C10.6666 18.0005 10.533 17.9659 10.4121 17.8959C10.1578 17.749 10 17.4703 10 17.1672V8.83417C10 8.53106 10.1578 8.25232 10.4121 8.10545C10.6664 7.95775 10.9773 7.9667 11.224 8.12743L17.624 12.2939C17.8578 12.4465 18 12.7135 18 13.0007C18 13.2879 17.8578 13.5549 17.624 13.7074Z" fill="white"/>
</svg>
