<svg width="24" height="18" viewBox="0 0 24 18" fill="none" xmlns="http://www.w3.org/2000/svg">
<path d="M9.52244 12.1071V5.37054L16.0046 8.75893L9.52244 12.1071ZM12.0001 0.5625C6.95101 0.5625 3.6028 0.803571 3.6028 0.803571C3.13405 0.857142 2.1028 0.857142 1.19209 1.82143C1.19209 1.82143 0.455479 2.54464 0.241193 4.20536C-0.0132714 6.14732 0.000121477 8.08929 0.000121477 8.08929V9.91072C0.000121477 9.91072 -0.0132714 11.8527 0.241193 13.7946C0.455479 15.442 1.19209 16.1786 1.19209 16.1786C2.1028 17.1295 3.30816 17.1027 3.84387 17.1964C3.84387 17.1964 5.75905 17.3839 12.0001 17.4375C17.0492 17.4375 20.3974 17.183 20.3974 17.183C20.8662 17.1295 21.8974 17.1295 22.8082 16.1786C22.8082 16.1786 23.5448 15.442 23.7591 13.7946C24.0135 11.8527 24.0001 9.91072 24.0001 9.91072V8.08929C24.0001 8.08929 24.0135 6.14732 23.7591 4.20536C23.5448 2.54464 22.8082 1.82143 22.8082 1.82143C21.8974 0.857142 20.8662 0.857142 20.3974 0.803571C20.3974 0.803571 17.0492 0.5625 12.0001 0.5625Z" fill="#FF4949"/>
</svg>
