<svg width="25" height="18" viewBox="0 0 25 18" fill="none" xmlns="http://www.w3.org/2000/svg">
<path d="M10.0233 12.0357V5.29911L16.5054 8.6875L10.0233 12.0357ZM12.501 0.491071C7.45187 0.491071 4.10366 0.732142 4.10366 0.732142C3.63491 0.785714 2.60366 0.785714 1.69294 1.75C1.69294 1.75 0.956334 2.47321 0.742048 4.13393C0.487584 6.07589 0.500977 8.01786 0.500977 8.01786V9.83929C0.500977 9.83929 0.487584 11.7812 0.742048 13.7232C0.956334 15.3705 1.69294 16.1071 1.69294 16.1071C2.60366 17.058 3.80901 17.0312 4.34473 17.125C4.34473 17.125 6.25991 17.3125 12.501 17.3661C17.5501 17.3661 20.8983 17.1116 20.8983 17.1116C21.367 17.058 22.3983 17.058 23.309 16.1071C23.309 16.1071 24.0456 15.3705 24.2599 13.7232C24.5144 11.7812 24.501 9.83929 24.501 9.83929V8.01786C24.501 8.01786 24.5144 6.07589 24.2599 4.13393C24.0456 2.47321 23.309 1.75 23.309 1.75C22.3983 0.785714 21.367 0.785714 20.8983 0.732142C20.8983 0.732142 17.5501 0.491071 12.501 0.491071Z" fill="white"/>
</svg>
