<svg width="49" height="49" viewBox="0 0 49 49" fill="none" xmlns="http://www.w3.org/2000/svg">
<path d="M48.358 0.927734H0.563477V48.9277H48.358V0.927734Z" fill="#637786"/>
<path d="M23.6055 30.3919L23.6055 19.5371L0.356758 19.5371L0.356758 30.3919L23.6055 30.3919Z" fill="white"/>
<path d="M48.3548 19.4512V30.3059H23.6094V19.4512H48.3548Z" fill="url(#paint0_linear)"/>
<path d="M10.6367 19.5492C10.6367 15.9641 13.5303 13.0762 17.1224 13.0762C20.7145 13.0762 23.6081 15.9641 23.6081 19.5492" fill="url(#paint1_linear)"/>
<path d="M36.5808 30.207C36.5808 33.7921 33.6871 36.6801 30.0951 36.6801C26.503 36.6801 23.6094 33.7921 23.6094 30.207" fill="white"/>
<defs>
<linearGradient id="paint0_linear" x1="24.0039" y1="24.8786" x2="47.7442" y2="24.8786" gradientUnits="userSpaceOnUse">
<stop stop-color="#00F2D5"/>
<stop offset="0.953125" stop-color="#01BD95"/>
</linearGradient>
<linearGradient id="paint1_linear" x1="10.8435" y1="16.3127" x2="23.288" y2="16.3127" gradientUnits="userSpaceOnUse">
<stop stop-color="#00F2D5"/>
<stop offset="0.953125" stop-color="#01BD95"/>
</linearGradient>
</defs>
</svg>
