<svg width="48" height="49" viewBox="0 0 48 49" fill="none" xmlns="http://www.w3.org/2000/svg">
<path d="M24 48.7461C37.2548 48.7461 48 38.0009 48 24.7461C48 11.4913 37.2548 0.746094 24 0.746094C10.7452 0.746094 0 11.4913 0 24.7461C0 38.0009 10.7452 48.7461 24 48.7461Z" fill="#637786"/>
<path d="M24 0.746094C37.3 0.746094 48 11.4461 48 24.7461C48 38.0461 37.3 48.7461 24 48.7461" fill="url(#paint0_linear)"/>
<path d="M23.9998 35.9469C30.1854 35.9469 35.1998 30.9325 35.1998 24.7469C35.1998 18.5613 30.1854 13.5469 23.9998 13.5469C17.8142 13.5469 12.7998 18.5613 12.7998 24.7469C12.7998 30.9325 17.8142 35.9469 23.9998 35.9469Z" fill="white"/>
<path d="M24 13.5469C30.2 13.5469 35.2 18.5469 35.2 24.7469C35.2 30.9469 30.2 35.9469 24 35.9469" fill="white"/>
<path d="M23.9996 32.1477C28.0865 32.1477 31.3996 28.8346 31.3996 24.7477C31.3996 20.6608 28.0865 17.3477 23.9996 17.3477C19.9127 17.3477 16.5996 20.6608 16.5996 24.7477C16.5996 28.8346 19.9127 32.1477 23.9996 32.1477Z" fill="#637786"/>
<path d="M23.9996 32.1477C19.8996 32.1477 16.5996 28.8477 16.5996 24.7477C16.5996 20.6477 19.8996 17.3477 23.9996 17.3477" fill="url(#paint1_linear)"/>
<defs>
<linearGradient id="paint0_linear" x1="24.3826" y1="24.7461" x2="47.4078" y2="24.7461" gradientUnits="userSpaceOnUse">
<stop stop-color="#00F2D5"/>
<stop offset="0.953125" stop-color="#01BD95"/>
</linearGradient>
<linearGradient id="paint1_linear" x1="16.7176" y1="24.7476" x2="23.817" y2="24.7476" gradientUnits="userSpaceOnUse">
<stop stop-color="#00F2D5"/>
<stop offset="0.953125" stop-color="#01BD95"/>
</linearGradient>
</defs>
</svg>
