<svg width="49" height="49" viewBox="0 0 49 49" fill="none" xmlns="http://www.w3.org/2000/svg">
<path d="M48.6074 0.441406H0.607422V7.78024H48.6074V0.441406Z" fill="url(#paint0_linear)"/>
<path d="M48.6074 13.9336H0.607422V21.2724H48.6074V13.9336Z" fill="url(#paint1_linear)"/>
<path d="M48.6074 27.3223H0.607422V34.6611H48.6074V27.3223Z" fill="url(#paint2_linear)"/>
<path d="M48.6074 40.7109H0.607422V48.0498H48.6074V40.7109Z" fill="url(#paint3_linear)"/>
<path d="M48.6075 48.2461C35.0949 48.2461 24.2041 37.5353 24.2041 24.2461C24.2041 10.9568 35.0949 0.246094 48.6075 0.246094" fill="#637786"/>
<path d="M8.57381 0.441406H0.607422V7.78024H8.57381V0.441406Z" fill="#637786"/>
<path d="M8.57381 13.9336H0.607422V21.2724H8.57381V13.9336Z" fill="#637786"/>
<path d="M8.57381 27.3223H0.607422V34.6611H8.57381V27.3223Z" fill="#637786"/>
<path d="M8.57381 40.7109H0.607422V48.0498H8.57381V40.7109Z" fill="#637786"/>
<defs>
<linearGradient id="paint0_linear" x1="1.37265" y1="4.11082" x2="47.4231" y2="4.11082" gradientUnits="userSpaceOnUse">
<stop stop-color="#00F2D5"/>
<stop offset="0.953125" stop-color="#01BD95"/>
</linearGradient>
<linearGradient id="paint1_linear" x1="1.37265" y1="17.603" x2="47.4231" y2="17.603" gradientUnits="userSpaceOnUse">
<stop stop-color="#00F2D5"/>
<stop offset="0.953125" stop-color="#01BD95"/>
</linearGradient>
<linearGradient id="paint2_linear" x1="1.37265" y1="30.9917" x2="47.4231" y2="30.9917" gradientUnits="userSpaceOnUse">
<stop stop-color="#00F2D5"/>
<stop offset="0.953125" stop-color="#01BD95"/>
</linearGradient>
<linearGradient id="paint3_linear" x1="1.37265" y1="44.3803" x2="47.4231" y2="44.3804" gradientUnits="userSpaceOnUse">
<stop stop-color="#00F2D5"/>
<stop offset="0.953125" stop-color="#01BD95"/>
</linearGradient>
</defs>
</svg>
