<svg width="49" height="49" viewBox="0 0 49 49" fill="none" xmlns="http://www.w3.org/2000/svg">
<mask id="mask0" mask-type="alpha" maskUnits="userSpaceOnUse" x="0" y="0" width="49" height="49">
<path d="M24.0146 48.7461C37.2695 48.7461 48.0146 38.0009 48.0146 24.7461C48.0146 11.4913 37.2695 0.746094 24.0146 0.746094C10.7598 0.746094 0.0146484 11.4913 0.0146484 24.7461C0.0146484 38.0009 10.7598 48.7461 24.0146 48.7461Z" fill="#63636E"/>
</mask>
<g mask="url(#mask0)">
<path d="M24.0146 48.7461C37.2695 48.7461 48.0146 38.0009 48.0146 24.7461C48.0146 11.4913 37.2695 0.746094 24.0146 0.746094C10.7598 0.746094 0.0146484 11.4913 0.0146484 24.7461C0.0146484 38.0009 10.7598 48.7461 24.0146 48.7461Z" fill="#637786"/>
<path d="M51.5146 -1.15234H30.0146V48.8477H51.5146V-1.15234Z" fill="url(#paint0_linear)"/>
<path d="M15.3143 24.2461H9.11426V38.7461H15.3143V24.2461Z" fill="url(#paint1_linear)"/>
<path d="M24.7146 13.3477H18.5146V48.3477H24.7146V13.3477Z" fill="url(#paint2_linear)"/>
<path d="M41.0145 18.6484H34.8145V48.5484H41.0145V18.6484Z" fill="#63636E"/>
</g>
<defs>
<linearGradient id="paint0_linear" x1="30.3574" y1="23.8476" x2="50.9842" y2="23.8476" gradientUnits="userSpaceOnUse">
<stop stop-color="#00F2D5"/>
<stop offset="0.953125" stop-color="#01BD95"/>
</linearGradient>
<linearGradient id="paint1_linear" x1="9.2131" y1="31.4961" x2="15.1613" y2="31.4961" gradientUnits="userSpaceOnUse">
<stop stop-color="#00F2D5"/>
<stop offset="0.953125" stop-color="#01BD95"/>
</linearGradient>
<linearGradient id="paint2_linear" x1="18.6135" y1="30.8476" x2="24.5617" y2="30.8476" gradientUnits="userSpaceOnUse">
<stop stop-color="#00F2D5"/>
<stop offset="0.953125" stop-color="#01BD95"/>
</linearGradient>
</defs>
</svg>
