<svg width="49" height="49" viewBox="0 0 49 49" fill="none" xmlns="http://www.w3.org/2000/svg">
<path d="M31.9824 25.432C38.8131 25.432 44.3505 19.7673 44.3505 12.7795C44.3505 5.79168 38.8131 0.126953 31.9824 0.126953C25.1516 0.126953 19.6143 5.79168 19.6143 12.7795C19.6143 19.7673 25.1516 25.432 31.9824 25.432Z" fill="#637786"/>
<path d="M36.1055 12.1777H0.473633V35.7757H36.1055V12.1777Z" fill="url(#paint0_linear)"/>
<path d="M48.4766 24.5293H12.8447V48.1272H48.4766V24.5293Z" fill="#637786"/>
<path d="M31.9823 42.4029C35.0182 42.4029 37.4792 39.8853 37.4792 36.7796C37.4792 33.6739 35.0182 31.1562 31.9823 31.1562C28.9464 31.1562 26.4854 33.6739 26.4854 36.7796C26.4854 39.8853 28.9464 42.4029 31.9823 42.4029Z" fill="url(#paint1_linear)"/>
<path d="M0.527988 21.0098L37.9268 21.0098L37.9268 16.491L0.527988 16.491L0.527988 21.0098Z" fill="#637786"/>
<defs>
<linearGradient id="paint0_linear" x1="1.04169" y1="23.9767" x2="35.2264" y2="23.9767" gradientUnits="userSpaceOnUse">
<stop stop-color="#00F2D5"/>
<stop offset="0.953125" stop-color="#01BD95"/>
</linearGradient>
<linearGradient id="paint1_linear" x1="26.6606" y1="36.7796" x2="37.208" y2="36.7796" gradientUnits="userSpaceOnUse">
<stop stop-color="#00F2D5"/>
<stop offset="0.953125" stop-color="#01BD95"/>
</linearGradient>
</defs>
</svg>
