<svg width="49" height="49" viewBox="0 0 49 49" fill="none" xmlns="http://www.w3.org/2000/svg">
<path d="M0.330078 24.8923L0.330078 48.8477H48.2849V24.8923L0.330078 24.8923Z" fill="#637786"/>
<path d="M0.285156 24.803H9.87613C9.87613 24.9032 9.87613 24.9033 9.87613 25.0035C9.87613 29.0128 13.0731 32.2202 17.0694 32.2202C21.0656 32.2202 24.2626 29.0128 24.2626 25.0035C24.2626 24.9033 24.2626 24.9032 24.2626 24.803H48.24V0.847656H0.285156V24.803Z" fill="url(#paint0_linear)"/>
<path d="M31.4549 32.2185C35.4277 32.2185 38.6482 28.9875 38.6482 25.0018C38.6482 21.0162 35.4277 17.7852 31.4549 17.7852C27.4822 17.7852 24.2617 21.0162 24.2617 25.0018C24.2617 28.9875 27.4822 32.2185 31.4549 32.2185Z" fill="#637786"/>
<defs>
<linearGradient id="paint0_linear" x1="1.04967" y1="16.5339" x2="47.0568" y2="16.5339" gradientUnits="userSpaceOnUse">
<stop stop-color="#00F2D5"/>
<stop offset="0.953125" stop-color="#01BD95"/>
</linearGradient>
</defs>
</svg>
