<svg width="49" height="49" viewBox="0 0 49 49" fill="none" xmlns="http://www.w3.org/2000/svg">
<mask id="mask0" mask-type="alpha" maskUnits="userSpaceOnUse" x="0" y="0" width="49" height="49">
<path d="M48.7607 48.1973L48.7607 0.197266L0.760746 0.197266L0.760746 48.1973L48.7607 48.1973Z" fill="#63636E"/>
</mask>
<g mask="url(#mask0)">
<path d="M39.2607 18.6133C33.4607 18.6133 28.1607 20.8663 24.1607 24.4908C20.1607 20.8663 14.8607 18.6133 9.06074 18.6133C-3.23926 18.6133 -13.2393 28.5072 -13.2393 40.6541H16.9607H31.2607H61.4607C61.4607 28.5072 51.5607 18.6133 39.2607 18.6133Z" fill="#637686"/>
<path d="M49.7607 48.1982V29.5859H0.760742V48.1982H49.7607Z" fill="url(#paint0_linear)"/>
<path d="M24.36 13.6175C27.8946 13.6175 30.76 10.7667 30.76 7.25016C30.76 3.73357 27.8946 0.882812 24.36 0.882812C20.8253 0.882812 17.96 3.73357 17.96 7.25016C17.96 10.7667 20.8253 13.6175 24.36 13.6175Z" fill="url(#paint1_linear)"/>
<path d="M48.7607 48.1961V40.3594L0.760746 40.3594V48.1961L48.7607 48.1961Z" fill="#637686"/>
</g>
<defs>
<linearGradient id="paint0_linear" x1="1.54192" y1="38.892" x2="48.5517" y2="38.8921" gradientUnits="userSpaceOnUse">
<stop stop-color="#00F2D5"/>
<stop offset="0.953125" stop-color="#01BD95"/>
</linearGradient>
<linearGradient id="paint1_linear" x1="18.164" y1="7.25015" x2="30.4441" y2="7.25015" gradientUnits="userSpaceOnUse">
<stop stop-color="#00F2D5"/>
<stop offset="0.953125" stop-color="#01BD95"/>
</linearGradient>
</defs>
</svg>
