<svg width="662" height="661" viewBox="0 0 662 661" fill="none" xmlns="http://www.w3.org/2000/svg">
<path fill-rule="evenodd" clip-rule="evenodd" d="M331 343.968L299.536 660.501L328.546 343.734L237.747 648.592L326.18 343.039L179.327 625.205L323.989 341.91L126.389 591.184L322.051 340.385L80.8469 547.759L320.436 338.522L44.3456 496.5L319.204 336.387L18.2047 439.259L318.397 334.057L3.3691 378.106L318.047 331.617L0.374911 315.25L318.164 329.154L9.33037 252.964L318.745 326.759L29.9118 193.498L319.769 324.516L61.3754 139.001L321.199 322.508L102.584 91.444L322.984 320.806L152.048 52.5451L325.058 319.473L207.98 23.7102L327.346 318.557L268.358 5.9816L329.767 318.091L331 0L332.233 318.091L393.642 5.9816L334.654 318.557L454.02 23.7102L336.942 319.473L509.952 52.5451L339.016 320.806L559.416 91.444L340.801 322.508L600.625 139.001L342.231 324.516L632.088 193.498L343.255 326.759L652.67 252.964L343.836 329.154L661.625 315.25L343.953 331.617L658.631 378.106L343.603 334.057L643.795 439.259L342.796 336.387L617.654 496.5L341.564 338.522L581.153 547.759L339.949 340.385L535.611 591.184L338.011 341.91L482.673 625.205L335.82 343.039L424.253 648.592L333.454 343.734L362.464 660.501L331 343.968Z" fill="#F2F2F2"/>
</svg>
