<svg width="49" height="49" viewBox="0 0 49 49" fill="none" xmlns="http://www.w3.org/2000/svg">
<path d="M24.0547 48.4863C37.3095 48.4863 48.0547 37.7412 48.0547 24.4863C48.0547 11.2315 37.3095 0.486328 24.0547 0.486328C10.7999 0.486328 0.0546875 11.2315 0.0546875 24.4863C0.0546875 37.7412 10.7999 48.4863 24.0547 48.4863Z" fill="#637786"/>
<path d="M24.0547 0.486328C37.3547 0.486328 48.0547 11.1863 48.0547 24.4863C48.0547 37.7863 37.3547 48.4863 24.0547 48.4863" fill="url(#paint0_linear)"/>
<path d="M24.0555 35.6861C30.2411 35.6861 35.2555 30.6717 35.2555 24.4861C35.2555 18.3005 30.2411 13.2861 24.0555 13.2861C17.8699 13.2861 12.8555 18.3005 12.8555 24.4861C12.8555 30.6717 17.8699 35.6861 24.0555 35.6861Z" fill="white"/>
<path d="M24.0547 13.2861C30.2547 13.2861 35.2547 18.2861 35.2547 24.4861C35.2547 30.6861 30.2547 35.6861 24.0547 35.6861" fill="white"/>
<path d="M24.0562 31.8879C28.1432 31.8879 31.4562 28.5748 31.4562 24.4879C31.4562 20.401 28.1432 17.0879 24.0562 17.0879C19.9693 17.0879 16.6562 20.401 16.6562 24.4879C16.6562 28.5748 19.9693 31.8879 24.0562 31.8879Z" fill="#637786"/>
<path d="M24.0562 31.8879C19.9562 31.8879 16.6562 28.5879 16.6562 24.4879C16.6562 20.3879 19.9562 17.0879 24.0562 17.0879" fill="url(#paint1_linear)"/>
<defs>
<linearGradient id="paint0_linear" x1="24.4373" y1="24.4863" x2="47.4625" y2="24.4863" gradientUnits="userSpaceOnUse">
<stop stop-color="#00F2D5"/>
<stop offset="0.953125" stop-color="#01BD95"/>
</linearGradient>
<linearGradient id="paint1_linear" x1="16.7742" y1="24.4879" x2="23.8737" y2="24.4879" gradientUnits="userSpaceOnUse">
<stop stop-color="#00F2D5"/>
<stop offset="0.953125" stop-color="#01BD95"/>
</linearGradient>
</defs>
</svg>
