<svg width="49" height="49" viewBox="0 0 49 49" fill="none" xmlns="http://www.w3.org/2000/svg">
<mask id="mask0" mask-type="alpha" maskUnits="userSpaceOnUse" x="0" y="0" width="49" height="49">
<rect x="0.998047" y="0.328125" width="48" height="48" fill="#C4C4C4"/>
</mask>
<g mask="url(#mask0)">
<path d="M0.998047 0.328125C13.798 0.328125 24.098 11.1281 24.098 24.5281C24.098 37.9281 13.798 48.7281 0.998047 48.7281" fill="#637786"/>
<path d="M32.298 14.9286C37.898 9.2286 47.198 9.2286 52.998 15.0286C58.698 20.7286 58.798 30.0286 52.998 35.7286C47.398 41.4286 38.098 41.4286 32.298 35.6286C30.498 33.9286 29.298 31.7286 28.598 29.5286H0.998047V21.2286H7.79804V14.9286H17.298V21.2286H20.498H28.598C29.298 18.9286 30.498 16.7286 32.298 14.9286Z" fill="#09ECBC"/>
<path d="M50.3659 27.2201C51.4223 23.1579 48.9424 18.9971 44.8267 17.9268C40.7111 16.8564 36.5182 19.2817 35.4617 23.3439C34.4053 27.4061 36.8852 31.5669 41.0009 32.6373C45.1165 33.7077 49.3094 31.2823 50.3659 27.2201Z" fill="#637786"/>
<path d="M28.6865 31.6195L28.6865 19.0195L24.1865 19.0195L24.1865 31.6195L28.6865 31.6195Z" fill="#637786"/>
</g>
</svg>
