<svg width="49" height="49" viewBox="0 0 49 49" fill="none" xmlns="http://www.w3.org/2000/svg">
<path d="M48.3005 0.828125H0.398438V48.8281H48.3005V0.828125Z" fill="#637786"/>
<path d="M35.9579 13.5879H12.9375V36.6554H35.9579V13.5879Z" fill="white"/>
<path d="M5.88415 48.7302C8.91383 48.7302 11.3699 46.2691 11.3699 43.2333C11.3699 40.1974 8.91383 37.7363 5.88415 37.7363C2.85447 37.7363 0.398438 40.1974 0.398438 43.2333C0.398438 46.2691 2.85447 48.7302 5.88415 48.7302Z" fill="url(#paint0_linear)"/>
<path d="M42.7172 48.7302C45.7468 48.7302 48.2029 46.2691 48.2029 43.2333C48.2029 40.1974 45.7468 37.7363 42.7172 37.7363C39.6875 37.7363 37.2314 40.1974 37.2314 43.2333C37.2314 46.2691 39.6875 48.7302 42.7172 48.7302Z" fill="url(#paint1_linear)"/>
<path d="M5.88415 11.9197C8.91383 11.9197 11.3699 9.45859 11.3699 6.42272C11.3699 3.38685 8.91383 0.925781 5.88415 0.925781C2.85447 0.925781 0.398438 3.38685 0.398438 6.42272C0.398438 9.45859 2.85447 11.9197 5.88415 11.9197Z" fill="url(#paint2_linear)"/>
<path d="M42.9125 11.9197C45.9422 11.9197 48.3982 9.45859 48.3982 6.42272C48.3982 3.38685 45.9422 0.925781 42.9125 0.925781C39.8828 0.925781 37.4268 3.38685 37.4268 6.42272C37.4268 9.45859 39.8828 11.9197 42.9125 11.9197Z" fill="url(#paint3_linear)"/>
<defs>
<linearGradient id="paint0_linear" x1="0.573348" y1="43.2333" x2="11.0992" y2="43.2333" gradientUnits="userSpaceOnUse">
<stop stop-color="#0BF5C4"/>
<stop offset="1" stop-color="#03C89E"/>
</linearGradient>
<linearGradient id="paint1_linear" x1="37.4064" y1="43.2333" x2="47.9322" y2="43.2333" gradientUnits="userSpaceOnUse">
<stop stop-color="#0BF5C4"/>
<stop offset="1" stop-color="#03C89E"/>
</linearGradient>
<linearGradient id="paint2_linear" x1="0.573348" y1="6.42271" x2="11.0992" y2="6.42271" gradientUnits="userSpaceOnUse">
<stop stop-color="#0BF5C4"/>
<stop offset="1" stop-color="#03C89E"/>
</linearGradient>
<linearGradient id="paint3_linear" x1="37.6017" y1="6.42271" x2="48.1275" y2="6.42271" gradientUnits="userSpaceOnUse">
<stop stop-color="#0BF5C4"/>
<stop offset="1" stop-color="#03C89E"/>
</linearGradient>
</defs>
</svg>
