<svg width="48" height="49" viewBox="0 0 48 49" fill="none" xmlns="http://www.w3.org/2000/svg">
<path d="M47.5 37.6615C47.7 37.5635 47.8 37.5635 48 37.4656V48.8288H0V32.1758H29.3C29.8 33.0574 30.5 33.8411 31.3 34.5268C35.6 38.935 42.1 39.9146 47.5 37.6615Z" fill="url(#paint0_linear)"/>
<path d="M48 28.018V38.2664C47.9 38.3631 47.7 38.4597 47.5 38.4597C42.1 40.6834 35.6 39.7166 31.2 35.4626C30.4 34.6891 29.8 33.9157 29.2 33.1422H0V25.3164H34.9C35 28.9903 38.1 31.5953 41.9 31.5953C44.2 31.5953 46.3 30.5318 47.6 28.8882C47.7 28.5014 47.8 28.3081 48 28.018Z" fill="#637786"/>
<path d="M48 0.828125H0V24.8281H48V0.828125Z" fill="#637786"/>
<path d="M48.0002 29.168V13.5745C47.9002 13.4758 47.7002 13.4758 47.6002 13.3771C42.2002 10.9098 35.6002 11.8967 31.2002 16.2392L29.5002 18.4104H17V13.3281H9V18.4104H0L0.000151634 25.3174H34.8002C34.9002 29.1664 38.0002 31.6426 41.8002 31.6426C44.2002 31.6426 45.6001 31.4033 46.9001 29.7255C47.1001 29.5281 47.9002 29.3653 48.0002 29.168Z" fill="#07E1B3"/>
<path d="M47.9998 22.1831V29.0402C47.8998 29.2361 47.6998 29.53 47.4998 29.7259C46.1998 31.3912 44.1998 32.4688 41.7998 32.4688C37.9998 32.4688 34.8998 29.53 34.7998 25.7096C34.7998 25.6117 34.7998 25.6117 34.7998 25.5137C34.7998 21.6933 37.8998 18.5586 41.7998 18.5586C44.0998 18.5586 46.1998 19.6361 47.4998 21.3994C47.6998 21.6933 47.7998 21.9872 47.9998 22.1831Z" fill="white"/>
<defs>
<linearGradient id="paint0_linear" x1="0.765231" y1="40.5023" x2="46.8157" y2="40.5023" gradientUnits="userSpaceOnUse">
<stop stop-color="#0BF5C4"/>
<stop offset="1" stop-color="#03C89E"/>
</linearGradient>
</defs>
</svg>
