<svg width="48" height="48" viewBox="0 0 48 48" fill="none" xmlns="http://www.w3.org/2000/svg">
<path d="M48 40.7451H0V47.9998H48V40.7451Z" fill="url(#paint0_linear)"/>
<mask id="mask0" mask-type="alpha" maskUnits="userSpaceOnUse" x="5" y="0" width="37" height="36">
<path d="M23.8519 35.9751C33.7452 35.9751 41.7653 27.9218 41.7653 17.9876C41.7653 8.05331 33.7452 0 23.8519 0C13.9586 0 5.93848 8.05331 5.93848 17.9876C5.93848 27.9218 13.9586 35.9751 23.8519 35.9751Z" fill="#C4C4C4"/>
</mask>
<g mask="url(#mask0)">
<path d="M23.1602 35.8763H41.7663V0.000488281H23.1602V35.8763Z" fill="#1F2832"/>
<path d="M23.7533 35.8756V28.7203C23.8523 28.7203 23.8523 28.7203 23.9512 28.7203C26.9203 28.7203 29.2956 26.3352 29.2956 23.3539C29.2956 20.3725 26.9203 17.9874 23.9512 17.9874C23.8523 17.9874 23.8523 17.9874 23.7533 17.9874V-0.695801H5.24609V35.975L23.7533 35.8756Z" fill="url(#paint1_linear)"/>
<path d="M23.8521 7.15576C20.8831 7.15576 18.5078 9.54085 18.5078 12.5222C18.5078 15.5036 20.8831 17.8887 23.8521 17.8887C26.8212 17.8887 29.1965 15.5036 29.1965 12.5222C29.1965 9.54085 26.8212 7.15576 23.8521 7.15576Z" fill="#1F2832"/>
</g>
<defs>
<linearGradient id="paint0_linear" x1="0.765231" y1="44.3725" x2="46.8157" y2="44.3725" gradientUnits="userSpaceOnUse">
<stop stop-color="#00F2D5"/>
<stop offset="0.953125" stop-color="#01BD95"/>
</linearGradient>
<linearGradient id="paint1_linear" x1="5.6295" y1="17.6396" x2="28.7022" y2="17.6396" gradientUnits="userSpaceOnUse">
<stop stop-color="#00F2D5"/>
<stop offset="0.953125" stop-color="#01BD95"/>
</linearGradient>
</defs>
</svg>
