<svg width="49" height="48" viewBox="0 0 49 48" fill="none" xmlns="http://www.w3.org/2000/svg">
<mask id="mask0" mask-type="alpha" maskUnits="userSpaceOnUse" x="0" y="0" width="49" height="48">
<circle cx="24.5" cy="24" r="24" fill="#C4C4C4"/>
</mask>
<g mask="url(#mask0)">
<path d="M23.5 48L48.5 48L48.5 3.8147e-06L23.5 1.62913e-06L23.5 48Z" fill="#1F2832"/>
<path d="M24.3229 47.9996L24.3229 38.4996C24.4225 38.4996 24.4225 38.4996 24.5222 38.4996C28.5094 38.4996 31.6992 35.2996 31.6992 31.2996C31.6992 27.2996 28.5094 24.0996 24.5222 24.0996C24.4225 24.0996 24.4225 24.0996 24.3229 24.0996L24.3229 -0.900391L-0.500778 -0.900393L-0.500782 48.0996L24.3229 48.0996L24.3229 47.9996Z" fill="#00D7B4"/>
<path d="M24.4992 9.6C20.5228 9.6 17.2992 12.8235 17.2992 16.8C17.2992 20.7764 20.5228 24 24.4992 24C28.4757 24 31.6992 20.7764 31.6992 16.8C31.6992 12.8235 28.4757 9.6 24.4992 9.6Z" fill="#1F2832"/>
<path d="M-2.5 23L11.5 23L11.5 29L-2.5 29L-2.5 23Z" fill="white"/>
<path d="M37.5 23L51.5 23V29L37.5 29V23Z" fill="white"/>
</g>
</svg>
