<svg width="49" height="48" viewBox="0 0 49 48" fill="none" xmlns="http://www.w3.org/2000/svg">
<path d="M48.4992 24.0834V22.5821C47.6457 9.39218 36.337 -0.902399 22.7879 0.0627179C11.1591 0.9206 1.66402 10.3573 0.597155 21.9387C-0.576392 35.2359 9.02536 46.4956 21.6143 47.9969H24.6015C37.8306 48.2113 48.6059 37.3806 48.4992 24.0834Z" fill="#1F2832"/>
<path d="M15.5352 21.724V12.3945H26.7372V21.724V28.4798V37.8093H15.5352V28.4798V21.724Z" fill="#00D7B4"/>
<path d="M33.5626 20.33C31.4289 20.33 29.6152 18.507 29.6152 16.3622C29.6152 14.2175 31.4289 12.3945 33.5626 12.3945C35.6963 12.3945 37.51 14.2175 37.51 16.3622C37.51 18.507 35.803 20.33 33.5626 20.33Z" fill="white"/>
</svg>
