<svg width="49" height="48" viewBox="0 0 49 48" fill="none" xmlns="http://www.w3.org/2000/svg">
<g clip-path="url(#clip0)">
<path d="M24.1493 0H0.5V48H24.1493V0Z" fill="#1F2832"/>
<path d="M48.5005 0H24.25V48H48.5005V0Z" fill="#00D7B4"/>
<path d="M23.7478 47.8999C28.2306 47.8999 31.8647 44.3331 31.8647 39.9331C31.8647 35.5332 28.2306 31.9663 23.7478 31.9663C19.2649 31.9663 15.6309 35.5332 15.6309 39.9331C15.6309 44.3331 19.2649 47.8999 23.7478 47.8999Z" fill="#1F2832"/>
<path d="M23.7478 15.9336C28.2306 15.9336 31.8647 12.3668 31.8647 7.96681C31.8647 3.56686 28.2306 0 23.7478 0C19.2649 0 15.6309 3.56686 15.6309 7.96681C15.6309 12.3668 19.2649 15.9336 23.7478 15.9336Z" fill="#1F2832"/>
<path d="M23.7478 31.9672C28.2306 31.9672 31.8647 28.3558 31.8647 23.9009C31.8647 19.4459 28.2306 15.8345 23.7478 15.8345C19.2649 15.8345 15.6309 19.4459 15.6309 23.9009C15.6309 28.3558 19.2649 31.9672 23.7478 31.9672Z" fill="white"/>
</g>
<defs>
<clipPath id="clip0">
<rect x="0.5" width="48.0002" height="48" fill="white"/>
</clipPath>
</defs>
</svg>
