<svg width="49" height="49" viewBox="0 0 49 49" fill="none" xmlns="http://www.w3.org/2000/svg">
<path d="M48.6992 0.693359H0.699219V48.3938H48.6992V0.693359Z" fill="url(#paint0_linear)"/>
<path d="M48.6992 7.36523H0.699219V48.6923H48.6992V7.36523Z" fill="#637686"/>
<path d="M42.7882 12.3438H7.01367V34.9492H42.7882V12.3438Z" fill="white"/>
<path d="M24.9491 30.1704C28.5465 30.1704 31.4627 27.2724 31.4627 23.6975C31.4627 20.1226 28.5465 17.2246 24.9491 17.2246C21.3518 17.2246 18.4355 20.1226 18.4355 23.6975C18.4355 27.2724 21.3518 30.1704 24.9491 30.1704Z" fill="#637686"/>
<path d="M42.7882 39.4297H7.01367V43.2138H42.7882V39.4297Z" fill="url(#paint1_linear)"/>
<defs>
<linearGradient id="paint0_linear" x1="1.46445" y1="24.5435" x2="47.5149" y2="24.5435" gradientUnits="userSpaceOnUse">
<stop stop-color="#00F2D5"/>
<stop offset="0.953125" stop-color="#01BD95"/>
</linearGradient>
<linearGradient id="paint1_linear" x1="7.584" y1="41.3218" x2="41.9055" y2="41.3218" gradientUnits="userSpaceOnUse">
<stop stop-color="#00F2D5"/>
<stop offset="0.953125" stop-color="#01BD95"/>
</linearGradient>
</defs>
</svg>
