<svg width="49" height="49" viewBox="0 0 49 49" fill="none" xmlns="http://www.w3.org/2000/svg">
<path d="M48.0889 0.828125H0.0888672V48.8281H48.0889V0.828125Z" fill="url(#paint0_linear)"/>
<path d="M29.4953 12.0261C30.2615 9.0985 28.451 6.0968 25.4516 5.32158C22.4521 4.54635 19.3995 6.29116 18.6333 9.21872C17.8672 12.1463 19.6776 15.148 22.6771 15.9232C25.6765 16.6984 28.7292 14.9536 29.4953 12.0261Z" fill="#637786"/>
<path d="M45.0969 11.987C45.863 9.05944 44.0526 6.05774 41.0531 5.28252C38.0537 4.50729 35.001 6.2521 34.2349 9.17966C33.4687 12.1072 35.2792 15.1089 38.2787 15.8841C41.2781 16.6594 44.3307 14.9146 45.0969 11.987Z" fill="#637786"/>
<path d="M14.2181 5.10938H2.89453V16.3625H14.2181V5.10938Z" fill="white"/>
<path d="M13.9277 26.2086C14.6924 23.2806 12.881 20.2774 9.88196 19.5007C6.8829 18.7239 3.83181 20.4678 3.06715 23.3958C2.30249 26.3237 4.11384 29.3269 7.1129 30.1037C10.112 30.8804 13.1631 29.1365 13.9277 26.2086Z" fill="#637786"/>
<path d="M29.507 26.2604C30.2732 23.3329 28.4627 20.3312 25.4633 19.556C22.4638 18.7807 19.4112 20.5255 18.6451 23.4531C17.8789 26.3807 19.6894 29.3824 22.6888 30.1576C25.6883 30.9328 28.7409 29.188 29.507 26.2604Z" fill="#637786"/>
<path d="M45.1076 26.2175C45.8738 23.2899 44.0633 20.2882 41.0639 19.513C38.0644 18.7378 35.0118 20.4826 34.2456 23.4101C33.4795 26.3377 35.2899 29.3394 38.2894 30.1146C41.2888 30.8898 44.3415 29.145 45.1076 26.2175Z" fill="#637786"/>
<path d="M13.9394 40.4391C14.7041 37.5111 12.8927 34.5079 9.89368 33.7311C6.89462 32.9544 3.84353 34.6983 3.07887 37.6262C2.31421 40.5542 4.12556 43.5574 7.12462 44.3342C10.1237 45.1109 13.1748 43.367 13.9394 40.4391Z" fill="#637786"/>
<path d="M29.5188 40.4909C30.2849 37.5633 28.4745 34.5616 25.475 33.7864C22.4756 33.0112 19.4229 34.756 18.6568 37.6836C17.8906 40.6111 19.7011 43.6128 22.7005 44.388C25.7 45.1633 28.7526 43.4185 29.5188 40.4909Z" fill="#637786"/>
<path d="M45.1193 40.4479C45.8855 37.5204 44.0751 34.5187 41.0756 33.7435C38.0761 32.9682 35.0235 34.713 34.2574 37.6406C33.4912 40.5682 35.3017 43.5699 38.3011 44.3451C41.3006 45.1203 44.3532 43.3755 45.1193 40.4479Z" fill="#637786"/>
<defs>
<linearGradient id="paint0_linear" x1="0.854098" y1="24.8281" x2="46.9045" y2="24.8281" gradientUnits="userSpaceOnUse">
<stop stop-color="#0BF5C4"/>
<stop offset="1" stop-color="#03C89E"/>
</linearGradient>
</defs>
</svg>
