<svg width="17" height="20" viewBox="0 0 17 20" fill="none" xmlns="http://www.w3.org/2000/svg">
<path d="M14.1144 3.02021C10.9991 -0.095109 5.95666 -0.0954443 2.84101 3.02021C-0.274234 6.13541 -0.274718 11.178 2.84101 14.2936L8.05643 19.5091C8.28914 19.7418 8.66637 19.7417 8.89903 19.5091L14.1145 14.2936C17.2297 11.1784 17.2301 6.13589 14.1144 3.02021V3.02021ZM13.2718 13.4511L8.47771 18.2452L3.68361 13.4511C1.04014 10.8076 1.04014 6.50631 3.68361 3.86284C6.32711 1.21942 10.6282 1.21934 13.2718 3.86284C15.9153 6.50627 15.9153 10.8076 13.2718 13.4511Z" fill="white" stroke="white" stroke-width="0.3"/>
<path d="M8.47811 5.09277C6.50863 5.09277 4.91455 6.68652 4.91455 8.65629C4.91455 10.6257 6.50837 12.2198 8.47811 12.2198C10.4476 12.2198 12.0417 10.626 12.0417 8.65629C12.0417 6.68685 10.4479 5.09277 8.47811 5.09277V5.09277ZM10.1553 10.3335C10.1325 10.3335 9.57088 11.0282 8.47811 11.0282C7.16719 11.0282 6.10619 9.96736 6.10619 8.65629C6.10619 7.34542 7.16704 6.28441 8.47811 6.28441C10.6076 6.28441 11.6311 8.85768 10.1553 10.3335V10.3335Z" fill="white" stroke="white" stroke-width="0.4"/>
</svg>
