<svg width="20" height="19" viewBox="0 0 20 19" fill="none" xmlns="http://www.w3.org/2000/svg">
<g clip-path="url(#clip0)">
<path d="M9.60132 0C4.36302 0 0.101318 4.2617 0.101318 9.5C0.101318 14.7383 4.36302 19 9.60132 19C14.8396 19 19.1013 14.7383 19.1013 9.5C19.1013 4.2617 14.8396 0 9.60132 0ZM9.60132 16.9786C5.47768 16.9786 2.12256 13.6238 2.12256 9.5C2.12256 5.37616 5.47768 2.02144 9.60132 2.02144C13.725 2.02144 17.0801 5.37616 17.0801 9.5C17.0801 13.6238 13.725 16.9786 9.60132 16.9786Z" fill="white"/>
<path d="M14.5515 9.20652H10.2822V4.07323C10.2822 3.64125 9.93197 3.29102 9.49999 3.29102C9.06801 3.29102 8.71777 3.64125 8.71777 4.07323V9.98873C8.71777 10.4207 9.06801 10.7709 9.49999 10.7709H14.5515C14.9835 10.7709 15.3337 10.4207 15.3337 9.98873C15.3337 9.55675 14.9835 9.20652 14.5515 9.20652Z" fill="white"/>
</g>
<defs>
<clipPath id="clip0">
<rect x="0.101318" width="19" height="19" fill="white"/>
</clipPath>
</defs>
</svg>
