<svg width="20" height="20" viewBox="0 0 20 20" fill="none" xmlns="http://www.w3.org/2000/svg">
<g clip-path="url(#clip0)">
<path d="M10.8564 14.1914C10.8564 15.0099 11.5223 15.6758 12.3408 15.6758H14.085C14.9034 15.6758 15.5693 15.0099 15.5693 14.1914V12.4473C15.5693 11.6288 14.9034 10.9629 14.085 10.9629H12.3408C11.5223 10.9629 10.8564 11.6288 10.8564 12.4473V14.1914ZM12.3408 12.4473H14.085L14.0859 14.1914C14.0859 14.1914 14.0856 14.1914 14.085 14.1914H12.3408V12.4473Z" fill="white"/>
<path d="M14.8286 9.21875C15.2385 9.21875 15.5708 8.88646 15.5708 8.47656C15.5708 8.06666 15.2385 7.73438 14.8286 7.73438C14.4187 7.73438 14.0864 8.06666 14.0864 8.47656C14.0864 8.88646 14.4187 9.21875 14.8286 9.21875Z" fill="white"/>
<path d="M11.5986 9.21875C12.0085 9.21875 12.3408 8.88646 12.3408 8.47656C12.3408 8.06666 12.0085 7.73438 11.5986 7.73438C11.1887 7.73438 10.8564 8.06666 10.8564 8.47656C10.8564 8.88646 11.1887 9.21875 11.5986 9.21875Z" fill="white"/>
<path d="M18.7622 13.7461C19.1721 13.7461 19.5044 13.4138 19.5044 13.0039V5.13672C19.5044 3.49975 18.1726 2.16797 16.5356 2.16797H15.5708V1.42578C15.5708 1.01587 15.2385 0.683594 14.8286 0.683594C14.4187 0.683594 14.0864 1.01587 14.0864 1.42578V2.16797H10.7095V1.42578C10.7095 1.01587 10.3772 0.683594 9.96729 0.683594C9.55738 0.683594 9.2251 1.01587 9.2251 1.42578V2.16797H5.88525V1.42578C5.88525 1.01587 5.55298 0.683594 5.14307 0.683594C4.73316 0.683594 4.40088 1.01587 4.40088 1.42578V2.16797H3.47314C1.83618 2.16797 0.504395 3.49975 0.504395 5.13672V16.7148C0.504395 18.3518 1.83618 19.6836 3.47314 19.6836H16.5356C18.1726 19.6836 19.5044 18.3518 19.5044 16.7148C19.5044 16.3049 19.1721 15.9727 18.7622 15.9727C18.3523 15.9727 18.02 16.3049 18.02 16.7148C18.02 17.5333 17.3541 18.1992 16.5356 18.1992H3.47314C2.65466 18.1992 1.98877 17.5333 1.98877 16.7148V5.13672C1.98877 4.31823 2.65466 3.65234 3.47314 3.65234H4.40088V4.39453C4.40088 4.80444 4.73316 5.13672 5.14307 5.13672C5.55298 5.13672 5.88525 4.80444 5.88525 4.39453V3.65234H9.2251V4.39453C9.2251 4.80444 9.55738 5.13672 9.96729 5.13672C10.3772 5.13672 10.7095 4.80444 10.7095 4.39453V3.65234H14.0864V4.39453C14.0864 4.80444 14.4187 5.13672 14.8286 5.13672C15.2385 5.13672 15.5708 4.80444 15.5708 4.39453V3.65234H16.5356C17.3541 3.65234 18.02 4.31823 18.02 5.13672V13.0039C18.02 13.4138 18.3523 13.7461 18.7622 13.7461Z" fill="white"/>
<path d="M5.14453 15.6758C5.55443 15.6758 5.88672 15.3435 5.88672 14.9336C5.88672 14.5237 5.55443 14.1914 5.14453 14.1914C4.73463 14.1914 4.40234 14.5237 4.40234 14.9336C4.40234 15.3435 4.73463 15.6758 5.14453 15.6758Z" fill="white"/>
<path d="M5.14453 9.21875C5.55443 9.21875 5.88672 8.88646 5.88672 8.47656C5.88672 8.06666 5.55443 7.73438 5.14453 7.73438C4.73463 7.73438 4.40234 8.06666 4.40234 8.47656C4.40234 8.88646 4.73463 9.21875 5.14453 9.21875Z" fill="white"/>
<path d="M5.14453 12.4473C5.55443 12.4473 5.88672 12.115 5.88672 11.7051C5.88672 11.2952 5.55443 10.9629 5.14453 10.9629C4.73463 10.9629 4.40234 11.2952 4.40234 11.7051C4.40234 12.115 4.73463 12.4473 5.14453 12.4473Z" fill="white"/>
<path d="M8.37158 12.4473C8.78148 12.4473 9.11377 12.115 9.11377 11.7051C9.11377 11.2952 8.78148 10.9629 8.37158 10.9629C7.96168 10.9629 7.62939 11.2952 7.62939 11.7051C7.62939 12.115 7.96168 12.4473 8.37158 12.4473Z" fill="white"/>
<path d="M8.37158 9.21875C8.78148 9.21875 9.11377 8.88646 9.11377 8.47656C9.11377 8.06666 8.78148 7.73438 8.37158 7.73438C7.96168 7.73438 7.62939 8.06666 7.62939 8.47656C7.62939 8.88646 7.96168 9.21875 8.37158 9.21875Z" fill="white"/>
<path d="M8.37158 15.6758C8.78148 15.6758 9.11377 15.3435 9.11377 14.9336C9.11377 14.5237 8.78148 14.1914 8.37158 14.1914C7.96168 14.1914 7.62939 14.5237 7.62939 14.9336C7.62939 15.3435 7.96168 15.6758 8.37158 15.6758Z" fill="white"/>
</g>
<defs>
<clipPath id="clip0">
<rect x="0.504395" y="0.683594" width="19" height="19" fill="white"/>
</clipPath>
</defs>
</svg>
