<svg width="71" height="57" viewBox="0 0 71 57" fill="none" xmlns="http://www.w3.org/2000/svg">
<path d="M70 51V51.75H70.75V51H70ZM0.96967 50.4697C0.676777 50.7626 0.676777 51.2374 0.96967 51.5303L5.74264 56.3033C6.03553 56.5962 6.51041 56.5962 6.8033 56.3033C7.09619 56.0104 7.09619 55.5355 6.8033 55.2426L2.56066 51L6.8033 46.7574C7.09619 46.4645 7.09619 45.9896 6.8033 45.6967C6.51041 45.4038 6.03553 45.4038 5.74264 45.6967L0.96967 50.4697ZM69.25 0.5V51H70.75V0.5H69.25ZM70 50.25H1.5V51.75H70V50.25Z" fill="#9DAFBD"/>
</svg>
