<svg width="145" height="22" viewBox="0 0 145 22" fill="none" xmlns="http://www.w3.org/2000/svg">
<mask id="path-1-outside-1" maskUnits="userSpaceOnUse" x="29.125" y="0.0625" width="107" height="22" fill="black">
<rect fill="white" x="29.125" y="0.0625" width="107" height="22"/>
<path d="M38.136 21.0291C42.2968 21.0291 44.5938 18.9487 44.5938 15.5174C44.5938 12.9641 43.0398 11.0999 40.4055 10.8162V10.5865C42.3238 10.2623 43.6212 8.43854 43.6212 6.39865C43.6212 3.3996 41.6214 1.53532 37.9604 1.53532H30.125V21.0291H38.136ZM33.1511 4.00751H37.2579C39.5004 4.00751 40.598 5.07474 40.598 6.92551C40.598 8.83031 39.4194 9.82999 36.7445 9.82999H33.1511V4.00751ZM33.1511 18.557V12.1401H37.3524C40.2029 12.1401 41.4896 13.2208 41.4896 15.3283C41.4896 17.4357 40.2569 18.557 37.5281 18.557H33.1511Z"/>
<path d="M46.1118 7.18218H48.763C48.763 5.0207 50.4213 3.56171 52.6233 3.56171C54.7848 3.56171 56.0681 5.00719 56.0681 6.89849C56.0681 8.47907 55.4197 9.45173 52.9475 12.032L46.2739 18.9757V21.0291H59.6322V18.4489H50.5142L50.727 18.2192L54.9162 14.1314C58.334 10.7001 59.1004 8.78479 59.1004 6.52875C59.1004 3.32706 56.4734 1.0625 52.8124 1.0625C48.8812 1.0625 46.1118 3.60224 46.1118 7.18218Z"/>
<path d="M78.1075 21.0291H81.012V12.2617C81.012 10.1947 82.2463 8.88268 84.4483 8.88268C84.9617 8.88268 85.6135 9.19007 85.8566 9.25762V6.52875C85.5459 6.4612 84.992 6.42068 84.5597 6.42068C82.6414 6.42068 81.2196 7.14165 80.8008 8.58714H80.9039V6.35812H78.1075V21.0291Z"/>
<path d="M92.6268 21.3128C96.9228 21.3128 99.1314 18.4354 99.1314 13.6936C99.1314 8.95189 96.9093 6.07442 92.6268 6.07442C88.3309 6.07442 85.6831 8.9654 85.6831 13.6936C85.6831 18.4354 88.3174 21.3128 92.6268 21.3128ZM92.6268 18.8407C90.1006 18.8407 88.6821 16.9629 88.6821 13.6936C88.6821 10.4244 90.1006 8.53311 92.6268 8.53311C95.1395 8.53311 96.4031 10.4244 96.4031 13.6936C96.4031 16.9494 95.1395 18.8407 92.6268 18.8407Z"/>
<path d="M104.144 12.5453H103.914V1.39063H100.797V21.0291H103.914V15.693L105.197 14.4637L110.25 21.0291H113.816L107.359 12.6399L113.411 6.35812H109.98L104.144 12.5453Z"/>
<path d="M123.199 17.098C122.658 18.2868 121.509 18.9352 119.753 18.9352C117.43 18.9352 116.09 17.2601 115.995 14.5988V14.4637H126.171V13.464C126.171 8.87084 123.912 6.07442 119.818 6.07442C115.671 6.07442 112.888 9.05997 112.888 13.7207C112.888 18.4084 115.617 21.3128 119.832 21.3128C123.196 21.3128 125.36 19.6917 125.995 17.098H123.199ZM119.645 8.43854C121.793 8.43854 123.145 9.9921 123.212 12.3697H115.995C116.157 10.0056 117.497 8.43854 119.645 8.43854Z"/>
<path d="M127.794 21.0291H130.699V12.2617C130.699 10.1947 131.933 8.88268 134.135 8.88268C134.648 8.88268 135.3 9.19007 135.543 9.25762V6.52875C135.232 6.4612 134.679 6.42068 134.246 6.42068C132.328 6.42068 130.906 7.14165 130.487 8.58714H130.59V6.35812H127.794V21.0291Z"/>
<path d="M70.3177 21.0292C74.4786 21.0292 76.7756 18.9487 76.7756 15.5174C76.7756 12.9642 75.2216 11.0999 72.5873 10.8162V10.5865C74.5056 10.2623 75.8029 8.43856 75.8029 6.39867C75.8029 3.39962 73.8031 1.53534 70.1421 1.53534H62.3067V21.0292H70.3177ZM65.3328 4.00753H69.4396C71.6821 4.00753 72.7797 5.07476 72.7797 6.92553C72.7797 8.83033 71.6011 9.83001 68.9263 9.83001H65.3328V4.00753ZM65.3328 18.557V12.1401H69.5342C72.3846 12.1401 73.6713 13.2208 73.6713 15.3283C73.6713 17.4357 72.4387 18.557 69.7098 18.557H65.3328Z"/>
</mask>
<path d="M38.136 21.0291C42.2968 21.0291 44.5938 18.9487 44.5938 15.5174C44.5938 12.9641 43.0398 11.0999 40.4055 10.8162V10.5865C42.3238 10.2623 43.6212 8.43854 43.6212 6.39865C43.6212 3.3996 41.6214 1.53532 37.9604 1.53532H30.125V21.0291H38.136ZM33.1511 4.00751H37.2579C39.5004 4.00751 40.598 5.07474 40.598 6.92551C40.598 8.83031 39.4194 9.82999 36.7445 9.82999H33.1511V4.00751ZM33.1511 18.557V12.1401H37.3524C40.2029 12.1401 41.4896 13.2208 41.4896 15.3283C41.4896 17.4357 40.2569 18.557 37.5281 18.557H33.1511Z" fill="white"/>
<path d="M46.1118 7.18218H48.763C48.763 5.0207 50.4213 3.56171 52.6233 3.56171C54.7848 3.56171 56.0681 5.00719 56.0681 6.89849C56.0681 8.47907 55.4197 9.45173 52.9475 12.032L46.2739 18.9757V21.0291H59.6322V18.4489H50.5142L50.727 18.2192L54.9162 14.1314C58.334 10.7001 59.1004 8.78479 59.1004 6.52875C59.1004 3.32706 56.4734 1.0625 52.8124 1.0625C48.8812 1.0625 46.1118 3.60224 46.1118 7.18218Z" fill="white"/>
<path d="M78.1075 21.0291H81.012V12.2617C81.012 10.1947 82.2463 8.88268 84.4483 8.88268C84.9617 8.88268 85.6135 9.19007 85.8566 9.25762V6.52875C85.5459 6.4612 84.992 6.42068 84.5597 6.42068C82.6414 6.42068 81.2196 7.14165 80.8008 8.58714H80.9039V6.35812H78.1075V21.0291Z" fill="white"/>
<path d="M92.6268 21.3128C96.9228 21.3128 99.1314 18.4354 99.1314 13.6936C99.1314 8.95189 96.9093 6.07442 92.6268 6.07442C88.3309 6.07442 85.6831 8.9654 85.6831 13.6936C85.6831 18.4354 88.3174 21.3128 92.6268 21.3128ZM92.6268 18.8407C90.1006 18.8407 88.6821 16.9629 88.6821 13.6936C88.6821 10.4244 90.1006 8.53311 92.6268 8.53311C95.1395 8.53311 96.4031 10.4244 96.4031 13.6936C96.4031 16.9494 95.1395 18.8407 92.6268 18.8407Z" fill="white"/>
<path d="M104.144 12.5453H103.914V1.39063H100.797V21.0291H103.914V15.693L105.197 14.4637L110.25 21.0291H113.816L107.359 12.6399L113.411 6.35812H109.98L104.144 12.5453Z" fill="white"/>
<path d="M123.199 17.098C122.658 18.2868 121.509 18.9352 119.753 18.9352C117.43 18.9352 116.09 17.2601 115.995 14.5988V14.4637H126.171V13.464C126.171 8.87084 123.912 6.07442 119.818 6.07442C115.671 6.07442 112.888 9.05997 112.888 13.7207C112.888 18.4084 115.617 21.3128 119.832 21.3128C123.196 21.3128 125.36 19.6917 125.995 17.098H123.199ZM119.645 8.43854C121.793 8.43854 123.145 9.9921 123.212 12.3697H115.995C116.157 10.0056 117.497 8.43854 119.645 8.43854Z" fill="white"/>
<path d="M127.794 21.0291H130.699V12.2617C130.699 10.1947 131.933 8.88268 134.135 8.88268C134.648 8.88268 135.3 9.19007 135.543 9.25762V6.52875C135.232 6.4612 134.679 6.42068 134.246 6.42068C132.328 6.42068 130.906 7.14165 130.487 8.58714H130.59V6.35812H127.794V21.0291Z" fill="white"/>
<path d="M70.3177 21.0292C74.4786 21.0292 76.7756 18.9487 76.7756 15.5174C76.7756 12.9642 75.2216 11.0999 72.5873 10.8162V10.5865C74.5056 10.2623 75.8029 8.43856 75.8029 6.39867C75.8029 3.39962 73.8031 1.53534 70.1421 1.53534H62.3067V21.0292H70.3177ZM65.3328 4.00753H69.4396C71.6821 4.00753 72.7797 5.07476 72.7797 6.92553C72.7797 8.83033 71.6011 9.83001 68.9263 9.83001H65.3328V4.00753ZM65.3328 18.557V12.1401H69.5342C72.3846 12.1401 73.6713 13.2208 73.6713 15.3283C73.6713 17.4357 72.4387 18.557 69.7098 18.557H65.3328Z" fill="white"/>
<path d="M38.136 21.0291C42.2968 21.0291 44.5938 18.9487 44.5938 15.5174C44.5938 12.9641 43.0398 11.0999 40.4055 10.8162V10.5865C42.3238 10.2623 43.6212 8.43854 43.6212 6.39865C43.6212 3.3996 41.6214 1.53532 37.9604 1.53532H30.125V21.0291H38.136ZM33.1511 4.00751H37.2579C39.5004 4.00751 40.598 5.07474 40.598 6.92551C40.598 8.83031 39.4194 9.82999 36.7445 9.82999H33.1511V4.00751ZM33.1511 18.557V12.1401H37.3524C40.2029 12.1401 41.4896 13.2208 41.4896 15.3283C41.4896 17.4357 40.2569 18.557 37.5281 18.557H33.1511Z" stroke="white" stroke-width="0.211355" mask="url(#path-1-outside-1)"/>
<path d="M46.1118 7.18218H48.763C48.763 5.0207 50.4213 3.56171 52.6233 3.56171C54.7848 3.56171 56.0681 5.00719 56.0681 6.89849C56.0681 8.47907 55.4197 9.45173 52.9475 12.032L46.2739 18.9757V21.0291H59.6322V18.4489H50.5142L50.727 18.2192L54.9162 14.1314C58.334 10.7001 59.1004 8.78479 59.1004 6.52875C59.1004 3.32706 56.4734 1.0625 52.8124 1.0625C48.8812 1.0625 46.1118 3.60224 46.1118 7.18218Z" stroke="white" stroke-width="0.211355" mask="url(#path-1-outside-1)"/>
<path d="M78.1075 21.0291H81.012V12.2617C81.012 10.1947 82.2463 8.88268 84.4483 8.88268C84.9617 8.88268 85.6135 9.19007 85.8566 9.25762V6.52875C85.5459 6.4612 84.992 6.42068 84.5597 6.42068C82.6414 6.42068 81.2196 7.14165 80.8008 8.58714H80.9039V6.35812H78.1075V21.0291Z" stroke="white" stroke-width="0.211355" mask="url(#path-1-outside-1)"/>
<path d="M92.6268 21.3128C96.9228 21.3128 99.1314 18.4354 99.1314 13.6936C99.1314 8.95189 96.9093 6.07442 92.6268 6.07442C88.3309 6.07442 85.6831 8.9654 85.6831 13.6936C85.6831 18.4354 88.3174 21.3128 92.6268 21.3128ZM92.6268 18.8407C90.1006 18.8407 88.6821 16.9629 88.6821 13.6936C88.6821 10.4244 90.1006 8.53311 92.6268 8.53311C95.1395 8.53311 96.4031 10.4244 96.4031 13.6936C96.4031 16.9494 95.1395 18.8407 92.6268 18.8407Z" stroke="white" stroke-width="0.211355" mask="url(#path-1-outside-1)"/>
<path d="M104.144 12.5453H103.914V1.39063H100.797V21.0291H103.914V15.693L105.197 14.4637L110.25 21.0291H113.816L107.359 12.6399L113.411 6.35812H109.98L104.144 12.5453Z" stroke="white" stroke-width="0.211355" mask="url(#path-1-outside-1)"/>
<path d="M123.199 17.098C122.658 18.2868 121.509 18.9352 119.753 18.9352C117.43 18.9352 116.09 17.2601 115.995 14.5988V14.4637H126.171V13.464C126.171 8.87084 123.912 6.07442 119.818 6.07442C115.671 6.07442 112.888 9.05997 112.888 13.7207C112.888 18.4084 115.617 21.3128 119.832 21.3128C123.196 21.3128 125.36 19.6917 125.995 17.098H123.199ZM119.645 8.43854C121.793 8.43854 123.145 9.9921 123.212 12.3697H115.995C116.157 10.0056 117.497 8.43854 119.645 8.43854Z" stroke="white" stroke-width="0.211355" mask="url(#path-1-outside-1)"/>
<path d="M127.794 21.0291H130.699V12.2617C130.699 10.1947 131.933 8.88268 134.135 8.88268C134.648 8.88268 135.3 9.19007 135.543 9.25762V6.52875C135.232 6.4612 134.679 6.42068 134.246 6.42068C132.328 6.42068 130.906 7.14165 130.487 8.58714H130.59V6.35812H127.794V21.0291Z" stroke="white" stroke-width="0.211355" mask="url(#path-1-outside-1)"/>
<path d="M70.3177 21.0292C74.4786 21.0292 76.7756 18.9487 76.7756 15.5174C76.7756 12.9642 75.2216 11.0999 72.5873 10.8162V10.5865C74.5056 10.2623 75.8029 8.43856 75.8029 6.39867C75.8029 3.39962 73.8031 1.53534 70.1421 1.53534H62.3067V21.0292H70.3177ZM65.3328 4.00753H69.4396C71.6821 4.00753 72.7797 5.07476 72.7797 6.92553C72.7797 8.83033 71.6011 9.83001 68.9263 9.83001H65.3328V4.00753ZM65.3328 18.557V12.1401H69.5342C72.3846 12.1401 73.6713 13.2208 73.6713 15.3283C73.6713 17.4357 72.4387 18.557 69.7098 18.557H65.3328Z" stroke="white" stroke-width="0.211355" mask="url(#path-1-outside-1)"/>
<path d="M139.532 5.31818V2.32267H140.763V1.67578H137.516V2.32267H138.747V5.31818H139.532Z" fill="white"/>
<path d="M145 5.31818V1.67578H143.972L143.039 4.26072H142.992L142.062 1.67578H141.031V5.31818H141.758V2.88642H141.8L142.756 5.13373H143.278L144.231 2.88642H144.273V5.31818H145Z" fill="white"/>
<circle cx="3.38123" cy="4.44764" r="3.38123" fill="#84F8CF"/>
<circle cx="3.38123" cy="11.1898" r="3.38123" fill="#A4FCDE"/>
<circle cx="3.38123" cy="17.932" r="3.38123" fill="#C1FDE8"/>
<circle cx="10.1195" cy="4.49451" r="3.38123" fill="#59C59E"/>
<circle cx="10.1195" cy="11.2367" r="3.38123" fill="#84F8CF"/>
<circle cx="10.1195" cy="17.9789" r="3.38123" fill="#A4FCDE"/>
<circle cx="16.8578" cy="4.5492" r="3.38123" fill="#4AA083"/>
<circle cx="16.8578" cy="11.2875" r="3.38123" fill="#59C59E"/>
<circle cx="16.8578" cy="18.0297" r="3.38123" fill="#84F8CF"/>
</svg>
