<svg width="1585" height="224" viewBox="0 0 1585 224" fill="none" xmlns="http://www.w3.org/2000/svg">
<mask id="path-1-outside-1" maskUnits="userSpaceOnUse" x="328.164" y="0" width="1153" height="223" fill="black">
<rect fill="white" x="328.164" width="1153" height="223"/>
<path d="M416.696 219.164C462.159 219.164 487.257 196.433 487.257 158.94C487.257 131.042 470.277 110.673 441.494 107.573V105.064C462.454 101.521 476.629 81.5939 476.629 59.3051C476.629 26.5361 454.778 6.16627 414.777 6.16627H329.164V219.164H416.696ZM362.228 33.1785H407.101C431.604 33.1785 443.596 44.8395 443.596 65.0618C443.596 85.8745 430.718 96.7975 401.492 96.7975H362.228V33.1785ZM362.228 192.152V122.038H408.134C439.28 122.038 453.339 133.847 453.339 156.874C453.339 179.901 439.87 192.152 410.053 192.152H362.228Z"/>
<path d="M503.843 67.8663H532.811C532.811 44.2491 550.93 28.3074 574.99 28.3074C598.607 28.3074 612.63 44.1015 612.63 64.7666C612.63 82.0367 605.545 92.6644 578.533 120.858L505.614 196.728V219.164H651.573V190.971H551.945L554.271 188.462L600.043 143.797C637.388 106.305 645.762 85.3772 645.762 60.7267C645.762 25.7436 617.058 1 577.057 1C534.103 1 503.843 28.7503 503.843 67.8663Z"/>
<path d="M853.442 219.164H885.178V123.367C885.178 100.783 898.665 86.4467 922.725 86.4467C928.334 86.4467 935.455 89.8054 938.112 90.5434V60.7267C934.717 59.9886 928.665 59.5458 923.942 59.5458C902.982 59.5458 887.446 67.4235 882.871 83.2175H883.997V58.8622H853.442V219.164Z"/>
<path d="M1137.93 126.467H1135.42V4.58528H1101.36V219.164H1135.42V160.859L1149.44 147.427L1204.64 219.164H1243.61L1173.06 127.5L1239.18 58.8622H1201.69L1137.93 126.467Z"/>
<path d="M1346.13 176.21C1340.23 189.2 1327.67 196.285 1308.48 196.285C1283.09 196.285 1268.45 177.982 1267.42 148.903V147.427H1378.6V136.504C1378.6 86.3173 1353.92 55.7625 1309.19 55.7625C1263.88 55.7625 1233.46 88.3838 1233.46 139.309C1233.46 190.528 1263.29 222.264 1309.34 222.264C1346.09 222.264 1369.75 204.551 1376.68 176.21H1346.13ZM1307.3 81.5939C1330.77 81.5939 1345.54 98.5688 1346.28 124.548H1267.42C1269.19 98.7164 1283.83 81.5939 1307.3 81.5939Z"/>
<path d="M1396.34 219.164H1428.07V123.367C1428.07 100.783 1441.56 86.4467 1465.62 86.4467C1471.23 86.4467 1478.35 89.8054 1481.01 90.5434V60.7267C1477.61 59.9886 1471.56 59.5458 1466.84 59.5458C1445.88 59.5458 1430.34 67.4235 1425.77 83.2175H1426.89V58.8622H1396.34V219.164Z"/>
<path d="M768.327 219.165C813.79 219.165 838.889 196.433 838.889 158.941C838.889 131.043 821.909 110.673 793.125 107.573V105.064C814.086 101.521 828.261 81.5941 828.261 59.3053C828.261 26.5364 806.41 6.1665 766.408 6.1665H680.796V219.165H768.327ZM713.86 33.1787H758.733C783.236 33.1787 795.228 44.8397 795.228 65.062C795.228 85.8747 782.35 96.7977 753.124 96.7977H713.86V33.1787ZM713.86 192.152V122.039H759.766C790.911 122.039 804.97 133.847 804.97 156.874C804.97 179.901 791.502 192.152 761.685 192.152H713.86Z"/>
<path d="M1011.73 222.165C1012.69 222.165 1013.64 222.151 1014.58 222.125V194.995C1013.65 195.046 1012.7 195.072 1011.73 195.072C984.451 195.072 972.733 174.345 972.733 138.665C972.733 102.837 984.451 82.1096 1011.73 82.1096C1012.7 82.1096 1013.65 82.1353 1014.58 82.1865V55.2046C1013.64 55.178 1012.69 55.1646 1011.73 55.1646C965.238 55.1646 943.112 86.6992 943.112 138.665C943.112 190.63 965.091 222.165 1011.73 222.165Z"/>
<path d="M1017.49 222.165C1016.54 222.165 1015.58 222.151 1014.64 222.125V194.995C1015.58 195.046 1016.53 195.072 1017.49 195.072C1044.77 195.072 1056.49 174.345 1056.49 138.665C1056.49 102.837 1044.77 82.1096 1017.49 82.1096C1016.53 82.1096 1015.58 82.1353 1014.64 82.1865V55.2046C1015.58 55.178 1016.54 55.1646 1017.49 55.1646C1063.99 55.1646 1086.11 86.6992 1086.11 138.665C1086.11 190.63 1064.13 222.165 1017.49 222.165Z"/>
</mask>
<path d="M416.696 219.164C462.159 219.164 487.257 196.433 487.257 158.94C487.257 131.042 470.277 110.673 441.494 107.573V105.064C462.454 101.521 476.629 81.5939 476.629 59.3051C476.629 26.5361 454.778 6.16627 414.777 6.16627H329.164V219.164H416.696ZM362.228 33.1785H407.101C431.604 33.1785 443.596 44.8395 443.596 65.0618C443.596 85.8745 430.718 96.7975 401.492 96.7975H362.228V33.1785ZM362.228 192.152V122.038H408.134C439.28 122.038 453.339 133.847 453.339 156.874C453.339 179.901 439.87 192.152 410.053 192.152H362.228Z" fill="white"/>
<path d="M503.843 67.8663H532.811C532.811 44.2491 550.93 28.3074 574.99 28.3074C598.607 28.3074 612.63 44.1015 612.63 64.7666C612.63 82.0367 605.545 92.6644 578.533 120.858L505.614 196.728V219.164H651.573V190.971H551.945L554.271 188.462L600.043 143.797C637.388 106.305 645.762 85.3772 645.762 60.7267C645.762 25.7436 617.058 1 577.057 1C534.103 1 503.843 28.7503 503.843 67.8663Z" fill="white"/>
<path d="M853.442 219.164H885.178V123.367C885.178 100.783 898.665 86.4467 922.725 86.4467C928.334 86.4467 935.455 89.8054 938.112 90.5434V60.7267C934.717 59.9886 928.665 59.5458 923.942 59.5458C902.982 59.5458 887.446 67.4235 882.871 83.2175H883.997V58.8622H853.442V219.164Z" fill="white"/>
<path d="M1137.93 126.467H1135.42V4.58528H1101.36V219.164H1135.42V160.859L1149.44 147.427L1204.64 219.164H1243.61L1173.06 127.5L1239.18 58.8622H1201.69L1137.93 126.467Z" fill="white"/>
<path d="M1346.13 176.21C1340.23 189.2 1327.67 196.285 1308.48 196.285C1283.09 196.285 1268.45 177.982 1267.42 148.903V147.427H1378.6V136.504C1378.6 86.3173 1353.92 55.7625 1309.19 55.7625C1263.88 55.7625 1233.46 88.3838 1233.46 139.309C1233.46 190.528 1263.29 222.264 1309.34 222.264C1346.09 222.264 1369.75 204.551 1376.68 176.21H1346.13ZM1307.3 81.5939C1330.77 81.5939 1345.54 98.5688 1346.28 124.548H1267.42C1269.19 98.7164 1283.83 81.5939 1307.3 81.5939Z" fill="white"/>
<path d="M1396.34 219.164H1428.07V123.367C1428.07 100.783 1441.56 86.4467 1465.62 86.4467C1471.23 86.4467 1478.35 89.8054 1481.01 90.5434V60.7267C1477.61 59.9886 1471.56 59.5458 1466.84 59.5458C1445.88 59.5458 1430.34 67.4235 1425.77 83.2175H1426.89V58.8622H1396.34V219.164Z" fill="white"/>
<path d="M768.327 219.165C813.79 219.165 838.889 196.433 838.889 158.941C838.889 131.043 821.909 110.673 793.125 107.573V105.064C814.086 101.521 828.261 81.5941 828.261 59.3053C828.261 26.5364 806.41 6.1665 766.408 6.1665H680.796V219.165H768.327ZM713.86 33.1787H758.733C783.236 33.1787 795.228 44.8397 795.228 65.062C795.228 85.8747 782.35 96.7977 753.124 96.7977H713.86V33.1787ZM713.86 192.152V122.039H759.766C790.911 122.039 804.97 133.847 804.97 156.874C804.97 179.901 791.502 192.152 761.685 192.152H713.86Z" fill="white"/>
<path d="M1011.73 222.165C1012.69 222.165 1013.64 222.151 1014.58 222.125V194.995C1013.65 195.046 1012.7 195.072 1011.73 195.072C984.451 195.072 972.733 174.345 972.733 138.665C972.733 102.837 984.451 82.1096 1011.73 82.1096C1012.7 82.1096 1013.65 82.1353 1014.58 82.1865V55.2046C1013.64 55.178 1012.69 55.1646 1011.73 55.1646C965.238 55.1646 943.112 86.6992 943.112 138.665C943.112 190.63 965.091 222.165 1011.73 222.165Z" fill="white"/>
<path d="M1017.49 222.165C1016.54 222.165 1015.58 222.151 1014.64 222.125V194.995C1015.58 195.046 1016.53 195.072 1017.49 195.072C1044.77 195.072 1056.49 174.345 1056.49 138.665C1056.49 102.837 1044.77 82.1096 1017.49 82.1096C1016.53 82.1096 1015.58 82.1353 1014.64 82.1865V55.2046C1015.58 55.178 1016.54 55.1646 1017.49 55.1646C1063.99 55.1646 1086.11 86.6992 1086.11 138.665C1086.11 190.63 1064.13 222.165 1017.49 222.165Z" fill="white"/>
<path d="M416.696 219.164C462.159 219.164 487.257 196.433 487.257 158.94C487.257 131.042 470.277 110.673 441.494 107.573V105.064C462.454 101.521 476.629 81.5939 476.629 59.3051C476.629 26.5361 454.778 6.16627 414.777 6.16627H329.164V219.164H416.696ZM362.228 33.1785H407.101C431.604 33.1785 443.596 44.8395 443.596 65.0618C443.596 85.8745 430.718 96.7975 401.492 96.7975H362.228V33.1785ZM362.228 192.152V122.038H408.134C439.28 122.038 453.339 133.847 453.339 156.874C453.339 179.901 439.87 192.152 410.053 192.152H362.228Z" stroke="white" stroke-width="0.211355" mask="url(#path-1-outside-1)"/>
<path d="M503.843 67.8663H532.811C532.811 44.2491 550.93 28.3074 574.99 28.3074C598.607 28.3074 612.63 44.1015 612.63 64.7666C612.63 82.0367 605.545 92.6644 578.533 120.858L505.614 196.728V219.164H651.573V190.971H551.945L554.271 188.462L600.043 143.797C637.388 106.305 645.762 85.3772 645.762 60.7267C645.762 25.7436 617.058 1 577.057 1C534.103 1 503.843 28.7503 503.843 67.8663Z" stroke="white" stroke-width="0.211355" mask="url(#path-1-outside-1)"/>
<path d="M853.442 219.164H885.178V123.367C885.178 100.783 898.665 86.4467 922.725 86.4467C928.334 86.4467 935.455 89.8054 938.112 90.5434V60.7267C934.717 59.9886 928.665 59.5458 923.942 59.5458C902.982 59.5458 887.446 67.4235 882.871 83.2175H883.997V58.8622H853.442V219.164Z" stroke="white" stroke-width="0.211355" mask="url(#path-1-outside-1)"/>
<path d="M1137.93 126.467H1135.42V4.58528H1101.36V219.164H1135.42V160.859L1149.44 147.427L1204.64 219.164H1243.61L1173.06 127.5L1239.18 58.8622H1201.69L1137.93 126.467Z" stroke="white" stroke-width="0.211355" mask="url(#path-1-outside-1)"/>
<path d="M1346.13 176.21C1340.23 189.2 1327.67 196.285 1308.48 196.285C1283.09 196.285 1268.45 177.982 1267.42 148.903V147.427H1378.6V136.504C1378.6 86.3173 1353.92 55.7625 1309.19 55.7625C1263.88 55.7625 1233.46 88.3838 1233.46 139.309C1233.46 190.528 1263.29 222.264 1309.34 222.264C1346.09 222.264 1369.75 204.551 1376.68 176.21H1346.13ZM1307.3 81.5939C1330.77 81.5939 1345.54 98.5688 1346.28 124.548H1267.42C1269.19 98.7164 1283.83 81.5939 1307.3 81.5939Z" stroke="white" stroke-width="0.211355" mask="url(#path-1-outside-1)"/>
<path d="M1396.34 219.164H1428.07V123.367C1428.07 100.783 1441.56 86.4467 1465.62 86.4467C1471.23 86.4467 1478.35 89.8054 1481.01 90.5434V60.7267C1477.61 59.9886 1471.56 59.5458 1466.84 59.5458C1445.88 59.5458 1430.34 67.4235 1425.77 83.2175H1426.89V58.8622H1396.34V219.164Z" stroke="white" stroke-width="0.211355" mask="url(#path-1-outside-1)"/>
<path d="M768.327 219.165C813.79 219.165 838.889 196.433 838.889 158.941C838.889 131.043 821.909 110.673 793.125 107.573V105.064C814.086 101.521 828.261 81.5941 828.261 59.3053C828.261 26.5364 806.41 6.1665 766.408 6.1665H680.796V219.165H768.327ZM713.86 33.1787H758.733C783.236 33.1787 795.228 44.8397 795.228 65.062C795.228 85.8747 782.35 96.7977 753.124 96.7977H713.86V33.1787ZM713.86 192.152V122.039H759.766C790.911 122.039 804.97 133.847 804.97 156.874C804.97 179.901 791.502 192.152 761.685 192.152H713.86Z" stroke="white" stroke-width="0.211355" mask="url(#path-1-outside-1)"/>
<path d="M1011.73 222.165C1012.69 222.165 1013.64 222.151 1014.58 222.125V194.995C1013.65 195.046 1012.7 195.072 1011.73 195.072C984.451 195.072 972.733 174.345 972.733 138.665C972.733 102.837 984.451 82.1096 1011.73 82.1096C1012.7 82.1096 1013.65 82.1353 1014.58 82.1865V55.2046C1013.64 55.178 1012.69 55.1646 1011.73 55.1646C965.238 55.1646 943.112 86.6992 943.112 138.665C943.112 190.63 965.091 222.165 1011.73 222.165Z" stroke="white" stroke-width="0.211355" mask="url(#path-1-outside-1)"/>
<path d="M1017.49 222.165C1016.54 222.165 1015.58 222.151 1014.64 222.125V194.995C1015.58 195.046 1016.53 195.072 1017.49 195.072C1044.77 195.072 1056.49 174.345 1056.49 138.665C1056.49 102.837 1044.77 82.1096 1017.49 82.1096C1016.53 82.1096 1015.58 82.1353 1014.64 82.1865V55.2046C1015.58 55.178 1016.54 55.1646 1017.49 55.1646C1063.99 55.1646 1086.11 86.6992 1086.11 138.665C1086.11 190.63 1064.13 222.165 1017.49 222.165Z" stroke="white" stroke-width="0.211355" mask="url(#path-1-outside-1)"/>
<path d="M1524.58 47.4977V14.7674H1538.04V7.69922H1502.55V14.7674H1516.01V47.4977H1524.58Z" fill="white" fill-opacity="0.4"/>
<path d="M1584.34 47.4977V7.69922H1573.1L1562.91 35.9434H1562.39L1552.23 7.69922H1540.96V47.4977H1548.91V20.9272H1549.37L1559.81 45.4823H1565.52L1575.94 20.9272H1576.39V47.4977H1584.34Z" fill="white" fill-opacity="0.4"/>
<circle cx="36.9448" cy="37.9878" r="36.9448" fill="#B2B2B2"/>
<circle cx="36.9448" cy="111.628" r="36.9448" fill="#DFDFDF"/>
<circle cx="36.9448" cy="185.304" r="36.9448" fill="white"/>
<circle cx="110.568" cy="38.5229" r="36.9448" fill="#737373"/>
<circle cx="110.568" cy="112.191" r="36.9448" fill="#B2B2B2"/>
<circle cx="110.568" cy="185.832" r="36.9448" fill="#DFDFDF"/>
<circle cx="184.191" cy="39.0776" r="36.9448" fill="#535353"/>
<circle cx="184.191" cy="112.718" r="36.9448" fill="#737373"/>
<circle cx="184.191" cy="186.414" r="36.9448" fill="#B2B2B2"/>
</svg>
