<svg width="83" height="2085" viewBox="0 0 83 2085" fill="none" xmlns="http://www.w3.org/2000/svg">
<path d="M82.7071 640.715C83.0976 640.324 83.0976 639.691 82.7071 639.301L76.3431 632.937C75.9526 632.546 75.3195 632.546 74.9289 632.937C74.5384 633.327 74.5384 633.96 74.9289 634.351L80.5858 640.008L74.9289 645.665C74.5384 646.055 74.5384 646.688 74.9289 647.079C75.3195 647.469 75.9526 647.469 76.3431 647.079L82.7071 640.715ZM82.7071 77.7149C83.0976 77.3244 83.0976 76.6912 82.7071 76.3007L76.3431 69.9367C75.9526 69.5462 75.3195 69.5462 74.9289 69.9367C74.5384 70.3273 74.5384 70.9604 74.9289 71.351L80.5858 77.0078L74.9289 82.6647C74.5384 83.0552 74.5384 83.6884 74.9289 84.0789C75.3195 84.4694 75.9526 84.4694 76.3431 84.0789L82.7071 77.7149ZM57 641.008H82V639.008H57V641.008ZM53 635.008V82.0078H51V635.008H53ZM57 78.0078H82V76.0078H57V78.0078ZM53 82.0078C53 79.7987 54.7909 78.0078 57 78.0078V76.0078C53.6863 76.0078 51 78.6941 51 82.0078H53ZM57 639.008C54.7909 639.008 53 637.217 53 635.008H51C51 638.322 53.6863 641.008 57 641.008V639.008Z" fill="#798E9E" fill-opacity="0.5"/>
<path d="M82.7071 1663.01C83.0976 1663.4 83.0976 1664.03 82.7071 1664.42L76.3431 1670.79C75.9526 1671.18 75.3195 1671.18 74.9289 1670.79C74.5384 1670.4 74.5384 1669.76 74.9289 1669.37L80.5858 1663.72L74.9289 1658.06C74.5384 1657.67 74.5384 1657.03 74.9289 1656.64C75.3195 1656.25 75.9526 1656.25 76.3431 1656.64L82.7071 1663.01ZM82.7071 7.29289C83.0976 7.68342 83.0976 8.31658 82.7071 8.70711L76.3431 15.0711C75.9526 15.4616 75.3195 15.4616 74.9289 15.0711C74.5384 14.6805 74.5384 14.0474 74.9289 13.6569L80.5858 8L74.9289 2.34315C74.5384 1.95262 74.5384 1.31946 74.9289 0.928932C75.3195 0.538408 75.9526 0.538408 76.3431 0.928932L82.7071 7.29289ZM82.7071 2076.29C83.0976 2076.68 83.0976 2077.32 82.7071 2077.71L76.3431 2084.07C75.9526 2084.46 75.3195 2084.46 74.9289 2084.07C74.5384 2083.68 74.5384 2083.05 74.9289 2082.66L80.5858 2077L74.9289 2071.34C74.5384 2070.95 74.5384 2070.32 74.9289 2069.93C75.3195 2069.54 75.9526 2069.54 76.3431 2069.93L82.7071 2076.29ZM82 1664.72H1V1662.72H82V1664.72ZM0 1663.72V13H2V1663.72H0ZM6 7H82V9H6V7ZM2 1663.72V2072H0V1663.72H2ZM6 2076H82V2078H6V2076ZM2 2072C2 2074.21 3.79086 2076 6 2076V2078C2.6863 2078 0 2075.31 0 2072H2ZM0 13C0 9.68635 2.68628 7 6 7V9C3.79087 9 2 10.7909 2 13H0Z" fill="#798E9E" fill-opacity="0.5"/>
</svg>
