<svg width="18" height="20" viewBox="0 0 18 20" fill="none" xmlns="http://www.w3.org/2000/svg">
<g opacity="0.7">
<path d="M14.735 2.65302C11.6197 -0.462297 6.57726 -0.462632 3.46161 2.65302C0.346372 5.76822 0.345888 10.8108 3.46161 13.9264L8.67704 19.1419C8.90974 19.3746 9.28697 19.3745 9.51964 19.1419L14.7351 13.9264C17.8503 10.8112 17.8508 5.7687 14.735 2.65302ZM13.8924 13.0839L9.09832 17.878L4.30421 13.0839C1.66075 10.4404 1.66075 6.13912 4.30421 3.49565C6.94771 0.852229 11.2489 0.852154 13.8924 3.49565C16.5359 6.13908 16.5359 10.4404 13.8924 13.0839Z" fill="#3A3A3A" fill-opacity="0.75" stroke="#3A3A3A" stroke-opacity="0.75" stroke-width="0.3"/>
<path d="M9.09481 4.72559C7.12533 4.72559 5.53125 6.31933 5.53125 8.28911C5.53125 10.2586 7.12507 11.8526 9.09481 11.8526C11.0643 11.8526 12.6584 10.2588 12.6584 8.28911C12.6584 6.31966 11.0646 4.72559 9.09481 4.72559ZM10.772 9.9663C10.7492 9.9663 10.1876 10.661 9.09481 10.661C7.78389 10.661 6.72289 9.60017 6.72289 8.28911C6.72289 6.97823 7.78374 5.91722 9.09481 5.91722C11.2243 5.91722 12.2478 8.49049 10.772 9.9663Z" fill="#3A3A3A" fill-opacity="0.75" stroke="#3A3A3A" stroke-opacity="0.75" stroke-width="0.4"/>
</g>
</svg>
