<svg width="20" height="20" viewBox="0 0 20 20" fill="none" xmlns="http://www.w3.org/2000/svg">
<path d="M10.7352 3.92578C10.7352 3.5273 10.4122 3.20426 10.0137 3.20426C9.61519 3.20426 9.29215 3.5273 9.29215 3.92578H10.7352ZM10.0137 9.75806H9.29215C9.29215 9.94689 9.36618 10.1282 9.49835 10.2631L10.0137 9.75806ZM12.4446 13.2694C12.7235 13.554 13.1803 13.5586 13.4649 13.2797C13.7495 13.0008 13.7541 12.544 13.4752 12.2594L12.4446 13.2694ZM9.29215 3.92578V9.75806H10.7352V3.92578H9.29215ZM9.49835 10.2631L12.4446 13.2694L13.4752 12.2594L10.529 9.25305L9.49835 10.2631Z" fill="#3A3A3A" fill-opacity="0.75"/>
<path d="M15.411 2.89842C15.6546 2.58697 15.6011 2.13443 15.2722 1.91488C13.4841 0.721317 11.3368 0.165491 9.18094 0.351612C6.78642 0.558332 4.55926 1.66496 2.94823 3.44851C1.3372 5.23206 0.462071 7.55994 0.499179 9.96308C0.536286 12.3662 1.48288 14.666 3.1482 16.3989C4.81353 18.1319 7.0738 19.1692 9.47356 19.3019C11.8733 19.4346 14.2342 18.6528 16.0804 17.114C17.9266 15.5752 19.121 13.3938 19.4228 11.0094C19.6946 8.86265 19.2246 6.69497 18.1032 4.86085C17.8969 4.52347 17.4468 4.45192 17.1259 4.68302C16.805 4.91412 16.7353 5.36021 16.9371 5.70032C17.8493 7.23809 18.2284 9.04237 18.0021 10.8296C17.7458 12.8546 16.7315 14.7071 15.1635 16.0139C13.5956 17.3208 11.5906 17.9847 9.55262 17.872C7.51461 17.7594 5.59505 16.8784 4.18076 15.4067C2.76647 13.9349 1.96257 11.9819 1.93106 9.94097C1.89955 7.90009 2.64276 5.92311 4.01094 4.40842C5.37911 2.89373 7.27055 1.95392 9.30411 1.77836C11.0989 1.62341 12.8867 2.07396 14.387 3.04665C14.7188 3.26178 15.1673 3.20986 15.411 2.89842Z" fill="#3A3A3A" fill-opacity="0.75"/>
<path d="M9.74023 16.8008C10.1501 16.8008 10.4824 16.4685 10.4824 16.0586C10.4824 15.6487 10.1501 15.3164 9.74023 15.3164C9.33034 15.3164 8.99805 15.6487 8.99805 16.0586C8.99805 16.4685 9.33034 16.8008 9.74023 16.8008Z" fill="#3A3A3A" fill-opacity="0.75"/>
<path d="M5.74023 14.8008C6.15013 14.8008 6.48242 14.4685 6.48242 14.0586C6.48242 13.6487 6.15013 13.3164 5.74023 13.3164C5.33034 13.3164 4.99805 13.6487 4.99805 14.0586C4.99805 14.4685 5.33034 14.8008 5.74023 14.8008Z" fill="#3A3A3A" fill-opacity="0.75"/>
<path d="M4.24023 10.8008C4.65013 10.8008 4.98242 10.4685 4.98242 10.0586C4.98242 9.64869 4.65013 9.31641 4.24023 9.31641C3.83034 9.31641 3.49805 9.64869 3.49805 10.0586C3.49805 10.4685 3.83034 10.8008 4.24023 10.8008Z" fill="#3A3A3A" fill-opacity="0.75"/>
<path d="M5.74023 6.80078C6.15013 6.80078 6.48242 6.46849 6.48242 6.05859C6.48242 5.64869 6.15013 5.31641 5.74023 5.31641C5.33034 5.31641 4.99805 5.64869 4.99805 6.05859C4.99805 6.46849 5.33034 6.80078 5.74023 6.80078Z" fill="#3A3A3A" fill-opacity="0.75"/>
</svg>
