<svg width="15" height="11" viewBox="0 0 15 11" fill="none" xmlns="http://www.w3.org/2000/svg">
<path d="M14.7491 2.33928C14.7491 2.11607 14.6598 1.89286 14.4991 1.73214L13.2848 0.517857C13.1241 0.357142 12.9009 0.267857 12.6777 0.267857C12.4545 0.267857 12.2312 0.357142 12.0705 0.517857L6.21339 6.38393L3.58839 3.75C3.42767 3.58929 3.20446 3.5 2.98125 3.5C2.75803 3.5 2.53482 3.58929 2.3741 3.75L1.15982 4.96429C0.999103 5.125 0.909817 5.34821 0.909817 5.57143C0.909817 5.79464 0.999103 6.01786 1.15982 6.17857L4.39196 9.41071L5.60625 10.625C5.76696 10.7857 5.99017 10.875 6.21339 10.875C6.4366 10.875 6.65982 10.7857 6.82053 10.625L8.03482 9.41071L14.4991 2.94643C14.6598 2.78571 14.7491 2.5625 14.7491 2.33928Z" fill="#01B68F"/>
</svg>
