<svg width="106" height="33" viewBox="0 0 106 33" fill="none" xmlns="http://www.w3.org/2000/svg">
<circle cx="4.68984" cy="12.3226" r="3.74843" fill="#84F8CF"/>
<circle cx="4.68984" cy="12.3226" r="3.74843" fill="#E54D57"/>
<circle cx="12.5375" cy="19.1859" r="3.74843" fill="#C1FDE8"/>
<circle cx="12.5375" cy="19.1859" r="3.74843" fill="#07D6A5"/>
<circle cx="12.2094" cy="9.13124" r="3.74843" fill="#59C59E"/>
<circle cx="12.2094" cy="9.13124" r="3.74843" fill="#2395FF"/>
<circle cx="4.68984" cy="20.4945" r="3.74843" fill="#A4FCDE"/>
<circle cx="4.68984" cy="20.4945" r="3.74843" fill="#A8DD12"/>
<circle cx="4.68984" cy="28.3187" r="3.74843" fill="#84F8CF"/>
<circle cx="4.68984" cy="28.3187" r="3.74843" fill="#FF7A00"/>
<circle cx="12.5375" cy="28.2601" r="3.74843" fill="#A4FCDE"/>
<circle cx="12.5375" cy="28.2601" r="3.74843" fill="#FF8E95"/>
<circle cx="19.5961" cy="4.14687" r="3.74843" fill="#4AA083"/>
<circle cx="19.5961" cy="4.14687" r="3.74843" fill="#7F52FF"/>
<circle cx="20.057" cy="15.9984" r="3.74843" fill="#59C59E"/>
<circle cx="20.057" cy="15.9984" r="3.74843" fill="#BB34FB"/>
<circle cx="20.3851" cy="28.2445" r="3.74843" fill="#84F8CF"/>
<circle cx="20.3851" cy="28.2445" r="3.74843" fill="#F0D800"/>
<path d="M34.2635 18.7805C36.0936 18.7805 37.2262 17.9151 37.2262 16.4475C37.2262 15.2898 36.3509 14.4887 35.1639 14.3601V14.2841C36.0586 14.1262 36.7935 13.3719 36.7935 12.4247C36.7935 11.1442 35.7545 10.3431 34.1992 10.3431H31.1645V18.7805H34.2635ZM32.0515 11.0506H34.0472C35.199 11.0506 35.9007 11.6061 35.9007 12.5533C35.9007 13.5356 35.1581 14.0619 33.8542 14.0619H32.0515V11.0506ZM32.0515 18.073V14.8436H34.053C35.5206 14.8436 36.3217 15.3365 36.3217 16.4066C36.3217 17.4883 35.5674 18.073 34.1524 18.073H32.0515Z" fill="white"/>
<path d="M38.9397 12.762H39.8208C39.8325 11.692 40.5751 10.8694 41.6743 10.8694C42.7561 10.8694 43.4753 11.6119 43.4753 12.5884C43.4753 13.3544 43.142 13.8514 41.9784 15.1027L38.9865 18.1333V18.7805H44.5902V18.0554H40.195V17.9853L42.4794 15.6932C43.9646 14.1496 44.3797 13.4538 44.3797 12.5124C44.3797 11.1676 43.177 10.0818 41.7211 10.0818C40.1658 10.0818 38.9514 11.3002 38.9397 12.762Z" fill="white"/>
<path d="M49.8219 18.7805C51.6521 18.7805 52.7846 17.9151 52.7846 16.4475C52.7846 15.2898 51.9093 14.4887 50.7224 14.3601V14.2841C51.617 14.1262 52.3519 13.3719 52.3519 12.4247C52.3519 11.1442 51.3129 10.3431 49.7576 10.3431H46.723V18.7805H49.8219ZM47.6099 11.0506H49.6056C50.7575 11.0506 51.4591 11.6061 51.4591 12.5533C51.4591 13.5356 50.7165 14.0619 49.4126 14.0619H47.6099V11.0506ZM47.6099 18.073V14.8436H49.6114C51.0791 14.8436 51.8801 15.3365 51.8801 16.4066C51.8801 17.4883 51.1258 18.073 49.7108 18.073H47.6099Z" fill="white"/>
<path d="M61.837 18.9559C63.6262 18.9559 64.9594 17.8409 65.1991 16.2914H64.3864C64.1525 17.4024 63.1409 18.2133 61.837 18.2133C60.0595 18.2133 58.9369 16.7983 58.9369 14.5647C58.9369 12.3311 60.0653 10.9103 61.8312 10.9103C63.1 10.9103 64.1408 11.8148 64.3864 13.0076H65.1991C64.9711 11.4055 63.5678 10.1677 61.8312 10.1677C59.545 10.1677 57.9465 11.8575 57.9465 14.5647C57.9465 17.2719 59.545 18.9559 61.837 18.9559Z" fill="white"/>
<path d="M67.2091 18.7805H68.0609V14.8512C68.0609 13.8572 68.7859 13.2064 69.7624 13.2064C69.9905 13.2064 70.3062 13.2415 70.4465 13.2824L70.7042 12.4305C70.5346 12.3896 70.0665 12.3779 69.856 12.3779C69.0198 12.3779 68.2264 12.834 68.016 13.5181H68.0258V12.3973H67.2091V18.7805Z" fill="white"/>
<path d="M76.2494 17.1393C75.9805 17.7591 75.3373 18.1157 74.4427 18.1157C73.2265 18.1157 72.4371 17.2895 72.3962 15.8686V15.8335H77.2124V15.4944C77.2124 13.5707 76.0974 12.3779 74.4193 12.3779C72.7061 12.3779 71.5209 13.6584 71.5209 15.6347C71.5209 17.6228 72.6944 18.8857 74.4251 18.8857C75.7466 18.8857 76.8148 18.1567 77.113 17.1393H76.2494ZM74.4134 13.142C75.5536 13.142 76.3079 13.904 76.3254 15.2021H72.402C72.4722 13.904 73.2674 13.142 74.4134 13.142Z" fill="white"/>
<path d="M80.9004 18.8857C81.8243 18.8857 82.5961 18.4472 82.982 17.6988H82.9663V18.7805H83.7889V14.477C83.7889 13.1497 82.9294 12.3779 81.4559 12.3779C80.152 12.3779 79.1755 13.107 79.0294 14.1244H79.807C79.9591 13.4987 80.5788 13.062 81.4325 13.062C82.4499 13.062 82.9312 13.559 82.9312 14.4829V15.0734L81.0466 15.2021C79.5907 15.3015 78.6921 15.9388 78.6921 17.038C78.6921 18.1665 79.6667 18.8857 80.9004 18.8857ZM81.0291 18.2075C80.1812 18.2075 79.5673 17.7514 79.5673 17.0263C79.5673 16.3072 80.0818 15.9096 81.1519 15.8335L82.9312 15.6991V16.4358C82.9312 17.4356 82.1576 18.2075 81.0291 18.2075Z" fill="white"/>
<path d="M86.487 10.7601V12.4832H85.2861V13.1322H86.487V17.2135C86.487 18.3595 86.9664 18.8156 88.171 18.8156C88.3054 18.8156 88.6603 18.798 88.7948 18.7746V18.1198C88.6661 18.1314 88.3756 18.1373 88.2528 18.1373C87.5453 18.1373 87.3388 17.8099 87.3388 17.038V13.1322H88.7089V12.4832H87.3388V10.7601H86.487Z" fill="white"/>
<path d="M91.0971 11.1734C91.4128 11.1734 91.6701 10.922 91.6701 10.6062C91.6701 10.2905 91.4128 10.0391 91.0971 10.0391C90.7872 10.0391 90.5299 10.2905 90.5299 10.6062C90.5299 10.922 90.7872 11.1734 91.0971 11.1734ZM90.717 18.7805H91.5689V12.4832H90.717V18.7805Z" fill="white"/>
<path d="M98.8569 12.4832H97.9466L96.0463 17.8585H95.9761L94.07 12.4832H93.1655L95.516 18.7805H96.5064L98.8569 12.4832Z" fill="white"/>
<path d="M104.615 17.1393C104.346 17.7591 103.703 18.2016 102.808 18.2016C101.592 18.2016 100.803 17.2895 100.762 15.8686V15.8335H105.578V15.4944C105.578 13.5707 104.463 12.3779 102.785 12.3779C101.072 12.3779 99.8864 13.6584 99.8864 15.6347C99.8864 17.6228 101.06 18.8857 102.791 18.8857C104.112 18.8857 105.18 18.1567 105.478 17.1393H104.615ZM102.779 13.0562C103.919 13.0562 104.673 13.904 104.691 15.2021H100.767C100.838 13.904 101.633 13.0562 102.779 13.0562Z" fill="white"/>
<path d="M36.5114 26.0114H36.6283L37.7878 30.7183H40.195L42.456 22.2809H39.9067L38.8911 27.4848H38.7742L37.6146 22.2809H35.525L34.4239 27.4848H34.307L33.268 22.2809H30.6953L32.9563 30.7183H35.381L36.5114 26.0114Z" fill="white"/>
<path d="M47.3311 28.6268C47.2258 28.9543 46.8516 29.4049 46.3195 29.4049C45.6179 29.4049 45.191 28.7946 45.191 28.0695V27.9409H49.5179L49.6038 27.3153C49.6038 25.1986 48.3075 23.9824 46.2084 23.9824C44.1035 23.9824 42.7605 25.2922 42.7605 27.4907C42.7605 29.6658 44.0684 30.882 46.2494 30.882C48.0269 30.882 49.284 29.9541 49.4886 28.6268H47.3311ZM46.226 25.5454C46.8224 25.5454 47.1849 25.9938 47.2258 26.637H45.2027C45.2495 26.0231 45.6529 25.5454 46.226 25.5454Z" fill="white"/>
<path d="M55.543 30.8118C57.186 30.8118 58.2133 29.5839 58.2133 27.4322C58.2133 25.2629 57.2035 24.0526 55.543 24.0526C54.6425 24.0526 53.9584 24.4736 53.6544 25.2103H53.5374V21.7254H51.0542V30.7183H53.4789V29.7009H53.5959C53.8824 30.4025 54.6016 30.8118 55.543 30.8118ZM54.6016 25.9003C55.2506 25.9003 55.7575 26.5025 55.7575 27.4322C55.7575 28.3736 55.2565 28.9641 54.6016 28.9641C53.9409 28.9641 53.5316 28.3794 53.5257 27.4381C53.5316 26.4967 53.9526 25.9003 54.6016 25.9003Z" fill="white"/>
<path d="M62.6933 28.0849C62.705 29.7572 64.079 30.9522 66.3185 30.9522C68.6222 30.9522 70.088 29.8646 70.088 28.0403C70.088 26.6721 69.242 25.8944 67.599 25.6079L66.4471 25.4091C65.6402 25.2688 65.2093 25.0349 65.2093 24.6314C65.2093 24.1637 65.7162 23.8713 66.3594 23.8713C67.0201 23.8713 67.5405 24.2572 67.5581 24.7659L69.8267 24.9377C69.8092 23.318 68.3883 22.047 66.3068 22.047C64.196 22.047 62.7477 23.158 62.7477 24.877C62.7477 26.2394 63.6756 27.1282 65.2251 27.3971L66.3419 27.5959C67.2482 27.7596 67.6498 27.9468 67.6498 28.3385C67.6498 28.8121 67.102 29.122 66.4062 29.122C65.611 29.122 65.073 28.7829 65.0438 28.2566L62.6933 28.0849Z" fill="white"/>
<path d="M72.1934 22.7019V24.2631H71.1193V26.0114H72.1934V28.8881C72.1934 30.1862 73.0043 30.7183 74.8403 30.7183C75.2963 30.7183 75.729 30.6773 75.9571 30.6306V28.9641C75.8167 28.9817 75.6764 28.9934 75.4191 28.9934C74.9163 28.9934 74.6766 28.777 74.6766 28.3619V26.0114H75.9571V24.2631H74.6766V22.7019H72.1934Z" fill="white"/>
<path d="M84.1982 24.1461H81.715V27.859C81.715 28.5139 81.491 28.9408 80.9063 28.9408C80.345 28.9408 79.9649 28.549 79.9649 27.859V24.1461H77.4817V28.4496C77.4817 29.9582 78.5616 30.882 79.9298 30.882C80.918 30.882 81.4442 30.4318 81.7424 29.6424H81.7735V30.7183H84.1982V24.1461Z" fill="white"/>
<path d="M88.3581 30.8118C89.2761 30.8118 89.9894 30.3967 90.2876 29.7009H90.4046V30.7183H92.7434V21.7254H90.3461V25.2103H90.2291C89.9192 24.4794 89.2293 24.0526 88.3639 24.0526C86.7267 24.0526 85.6702 25.3039 85.6702 27.4147C85.6702 29.543 86.7267 30.8118 88.3581 30.8118ZM89.2819 25.9003C89.9543 25.9003 90.3578 26.4791 90.3578 27.4381C90.3578 28.397 89.9602 28.9641 89.2819 28.9641C88.6095 28.9641 88.126 28.3911 88.126 27.4322C88.126 26.4791 88.6153 25.9003 89.2819 25.9003Z" fill="white"/>
<path d="M95.88 23.386C96.5524 23.386 97.1021 22.8598 97.1021 22.1932C97.1021 21.5208 96.5524 20.9945 95.88 20.9945C95.2134 20.9945 94.658 21.5208 94.658 22.1932C94.658 22.8598 95.2134 23.386 95.88 23.386ZM94.6814 30.7183H97.0787V24.0603H94.6814V30.7183Z" fill="white"/>
<path d="M102.081 30.882C104.256 30.882 105.61 29.6132 105.61 27.4264C105.61 25.2863 104.221 23.9824 102.081 23.9824C99.9522 23.9824 98.5507 25.298 98.5507 27.4264C98.5507 29.6073 99.9112 30.882 102.081 30.882ZM102.081 29.0928C101.455 29.0928 101.092 28.4905 101.092 27.4322C101.092 26.4031 101.467 25.7716 102.081 25.7716C102.694 25.7716 103.069 26.4031 103.069 27.4322C103.069 28.4847 102.706 29.0928 102.081 29.0928Z" fill="white"/>
</svg>
