<svg width="105" height="20" viewBox="0 0 105 20" fill="none" xmlns="http://www.w3.org/2000/svg">
<path d="M26.7364 15.9969V3.25033H31.315C32.955 3.25033 34.2011 3.5509 35.0532 4.15204C35.9111 4.75318 36.3401 5.62571 36.3401 6.76963C36.3401 7.42914 36.1884 7.99234 35.8849 8.45925C35.5814 8.92615 35.1349 9.2705 34.5454 9.49228C35.2108 9.66737 35.7214 9.9942 36.0775 10.4728C36.4335 10.9514 36.6115 11.535 36.6115 12.2237C36.6115 13.4726 36.2146 14.4123 35.4209 15.0426C34.633 15.6671 33.4628 15.9852 31.9103 15.9969H26.7364ZM29.8093 10.5778V13.6331H31.8228C32.3772 13.6331 32.8033 13.5077 33.1009 13.2567C33.3986 12.9999 33.5474 12.641 33.5474 12.1799C33.5474 11.1177 33.0192 10.5837 31.9629 10.5778H29.8093ZM29.8093 8.5643H31.4113C32.0825 8.55846 32.5611 8.4359 32.8471 8.19661C33.133 7.95732 33.276 7.60423 33.276 7.13732C33.276 6.60038 33.1214 6.21518 32.812 5.98173C32.5027 5.74244 32.0037 5.62279 31.315 5.62279H29.8093V8.5643ZM47.0206 15.9969H38.126V14.0709L42.2231 9.76367C43.2328 8.61391 43.7376 7.70053 43.7376 7.02351C43.7376 6.4749 43.618 6.0576 43.3787 5.77162C43.1394 5.48564 42.7922 5.34265 42.3369 5.34265C41.8875 5.34265 41.5228 5.53525 41.2426 5.92045C40.9625 6.29981 40.8224 6.77547 40.8224 7.34743H37.8634C37.8634 6.56536 38.0589 5.84458 38.4499 5.18507C38.841 4.51973 39.3837 4.0003 40.0783 3.62677C40.7728 3.25325 41.549 3.06649 42.407 3.06649C43.7843 3.06649 44.8436 3.38457 45.5848 4.02072C46.3319 4.65688 46.7054 5.57027 46.7054 6.76088C46.7054 7.2628 46.612 7.75305 46.4253 8.23163C46.2385 8.70437 45.9467 9.20338 45.5498 9.72865C45.1588 10.2481 44.5255 10.9455 43.6501 11.821L42.0042 13.7207H47.0206V15.9969ZM51.3803 3.25033L55.5474 13.6507L59.7146 3.25033H61.8944V15.9969H60.2136V11.0331L60.3712 5.67532L56.1865 15.9969H54.8996L50.7237 5.70159L50.89 11.0331V15.9969H49.2092V3.25033H51.3803ZM70.4563 15.9969C70.3629 15.8101 70.2871 15.4774 70.2287 14.9988C69.4758 15.7809 68.577 16.1719 67.5323 16.1719C66.5985 16.1719 65.831 15.9093 65.2299 15.384C64.6346 14.8529 64.3369 14.1818 64.3369 13.3705C64.3369 12.3842 64.7105 11.6196 65.4575 11.0768C66.2104 10.5282 67.2668 10.2539 68.6266 10.2539H70.2024V9.50979C70.2024 8.94366 70.0332 8.49427 69.6947 8.16159C69.3562 7.82309 68.8572 7.65383 68.1977 7.65383C67.6199 7.65383 67.1354 7.79974 66.7444 8.09156C66.3534 8.38338 66.1579 8.73647 66.1579 9.15085H64.5295C64.5295 8.67811 64.6959 8.22288 65.0285 7.78515C65.367 7.34159 65.8223 6.99141 66.3942 6.73461C66.972 6.47782 67.6053 6.34942 68.294 6.34942C69.3854 6.34942 70.2404 6.62372 70.859 7.17234C71.4777 7.71512 71.7987 8.46508 71.822 9.42224V13.782C71.822 14.6516 71.9329 15.3432 72.1547 15.8568V15.9969H70.4563ZM67.7687 14.7625C68.2764 14.7625 68.7579 14.6312 69.2132 14.3685C69.6684 14.1059 69.9982 13.7645 70.2024 13.3442V11.4008H68.933C66.9487 11.4008 65.9565 11.9815 65.9565 13.1429C65.9565 13.6507 66.1258 14.0475 66.4643 14.3335C66.8028 14.6195 67.2376 14.7625 67.7687 14.7625ZM78.9394 7.97775C78.6943 7.9369 78.4287 7.91647 78.1428 7.91647C77.0805 7.91647 76.3598 8.36878 75.9804 9.27341V15.9969H74.3608V6.52451H75.9366L75.9629 7.61882C76.494 6.77255 77.2469 6.34942 78.2215 6.34942C78.5367 6.34942 78.776 6.39027 78.9394 6.47198V7.97775ZM79.8761 11.1819C79.8761 9.7053 80.2176 8.5322 80.9004 7.66259C81.5833 6.78714 82.4879 6.34942 83.6143 6.34942C84.7699 6.34942 85.6716 6.75796 86.3194 7.57504L86.3982 6.52451H87.8777V15.7692C87.8777 16.9949 87.513 17.9608 86.7834 18.667C86.0597 19.3732 85.0851 19.7263 83.8594 19.7263C83.1766 19.7263 82.5083 19.5804 81.8547 19.2885C81.201 18.9967 80.702 18.5969 80.3576 18.0892L81.1981 17.1174C81.8926 17.9754 82.7418 18.4043 83.7456 18.4043C84.5335 18.4043 85.1463 18.1826 85.5841 17.739C86.0276 17.2954 86.2494 16.671 86.2494 15.8655V15.0514C85.6016 15.7984 84.7174 16.1719 83.5968 16.1719C82.4879 16.1719 81.5891 15.7255 80.9004 14.8325C80.2176 13.9396 79.8761 12.7227 79.8761 11.1819ZM81.5045 11.3657C81.5045 12.4338 81.7233 13.2742 82.1611 13.887C82.5988 14.494 83.2116 14.7975 83.9995 14.7975C85.0209 14.7975 85.7708 14.3335 86.2494 13.4055V9.08082C85.7533 8.17619 85.0092 7.72387 84.017 7.72387C83.2291 7.72387 82.6134 8.03028 82.1698 8.64309C81.7263 9.25591 81.5045 10.1635 81.5045 11.3657ZM92.0886 15.9969H90.4691V6.52451H92.0886V15.9969ZM90.3377 4.01197C90.3377 3.74934 90.4165 3.52756 90.5741 3.34663C90.7375 3.1657 90.9768 3.07524 91.292 3.07524C91.6071 3.07524 91.8464 3.1657 92.0099 3.34663C92.1733 3.52756 92.255 3.74934 92.255 4.01197C92.255 4.2746 92.1733 4.49347 92.0099 4.66856C91.8464 4.84365 91.6071 4.93119 91.292 4.93119C90.9768 4.93119 90.7375 4.84365 90.5741 4.66856C90.4165 4.49347 90.3377 4.2746 90.3377 4.01197ZM96.2208 6.52451L96.2733 7.71512C96.997 6.80465 97.9425 6.34942 99.1097 6.34942C101.112 6.34942 102.121 7.47875 102.139 9.7374V15.9969H100.519V9.72865C100.513 9.0458 100.356 8.54096 100.046 8.21412C99.743 7.88729 99.2673 7.72387 98.6195 7.72387C98.0942 7.72387 97.6331 7.86394 97.2363 8.14409C96.8394 8.42423 96.5301 8.79192 96.3083 9.24715V15.9969H94.6887V6.52451H96.2208Z" fill="#373737"/>
<circle cx="17.3696" cy="15.4016" r="2.40084" fill="#59C59E"/>
<circle cx="17.3696" cy="15.4016" r="2.40084" fill="#59C59E"/>
<circle cx="17.3696" cy="9.39965" r="2.40084" fill="#59C59E"/>
<circle cx="17.3696" cy="9.39965" r="2.40084" fill="#59C59E"/>
<circle cx="17.3696" cy="3.3977" r="2.40084" fill="#59C59E"/>
<circle cx="17.3696" cy="3.3977" r="2.40084" fill="#FF5252"/>
<circle cx="10.1684" cy="15.4016" r="2.40084" fill="#59C59E"/>
<circle cx="10.1684" cy="15.4016" r="2.40084" fill="#59C59E"/>
<circle cx="10.1684" cy="9.39965" r="2.40084" fill="#59C59E"/>
<circle cx="10.1684" cy="9.39965" r="2.40084" fill="#FF5252"/>
<circle cx="2.96529" cy="15.4016" r="2.40084" fill="#59C59E"/>
<circle cx="2.96529" cy="15.4016" r="2.40084" fill="#FF5252"/>
</svg>
