<svg width="102" height="21" viewBox="0 0 102 21" fill="none" xmlns="http://www.w3.org/2000/svg">
<path d="M24.9133 16.9883V4.43377H29.423C31.0383 4.43377 32.2655 4.72981 33.1048 5.3219C33.9498 5.91398 34.3723 6.77337 34.3723 7.90006C34.3723 8.54963 34.2229 9.10435 33.924 9.56422C33.625 10.0241 33.1853 10.3632 32.6047 10.5817C33.26 10.7541 33.763 11.076 34.1136 11.5474C34.4643 12.0188 34.6396 12.5936 34.6396 13.2719C34.6396 14.5021 34.2487 15.4276 33.467 16.0484C32.6909 16.6635 31.5384 16.9768 30.0093 16.9883H24.9133ZM27.9399 11.6509V14.6602H29.9231C30.4692 14.6602 30.8888 14.5366 31.182 14.2894C31.4751 14.0365 31.6217 13.6829 31.6217 13.2288C31.6217 12.1826 31.1015 11.6566 30.061 11.6509H27.9399ZM27.9399 9.66769H29.5178C30.1789 9.66194 30.6502 9.54123 30.9319 9.30554C31.2136 9.06986 31.3544 8.72208 31.3544 8.26221C31.3544 7.73335 31.2021 7.35396 30.8974 7.12402C30.5928 6.88834 30.1013 6.7705 29.423 6.7705H27.9399V9.66769ZM44.8919 16.9883H36.1313V15.0913L40.1667 10.849C41.1612 9.71655 41.6584 8.81693 41.6584 8.15011C41.6584 7.60976 41.5406 7.19875 41.3049 6.91708C41.0692 6.63541 40.7272 6.49457 40.2788 6.49457C39.8362 6.49457 39.4769 6.68427 39.201 7.06366C38.9251 7.43731 38.7871 7.9058 38.7871 8.46915H35.8727C35.8727 7.69886 36.0652 6.98893 36.4504 6.33936C36.8355 5.68405 37.3701 5.17244 38.0542 4.80454C38.7382 4.43664 39.5028 4.25269 40.3478 4.25269C41.7044 4.25269 42.7478 4.56598 43.4778 5.19256C44.2136 5.81913 44.5815 6.71876 44.5815 7.89143C44.5815 8.3858 44.4895 8.86866 44.3056 9.34003C44.1216 9.80565 43.8342 10.2971 43.4433 10.8145C43.0582 11.3261 42.4345 12.013 41.5722 12.8753L39.9512 14.7464H44.8919V16.9883ZM49.186 4.43377L53.2903 14.6774L57.3947 4.43377H59.5417V16.9883H57.8862V12.0993L58.0414 6.82223L53.9198 16.9883H52.6522L48.5393 6.8481L48.7031 12.0993V16.9883H47.0476V4.43377H49.186ZM67.9746 16.9883C67.8826 16.8043 67.8079 16.4767 67.7504 16.0053C67.0089 16.7756 66.1236 17.1607 65.0947 17.1607C64.1749 17.1607 63.419 16.9021 62.8269 16.3847C62.2406 15.8616 61.9474 15.2005 61.9474 14.4015C61.9474 13.43 62.3153 12.677 63.0511 12.1424C63.7927 11.602 64.8331 11.3319 66.1725 11.3319H67.7246V10.5989C67.7246 10.0413 67.5579 9.59871 67.2245 9.27105C66.891 8.93764 66.3996 8.77094 65.75 8.77094C65.1809 8.77094 64.7038 8.91465 64.3186 9.20207C63.9335 9.48949 63.7409 9.83727 63.7409 10.2454H62.1371C62.1371 9.77978 62.3009 9.33141 62.6286 8.90028C62.962 8.4634 63.4104 8.1185 63.9737 7.86557C64.5428 7.61264 65.1665 7.48617 65.8448 7.48617C66.9198 7.48617 67.7619 7.75635 68.3713 8.2967C68.9806 8.8313 69.2968 9.56997 69.3197 10.5127V14.8068C69.3197 15.6633 69.429 16.3445 69.6474 16.8503V16.9883H67.9746ZM65.3275 15.7725C65.8276 15.7725 66.3018 15.6432 66.7502 15.3845C67.1986 15.1258 67.5234 14.7895 67.7246 14.3756V12.4614H66.4743C64.5198 12.4614 63.5426 13.0334 63.5426 14.1773C63.5426 14.6774 63.7093 15.0683 64.0427 15.35C64.3761 15.6317 64.8044 15.7725 65.3275 15.7725ZM76.3299 9.08998C76.0885 9.04974 75.8269 9.02962 75.5453 9.02962C74.4991 9.02962 73.7891 9.47512 73.4155 10.3661V16.9883H71.8203V7.65862H73.3724L73.3982 8.73645C73.9213 7.90293 74.6629 7.48617 75.6229 7.48617C75.9333 7.48617 76.169 7.52641 76.3299 7.60689V9.08998ZM77.2525 12.2458C77.2525 10.7915 77.5888 9.63607 78.2614 8.77956C78.9339 7.9173 79.825 7.48617 80.9344 7.48617C82.0726 7.48617 82.9607 7.88856 83.5988 8.69334L83.6764 7.65862H85.1336V16.7641C85.1336 17.9713 84.7743 18.9226 84.0558 19.6182C83.343 20.3137 82.383 20.6615 81.1758 20.6615C80.5033 20.6615 79.8451 20.5178 79.2012 20.2304C78.5574 19.943 78.0659 19.5492 77.7268 19.0491L78.5546 18.092C79.2386 18.937 80.075 19.3595 81.0637 19.3595C81.8398 19.3595 82.4433 19.1411 82.8745 18.7042C83.3114 18.2673 83.5298 17.6522 83.5298 16.8589V16.057C82.8917 16.7928 82.0208 17.1607 80.9171 17.1607C79.825 17.1607 78.9397 16.721 78.2614 15.8415C77.5888 14.962 77.2525 13.7634 77.2525 12.2458ZM78.8563 12.4269C78.8563 13.4789 79.0719 14.3067 79.503 14.9102C79.9342 15.5081 80.5378 15.807 81.3138 15.807C82.3198 15.807 83.0584 15.35 83.5298 14.436V10.1764C83.0412 9.28542 82.3083 8.83992 81.331 8.83992C80.555 8.83992 79.9485 9.14171 79.5117 9.74529C79.0748 10.3489 78.8563 11.2428 78.8563 12.4269ZM89.2811 16.9883H87.6859V7.65862H89.2811V16.9883ZM87.5566 5.18394C87.5566 4.92526 87.6342 4.70682 87.7894 4.52862C87.9503 4.35042 88.186 4.26132 88.4964 4.26132C88.8068 4.26132 89.0425 4.35042 89.2035 4.52862C89.3644 4.70682 89.4449 4.92526 89.4449 5.18394C89.4449 5.44261 89.3644 5.65818 89.2035 5.83063C89.0425 6.00308 88.8068 6.08931 88.4964 6.08931C88.186 6.08931 87.9503 6.00308 87.7894 5.83063C87.6342 5.65818 87.5566 5.44261 87.5566 5.18394ZM93.3509 7.65862L93.4027 8.8313C94.1155 7.93455 95.0467 7.48617 96.1964 7.48617C98.1681 7.48617 99.1626 8.59849 99.1798 10.8231V16.9883H97.5846V10.8145C97.5789 10.1419 97.4237 9.6447 97.119 9.32279C96.8201 9.00088 96.3516 8.83992 95.7135 8.83992C95.1962 8.83992 94.7421 8.97788 94.3512 9.25381C93.9603 9.52973 93.6556 9.89188 93.4372 10.3403V16.9883H91.842V7.65862H93.3509Z" fill="white"/>
<g clip-path="url(#clip0)">
<circle cx="15.9584" cy="3.35295" r="2.36467" fill="#59C59E"/>
<circle cx="15.9584" cy="3.35295" r="2.36467" fill="#FF5252"/>
<g clip-path="url(#clip1)">
<circle cx="9.23186" cy="10.0815" r="2.36467" fill="#59C59E"/>
<circle cx="9.23186" cy="10.0815" r="2.36467" fill="#FF5252"/>
<circle cx="15.9623" cy="10.0815" r="2.36467" fill="#59C59E"/>
<circle cx="15.9623" cy="10.0815" r="2.36467" fill="#00C1AA"/>
</g>
<g clip-path="url(#clip2)">
<circle cx="2.50139" cy="16.8119" r="2.36467" fill="#59C59E"/>
<circle cx="2.50139" cy="16.8119" r="2.36467" fill="#FF5252"/>
<circle cx="9.23186" cy="16.8119" r="2.36467" fill="#59C59E"/>
<circle cx="9.23186" cy="16.8119" r="2.36467" fill="#00C1AA"/>
<circle cx="15.9584" cy="16.8119" r="2.36467" fill="#59C59E"/>
<circle cx="15.9584" cy="16.8119" r="2.36467" fill="#00C1AA"/>
</g>
</g>
<defs>
<clipPath id="clip0">
<rect width="18.188" height="18.188" fill="white" transform="translate(0.136719 0.988281)"/>
</clipPath>
<clipPath id="clip1">
<rect width="11.4587" height="4.72935" fill="white" transform="translate(6.86719 7.7168)"/>
</clipPath>
<clipPath id="clip2">
<rect width="18.188" height="4.72935" fill="white" transform="translate(0.136719 14.4473)"/>
</clipPath>
</defs>
</svg>
