<svg width="9" height="9" viewBox="0 0 9 9" fill="none" xmlns="http://www.w3.org/2000/svg">
<path d="M3.76707 6.09875L1.86949 4.12024C1.62572 3.86584 1.21947 3.86047 0.970505 4.1095L0.684799 4.39807C0.4384 4.64172 0.4384 5.04016 0.684799 5.28625L4.16283 8.76428C4.40654 9.01086 4.80498 9.01086 5.05132 8.76428L8.52672 5.28625C8.77312 5.0426 8.77312 4.64417 8.52672 4.39807L8.24101 4.1095C7.99205 3.86047 7.5858 3.86584 7.34203 4.12024L5.44444 6.09875V1.31311C5.44444 1.13684 5.37273 0.978149 5.2567 0.863892C5.14336 0.752563 4.98772 0.684204 4.81541 0.684204H4.3961C4.04747 0.684204 3.76707 0.964478 3.76707 1.31311V6.09875Z" fill="#FF4191"/>
</svg>
