<svg width="143" height="36" viewBox="0 0 143 36" fill="none" xmlns="http://www.w3.org/2000/svg">
<path d="M30.9072 34.2717H39.423C43.3608 34.2717 46.0337 32.2389 46.0337 29.0042V28.9787C46.0337 26.6134 44.0256 24.7851 41.5837 24.5933V24.3632C43.4759 24.0819 45.1515 22.3815 45.1515 20.4381V20.4125C45.1515 17.5742 42.7855 15.8226 39.2056 15.8226H30.9072V34.2717ZM38.2211 18.6865C40.0622 18.6865 41.1234 19.5815 41.1234 21.0774V21.1029C41.1234 22.6244 39.9855 23.4938 37.9015 23.4938H34.9992V18.6865H38.2211ZM38.349 26.0381C40.6248 26.0381 41.8649 26.9586 41.8649 28.6718V28.6974C41.8649 30.449 40.6631 31.3951 38.4385 31.3951H34.9992V26.0381H38.349Z" fill="white"/>
<path d="M48.5761 34.2717H62.2319V31.1649H54.1004V30.8709L57.1678 27.6873C60.5303 24.5805 61.8479 22.8417 61.8479 20.745V20.7066C61.8479 17.5231 58.9577 15.3496 55.1605 15.3496C51.1204 15.3496 48.3587 18.0097 48.3587 21.5512L48.3715 21.6023H52.054V21.5384C52.054 19.7868 53.1788 18.3541 54.9815 18.3541C56.7459 18.3541 58.0507 19.4537 58.0507 21.0262V21.0646C58.0507 22.3559 57.1166 23.2892 54.5212 25.8079L48.5761 31.4455V34.2717Z" fill="white"/>
<path d="M70.4765 34.2717H73.0087V17.8939H78.9539V15.8226H64.5314V17.8939H70.4765V34.2717Z" fill="white"/>
<path d="M80.0782 34.2717H82.5337V25.7312C82.5337 23.7111 84.0424 22.3687 86.1648 22.3687C86.6506 22.3687 87.0725 22.4198 87.5328 22.4965V20.3358C87.3154 20.2975 86.8424 20.2463 86.4205 20.2463C84.5538 20.2463 83.2625 21.0902 82.7383 22.5349H82.5337V20.4893H80.0782V34.2717Z" fill="white"/>
<path d="M93.7197 34.5147C95.5736 34.5147 97.0183 33.7092 97.8877 32.2389H98.0923V34.2717H100.317V24.8362C100.317 21.9723 98.4375 20.2463 95.075 20.2463C92.1344 20.2463 90.0376 21.9347 89.6796 24.0954L89.6668 24.1721H91.8914L91.9042 24.1338C92.2622 23.0598 93.349 22.2153 94.9983 22.2153C97.0567 22.2153 98.0923 23.1358 98.0923 24.8362V26.0892L94.1416 26.3321C90.9325 26.5239 89.117 27.9431 89.117 30.3978V30.4234C89.117 32.9293 91.0988 34.5147 93.7197 34.5147ZM91.3928 30.3722V30.3467C91.3928 28.9787 92.3134 28.2371 94.4101 28.1093L98.0923 27.8791V29.1321C98.0923 31.101 96.443 32.5841 94.18 32.5841C92.5818 32.5841 91.3928 31.7658 91.3928 30.3722Z" fill="white"/>
<path d="M109.356 34.5147C111.274 34.5147 112.808 33.6069 113.652 32.0727H113.856V34.2717H116.196V15.248H113.856V22.6627H113.652C112.897 21.1924 111.248 20.2463 109.356 20.2463C105.853 20.2463 103.346 23.0463 103.346 27.3677V27.3933C103.346 31.6891 105.865 34.5147 109.356 34.5147ZM109.867 32.5457C107.348 32.5457 105.853 30.6024 105.853 27.3933V27.3677C105.853 24.1586 107.348 22.2153 109.867 22.2153C112.373 22.2153 113.907 24.1842 113.907 27.3677V27.3933C113.907 30.5768 112.373 32.5457 109.867 32.5457Z" fill="white"/>
<path d="M125.515 34.5147C128.762 34.5147 130.731 32.4427 131.204 30.5761L131.23 30.4738H129.005L128.954 30.5889C128.583 31.4199 127.433 32.533 125.566 32.533C123.111 32.533 121.539 30.8709 121.475 28.0198H131.511V27.1504C131.511 23.0335 129.12 20.1309 125.374 20.1309C121.628 20.1309 119.083 23.1614 119.083 27.4189V27.4316C119.083 31.7531 121.577 34.5147 125.515 34.5147ZM125.361 22.228C127.394 22.228 128.903 23.5194 129.133 26.2426H121.513C121.756 23.6216 123.316 22.228 125.361 22.228Z" fill="white"/>
<path d="M134.617 34.2717H136.957V25.7312C136.957 23.7111 138.466 22.3687 140.588 22.3687C141.074 22.3687 141.611 22.5353 142.072 22.612V20.4513C141.854 20.4129 141.266 20.2463 140.844 20.2463C138.977 20.2463 137.686 21.0902 137.162 22.5349H136.957V20.4893H134.617V34.2717Z" fill="white"/>
<ellipse rx="5.23684" ry="5.23684" transform="matrix(-1 -6.16436e-08 -6.16436e-08 1 16.98 6.18605)" fill="#E54D57"/>
<circle r="5.23684" transform="matrix(-1 -6.16436e-08 -6.16436e-08 1 5.23679 18.0454)" fill="#E54D57"/>
<circle r="5.23684" transform="matrix(-1 -6.16436e-08 -6.16436e-08 1 17.0962 18.0454)" fill="#07D6A5"/>
<circle r="5.23684" transform="matrix(-1 -6.16436e-08 -6.16436e-08 1 5.23679 29.9048)" fill="#07D6A5"/>
<circle r="5.23684" transform="matrix(-1 -6.16436e-08 -6.16436e-08 1 17.0962 29.9048)" fill="#07D6A5"/>
</svg>
