<svg width="82" height="81" viewBox="0 0 82 81" fill="none" xmlns="http://www.w3.org/2000/svg">
<circle cx="40.8673" cy="40.4466" r="40.1625" fill="#FAFAFA"/>
<g clip-path="url(#clip0)">
<path d="M59.0571 36.9388C60.3364 35.9641 61.1677 34.4288 61.1677 32.6994C61.1677 29.7588 58.7751 27.3661 55.8344 27.3661C52.8937 27.3661 50.5011 29.7588 50.5011 32.6994C50.5011 34.2928 51.2071 35.7214 52.3184 36.6994H48.7771L44.3057 32.2281C44.0451 31.9674 43.6237 31.9674 43.3631 32.2281L40.6964 34.8948C40.4357 35.1554 40.4357 35.5768 40.6964 35.8374L46.6964 41.8374C46.8211 41.9628 46.9904 42.0328 47.1677 42.0328H52.5011V46.6994H49.1677H41.0797L44.3891 41.7361L43.2797 40.9968L39.4777 46.6994H37.8344V43.3661C37.8344 42.9974 37.5364 42.6994 37.1677 42.6994H31.8344V40.0328C31.8344 38.6274 30.9571 37.4281 29.7237 36.9388C31.0031 35.9641 31.8344 34.4288 31.8344 32.6994C31.8344 29.7588 29.4417 27.3661 26.5011 27.3661C23.5604 27.3661 21.1677 29.7588 21.1677 32.6994C21.1677 34.4288 21.9991 35.9641 23.2784 36.9388C22.0451 37.4281 21.1677 38.6274 21.1677 40.0328V49.3661C21.1677 51.2041 22.6631 52.6994 24.5011 52.6994V60.6994H25.8344V52.6994H30.5011V60.0328C30.5011 60.4014 30.7991 60.6994 31.1677 60.6994H35.8344C36.2031 60.6994 36.5011 60.4014 36.5011 60.0328V50.0328C36.5011 49.2828 36.2524 48.5901 35.8331 48.0328H36.5011H37.1677H40.5011V59.3661H37.8344V60.6994H44.5011V59.3661H41.8344V48.0328H46.5184C46.0951 48.5914 45.8344 49.2794 45.8344 50.0328V60.0328C45.8344 60.4014 46.1324 60.6994 46.5011 60.6994H51.1677C51.5364 60.6994 51.8344 60.4014 51.8344 60.0328V52.6994H56.5011V60.6994H57.8344V52.6994C59.6724 52.6994 61.1677 51.2041 61.1677 49.3661V40.0328C61.1677 38.6274 60.2904 37.4281 59.0571 36.9388ZM22.5011 32.6994C22.5011 30.4934 24.2951 28.6994 26.5011 28.6994C28.7071 28.6994 30.5011 30.4934 30.5011 32.6994C30.5011 34.9054 28.7071 36.6994 26.5011 36.6994C24.2951 36.6994 22.5011 34.9054 22.5011 32.6994ZM36.5011 46.6994H27.8344V41.3661H26.5011V47.3661C26.5011 47.7348 26.7991 48.0328 27.1677 48.0328H33.1677C34.2704 48.0328 35.1677 48.9301 35.1677 50.0328V59.3661H31.8344V52.0328C31.8344 51.6641 31.5364 51.3661 31.1677 51.3661H24.5011C23.3984 51.3661 22.5011 50.4688 22.5011 49.3661V40.0328C22.5011 38.9301 23.3984 38.0328 24.5011 38.0328H28.5011C29.6037 38.0328 30.5011 38.9301 30.5011 40.0328V43.3661C30.5011 43.7348 30.7991 44.0328 31.1677 44.0328H36.5011V46.6994ZM51.8344 32.6994C51.8344 30.4934 53.6284 28.6994 55.8344 28.6994C58.0404 28.6994 59.8344 30.4934 59.8344 32.6994C59.8344 34.9054 58.0404 36.6994 55.8344 36.6994C53.6284 36.6994 51.8344 34.9054 51.8344 32.6994ZM59.8344 49.3661C59.8344 50.4688 58.9371 51.3661 57.8344 51.3661H51.1677C50.7991 51.3661 50.5011 51.6641 50.5011 52.0328V59.3661H47.1677V50.0328C47.1677 48.9301 48.0651 48.0328 49.1677 48.0328H53.1677C53.5364 48.0328 53.8344 47.7348 53.8344 47.3661V41.3661C53.8344 40.9974 53.5364 40.6994 53.1677 40.6994H47.4437L42.1104 35.3661L43.8344 33.6421L48.0297 37.8374C48.1544 37.9628 48.3237 38.0328 48.5011 38.0328H57.8344C58.9371 38.0328 59.8344 38.9301 59.8344 40.0328V49.3661Z" fill="#0ABE98"/>
<path d="M47.8344 20.6994H34.5011C33.3984 20.6994 32.5011 21.5968 32.5011 22.6994V28.0328C32.5011 29.1354 33.3984 30.0328 34.5011 30.0328H35.1678V34.0328C35.1678 34.3021 35.3298 34.5461 35.5791 34.6488C35.6618 34.6834 35.7484 34.6994 35.8344 34.6994C36.0078 34.6994 36.1784 34.6314 36.3058 34.5041L40.7771 30.0328H47.8344C48.9371 30.0328 49.8344 29.1354 49.8344 28.0328V22.6994C49.8344 21.5968 48.9371 20.6994 47.8344 20.6994ZM48.5011 28.0328C48.5011 28.4008 48.2024 28.6994 47.8344 28.6994H40.5011C40.3238 28.6994 40.1544 28.7694 40.0298 28.8948L36.5011 32.4234V29.3661C36.5011 28.9974 36.2031 28.6994 35.8344 28.6994H34.5011C34.1331 28.6994 33.8344 28.4008 33.8344 28.0328V22.6994C33.8344 22.3314 34.1331 22.0328 34.5011 22.0328H47.8344C48.2024 22.0328 48.5011 22.3314 48.5011 22.6994V28.0328Z" fill="#0ABE98"/>
<path d="M47.1677 26.0328H35.1677V27.3661H47.1677V26.0328Z" fill="#0ABE98"/>
<path d="M47.1678 23.3661H40.5011V24.6994H47.1678V23.3661Z" fill="#0ABE98"/>
</g>
<defs>
<clipPath id="clip0">
<rect width="40" height="40" fill="white" transform="translate(21.1677 20.6994)"/>
</clipPath>
</defs>
</svg>
