<svg width="12" height="11" viewBox="0 0 12 11" fill="none" xmlns="http://www.w3.org/2000/svg">
<path d="M4.32292 10.4612C4.59906 10.4612 4.82292 10.2373 4.82292 9.96118V7.43177C4.82292 7.15563 5.04677 6.93177 5.32292 6.93177H6.65625C6.93239 6.93177 7.15625 7.15563 7.15625 7.43177V9.96118C7.15625 10.2373 7.38011 10.4612 7.65625 10.4612H9.57292C9.84906 10.4612 10.0729 10.2373 10.0729 9.96118V6.24279C10.0729 5.97356 10.2912 5.7553 10.5604 5.7553C11.0062 5.7553 11.2181 5.20641 10.888 4.90682L6.32561 0.766147C6.13499 0.593149 5.84418 0.593149 5.65356 0.766147L1.09114 4.90683C0.761042 5.20641 0.972982 5.7553 1.41876 5.7553C1.68799 5.7553 1.90625 5.97356 1.90625 6.24279V9.96118C1.90625 10.2373 2.13011 10.4612 2.40625 10.4612H4.32292Z" fill="#667682"/>
</svg>
