<svg width="26" height="23" viewBox="0 0 26 23" fill="none" xmlns="http://www.w3.org/2000/svg">
<path fill-rule="evenodd" clip-rule="evenodd" d="M17.8599 10.9092C16.9671 10.9092 16.2446 11.6142 16.2446 12.4842C16.2446 13.3536 16.9671 14.0595 17.8599 14.0595C18.7518 14.0595 19.4751 13.3536 19.4751 12.4842C19.4751 11.6142 18.7518 10.9092 17.8599 10.9092Z" fill="white"/>
<path fill-rule="evenodd" clip-rule="evenodd" d="M23.2144 10.9115C22.697 10.1216 21.9975 9.40102 21.1535 8.77731C21.4131 8.24419 21.9699 7.87557 22.6134 7.87557C23.5033 7.87557 24.2286 8.58195 24.2286 9.45057C24.2286 10.1111 23.8085 10.6785 23.2144 10.9115ZM12.9219 20.1808C7.73651 20.1808 3.53343 17.4912 3.53343 14.1759C3.53343 10.8597 7.73651 8.17086 12.9219 8.17086C18.1077 8.17086 22.3107 10.8597 22.3107 14.1759C22.3107 17.4912 18.1077 20.1808 12.9219 20.1808ZM1.61524 9.45057C1.61524 8.58195 2.34031 7.87557 3.23049 7.87557C3.87428 7.87557 4.43165 8.24419 4.68952 8.77731C3.84643 9.40102 3.14692 10.1216 2.62976 10.9115C2.03478 10.6785 1.61524 10.1111 1.61524 9.45057ZM21.8059 1.47676C22.3076 1.47676 22.7145 1.87256 22.7145 2.36264C22.7145 2.85187 22.3076 3.24853 21.8059 3.24853C21.3043 3.24853 20.8974 2.85187 20.8974 2.36264C20.8974 1.87256 21.3043 1.47676 21.8059 1.47676ZM22.6134 6.30028C21.3999 6.30028 20.342 6.95401 19.7907 7.91973C18.1298 7.03357 16.1068 6.46195 13.9031 6.33029L15.8308 2.1084L19.5202 3.14717C19.8524 4.06618 20.7498 4.72528 21.8059 4.72528C23.1443 4.72528 24.2286 3.66726 24.2286 2.36264C24.2286 1.05717 23.1443 0 21.8059 0C20.883 0 20.081 0.502539 19.6715 1.2429L15.5595 0.0857856C15.1003 -0.0436006 14.613 0.177234 14.4174 0.60333L11.7997 6.3385C9.65039 6.48601 7.67879 7.05338 6.05407 7.91973C5.50274 6.95401 4.44429 6.30028 3.23049 6.30028C1.4464 6.30028 0 7.71079 0 9.45057C0 10.7376 0.792546 11.8441 1.92767 12.3325C1.7235 12.9236 1.61524 13.5408 1.61524 14.1759C1.61524 18.5246 6.6772 22.0514 12.9219 22.0514C19.1661 22.0514 24.2286 18.5246 24.2286 14.1759C24.2286 13.5408 24.1207 12.9236 23.9165 12.333C25.0505 11.8441 25.8439 10.7376 25.8439 9.45057C25.8439 7.71079 24.3975 6.30028 22.6134 6.30028Z" fill="white"/>
<path fill-rule="evenodd" clip-rule="evenodd" d="M9.87599 12.4842C9.87599 11.6139 9.15265 10.9092 8.26075 10.9092C7.36799 10.9092 6.64551 11.6139 6.64551 12.4842C6.64551 13.3536 7.36799 14.0592 8.26075 14.0592C9.15265 14.0592 9.87599 13.3536 9.87599 12.4842Z" fill="white"/>
<path fill-rule="evenodd" clip-rule="evenodd" d="M16.2929 16.2005C15.6264 16.7126 14.3069 17.2644 12.9843 17.2644C11.6617 17.2644 10.3422 16.7126 9.67569 16.2005C9.25932 15.8811 8.65601 15.9507 8.32865 16.3565C8.00043 16.7619 8.07222 17.3502 8.48716 17.6693C9.6464 18.5591 11.411 19.135 12.9843 19.135C14.557 19.135 16.3219 18.5591 17.4805 17.6693C17.8961 17.3502 17.9681 16.7619 17.6408 16.3565C17.3117 15.9507 16.7092 15.8811 16.2929 16.2005Z" fill="white"/>
</svg>
