<svg width="25" height="20" viewBox="0 0 25 20" fill="none" xmlns="http://www.w3.org/2000/svg">
<path fill-rule="evenodd" clip-rule="evenodd" d="M10.2861 13.738L9.65278 13.2761L9.20048 13.1321C9.65129 12.7381 19.6104 3.41644 19.012 3.77388L6.33501 11.6512L0.859241 9.96783C-0.323282 9.61121 -0.331774 8.81086 1.12473 8.23546L22.4625 0.131645C23.4371 -0.304137 24.3777 0.36219 24.0057 1.83132L20.3719 18.6973C20.1181 19.8958 19.3829 20.1825 18.3642 19.6289L12.8338 15.5959L10.1679 18.149C10.1596 18.1571 10.1512 18.1651 10.1429 18.173C9.84533 18.4584 9.59912 18.6945 9.06035 18.6945L9.20048 13.1321L10.2861 13.738Z" fill="white"/>
</svg>
