<svg width="150" height="147" viewBox="0 0 150 147" fill="none" xmlns="http://www.w3.org/2000/svg">
<g id="Dash">
<path id="Logo" fill-rule="evenodd" clip-rule="evenodd" d="M75.2261 146.868C115.416 146.868 147.996 114.633 147.996 74.8682C147.996 35.1037 115.416 2.86816 75.2261 2.86816C35.0366 2.86816 2.45654 35.1037 2.45654 74.8682C2.45654 114.633 35.0366 146.868 75.2261 146.868ZM43.1158 60.9566C43.1837 60.7136 43.2392 60.4735 43.3177 60.2409C44.7212 56.0796 46.1273 51.9192 47.5336 47.7588C47.7784 47.0345 47.78 47.0325 48.5661 47.0325C62.4464 47.032 76.3269 47.0321 90.2073 47.0321C97.8034 47.0321 105.399 47.0386 112.995 47.0281C115.162 47.0251 117.169 47.5842 119.048 48.6155C120.057 49.1698 120.854 49.9561 121.464 50.9339C122.482 52.5641 122.969 54.3415 123.188 56.2364C123.409 58.1553 123.058 59.9408 122.413 61.741C121.533 64.1992 120.793 66.7062 119.993 69.1923C117.949 75.5454 115.916 81.9021 113.853 88.2489C113.421 89.5767 112.709 90.7884 112.04 92.0149C110.686 94.4977 108.704 96.4288 106.559 98.2288C104.996 99.54 103.218 100.514 101.46 101.528C99.8479 102.457 98.0833 102.84 96.2717 103.058C95.3817 103.164 94.4766 103.183 93.5784 103.183C72.4347 103.19 51.291 103.188 30.1474 103.187C29.84 103.187 29.5324 103.167 29.1386 103.154C29.194 102.887 29.2147 102.683 29.2787 102.494C30.7137 98.2392 32.1524 93.986 33.5934 89.7337C33.79 89.1538 33.7977 89.1537 34.4899 89.1536C43.0061 89.1529 51.5223 89.1531 60.0385 89.1531H91.754C91.891 89.1531 92.028 89.1537 92.1651 89.153C92.8083 89.1496 92.812 89.1507 93.0177 88.5276C94.4976 84.0447 95.9744 79.5609 97.4547 75.0781C98.8987 70.7055 100.346 66.3339 101.79 61.9612C101.867 61.7274 101.923 61.4869 102.01 61.1742C101.704 61.1564 101.458 61.1298 101.213 61.1297C97.1998 61.1271 93.1864 61.1279 89.173 61.1279C74.1767 61.1279 59.1804 61.1283 44.184 61.1252C43.8407 61.1251 43.48 61.19 43.1158 60.9566M27.0363 81.3721C27.1218 81.0698 27.1732 80.8321 27.2557 80.6054C28.5701 76.9958 29.8883 73.3877 31.2057 69.7791C31.3248 69.4528 31.4439 69.1265 31.5612 68.7994C31.6429 68.5719 31.7972 68.4573 32.0478 68.4693C32.2035 68.4768 32.36 68.4683 32.5162 68.4683C43.5467 68.4682 54.5771 68.468 65.6076 68.4697C65.8751 68.4698 66.1426 68.4915 66.4936 68.5068C66.4221 68.791 66.3822 69.0116 66.3114 69.222C65.0238 73.0464 63.7332 76.8698 62.4413 80.6927C62.1936 81.4257 62.1898 81.4268 61.4164 81.4268C50.7569 81.4274 40.0974 81.4273 29.4378 81.4272C28.8521 81.4272 28.2663 81.4308 27.6808 81.4246C27.4927 81.4227 27.3048 81.3949 27.0363 81.3721" fill="white" fill-opacity="0.3"/>
</g>
</svg>
