<svg width="135" height="132" viewBox="0 0 135 132" fill="none" xmlns="http://www.w3.org/2000/svg">
<g id="NEM">
<path id="Fill 4" fill-rule="evenodd" clip-rule="evenodd" d="M0.907372 17.4776C9.79556 12.3935 19.1005 8.40861 28.8914 5.52303C42.2237 1.60681 55.7644 -0.248202 69.6522 0.0266133C76.1101 0.163992 86.8731 1.19456 88.6785 1.88163C88.7479 2.01906 88.6091 2.08775 88.4702 2.08775C87.8453 2.36257 87.1508 2.56869 86.5259 2.84351C75.0684 7.58411 66.9441 17.5463 64.5831 29.6384C64.2359 31.6308 64.0276 33.6233 63.9581 35.6157C63.8887 38.6387 63.6109 41.6617 62.7082 44.6161C59.6529 55.2653 50.8341 63.5786 39.9322 66.052C25.6277 69.2811 11.1844 62.2732 4.93481 49.1506C4.58763 48.3948 4.30988 47.6391 4.17098 46.8833C3.12939 42.4175 2.36556 37.9517 1.81005 33.4172C1.18507 28.4017 0.837891 23.3862 0.837891 18.3708C0.907372 18.0272 0.907372 17.8212 0.907372 17.4776Z" fill="white" fill-opacity="0.3"/>
<path id="Fill 6" fill-rule="evenodd" clip-rule="evenodd" d="M103.676 96.0759C103.746 94.8392 102.565 82.816 99.3014 76.8386C96.1767 71.1361 91.802 66.6015 86.1775 63.1663C85.6914 62.8228 85.1358 62.548 84.6498 62.2044C76.9421 57.3952 72.2202 50.5934 70.5536 41.7305C67.5677 25.7909 77.7059 10.4011 93.6074 6.62228C99.232 5.31684 104.718 5.45428 110.203 7.17191C114.717 8.54599 119.022 10.4011 123.327 12.3935C126.313 13.7676 129.16 15.2791 132.007 16.8593C132.354 17.0654 132.632 17.2028 133.049 17.4776C133.049 17.7524 133.118 17.9586 133.118 18.2334C133.118 21.8747 132.91 25.5848 132.632 29.2262C132.222 34.5993 131.313 39.9441 130.202 45.1657C126.799 60.6929 120.758 75.0523 112.009 88.381C109.578 92.0911 106.94 95.6637 104.162 99.099C103.884 99.3051 103.746 99.5799 103.329 99.786C103.468 98.4806 103.607 97.3126 103.676 96.0759Z" fill="white" fill-opacity="0.3"/>
<path id="Fill 8" fill-rule="evenodd" clip-rule="evenodd" d="M67.0119 130.497C65.9703 130.085 62.7761 128.161 59.3735 125.894C51.8047 120.878 44.7913 115.107 38.4029 108.649C32.0145 102.19 26.3205 95.1138 21.4598 87.4875C16.8768 80.4109 13.0576 72.9908 10.0023 65.1584C9.93285 64.9523 9.86337 64.8149 9.79395 64.4714C10.1411 64.6775 10.28 64.7462 10.4884 64.8837C12.9187 66.7387 15.488 68.3189 18.2655 69.4868C21.807 70.9983 25.4872 72.0289 29.3758 72.3724C37.2225 73.1282 44.583 71.548 51.5269 67.7006C55.1378 65.7081 59.0263 64.4027 63.1233 63.853C77.636 62.0667 92.0795 70.5862 96.593 85.4264C98.8845 93.0526 98.1901 100.473 94.6486 107.687C94.1626 108.649 93.7459 109.542 93.2599 110.435C92.9821 110.985 92.6349 111.534 92.1489 111.946C84.7883 118.817 76.7334 124.863 67.984 129.947C67.6368 130.153 67.2895 130.359 67.0119 130.497V130.497Z" fill="white" fill-opacity="0.3"/>
</g>
</svg>
