<svg width="20" height="9" viewBox="0 0 20 9" fill="none" xmlns="http://www.w3.org/2000/svg">
<path fill-rule="evenodd" clip-rule="evenodd" d="M8.31616 2.35714C7.56687 0.954385 6.1048 0 4.42475 0C1.98104 0 0 2.01473 0 4.5C0 6.98527 1.98104 9 4.42475 9C6.1048 9 7.56687 8.04562 8.31616 6.64286H11.3779L12.6421 5.35714L13.9064 6.64286L15.1706 5.35714L16.4348 6.64286L19.3846 4.28572L17.2776 2.35714H8.31616ZM1.68547 4.50015C1.68547 3.79007 2.25148 3.21443 2.94969 3.21443C3.64789 3.21443 4.2139 3.79007 4.2139 4.50015C4.2139 5.21023 3.64789 5.78586 2.94969 5.78586C2.25148 5.78586 1.68547 5.21023 1.68547 4.50015Z" fill="#4CAE89"/>
</svg>
