<svg width="49" height="49" viewBox="0 0 49 49" fill="none" xmlns="http://www.w3.org/2000/svg">
<mask id="mask0" mask-type="alpha" maskUnits="userSpaceOnUse" x="0" y="0" width="49" height="49">
<path d="M48.2969 0.165039H0.296875V48.165H48.2969V0.165039Z" fill="url(#paint0_linear)"/>
</mask>
<g mask="url(#mask0)">
<path d="M48.2969 0.165039H0.296875V48.165H48.2969V0.165039Z" fill="url(#paint1_linear)"/>
<path d="M36.3716 47.9658H12.1211C12.1211 43.2853 15.929 39.6007 20.5386 39.6007H27.8539C32.6639 39.6007 36.3716 43.3849 36.3716 47.9658Z" fill="white"/>
<path d="M24.2458 74.2563C34.3184 74.2563 42.4838 66.1417 42.4838 56.1318C42.4838 46.1219 34.3184 38.0073 24.2458 38.0073C14.1732 38.0073 6.00781 46.1219 6.00781 56.1318C6.00781 66.1417 14.1732 74.2563 24.2458 74.2563Z" fill="white"/>
<path d="M38.9785 18.5883H9.91797V24.9617H38.9785V18.5883Z" fill="white"/>
<path d="M0.0957918 35.4181C7.67789 35.4181 13.8244 29.3099 13.8244 21.775C13.8244 14.2401 7.67789 8.13184 0.0957918 8.13184C-7.4863 8.13184 -13.6328 14.2401 -13.6328 21.775C-13.6328 29.3099 -7.4863 35.4181 0.0957918 35.4181Z" fill="#637786"/>
<path d="M48.295 35.4181C55.8771 35.4181 62.0236 29.3099 62.0236 21.775C62.0236 14.2401 55.8771 8.13184 48.295 8.13184C40.7129 8.13184 34.5664 14.2401 34.5664 21.775C34.5664 29.3099 40.7129 35.4181 48.295 35.4181Z" fill="#637786"/>
</g>
<defs>
<linearGradient id="paint0_linear" x1="0.317919" y1="24.1738" x2="48.2929" y2="24.1738" gradientUnits="userSpaceOnUse">
<stop stop-color="#00E8B6"/>
<stop offset="1" stop-color="#01BD95"/>
</linearGradient>
<linearGradient id="paint1_linear" x1="1.06211" y1="24.165" x2="47.1125" y2="24.165" gradientUnits="userSpaceOnUse">
<stop stop-color="#00F2D5"/>
<stop offset="0.953125" stop-color="#01BD95"/>
</linearGradient>
</defs>
</svg>
