<svg width="12" height="9" viewBox="0 0 12 9" fill="none" xmlns="http://www.w3.org/2000/svg">
<path d="M4.76117 5.97302V2.77936L8.00221 4.38571L4.76117 5.97302ZM6 0.5C3.47547 0.5 1.80138 0.614286 1.80138 0.614286C1.56701 0.639682 1.05139 0.639682 0.596037 1.09683C0.596037 1.09683 0.227737 1.43968 0.120595 2.22698C-0.00663562 3.14762 6.07379e-05 4.06825 6.07379e-05 4.06825V4.93175C6.07379e-05 4.93175 -0.00663562 5.85238 0.120595 6.77302C0.227737 7.55397 0.596037 7.90317 0.596037 7.90317C1.05139 8.35397 1.65406 8.34127 1.92192 8.38571C1.92192 8.38571 2.8795 8.4746 6 8.5C8.52453 8.5 10.1986 8.37936 10.1986 8.37936C10.433 8.35397 10.9486 8.35397 11.404 7.90317C11.404 7.90317 11.7723 7.55397 11.8794 6.77302C12.0066 5.85238 11.9999 4.93175 11.9999 4.93175V4.06825C11.9999 4.06825 12.0066 3.14762 11.8794 2.22698C11.7723 1.43968 11.404 1.09683 11.404 1.09683C10.9486 0.639682 10.433 0.639682 10.1986 0.614286C10.1986 0.614286 8.52453 0.5 6 0.5Z" fill="#F84040"/>
</svg>
