<svg width="8" height="7" viewBox="0 0 8 7" fill="none" xmlns="http://www.w3.org/2000/svg">
<path d="M3.17412 4.5127V2.31706L5.33481 3.42143L3.17412 4.5127ZM4 0.75C2.31698 0.75 1.20092 0.828571 1.20092 0.828571C1.04467 0.846032 0.700926 0.846032 0.397358 1.16032C0.397358 1.16032 0.151825 1.39603 0.0803968 1.9373C-0.00442375 2.57024 4.04919e-05 3.20317 4.04919e-05 3.20317V3.79683C4.04919e-05 3.79683 -0.00442375 4.42976 0.0803968 5.0627C0.151825 5.5996 0.397358 5.83968 0.397358 5.83968C0.700926 6.1496 1.10271 6.14087 1.28128 6.17143C1.28128 6.17143 1.91966 6.23254 4 6.25C5.68302 6.25 6.79908 6.16706 6.79908 6.16706C6.95533 6.1496 7.29907 6.1496 7.60264 5.83968C7.60264 5.83968 7.84818 5.5996 7.9196 5.0627C8.00443 4.42976 7.99996 3.79683 7.99996 3.79683V3.20317C7.99996 3.20317 8.00443 2.57024 7.9196 1.9373C7.84818 1.39603 7.60264 1.16032 7.60264 1.16032C7.29907 0.846032 6.95533 0.846032 6.79908 0.828571C6.79908 0.828571 5.68302 0.75 4 0.75Z" fill="#F84040"/>
</svg>
