<svg width="141" height="37" viewBox="0 0 141 37" fill="none" xmlns="http://www.w3.org/2000/svg">
<path fill-rule="evenodd" clip-rule="evenodd" d="M64.0327 23.8534C64.0327 23.5037 63.9697 23.1669 63.8437 22.8399C63.7167 22.5139 63.5137 22.2235 63.2367 21.9656C62.9577 21.7098 62.5977 21.5063 62.1557 21.3542C61.7127 21.202 61.1887 21.127 60.5817 21.127H55.6137V26.5098H60.5817C61.8207 26.5098 62.7057 26.243 63.2367 25.7066C63.7677 25.1702 64.0327 24.5528 64.0327 23.8534ZM63.4267 14.1368C63.4267 13.4611 63.1727 12.9069 62.6677 12.4752C62.1617 12.0445 61.3027 11.8291 60.0887 11.8291H55.6137V16.6885H60.0887C61.3027 16.6885 62.1617 16.4316 62.6677 15.9189C63.1727 15.4072 63.4267 14.8125 63.4267 14.1368ZM70.0247 24.0981C70.0247 25.1934 69.8037 26.1831 69.3617 27.0691C68.9187 27.9541 68.3247 28.7116 67.5787 29.3408C66.8327 29.97 65.9607 30.4589 64.9617 30.8085C63.9627 31.1582 62.9077 31.333 61.7957 31.333H49.7737V7.00586H60.8857C62.2757 7.00586 63.5137 7.17574 64.6017 7.51354C65.6887 7.85133 66.6047 8.32247 67.3507 8.92892C68.0967 9.53438 68.6597 10.2623 69.0387 11.1137C69.4177 11.9641 69.6077 12.8896 69.6077 13.8921C69.6077 14.7781 69.3547 15.6631 68.8487 16.5481C68.3437 17.434 67.4967 18.1333 66.3077 18.646V18.7852C66.9147 18.9956 67.4457 19.2978 67.9017 19.6939C68.3567 20.09 68.7407 20.5335 69.0577 21.0224C69.3737 21.5113 69.6137 22.0239 69.7787 22.5592C69.9427 23.0956 70.0247 23.6092 70.0247 24.0981Z" fill="white" fill-opacity="0.5"/>
<path fill-rule="evenodd" clip-rule="evenodd" d="M73.3236 13.926C73.4496 12.8306 73.7606 11.8458 74.2536 10.9727C74.7456 10.0985 75.3716 9.35277 76.1306 8.73543C76.8876 8.11809 77.7416 7.64595 78.6896 7.32C79.6376 6.99306 80.6306 6.83008 81.6676 6.83008C82.8806 6.83008 84.0056 6.97034 85.0426 7.24987C86.0786 7.5294 86.9756 7.96006 87.7346 8.54282C88.4936 9.12559 89.0876 9.84862 89.5166 10.7099C89.9466 11.5722 90.1626 12.5866 90.1626 13.7512C90.1626 14.6372 89.9976 15.5104 89.6696 16.3727C89.3406 17.235 88.8856 17.9807 88.3036 18.6099L80.7946 26.5089H90.1246V31.333H73.2476V27.0344L83.7906 15.8827C84.2706 15.3711 84.5116 14.7883 84.5116 14.1354C84.5116 13.5062 84.2776 12.9363 83.8096 12.4227C83.3416 11.91 82.6656 11.6542 81.7806 11.6542C81.0476 11.6542 80.4026 11.8932 79.8466 12.3703C79.2906 12.8484 78.9366 13.6465 78.7846 14.7646L73.3236 13.926Z" fill="white" fill-opacity="0.5"/>
<path fill-rule="evenodd" clip-rule="evenodd" d="M109.049 23.8534C109.049 23.5037 108.986 23.1669 108.86 22.8399C108.733 22.5139 108.53 22.2235 108.253 21.9656C107.974 21.7098 107.614 21.5063 107.172 21.3542C106.73 21.202 106.205 21.127 105.598 21.127H100.63V26.5098H105.598C106.836 26.5098 107.722 26.243 108.253 25.7066C108.783 25.1702 109.049 24.5528 109.049 23.8534ZM108.443 14.1368C108.443 13.4611 108.19 12.9069 107.684 12.4752C107.178 12.0445 106.319 11.8291 105.105 11.8291H100.63V16.6885H105.105C106.319 16.6885 107.178 16.4316 107.684 15.9189C108.19 15.4072 108.443 14.8125 108.443 14.1368ZM115.041 24.0981C115.041 25.1934 114.82 26.1831 114.377 27.0691C113.935 27.9541 113.341 28.7116 112.595 29.3408C111.849 29.97 110.977 30.4589 109.979 30.8085C108.98 31.1582 107.924 31.333 106.812 31.333H94.7886V7.00586H105.902C107.291 7.00586 108.53 7.17574 109.618 7.51354C110.705 7.85133 111.621 8.32247 112.367 8.92892C113.112 9.53438 113.676 10.2623 114.055 11.1137C114.435 11.9641 114.624 12.8896 114.624 13.8921C114.624 14.7781 114.371 15.6631 113.865 16.5481C113.36 17.434 112.513 18.1333 111.324 18.646V18.7852C111.932 18.9956 112.462 19.2978 112.917 19.6939C113.372 20.09 113.758 20.5335 114.074 21.0224C114.39 21.5113 114.63 22.0239 114.795 22.5592C114.959 23.0956 115.041 23.6092 115.041 24.0981Z" fill="white" fill-opacity="0.5"/>
<path fill-rule="evenodd" clip-rule="evenodd" d="M133.395 31.333L128.124 23.4334L122.89 31.333H116.291L125.242 18.8899L116.785 7.00586H123.421L128.124 14.3109L132.865 7.00586H139.501L131.044 18.8899L140.032 31.333H133.395Z" fill="white" fill-opacity="0.5"/>
<mask id="mask0" mask-type="alpha" maskUnits="userSpaceOnUse" x="0" y="0" width="141" height="37">
<path fill-rule="evenodd" clip-rule="evenodd" d="M0 36.7549H140.032V0H0V36.7549Z" fill="white"/>
</mask>
<g mask="url(#mask0)">
<path fill-rule="evenodd" clip-rule="evenodd" d="M18.605 26.4746H26.803V18.3789H18.605V26.4746Z" fill="white" fill-opacity="0.5"/>
<path fill-rule="evenodd" clip-rule="evenodd" d="M10.408 18.3779H18.606V10.2803H10.408V18.3779Z" fill="white" fill-opacity="0.5"/>
<path fill-rule="evenodd" clip-rule="evenodd" d="M9.786 22.4264H6.308V6.23089H22.704V9.66636L32.491 -0.000976562H0V32.0928L9.786 22.4264Z" fill="white" fill-opacity="0.5"/>
<path fill-rule="evenodd" clip-rule="evenodd" d="M27.4247 14.3285H30.9027V30.524H14.5067V27.0885L4.71973 36.7559H37.2108V4.66211L27.4247 14.3285Z" fill="white" fill-opacity="0.5"/>
</g>
</svg>
