<svg width="83" height="2172" viewBox="0 0 83 2172" fill="none" xmlns="http://www.w3.org/2000/svg">
<path d="M82.7071 621.565C83.0976 621.174 83.0976 620.541 82.7071 620.151L76.3431 613.787C75.9526 613.396 75.3195 613.396 74.9289 613.787C74.5384 614.177 74.5384 614.811 74.9289 615.201L80.5858 620.858L74.9289 626.515C74.5384 626.905 74.5384 627.538 74.9289 627.929C75.3195 628.32 75.9526 628.32 76.3431 627.929L82.7071 621.565ZM82.7071 78.168C83.0976 77.7775 83.0976 77.1444 82.7071 76.7538L76.3431 70.3899C75.9526 69.9993 75.3195 69.9993 74.9289 70.3899C74.5384 70.7804 74.5384 71.4136 74.9289 71.8041L80.5858 77.4609L74.9289 83.1178C74.5384 83.5083 74.5384 84.1415 74.9289 84.532C75.3195 84.9225 75.9526 84.9225 76.3431 84.532L82.7071 78.168ZM78.3321 1714.67C78.7226 1714.28 78.7226 1713.64 78.3321 1713.25L71.9681 1706.89C71.5776 1706.5 70.9445 1706.5 70.5539 1706.89C70.1634 1707.28 70.1634 1707.91 70.5539 1708.3L76.2108 1713.96L70.5539 1719.62C70.1634 1720.01 70.1634 1720.64 70.5539 1721.03C70.9445 1721.42 71.5776 1721.42 71.9681 1721.03L78.3321 1714.67ZM53 1708.96V620.858H51V1708.96H53ZM52 621.858H82V619.858H52V621.858ZM53 620.858V82.4609H51V620.858H53ZM57 78.4609H82V76.4609H57V78.4609ZM57 1714.96H77.625V1712.96H57V1714.96ZM53 82.4609C53 80.2519 54.7909 78.4609 57 78.4609V76.4609C53.6863 76.4609 51 79.1473 51 82.4609H53ZM51 1708.96C51 1712.27 53.6863 1714.96 57 1714.96V1712.96C54.7909 1712.96 53 1711.17 53 1708.96H51Z" fill="#798E9E" fill-opacity="0.5"/>
<path d="M82.7071 2163.8C83.0976 2164.19 83.0976 2164.82 82.7071 2165.21L76.3431 2171.58C75.9526 2171.97 75.3195 2171.97 74.9289 2171.58C74.5384 2171.19 74.5384 2170.56 74.9289 2170.16L80.5858 2164.51L74.9289 2158.85C74.5384 2158.46 74.5384 2157.83 74.9289 2157.44C75.3195 2157.05 75.9526 2157.05 76.3431 2157.44L82.7071 2163.8ZM82.7071 6.80071C83.0976 7.19123 83.0976 7.82439 82.7071 8.21492L76.3431 14.5789C75.9526 14.9694 75.3195 14.9694 74.9289 14.5789C74.5384 14.1884 74.5384 13.5552 74.9289 13.1647L80.5858 7.50781L74.9289 1.85096C74.5384 1.46043 74.5384 0.827269 74.9289 0.436745C75.3195 0.0462204 75.9526 0.0462204 76.3431 0.436745L82.7071 6.80071ZM82 2165.51H6V2163.51H82V2165.51ZM0 2159.51V12.5078H2V2159.51H0ZM6 6.50781H82V8.50781H6V6.50781ZM0 12.5078C0 9.19408 2.6863 6.50781 6 6.50781V8.50781C3.79086 8.50781 2 10.2987 2 12.5078H0ZM6 2165.51C2.6863 2165.51 0 2162.82 0 2159.51H2C2 2161.72 3.79086 2163.51 6 2163.51V2165.51Z" fill="#798E9E" fill-opacity="0.5"/>
</svg>
