<svg width="338" height="155" viewBox="0 0 338 155" fill="none" xmlns="http://www.w3.org/2000/svg">
<g clip-path="url(#clip0)">
<g clip-path="url(#clip1)">
<g clip-path="url(#clip2)">
<path d="M95.887 38.7584C106.412 38.7584 114.944 30.2263 114.944 19.7014C114.944 9.1766 106.412 0.644531 95.887 0.644531C85.3621 0.644531 76.8301 9.1766 76.8301 19.7014C76.8301 30.2263 85.3621 38.7584 95.887 38.7584Z" fill="#F0F0F0"/>
<path d="M80.7693 8.09961C79.2723 10.0472 78.1436 12.292 77.4863 14.7306H87.4002L80.7693 8.09961Z" fill="#0052B4"/>
<path d="M114.287 14.7305C113.63 12.292 112.501 10.0472 111.004 8.09961L104.373 14.7305H114.287Z" fill="#0052B4"/>
<path d="M77.4863 24.6719C78.1436 27.1104 79.2724 29.3552 80.7693 31.3027L87.4 24.6719H77.4863Z" fill="#0052B4"/>
<path d="M107.488 4.58378C105.541 3.08685 103.296 1.9581 100.857 1.30078V11.2146L107.488 4.58378Z" fill="#0052B4"/>
<path d="M84.2852 34.8183C86.2328 36.3152 88.4775 37.4439 90.9161 38.1013V28.1875L84.2852 34.8183Z" fill="#0052B4"/>
<path d="M90.916 1.30078C88.4775 1.9581 86.2327 3.08685 84.2852 4.58371L90.916 11.2145V1.30078Z" fill="#0052B4"/>
<path d="M100.857 38.1013C103.296 37.4439 105.541 36.3152 107.488 34.8183L100.857 28.1875V38.1013Z" fill="#0052B4"/>
<path d="M104.373 24.6719L111.004 31.3028C112.501 29.3553 113.63 27.1104 114.287 24.6719H104.373Z" fill="#0052B4"/>
<path d="M114.783 17.2158H98.3728H98.3727V0.805845C97.559 0.699915 96.7294 0.644531 95.887 0.644531C95.0444 0.644531 94.215 0.699915 93.4013 0.805845V17.2156V17.2157H76.9914C76.8855 18.0294 76.8301 18.859 76.8301 19.7014C76.8301 20.544 76.8855 21.3735 76.9914 22.1871H93.4012H93.4013V38.597C94.215 38.703 95.0444 38.7584 95.887 38.7584C96.7294 38.7584 97.559 38.703 98.3727 38.597V22.1873V22.1872H114.783C114.889 21.3735 114.944 20.544 114.944 19.7014C114.944 18.859 114.889 18.0294 114.783 17.2158Z" fill="#D80027"/>
<path d="M100.859 24.6739L109.363 33.1777C109.754 32.7868 110.127 32.378 110.483 31.9543L103.203 24.6738H100.859V24.6739Z" fill="#D80027"/>
<path d="M90.916 24.6738H90.9159L82.4121 33.1776C82.8031 33.5687 83.2118 33.9418 83.6355 34.2978L90.916 27.0172V24.6738Z" fill="#D80027"/>
<path d="M90.9151 14.7306V14.7305L82.4112 6.22656C82.0201 6.61753 81.647 7.02628 81.291 7.45L88.5716 14.7306H90.9151V14.7306Z" fill="#D80027"/>
<path d="M100.859 14.7296L109.363 6.22558C108.972 5.83447 108.564 5.46137 108.14 5.10547L100.859 12.386V14.7296Z" fill="#D80027"/>
</g>
<g clip-path="url(#clip3)">
<path d="M149.943 19.7016C149.943 22.0327 150.363 24.2656 151.129 26.3301L169 27.9872L186.872 26.3301C187.638 24.2656 188.057 22.0327 188.057 19.7016C188.057 17.3706 187.638 15.1376 186.872 13.0731L169 11.416L151.129 13.0731C150.363 15.1376 149.943 17.3706 149.943 19.7016Z" fill="#FFDA44"/>
<path d="M186.872 13.073C184.179 5.81617 177.194 0.644531 169 0.644531C160.807 0.644531 153.822 5.81617 151.129 13.073H186.872Z" fill="#D80027"/>
<path d="M151.129 26.3301C153.822 33.5869 160.807 38.7585 169 38.7585C177.194 38.7585 184.179 33.5869 186.872 26.3301H151.129Z" fill="#D80027"/>
</g>
<g clip-path="url(#clip4)">
<path d="M242.116 38.7584C252.64 38.7584 261.172 30.2263 261.172 19.7014C261.172 9.1766 252.64 0.644531 242.116 0.644531C231.591 0.644531 223.059 9.1766 223.059 19.7014C223.059 30.2263 231.591 38.7584 242.116 38.7584Z" fill="#F0F0F0"/>
<path d="M233.83 26.3301L235.487 37.5734C237.552 38.3394 239.785 38.7585 242.116 38.7585C250.309 38.7585 257.295 33.587 259.987 26.3301H233.83Z" fill="black"/>
<path d="M233.83 13.073L235.487 1.82971C237.552 1.06363 239.785 0.644531 242.116 0.644531C250.309 0.644531 257.295 5.8161 259.987 13.073H233.83Z" fill="#6DA544"/>
<path d="M223.059 19.7017C223.059 27.8955 228.23 34.8806 235.487 37.5732V1.83008C228.23 4.52269 223.059 11.5079 223.059 19.7017Z" fill="#A2001D"/>
</g>
</g>
<g clip-path="url(#clip5)">
<g clip-path="url(#clip6)">
<path d="M62.3284 96.8716C72.8532 96.8716 81.3853 88.3396 81.3853 77.8147C81.3853 67.2899 72.8532 58.7578 62.3284 58.7578C51.8036 58.7578 43.2715 67.2899 43.2715 77.8147C43.2715 88.3396 51.8036 96.8716 62.3284 96.8716Z" fill="#F0F0F0"/>
<path d="M43.2715 77.814C43.2715 85.0374 47.2905 91.3216 53.2142 94.5538V61.0742C47.2905 64.3064 43.2715 70.5906 43.2715 77.814Z" fill="#F0F0F0"/>
<path d="M62.329 58.7578C59.0276 58.7578 55.9223 59.5977 53.2148 61.0749V94.5544C55.9223 96.0317 59.0276 96.8716 62.329 96.8716C72.8538 96.8716 81.386 88.3395 81.386 77.8147C81.386 67.2899 72.8538 58.7578 62.329 58.7578Z" fill="#496E2D"/>
<path d="M70.4758 80.9693C68.0649 82.7113 64.6982 82.1691 62.9563 79.7582C61.2142 77.3472 61.7565 73.9806 64.1674 72.2387C64.9191 71.6956 65.7637 71.3745 66.623 71.2629C64.9699 71.0157 63.2224 71.3882 61.7606 72.4444C58.7934 74.5885 58.1259 78.732 60.2698 81.6993C62.4138 84.6665 66.5574 85.3341 69.5247 83.1899C70.9867 82.1336 71.889 80.5917 72.1732 78.9444C71.7976 79.725 71.2276 80.4261 70.4758 80.9693Z" fill="#F0F0F0"/>
<path d="M70.3721 71.1875L71.7302 72.6511L73.5418 71.812L72.5694 73.5557L73.9274 75.0194L71.9685 74.6335L70.9961 76.3773L70.7578 74.3949L68.7988 74.009L70.6105 73.1699L70.3721 71.1875Z" fill="#F0F0F0"/>
</g>
<g clip-path="url(#clip7)">
<path d="M133.442 96.8716C143.967 96.8716 152.499 88.3396 152.499 77.8147C152.499 67.2899 143.967 58.7578 133.442 58.7578C122.917 58.7578 114.385 67.2899 114.385 77.8147C114.385 88.3396 122.917 96.8716 133.442 96.8716Z" fill="#FFDA44"/>
<path d="M114.385 77.8147C114.385 67.2899 122.917 58.7578 133.442 58.7578C143.966 58.7578 152.499 67.2899 152.499 77.8147" fill="#338AF3"/>
</g>
<g clip-path="url(#clip8)">
<path d="M204.557 96.8716C215.082 96.8716 223.614 88.3396 223.614 77.8147C223.614 67.2899 215.082 58.7578 204.557 58.7578C194.032 58.7578 185.5 67.2899 185.5 77.8147C185.5 88.3396 194.032 96.8716 204.557 96.8716Z" fill="#FCFCFC"/>
<path d="M193.37 76.4336L191.299 72.6756L193.37 68.9766L195.442 72.6756L193.37 76.4336Z" fill="#A2001D"/>
<path d="M189.228 76.4336L187.156 72.6756L189.228 68.9766L191.299 72.6756L189.228 76.4336Z" fill="#A2001D"/>
<path d="M193.37 86.6524L191.299 82.8944L193.37 79.1953L195.442 82.8944L193.37 86.6524Z" fill="#A2001D"/>
<path d="M189.228 86.6524L187.156 82.8944L189.228 79.1953L191.299 82.8944L189.228 86.6524Z" fill="#A2001D"/>
<path d="M195.442 62.4574L194.856 61.4102C193.804 62.0334 192.817 62.7549 191.908 63.5622L193.371 66.2153L195.442 62.4574Z" fill="#A2001D"/>
<path d="M193.371 89.416L191.893 92.0554C192.801 92.8637 193.787 93.5864 194.838 94.2108L195.442 93.1151L193.371 89.416Z" fill="#A2001D"/>
<path d="M197.1 82.7871V95.3574C199.39 96.3324 201.91 96.8726 204.557 96.8726C212.75 96.8726 219.736 91.701 222.428 84.4442L197.1 82.7871Z" fill="#6DA544"/>
<path d="M222.428 84.4432C223.194 82.3787 223.614 80.1458 223.614 77.8147C223.614 67.2899 215.081 58.7578 204.557 58.7578C201.91 58.7578 199.39 59.2977 197.1 60.2725V84.4433H222.428V84.4432Z" fill="#A2001D"/>
</g>
<g clip-path="url(#clip9)">
<path d="M275.67 96.8716C286.195 96.8716 294.727 88.3396 294.727 77.8147C294.727 67.2899 286.195 58.7578 275.67 58.7578C265.145 58.7578 256.613 67.2899 256.613 77.8147C256.613 88.3396 265.145 96.8716 275.67 96.8716Z" fill="#D80027"/>
<path d="M274.891 74.3301L276.455 76.4848L278.987 75.6637L277.421 77.8165L278.985 79.9711L276.453 79.1469L274.887 81.2998L274.889 78.6377L272.357 77.8135L274.89 76.9924L274.891 74.3301Z" fill="#F0F0F0"/>
<path d="M270.624 83.1997C267.649 83.1997 265.238 80.7884 265.238 77.8141C265.238 74.8397 267.649 72.4284 270.624 72.4284C271.551 72.4284 272.424 72.663 273.185 73.0758C271.99 71.9069 270.356 71.1855 268.552 71.1855C264.891 71.1855 261.924 74.1532 261.924 77.814C261.924 81.4748 264.891 84.4425 268.552 84.4425C270.356 84.4425 271.99 83.721 273.185 82.5522C272.424 82.9652 271.551 83.1997 270.624 83.1997Z" fill="#F0F0F0"/>
</g>
</g>
<g clip-path="url(#clip10)">
<g clip-path="url(#clip11)">
<path d="M97.887 154.987C108.412 154.987 116.944 146.455 116.944 135.93C116.944 125.405 108.412 116.873 97.887 116.873C87.3621 116.873 78.8301 125.405 78.8301 135.93C78.8301 146.455 87.3621 154.987 97.887 154.987Z" fill="#F0F0F0"/>
<path d="M115.759 142.558C116.525 140.493 116.944 138.26 116.944 135.929C116.944 133.598 116.525 131.365 115.759 129.301H80.0154C79.2494 131.365 78.8301 133.598 78.8301 135.929C78.8301 138.26 79.2494 140.493 80.0154 142.558L97.887 144.215L115.759 142.558Z" fill="#0052B4"/>
<path d="M97.8872 154.987C106.081 154.987 113.066 149.815 115.759 142.559H80.0156C82.7082 149.815 89.6934 154.987 97.8872 154.987Z" fill="#D80027"/>
</g>
<g clip-path="url(#clip12)">
<path d="M169 154.987C179.525 154.987 188.057 146.455 188.057 135.93C188.057 125.405 179.525 116.873 169 116.873C158.475 116.873 149.943 125.405 149.943 135.93C149.943 146.455 158.475 154.987 169 154.987Z" fill="#D80027"/>
<path d="M160.372 128.471L162.017 133.533H167.34L163.037 136.667L164.682 141.729L160.372 138.602L156.062 141.729L157.714 136.667L153.404 133.533H158.727L160.372 128.471Z" fill="#FFDA44"/>
<path d="M172.536 146.388L171.278 144.84L169.417 145.562L170.496 143.887L169.238 142.331L171.166 142.845L172.253 141.17L172.357 143.165L174.293 143.679L172.424 144.393L172.536 146.388Z" fill="#FFDA44"/>
<path d="M175.037 141.847L175.632 139.941L174.002 138.787L175.997 138.757L176.585 136.852L177.233 138.742L179.228 138.72L177.627 139.911L178.267 141.802L176.637 140.648L175.037 141.847Z" fill="#FFDA44"/>
<path d="M178.408 130.86L177.53 132.654L178.959 134.046L176.986 133.763L176.108 135.55L175.765 133.585L173.785 133.302L175.557 132.371L175.214 130.398L176.644 131.79L178.408 130.86Z" fill="#FFDA44"/>
<path d="M172.587 125.426L172.438 127.413L174.292 128.165L172.349 128.642L172.207 130.637L171.158 128.939L169.215 129.416L170.503 127.89L169.446 126.2L171.299 126.952L172.587 125.426Z" fill="#FFDA44"/>
</g>
<g clip-path="url(#clip13)">
<path d="M240.116 154.987C250.64 154.987 259.172 146.455 259.172 135.93C259.172 125.405 250.64 116.873 240.116 116.873C229.591 116.873 221.059 125.405 221.059 135.93C221.059 146.455 229.591 154.987 240.116 154.987Z" fill="#F0F0F0"/>
<path d="M240.115 116.873C232.56 116.873 226.032 121.27 222.949 127.644H257.281C254.199 121.27 247.67 116.873 240.115 116.873Z" fill="#FF9811"/>
<path d="M240.115 154.986C247.67 154.986 254.199 150.589 257.281 144.215H222.949C226.032 150.589 232.56 154.986 240.115 154.986Z" fill="#6DA544"/>
<path d="M240.115 142.558C243.776 142.558 246.743 139.59 246.743 135.929C246.743 132.268 243.776 129.301 240.115 129.301C236.454 129.301 233.486 132.268 233.486 135.929C233.486 139.59 236.454 142.558 240.115 142.558Z" fill="#0052B4"/>
<path d="M240.115 140.073C242.403 140.073 244.258 138.218 244.258 135.93C244.258 133.642 242.403 131.787 240.115 131.787C237.827 131.787 235.973 133.642 235.973 135.93C235.973 138.218 237.827 140.073 240.115 140.073Z" fill="#F0F0F0"/>
<path d="M240.115 130.818L241.393 133.717L244.542 133.374L242.671 135.931L244.542 138.487L241.393 138.144L240.115 141.043L238.837 138.144L235.688 138.487L237.559 135.931L235.688 133.374L238.837 133.717L240.115 130.818Z" fill="#0052B4"/>
</g>
</g>
</g>
<defs>
<clipPath id="clip0">
<rect width="337" height="154.341" fill="white" transform="translate(0.5 0.644531)"/>
</clipPath>
<clipPath id="clip1">
<rect width="184.341" height="38.1138" fill="white" transform="translate(76.8301 0.644531)"/>
</clipPath>
<clipPath id="clip2">
<rect width="38.1138" height="38.1138" fill="white" transform="translate(76.8301 0.644531)"/>
</clipPath>
<clipPath id="clip3">
<rect width="38.1138" height="38.1138" fill="white" transform="translate(149.943 0.644531)"/>
</clipPath>
<clipPath id="clip4">
<rect width="38.1138" height="38.1138" fill="white" transform="translate(223.059 0.644531)"/>
</clipPath>
<clipPath id="clip5">
<rect width="251.455" height="38.1138" fill="white" transform="translate(43.2715 58.7578)"/>
</clipPath>
<clipPath id="clip6">
<rect width="38.1138" height="38.1138" fill="white" transform="translate(43.2715 58.7578)"/>
</clipPath>
<clipPath id="clip7">
<rect width="38.1138" height="38.1138" fill="white" transform="translate(114.385 58.7578)"/>
</clipPath>
<clipPath id="clip8">
<rect width="38.1138" height="38.1138" fill="white" transform="translate(185.5 58.7578)"/>
</clipPath>
<clipPath id="clip9">
<rect width="38.1138" height="38.1138" fill="white" transform="translate(256.613 58.7578)"/>
</clipPath>
<clipPath id="clip10">
<rect width="180.341" height="38.1138" fill="white" transform="translate(78.8301 116.873)"/>
</clipPath>
<clipPath id="clip11">
<rect width="38.1138" height="38.1138" fill="white" transform="translate(78.8301 116.873)"/>
</clipPath>
<clipPath id="clip12">
<rect width="38.1138" height="38.1138" fill="white" transform="translate(149.943 116.873)"/>
</clipPath>
<clipPath id="clip13">
<rect width="38.1138" height="38.1138" fill="white" transform="translate(221.059 116.873)"/>
</clipPath>
</defs>
</svg>
