<svg width="1374" height="224" viewBox="0 0 1374 224" fill="none" xmlns="http://www.w3.org/2000/svg">
<circle cx="37.778" cy="37.8307" r="36.9831" fill="#0ABE98"/>
<circle cx="37.7761" cy="111.569" r="36.9831" fill="#079270"/>
<circle cx="37.7761" cy="185.307" r="36.9831" fill="#046A51"/>
<circle cx="111.479" cy="38.3854" r="36.9831" fill="#28F3C8"/>
<circle cx="111.479" cy="112.124" r="36.9831" fill="#0ABE98"/>
<circle cx="111.479" cy="185.866" r="36.9831" fill="#079270"/>
<circle cx="185.184" cy="38.9401" r="36.9831" fill="#7DFFE0"/>
<circle cx="185.184" cy="112.682" r="36.9831" fill="#28F3C8"/>
<circle cx="185.184" cy="186.421" r="36.9831" fill="#0ABE98"/>
<path d="M352.996 196.63C388.968 196.63 413.789 178.41 413.789 148.745C413.789 126.788 395.274 110.437 372.617 108.335V106.233C389.552 103.546 405.497 87.8963 405.497 70.1439C405.497 44.216 383.362 28.0987 351.361 28.0987H282.367V196.63H352.996ZM313.932 51.574H344.003C362.222 51.574 374.283 60.3334 374.283 75.3995C374.283 90.8161 361.521 99.1084 340.149 99.1084H313.932V51.574ZM313.932 173.155V120.481H344.937C367.945 120.481 381.524 129.474 381.524 146.643C381.524 163.928 368.295 173.155 346.105 173.155H313.932Z" fill="white"/>
<path d="M429.387 79.4013H459.083C459.083 61.6488 469.33 48.0702 487.666 48.0702C505.302 48.0702 515.813 59.8662 515.813 75.166C515.813 88.0131 510.674 96.0718 489.418 117.562L431.022 176.308V196.63H549.48V171.636H471.899V169.651L509.537 134.029C538.502 105.649 547.028 91.984 547.028 72.363C547.028 44.3328 522.821 23.8942 489.301 23.8942C454.147 23.8942 429.387 47.517 429.387 79.4013Z" fill="white"/>
<path d="M647.331 196.63C683.303 196.63 708.124 178.41 708.124 148.745C708.124 126.788 689.609 110.437 666.952 108.335V106.233C683.887 103.546 699.832 87.8963 699.832 70.1439C699.832 44.216 677.697 28.0987 645.695 28.0987H576.702V196.63H647.331ZM608.267 51.574H638.338C656.557 51.574 668.618 60.3334 668.618 75.3995C668.618 90.8161 655.856 99.1084 634.483 99.1084H608.267V51.574ZM608.267 173.155V120.481H639.272C662.28 120.481 675.859 129.474 675.859 146.643C675.859 163.928 662.63 173.155 640.44 173.155H608.267Z" fill="white"/>
<path d="M726.906 196.63H755.871V122.467C755.871 104.481 767.519 94.2339 786.323 94.2339C791.228 94.2339 798.936 95.0514 801.155 95.8689L806.884 68.0416C804.198 67.3409 793.33 66.8737 789.126 66.8737C772.658 66.8737 758.876 76.2171 755.373 88.8306H754.819V67.5437H726.906V196.63Z" fill="white"/>
<path d="M867.269 199.199C905.46 199.199 930.134 174.206 930.134 132.744C930.134 91.5169 905.343 66.5233 867.269 66.5233C829.311 66.5233 804.404 91.6337 804.404 132.744C804.404 174.206 828.961 199.199 867.269 199.199ZM867.269 174.058C847.064 174.058 834.069 159.84 834.069 132.861C834.069 105.882 847.064 91.6644 867.269 91.6644C887.357 91.6644 900.352 105.882 900.352 132.861C900.352 159.84 887.474 174.058 867.269 174.058Z" fill="white"/>
<path d="M980.45 121.299H979.897V18.1406H950.932V196.63H979.897V151.782L988.742 142.936L1028.3 196.63H1066.21L1011.78 123.751L1062.7 68.976H1029.07L980.45 121.299Z" fill="white"/>
<path d="M1153.78 158.844C1149.57 168.421 1139.65 176.658 1125.28 176.658C1106.24 176.658 1095.41 163.11 1094.71 141.504L1093.28 139.986H1183.94V130.759C1183.94 90.6993 1160.67 66.5233 1124.23 66.5233C1087.21 66.5233 1062.77 92.3344 1062.77 133.328C1062.77 174.206 1086.86 199.199 1124.46 199.199C1154.6 199.199 1177.4 183.285 1182.66 160.277L1153.78 158.844ZM1124.11 89.0642C1141.52 89.0642 1152.96 101.327 1153.55 120.715H1094.83C1096.11 101.561 1106.83 89.0642 1124.11 89.0642Z" fill="white"/>
<path d="M1203.46 196.63H1232.42V122.467C1232.42 104.481 1244.07 94.2339 1262.87 94.2339C1267.78 94.2339 1275.49 95.0514 1277.7 95.8689L1283.43 68.0416C1280.75 67.3409 1269.88 66.8737 1265.67 66.8737C1249.21 66.8737 1235.43 76.2171 1231.92 88.8306H1231.37V67.5437H1203.46V196.63Z" fill="white"/>
<path d="M1324.39 72.9653V44.9911H1335.96V40.6719H1307.78V44.9911H1317.94V72.9653H1324.39Z" fill="white"/>
<path d="M1373.78 72.9653V40.6719H1366.62L1357.19 65.9381H1356.81L1347.28 40.6719L1340.12 40.739V72.9653H1345.33V49.3103H1345.65L1355.11 70.9511H1358.92L1368.38 49.3103H1368.7V72.9653H1373.78Z" fill="white"/>
</svg>
