<svg width="5" height="9" viewBox="0 0 5 9" fill="none" xmlns="http://www.w3.org/2000/svg">
<path d="M3.97408 1.96662V6.14844C3.97408 6.95207 3.32317 7.60298 2.51953 7.60298C1.71589 7.60298 1.06499 6.95207 1.06499 6.14844V1.60298C1.06499 1.10116 1.47226 0.693892 1.97408 0.693892C2.47589 0.693892 2.88317 1.10116 2.88317 1.60298V5.42116C2.88317 5.62116 2.71953 5.7848 2.51953 5.7848C2.31953 5.7848 2.15589 5.62116 2.15589 5.42116V1.96662H1.61044V5.42116C1.61044 5.92298 2.01771 6.33026 2.51953 6.33026C3.02135 6.33026 3.42862 5.92298 3.42862 5.42116V1.60298C3.42862 0.799347 2.77771 0.148438 1.97408 0.148438C1.17044 0.148438 0.519531 0.799347 0.519531 1.60298V6.14844C0.519531 7.25389 1.41408 8.14844 2.51953 8.14844C3.62499 8.14844 4.51953 7.25389 4.51953 6.14844V1.96662H3.97408Z" fill="#84909D"/>
</svg>
