<svg width="49" height="49" viewBox="0 0 49 49" fill="none" xmlns="http://www.w3.org/2000/svg">
<path d="M24.9297 48.8799C38.1845 48.8799 48.9297 38.1347 48.9297 24.8799C48.9297 11.625 38.1845 0.879883 24.9297 0.879883C11.6749 0.879883 0.929688 11.625 0.929688 24.8799C0.929688 38.1347 11.6749 48.8799 24.9297 48.8799Z" fill="#637786"/>
<path d="M24.9297 48.8799C38.2297 48.8799 48.9297 38.1799 48.9297 24.8799C48.9297 11.5799 38.2297 0.879883 24.9297 0.879883V22.2799V34.5799V48.8799Z" fill="url(#paint0_linear)"/>
<path d="M25.0305 36.1801C31.2713 36.1801 36.3305 31.1209 36.3305 24.8801C36.3305 18.6393 31.2713 13.5801 25.0305 13.5801C18.7896 13.5801 13.7305 18.6393 13.7305 24.8801C13.7305 31.1209 18.7896 36.1801 25.0305 36.1801Z" fill="white"/>
<path d="M25.0312 13.5801C31.2312 13.5801 36.3313 18.5801 36.3313 24.8801C36.3313 31.0801 31.3313 36.1801 25.0312 36.1801" fill="white"/>
<path d="M24.9297 24.7803C26.8627 24.7803 28.4297 23.2133 28.4297 21.2803C28.4297 19.3473 26.8627 17.7803 24.9297 17.7803C22.9967 17.7803 21.4297 19.3473 21.4297 21.2803C21.4297 23.2133 22.9967 24.7803 24.9297 24.7803Z" fill="url(#paint1_linear)"/>
<path d="M30.9297 31.8799C30.9297 28.5799 28.2297 25.8799 24.9297 25.8799C21.6297 25.8799 18.9297 28.5799 18.9297 31.8799H30.9297Z" fill="url(#paint2_linear)"/>
<defs>
<linearGradient id="paint0_linear" x1="24.9465" y1="24.8321" x2="48.9465" y2="24.8321" gradientUnits="userSpaceOnUse">
<stop stop-color="#00F2D5"/>
<stop offset="0.9531" stop-color="#01BD95"/>
</linearGradient>
<linearGradient id="paint1_linear" x1="21.4393" y1="21.3268" x2="28.4537" y2="21.3268" gradientUnits="userSpaceOnUse">
<stop stop-color="#00F2D5"/>
<stop offset="0.9531" stop-color="#01BD95"/>
</linearGradient>
<linearGradient id="paint2_linear" x1="18.9173" y1="28.8467" x2="30.9756" y2="28.8467" gradientUnits="userSpaceOnUse">
<stop stop-color="#00F2D5"/>
<stop offset="0.9531" stop-color="#01BD95"/>
</linearGradient>
</defs>
</svg>
