<svg width="49" height="49" viewBox="0 0 49 49" fill="none" xmlns="http://www.w3.org/2000/svg">
<path d="M48.4844 30.9624V18.3643L0.584381 18.3643V30.9624L48.4844 30.9624Z" fill="#637786"/>
<path d="M0.5 48.6753V36.0771H48.5V48.6753H0.5Z" fill="url(#paint0_linear)"/>
<path d="M48.4883 13.2739V0.675781L0.588287 0.675781V13.2739L48.4883 13.2739Z" fill="#637786"/>
<path d="M30.9961 10.581C32.9291 10.581 34.4961 9.01424 34.4961 7.08152C34.4961 5.14881 32.9291 3.58203 30.9961 3.58203C29.0631 3.58203 27.4961 5.14881 27.4961 7.08152C27.4961 9.01424 29.0631 10.581 30.9961 10.581Z" fill="white"/>
<path d="M40.9961 10.581C42.9291 10.581 44.4961 9.01424 44.4961 7.08152C44.4961 5.14881 42.9291 3.58203 40.9961 3.58203C39.0631 3.58203 37.4961 5.14881 37.4961 7.08152C37.4961 9.01424 39.0631 10.581 40.9961 10.581Z" fill="url(#paint1_linear)"/>
<defs>
<linearGradient id="paint0_linear" x1="1.26523" y1="42.3762" x2="47.3157" y2="42.3762" gradientUnits="userSpaceOnUse">
<stop stop-color="#00F2D5"/>
<stop offset="0.953125" stop-color="#01BD95"/>
</linearGradient>
<linearGradient id="paint1_linear" x1="37.6077" y1="7.08152" x2="44.3234" y2="7.08152" gradientUnits="userSpaceOnUse">
<stop stop-color="#00F2D5"/>
<stop offset="0.953125" stop-color="#01BD95"/>
</linearGradient>
</defs>
</svg>
