<svg width="49" height="49" viewBox="0 0 49 49" fill="none" xmlns="http://www.w3.org/2000/svg">
<path d="M48.6641 48.1758L48.5574 22.6257C47.8107 10.1179 37.3574 0.175781 24.6641 0.175781C11.4374 0.175781 0.664062 10.9731 0.664062 24.2292C0.664062 36.5232 9.83739 46.6791 21.6774 48.0689L48.6641 48.1758Z" fill="#637786"/>
<path d="M37.0366 20.6996H27.7566V11.292H21.1433V20.6996H11.8633V27.3276H21.1433V36.6283H27.7566V27.3276H37.0366V20.6996Z" fill="url(#paint0_linear)"/>
<path d="M39.1672 17.3887H27.7539V30.0034H39.1672V17.3887Z" fill="#637786"/>
<path d="M34.6928 27.7556C32.5594 27.7556 30.7461 25.9383 30.7461 23.8002C30.7461 21.6621 32.5594 19.8447 34.6928 19.8447C36.8261 19.8447 38.6394 21.6621 38.6394 23.8002C38.6394 25.9383 36.8261 27.7556 34.6928 27.7556Z" fill="white"/>
<defs>
<linearGradient id="paint0_linear" x1="12.2646" y1="23.9601" x2="36.4155" y2="23.9601" gradientUnits="userSpaceOnUse">
<stop stop-color="#00F2D5"/>
<stop offset="0.953125" stop-color="#01BD95"/>
</linearGradient>
</defs>
</svg>
