<svg width="22" height="22" viewBox="0 0 22 22" fill="none" xmlns="http://www.w3.org/2000/svg">
<path d="M20.4286 9.13672H13.3571V2.38672C13.3571 1.55844 12.6534 0.886719 11.7857 0.886719H10.2143C9.34656 0.886719 8.64286 1.55844 8.64286 2.38672V9.13672H1.57143C0.703705 9.13672 0 9.80844 0 10.6367V12.1367C0 12.965 0.703705 13.6367 1.57143 13.6367H8.64286V20.3867C8.64286 21.215 9.34656 21.8867 10.2143 21.8867H11.7857C12.6534 21.8867 13.3571 21.215 13.3571 20.3867V13.6367H20.4286C21.2963 13.6367 22 12.965 22 12.1367V10.6367C22 9.80844 21.2963 9.13672 20.4286 9.13672Z" fill="#01BD95"/>
</svg>
