<svg width="49" height="49" viewBox="0 0 49 49" fill="none" xmlns="http://www.w3.org/2000/svg">
<mask id="mask0" mask-type="alpha" maskUnits="userSpaceOnUse" x="0" y="0" width="49" height="49">
<circle cx="24.9844" cy="24.6992" r="24" fill="#C4C4C4"/>
</mask>
<g mask="url(#mask0)">
<path d="M24.8844 0.799316H0.984375V48.7993H24.8844V0.799316Z" fill="#637786"/>
<path d="M24.9603 0.799219V10.2992C24.8607 10.2992 24.8607 10.2992 24.761 10.2992C20.7738 10.2992 17.584 13.4992 17.584 17.4992C17.584 21.4992 20.7738 24.6992 24.761 24.6992C24.8607 24.6992 24.8607 24.6992 24.9603 24.6992V48.6992H49.784V0.699219H24.9603V0.799219Z" fill="url(#paint0_linear)"/>
<path d="M24.784 39.1993C28.7604 39.1993 31.984 35.9758 31.984 31.9993C31.984 28.0229 28.7604 24.7993 24.784 24.7993C20.8075 24.7993 17.584 28.0229 17.584 31.9993C17.584 35.9758 20.8075 39.1993 24.784 39.1993Z" fill="#637786"/>
<path d="M49.1719 14.6992H32.1719V20.6992H49.1719V14.6992Z" fill="white"/>
<path d="M1.17188 29.6992H18.1719V35.6992H1.17188V29.6992Z" fill="white"/>
</g>
<defs>
<linearGradient id="paint0_linear" x1="18.0814" y1="24.6992" x2="48.0142" y2="24.6992" gradientUnits="userSpaceOnUse">
<stop stop-color="#0BF5C4"/>
<stop offset="1" stop-color="#03C89E"/>
</linearGradient>
</defs>
</svg>
