<svg width="49" height="49" viewBox="0 0 49 49" fill="none" xmlns="http://www.w3.org/2000/svg">
<mask id="mask0" mask-type="alpha" maskUnits="userSpaceOnUse" x="0" y="0" width="49" height="49">
<circle cx="24.3535" cy="24.6992" r="24" fill="#C4C4C4"/>
</mask>
<g mask="url(#mask0)">
<path d="M41.1936 7.59891L24.2939 -9.30078L-9.64685 24.64L7.25284 41.5397L41.1936 7.59891Z" fill="#637786"/>
<path d="M41.2451 7.6167C41.2451 7.6167 24.2451 24.5167 24.2451 24.6167L7.24512 41.6167L24.1451 58.5167L58.0451 24.6167L41.2451 7.6167Z" fill="url(#paint0_linear)"/>
<path d="M24.4453 37.0176C31.0727 37.0176 36.4453 31.645 36.4453 25.0176C36.4453 18.3902 31.0727 13.0176 24.4453 13.0176C17.8179 13.0176 12.4453 18.3902 12.4453 25.0176C12.4453 31.645 17.8179 37.0176 24.4453 37.0176Z" fill="white"/>
<path d="M49.0092 44.705L26.5234 22.2192L20.6545 28.0882L43.1403 50.574L49.0092 44.705Z" fill="#637786"/>
<path d="M20.7453 28.2168L-1.55469 5.91685L4.34531 0.0168457L26.6453 22.3168L20.7453 28.2168Z" fill="url(#paint1_linear)"/>
</g>
<defs>
<linearGradient id="paint0_linear" x1="8.05499" y1="33.0667" x2="56.7917" y2="33.0667" gradientUnits="userSpaceOnUse">
<stop stop-color="#0BF5C4"/>
<stop offset="1" stop-color="#03C89E"/>
</linearGradient>
<linearGradient id="paint1_linear" x1="-1.10511" y1="14.1168" x2="25.9495" y2="14.1168" gradientUnits="userSpaceOnUse">
<stop stop-color="#0BF5C4"/>
<stop offset="1" stop-color="#03C89E"/>
</linearGradient>
</defs>
</svg>
