<svg width="49" height="49" viewBox="0 0 49 49" fill="none" xmlns="http://www.w3.org/2000/svg">
<path d="M48.0947 0.199219H0.0947266V47.9012H48.0947V0.199219Z" fill="url(#paint0_linear)"/>
<path d="M48.0947 6.87061H0.0947266V48.1991H48.0947V6.87061Z" fill="#637786"/>
<path d="M42.1827 11.8511H6.4082V42.7229H42.1827V11.8511Z" fill="white"/>
<path d="M24.3456 29.6767C27.9429 29.6767 30.8592 26.7786 30.8592 23.2036C30.8592 19.6286 27.9429 16.7305 24.3456 16.7305C20.7483 16.7305 17.832 19.6286 17.832 23.2036C17.832 26.7786 20.7483 29.6767 24.3456 29.6767Z" fill="#637786"/>
<path d="M11.1172 44.6162C11.1172 37.3463 17.0295 31.4707 24.3447 31.4707C31.66 31.4707 37.5723 37.3463 37.5723 44.6162" fill="#637786"/>
<defs>
<linearGradient id="paint0_linear" x1="0.859958" y1="24.0502" x2="46.9104" y2="24.0502" gradientUnits="userSpaceOnUse">
<stop stop-color="#0BF5C4"/>
<stop offset="1" stop-color="#03C89E"/>
</linearGradient>
</defs>
</svg>
