<svg width="49" height="48" viewBox="0 0 49 48" fill="none" xmlns="http://www.w3.org/2000/svg">
<mask id="mask0" mask-type="alpha" maskUnits="userSpaceOnUse" x="0" y="0" width="49" height="48">
<path d="M24.6053 47.802C37.9706 47.802 48.8053 37.1016 48.8053 23.9019C48.8053 10.7023 37.9706 0.00195312 24.6053 0.00195312C11.24 0.00195312 0.405273 10.7023 0.405273 23.9019C0.405273 37.1016 11.24 47.802 24.6053 47.802Z" fill="#63636E"/>
</mask>
<g mask="url(#mask0)">
<path fill-rule="evenodd" clip-rule="evenodd" d="M17.1374 1.16106C17.4597 2.07022 17.5229 3.08215 17.2618 4.08598C16.5668 6.75849 13.8368 8.36153 11.1643 7.66648C10.103 7.39046 9.21032 6.79352 8.56328 6.00669C4.75374 9.34011 2.01632 13.8418 0.926541 18.9434C1.01058 18.9607 1.09463 18.9803 1.17862 19.0022C3.85112 19.6972 5.45417 22.4271 4.75912 25.0997C4.26126 27.0139 2.71935 28.3795 0.902344 28.7449C1.97754 33.9039 4.7362 38.456 8.58626 41.8163C9.7883 40.3855 11.7472 39.6899 13.6762 40.1916C16.3487 40.8867 17.9517 43.6166 17.2567 46.2891C17.2252 46.4102 17.1895 46.5292 17.1498 46.6458C19.4982 47.3961 22.0037 47.8015 24.6051 47.8015C27.2769 47.8015 29.8475 47.3739 32.2506 46.5842C31.953 45.6963 31.9011 44.7148 32.1544 43.7409C32.8494 41.0684 35.5794 39.4653 38.2519 40.1604C39.2597 40.4225 40.1155 40.974 40.7532 41.7027C44.5084 38.378 47.2054 33.9113 48.2845 28.8558C48.0563 28.8292 47.8271 28.7865 47.5984 28.727C44.9259 28.032 43.3228 25.302 44.0179 22.6295C44.5523 20.5748 46.2896 19.1522 48.2788 18.9202C47.1958 13.8756 44.5016 9.41888 40.7531 6.10008C39.5455 7.47015 37.6285 8.12633 35.7402 7.63523C33.0677 6.94018 31.4647 4.21024 32.1597 1.53773C32.1878 1.42996 32.2191 1.32392 32.2536 1.21971C29.8496 0.42941 27.278 0.00146484 24.6051 0.00146484C21.9992 0.00146484 19.4894 0.408261 17.1374 1.16106Z" fill="#637786"/>
<path d="M24.6053 37.0013C31.8954 37.0013 37.8053 31.1362 37.8053 23.9013C37.8053 16.6663 31.8954 10.8013 24.6053 10.8013C17.3151 10.8013 11.4053 16.6663 11.4053 23.9013C11.4053 31.1362 17.3151 37.0013 24.6053 37.0013Z" fill="url(#paint0_linear)"/>
<path d="M24.6051 33.7016C30.0727 33.7016 34.5051 29.3139 34.5051 23.9016C34.5051 18.4892 30.0727 14.1016 24.6051 14.1016C19.1375 14.1016 14.7051 18.4892 14.7051 23.9016C14.7051 29.3139 19.1375 33.7016 24.6051 33.7016Z" fill="white"/>
</g>
<defs>
<linearGradient id="paint0_linear" x1="11.8262" y1="23.9013" x2="37.1539" y2="23.9013" gradientUnits="userSpaceOnUse">
<stop stop-color="#0BF5C4"/>
<stop offset="1" stop-color="#03C89E"/>
</linearGradient>
</defs>
</svg>
