<svg width="20" height="19" viewBox="0 0 20 19" fill="none" xmlns="http://www.w3.org/2000/svg">
<rect x="0.5" width="19" height="19" rx="9.5" fill="white" fill-opacity="0.2"/>
<path d="M11.2118 8.28729C11.0814 8.1562 10.9369 8.04 10.781 7.94081C10.3678 7.67624 9.88746 7.53565 9.39684 7.53565C8.71587 7.53438 8.06258 7.80495 7.5819 8.28729L5.24999 10.621C4.77013 11.1018 4.50043 11.7532 4.5 12.4325C4.4991 13.85 5.64744 14.9998 7.06492 15.0007C7.74484 15.0031 8.39753 14.7338 8.87803 14.2527L10.803 12.3278C10.8379 12.2931 10.8575 12.2458 10.8572 12.1966C10.8566 12.0953 10.774 12.0137 10.6728 12.0143H10.5995C10.1973 12.0157 9.79871 11.9385 9.42618 11.787C9.35754 11.7587 9.27865 11.7747 9.22636 11.8273L7.84224 13.2133C7.41244 13.6431 6.7156 13.6431 6.2858 13.2133C5.856 12.7835 5.856 12.0866 6.2858 11.6568L8.62689 9.31758C9.05634 8.88866 9.75204 8.88866 10.1815 9.31758C10.4709 9.58997 10.9224 9.58997 11.2118 9.31758C11.3363 9.19296 11.4118 9.02766 11.4245 8.85193C11.4378 8.64192 11.3604 8.43626 11.2118 8.28729Z" fill="white"/>
<path d="M14.7481 4.75177C13.7458 3.74941 12.1206 3.74941 11.1183 4.75177L9.19515 6.67302C9.14234 6.72609 9.12711 6.8059 9.15665 6.87469C9.18585 6.94367 9.25408 6.98795 9.32897 6.98651H9.39679C9.79849 6.98578 10.1964 7.06362 10.5683 7.21568C10.6369 7.24393 10.7158 7.22799 10.7681 7.17535L12.1485 5.79673C12.5783 5.36693 13.2752 5.36693 13.705 5.79673C14.1348 6.22653 14.1348 6.92337 13.705 7.35317L11.9853 9.07093L11.9707 9.08743L11.3694 9.68508C10.9399 10.114 10.2442 10.114 9.81476 9.68508C9.52533 9.41269 9.07388 9.41269 8.78447 9.68508C8.65916 9.81065 8.5836 9.97739 8.5718 10.1544C8.5584 10.3644 8.63585 10.5701 8.78447 10.719C8.99666 10.9321 9.24493 11.1059 9.51777 11.2324C9.55627 11.2507 9.59477 11.2653 9.63326 11.2818C9.67176 11.2983 9.71209 11.3112 9.75059 11.3258C9.78908 11.3405 9.82941 11.3533 9.86791 11.3643L9.97608 11.3937C10.0494 11.412 10.1227 11.4267 10.1979 11.4395C10.2884 11.4529 10.3796 11.4615 10.4711 11.4652H10.5994H10.6104L10.7204 11.4523C10.7607 11.4505 10.8029 11.4413 10.8505 11.4413H10.9129L11.0394 11.423L11.098 11.412L11.2044 11.39H11.2245C11.6748 11.2769 12.086 11.0437 12.4143 10.7154L14.7481 8.38163C15.7505 7.37927 15.7505 5.75413 14.7481 4.75177Z" fill="white"/>
</svg>
