<svg width="172" height="37" viewBox="0 0 172 37" fill="none" xmlns="http://www.w3.org/2000/svg">
<ellipse cx="7.09422" cy="18.6454" rx="6.28605" ry="5.98919" fill="#6A6A6A"/>
<ellipse cx="7.09422" cy="30.6235" rx="6.28605" ry="5.98919" fill="#383838"/>
<ellipse cx="19.6663" cy="18.6454" rx="6.28605" ry="5.98919" fill="#9B9B9B"/>
<ellipse cx="19.6663" cy="30.6235" rx="6.28605" ry="5.98919" fill="#6A6A6A"/>
<ellipse cx="7.09526" cy="6.66692" rx="6.28605" ry="5.98919" fill="#9B9B9B"/>
<ellipse cx="19.6668" cy="6.66692" rx="6.28605" ry="5.98919" fill="#CDCDCD"/>
<ellipse cx="32.2389" cy="6.66692" rx="6.28605" ry="5.98919" fill="white"/>
<ellipse cx="32.2384" cy="18.6454" rx="6.28605" ry="5.98919" fill="#CDCDCD"/>
<ellipse cx="32.2384" cy="30.6235" rx="6.28605" ry="5.98919" fill="#9B9B9B"/>
<path d="M46.1614 32.7548H49.3302V33.4709H45.275V26.8293H46.1614V32.7548Z" fill="white"/>
<path d="M51.3611 33.4709H50.5114V28.5353H51.3611V33.4709ZM50.4426 27.2261C50.4426 27.0893 50.4839 26.9737 50.5666 26.8795C50.6523 26.7852 50.7778 26.7381 50.9431 26.7381C51.1085 26.7381 51.234 26.7852 51.3197 26.8795C51.4055 26.9737 51.4483 27.0893 51.4483 27.2261C51.4483 27.363 51.4055 27.477 51.3197 27.5683C51.234 27.6595 51.1085 27.7051 50.9431 27.7051C50.7778 27.7051 50.6523 27.6595 50.5666 27.5683C50.4839 27.477 50.4426 27.363 50.4426 27.2261Z" fill="white"/>
<path d="M52.7535 30.9621C52.7535 30.1866 52.9326 29.5738 53.2909 29.1238C53.6491 28.6706 54.1298 28.4441 54.7329 28.4441C55.3208 28.4441 55.7846 28.6402 56.1245 29.0325L56.1612 28.5353H56.9419V35.3686H56.0923V33.0148C55.7494 33.3797 55.2932 33.5622 54.7237 33.5622C54.1236 33.5622 53.6445 33.3311 53.2863 32.8688C52.9311 32.4035 52.7535 31.7877 52.7535 31.0214V30.9621ZM53.6031 31.0579C53.6031 31.6235 53.7226 32.0675 53.9614 32.3899C54.2032 32.7122 54.5278 32.8734 54.935 32.8734C55.4402 32.8734 55.8259 32.6514 56.0923 32.2074V29.7897C55.8229 29.3549 55.4402 29.1374 54.9442 29.1374C54.5339 29.1374 54.2078 29.3001 53.966 29.6255C53.7241 29.9479 53.6031 30.4253 53.6031 31.0579Z" fill="white"/>
<path d="M61.6089 32.9829C61.2782 33.3691 60.7929 33.5622 60.153 33.5622C59.6234 33.5622 59.2192 33.4101 58.9406 33.106C58.6651 32.7989 58.5257 32.3458 58.5227 31.7467V28.5353H59.3723V31.7239C59.3723 32.472 59.6785 32.846 60.2908 32.846C60.9399 32.846 61.3716 32.6058 61.5859 32.1253V28.5353H62.4355V33.4709H61.6272L61.6089 32.9829Z" fill="white"/>
<path d="M64.8889 33.4709H64.0393V28.5353H64.8889V33.4709ZM63.9704 27.2261C63.9704 27.0893 64.0117 26.9737 64.0944 26.8795C64.1801 26.7852 64.3056 26.7381 64.471 26.7381C64.6363 26.7381 64.7618 26.7852 64.8475 26.8795C64.9333 26.9737 64.9761 27.0893 64.9761 27.2261C64.9761 27.363 64.9333 27.477 64.8475 27.5683C64.7618 27.6595 64.6363 27.7051 64.471 27.7051C64.3056 27.7051 64.1801 27.6595 64.0944 27.5683C64.0117 27.477 63.9704 27.363 63.9704 27.2261Z" fill="white"/>
<path d="M66.2813 30.9621C66.2813 30.2049 66.462 29.5966 66.8233 29.1374C67.1845 28.6752 67.6576 28.4441 68.2424 28.4441C68.8241 28.4441 69.2849 28.6418 69.6247 29.0371V26.4644H70.4743V33.4709H69.6936L69.6523 32.9418C69.3124 33.3554 68.8394 33.5622 68.2332 33.5622C67.6576 33.5622 67.1876 33.328 66.8233 32.8597C66.462 32.3914 66.2813 31.7801 66.2813 31.0259V30.9621ZM67.131 31.0579C67.131 31.6174 67.2473 32.0553 67.48 32.3716C67.7127 32.6879 68.0342 32.846 68.4444 32.846C68.9833 32.846 69.3767 32.6058 69.6247 32.1253V29.8582C69.3706 29.3929 68.9802 29.1602 68.4536 29.1602C68.0372 29.1602 67.7127 29.3199 67.48 29.6392C67.2473 29.9585 67.131 30.4314 67.131 31.0579Z" fill="white"/>
<path d="M72.9552 33.4709H72.1056V28.5353H72.9552V33.4709ZM72.0367 27.2261C72.0367 27.0893 72.078 26.9737 72.1607 26.8795C72.2464 26.7852 72.372 26.7381 72.5373 26.7381C72.7026 26.7381 72.8282 26.7852 72.9139 26.8795C72.9996 26.9737 73.0425 27.0893 73.0425 27.2261C73.0425 27.363 72.9996 27.477 72.9139 27.5683C72.8282 27.6595 72.7026 27.7051 72.5373 27.7051C72.372 27.7051 72.2464 27.6595 72.1607 27.5683C72.078 27.477 72.0367 27.363 72.0367 27.2261Z" fill="white"/>
<path d="M75.7071 27.3402V28.5353H76.6348V29.1876H75.7071V32.2484C75.7071 32.4461 75.7484 32.5951 75.8311 32.6955C75.9137 32.7928 76.0546 32.8414 76.2536 32.8414C76.3516 32.8414 76.4863 32.8232 76.6577 32.7867V33.4709C76.4342 33.5318 76.2169 33.5622 76.0056 33.5622C75.6259 33.5622 75.3397 33.4481 75.1468 33.2201C74.9539 32.992 74.8575 32.6681 74.8575 32.2484V29.1876H73.9527V28.5353H74.8575V27.3402H75.7071Z" fill="white"/>
<path d="M79.4923 32.2348L80.6496 28.5353H81.5589L79.5611 34.2327C79.2519 35.0538 78.7605 35.4644 78.0869 35.4644L77.9262 35.4507L77.6093 35.3914V34.7071L77.8389 34.7254C78.1267 34.7254 78.3502 34.6676 78.5095 34.552C78.6717 34.4365 78.8049 34.2251 78.909 33.918L79.0973 33.4162L77.3246 28.5353H78.2523L79.4923 32.2348Z" fill="white"/>
<path d="M82.0788 33.0285C82.0788 32.8825 82.1216 32.7609 82.2074 32.6635C82.2962 32.5662 82.4278 32.5176 82.6023 32.5176C82.7768 32.5176 82.9085 32.5662 82.9973 32.6635C83.0891 32.7609 83.1351 32.8825 83.1351 33.0285C83.1351 33.1684 83.0891 33.2854 82.9973 33.3797C82.9085 33.474 82.7768 33.5211 82.6023 33.5211C82.4278 33.5211 82.2962 33.474 82.2074 33.3797C82.1216 33.2854 82.0788 33.1684 82.0788 33.0285Z" fill="white"/>
<path d="M91.9133 27.55H89.7639V33.4709H88.8868V27.55H86.7421V26.8293H91.9133V27.55Z" fill="white"/>
<path d="M94.61 33.5622C93.9364 33.5622 93.3884 33.3432 92.9659 32.9053C92.5434 32.4644 92.3321 31.8759 92.3321 31.14V30.9849C92.3321 30.4953 92.4255 30.0589 92.6122 29.6757C92.8021 29.2895 93.0654 28.9884 93.4022 28.7725C93.742 28.5536 94.1094 28.4441 94.5044 28.4441C95.1504 28.4441 95.6525 28.6554 96.0107 29.0781C96.3689 29.5008 96.5481 30.106 96.5481 30.8937V31.2449H93.1817C93.194 31.7315 93.3363 32.1253 93.6088 32.4263C93.8844 32.7244 94.2334 32.8734 94.6559 32.8734C94.956 32.8734 95.2101 32.8126 95.4183 32.6909C95.6265 32.5693 95.8087 32.4081 95.9648 32.2074L96.4838 32.6088C96.0674 33.2444 95.4428 33.5622 94.61 33.5622ZM94.5044 29.1374C94.1615 29.1374 93.8737 29.2621 93.641 29.5115C93.4083 29.7578 93.2644 30.1045 93.2093 30.5515H95.6984V30.4877C95.6739 30.0589 95.5576 29.7274 95.3494 29.4932C95.1412 29.256 94.8595 29.1374 94.5044 29.1374Z" fill="white"/>
<path d="M99.7638 32.8734C100.067 32.8734 100.332 32.7821 100.558 32.5997C100.785 32.4172 100.91 32.1891 100.935 31.9154H101.739C101.723 32.1983 101.625 32.4674 101.445 32.7228C101.264 32.9783 101.022 33.182 100.719 33.3341C100.419 33.4862 100.101 33.5622 99.7638 33.5622C99.0871 33.5622 98.5483 33.3387 98.1472 32.8916C97.7492 32.4415 97.5501 31.8273 97.5501 31.0487V30.9073C97.5501 30.4268 97.6389 29.9996 97.8165 29.6255C97.9941 29.2515 98.2482 28.9611 98.5789 28.7543C98.9126 28.5475 99.306 28.4441 99.7592 28.4441C100.316 28.4441 100.779 28.6098 101.146 28.9413C101.517 29.2728 101.714 29.7031 101.739 30.2322H100.935C100.91 29.9129 100.788 29.6514 100.567 29.4476C100.35 29.2408 100.081 29.1374 99.7592 29.1374C99.3275 29.1374 98.9922 29.2925 98.7534 29.6027C98.5177 29.9099 98.3998 30.3554 98.3998 30.9393V31.0989C98.3998 31.6676 98.5177 32.1055 98.7534 32.4127C98.9892 32.7198 99.3259 32.8734 99.7638 32.8734Z" fill="white"/>
<path d="M103.779 29.1329C104.155 28.6737 104.645 28.4441 105.248 28.4441C106.298 28.4441 106.828 29.0325 106.837 30.2094V33.4709H105.988V30.2049C105.985 29.849 105.902 29.586 105.74 29.4157C105.58 29.2454 105.331 29.1602 104.991 29.1602C104.715 29.1602 104.474 29.2332 104.265 29.3792C104.057 29.5252 103.895 29.7168 103.779 29.954V33.4709H102.929V26.4644H103.779V29.1329Z" fill="white"/>
<path d="M109.148 28.5353L109.176 29.1557C109.555 28.6813 110.051 28.4441 110.664 28.4441C111.714 28.4441 112.244 29.0325 112.253 30.2094V33.4709H111.403V30.2049C111.4 29.849 111.317 29.586 111.155 29.4157C110.996 29.2454 110.746 29.1602 110.407 29.1602C110.131 29.1602 109.889 29.2332 109.681 29.3792C109.473 29.5252 109.31 29.7168 109.194 29.954V33.4709H108.344V28.5353H109.148Z" fill="white"/>
<path d="M113.544 30.9575C113.544 30.474 113.639 30.0391 113.829 29.6529C114.022 29.2667 114.288 28.9687 114.628 28.7588C114.971 28.549 115.361 28.4441 115.799 28.4441C116.476 28.4441 117.022 28.6767 117.439 29.142C117.858 29.6073 118.068 30.2261 118.068 30.9986V31.0579C118.068 31.5384 117.974 31.9702 117.788 32.3534C117.604 32.7335 117.339 33.03 116.993 33.2429C116.65 33.4557 116.255 33.5622 115.808 33.5622C115.135 33.5622 114.588 33.3295 114.169 32.8643C113.752 32.399 113.544 31.7832 113.544 31.0168V30.9575ZM114.398 31.0579C114.398 31.6053 114.525 32.0447 114.78 32.3762C115.037 32.7076 115.38 32.8734 115.808 32.8734C116.24 32.8734 116.583 32.7061 116.837 32.3716C117.091 32.034 117.218 31.5627 117.218 30.9575C117.218 30.4162 117.088 29.9783 116.828 29.6438C116.571 29.3062 116.228 29.1374 115.799 29.1374C115.38 29.1374 115.041 29.3032 114.784 29.6347C114.527 29.9661 114.398 30.4405 114.398 31.0579Z" fill="white"/>
<path d="M120.292 33.4709H119.442V26.4644H120.292V33.4709Z" fill="white"/>
<path d="M121.666 30.9575C121.666 30.474 121.761 30.0391 121.95 29.6529C122.143 29.2667 122.41 28.9687 122.749 28.7588C123.092 28.549 123.483 28.4441 123.921 28.4441C124.597 28.4441 125.144 28.6767 125.56 29.142C125.98 29.6073 126.189 30.2261 126.189 30.9986V31.0579C126.189 31.5384 126.096 31.9702 125.909 32.3534C125.725 32.7335 125.461 33.03 125.115 33.2429C124.772 33.4557 124.377 33.5622 123.93 33.5622C123.256 33.5622 122.71 33.3295 122.29 32.8643C121.874 32.399 121.666 31.7832 121.666 31.0168V30.9575ZM122.52 31.0579C122.52 31.6053 122.647 32.0447 122.901 32.3762C123.158 32.7076 123.501 32.8734 123.93 32.8734C124.361 32.8734 124.704 32.7061 124.958 32.3716C125.213 32.034 125.34 31.5627 125.34 30.9575C125.34 30.4162 125.21 29.9783 124.949 29.6438C124.692 29.3062 124.349 29.1374 123.921 29.1374C123.501 29.1374 123.163 29.3032 122.906 29.6347C122.648 29.9661 122.52 30.4405 122.52 31.0579Z" fill="white"/>
<path d="M127.288 30.9621C127.288 30.1927 127.467 29.5814 127.825 29.1283C128.183 28.6722 128.658 28.4441 129.249 28.4441C129.855 28.4441 130.328 28.657 130.668 29.0827L130.709 28.5353H131.485V33.3523C131.485 33.991 131.294 34.4943 130.911 34.8622C130.532 35.2302 130.02 35.4142 129.377 35.4142C129.019 35.4142 128.669 35.3382 128.326 35.1861C127.983 35.034 127.721 34.8257 127.54 34.5612L127.981 34.0548C128.346 34.5019 128.791 34.7254 129.318 34.7254C129.731 34.7254 130.053 34.6098 130.282 34.3787C130.515 34.1476 130.631 33.8222 130.631 33.4025V32.9783C130.291 33.3675 129.827 33.5622 129.24 33.5622C128.658 33.5622 128.186 33.3295 127.825 32.8643C127.467 32.399 127.288 31.7649 127.288 30.9621ZM128.142 31.0579C128.142 31.6144 128.257 32.0523 128.486 32.3716C128.716 32.6879 129.038 32.846 129.451 32.846C129.987 32.846 130.38 32.6042 130.631 32.1207V29.8673C130.371 29.3959 129.981 29.1602 129.46 29.1602C129.047 29.1602 128.724 29.3199 128.491 29.6392C128.258 29.9585 128.142 30.4314 128.142 31.0579Z" fill="white"/>
<path d="M134.632 32.2348L135.79 28.5353H136.699L134.701 34.2327C134.392 35.0538 133.9 35.4644 133.227 35.4644L133.066 35.4507L132.749 35.3914V34.7071L132.979 34.7254C133.267 34.7254 133.49 34.6676 133.649 34.552C133.812 34.4365 133.945 34.2251 134.049 33.918L134.237 33.4162L132.465 28.5353H133.392L134.632 32.2348Z" fill="white"/>
<path d="M137.219 33.0285C137.219 32.8825 137.262 32.7609 137.347 32.6635C137.436 32.5662 137.568 32.5176 137.742 32.5176C137.917 32.5176 138.048 32.5662 138.137 32.6635C138.229 32.7609 138.275 32.8825 138.275 33.0285C138.275 33.1684 138.229 33.2854 138.137 33.3797C138.048 33.474 137.917 33.5211 137.742 33.5211C137.568 33.5211 137.436 33.474 137.347 33.3797C137.262 33.2854 137.219 33.1684 137.219 33.0285Z" fill="white"/>
<path d="M53.5798 21.4676C57.8095 21.4676 60.728 19.4257 60.728 16.1012C60.728 13.6405 58.551 11.808 55.8869 11.5724V11.3368C57.8781 11.0358 59.753 9.28186 59.753 7.29235C59.753 4.38662 57.1503 2.58036 53.3875 2.58036H45.275V21.4676H53.5798ZM48.9865 5.21122H52.5223C54.6646 5.21122 56.0827 6.19289 56.0827 7.88135C56.0827 9.60908 54.5822 10.5384 52.0691 10.5384H48.9865V5.21122ZM48.9865 18.8367V12.9337H52.6322C55.3376 12.9337 56.9342 13.9415 56.9342 15.8656C56.9342 17.8027 55.3787 18.8367 52.7695 18.8367H48.9865Z" fill="white"/>
<path d="M62.5621 8.32982H66.0539C66.0539 6.34031 67.2587 4.81855 69.4148 4.81855C71.4884 4.81855 72.7244 6.14053 72.7244 7.85517C72.7244 9.29495 72.1201 10.1981 69.6208 12.6064L62.7544 19.1901V21.4676H76.683V18.6666H67.5608V18.4441L71.9864 14.452C75.3922 11.2714 76.3947 9.73997 76.3947 7.54104C76.3947 4.39971 73.5483 2.10916 69.607 2.10916C65.4735 2.10916 62.5621 4.75656 62.5621 8.32982Z" fill="white"/>
<path d="M88.1886 21.4676C92.4183 21.4676 95.3369 19.4257 95.3369 16.1012C95.3369 13.6405 93.1599 11.808 90.4957 11.5724V11.3368C92.487 11.0358 94.3619 9.28186 94.3619 7.29235C94.3619 4.38662 91.7591 2.58036 87.9964 2.58036H79.8839V21.4676H88.1886ZM83.5954 5.21122H87.1312C89.2735 5.21122 90.6916 6.19289 90.6916 7.88135C90.6916 9.60908 89.1911 10.5384 86.678 10.5384H83.5954V5.21122ZM83.5954 18.8367V12.9337H87.2411C89.9464 12.9337 91.543 13.9415 91.543 15.8656C91.543 17.8027 89.9876 18.8367 87.3784 18.8367H83.5954Z" fill="white"/>
<path d="M97.5454 21.4676H100.951V13.1562C100.951 11.1405 102.321 9.99211 104.532 9.99211C105.109 9.99211 106.015 10.0837 106.276 10.1754L106.949 7.05675C106.634 6.97822 105.356 6.92586 104.861 6.92586C102.925 6.92586 101.305 7.97297 100.893 9.38657H100.828V7.00095H97.5454V21.4676Z" fill="white"/>
<path d="M114.05 21.7556C118.54 21.7556 121.442 18.9545 121.442 14.308C121.442 9.68761 118.527 6.8866 114.05 6.8866C109.587 6.8866 106.658 9.7007 106.658 14.308C106.658 18.9545 109.545 21.7556 114.05 21.7556ZM114.05 18.938C111.674 18.938 110.146 17.3446 110.146 14.3211C110.146 11.2975 111.674 9.70415 114.05 9.70415C116.412 9.70415 117.94 11.2975 117.94 14.3211C117.94 17.3446 116.425 18.938 114.05 18.938Z" fill="white"/>
<path d="M127.358 13.0253H127.293V1.46436H123.887V21.4676H127.293V16.4415L128.333 15.4502L132.985 21.4676H137.441L131.042 13.3001L137.029 7.16146H133.074L127.358 13.0253Z" fill="white"/>
<path d="M147.738 17.233C147.244 18.3063 146.077 19.2294 144.388 19.2294C142.149 19.2294 140.876 17.7111 140.793 15.2896L140.625 15.1195H151.285V14.0855C151.285 9.59599 148.549 6.8866 144.264 6.8866C139.911 6.8866 137.037 9.77924 137.037 14.3734C137.037 18.9545 139.87 21.7556 144.292 21.7556C147.835 21.7556 150.516 19.972 151.134 17.3935L147.738 17.233ZM144.25 9.41275C146.297 9.41275 147.642 10.7871 147.711 12.9598H140.807C140.958 10.8133 142.218 9.41275 144.25 9.41275Z" fill="white"/>
<path d="M153.58 21.4676H156.985V13.1562C156.985 11.1405 158.355 9.99211 160.566 9.99211C161.143 9.99211 162.049 10.0837 162.31 10.1754L162.984 7.05675C162.668 6.97822 161.39 6.92586 160.896 6.92586C158.959 6.92586 157.339 7.97297 156.927 9.38657H156.862V7.00095H153.58V21.4676Z" fill="white"/>
<path d="M168.009 4.86834V3.11491H168.818V2.60889H166.581V3.11491H167.39V4.86834H168.009Z" fill="white"/>
<path d="M171.579 4.86834V2.61697H170.879L170.389 3.90185H170.36L169.863 2.61697H169.192V4.86834H169.765V3.46992H169.794L170.203 4.67065H170.568L170.977 3.46992H171.007V4.86834H171.579Z" fill="white"/>
</svg>
