<svg width="49" height="49" viewBox="0 0 49 49" fill="none" xmlns="http://www.w3.org/2000/svg">
<path d="M41.7734 41.5842C32.4734 50.8842 17.2734 50.8842 7.97344 41.5842C-1.32656 32.2842 -1.32656 17.0842 7.97344 7.78418" fill="#63636E"/>
<path d="M7.975 7.78262C17.275 -1.51738 32.475 -1.51738 41.775 7.78262C51.075 17.0826 51.075 32.2826 41.775 41.5826" fill="url(#paint0_linear)" fill-opacity="0.8"/>
<path d="M5.47656 24.6832C5.47656 13.9832 14.1766 5.2832 24.8766 5.2832C35.5766 5.2832 44.2766 13.9832 44.2766 24.6832C44.2766 35.3832 35.5766 44.0832 24.8766 44.0832C14.1766 44.0832 5.47656 35.3832 5.47656 24.6832Z" fill="#FBFBFB"/>
<path d="M9.07422 24.6833C9.07422 15.9833 16.1742 8.8833 24.8742 8.8833C33.5742 8.8833 40.6742 15.9833 40.6742 24.6833C40.6742 33.3833 33.5742 40.4833 24.8742 40.4833C16.1742 40.4833 9.07422 33.3833 9.07422 24.6833Z" fill="url(#paint1_linear)" fill-opacity="0.8"/>
<path d="M24.8758 24.6833V8.8833C33.5758 8.8833 40.6758 15.9833 40.6758 24.6833C40.6758 33.3833 33.5758 40.4833 24.8758 40.4833C20.4758 40.4833 16.5758 38.6833 13.6758 35.8833" fill="#63636E"/>
<defs>
<linearGradient id="paint0_linear" x1="28.3625" y1="1.45766" x2="28.3625" y2="40.5765" gradientUnits="userSpaceOnUse">
<stop stop-color="#16F1C2"/>
<stop offset="0.953125" stop-color="#01BD95"/>
</linearGradient>
<linearGradient id="paint1_linear" x1="9.578" y1="24.6833" x2="39.8945" y2="24.6833" gradientUnits="userSpaceOnUse">
<stop stop-color="#00E8B6"/>
<stop offset="0.953125" stop-color="#01BD95"/>
</linearGradient>
</defs>
</svg>
