<svg width="54" height="49" viewBox="0 0 54 49" fill="none" xmlns="http://www.w3.org/2000/svg">
<path d="M40.5 25.6367C46.8513 25.6367 52 20.488 52 14.1367C52 7.78545 46.8513 2.63672 40.5 2.63672C34.1487 2.63672 29 7.78545 29 14.1367C29 20.488 34.1487 25.6367 40.5 25.6367Z" stroke="#01C89E" stroke-width="3.3" stroke-miterlimit="10" stroke-linecap="round" stroke-linejoin="round"/>
<path d="M40.5 19.6367C43.5376 19.6367 46 17.1743 46 14.1367C46 11.0992 43.5376 8.63672 40.5 8.63672C37.4624 8.63672 35 11.0992 35 14.1367C35 17.1743 37.4624 19.6367 40.5 19.6367Z" stroke="#20457C" stroke-width="3.3" stroke-miterlimit="10" stroke-linecap="round" stroke-linejoin="round"/>
<path d="M46 47.1367L46 14.1367L2 14.1367L2 47.1367L46 47.1367Z" fill="white" stroke="url(#paint0_linear)" stroke-width="3.3" stroke-miterlimit="10" stroke-linecap="round" stroke-linejoin="round"/>
<path d="M8 31.6367H24.5" stroke="#01C89E" stroke-width="3.3" stroke-miterlimit="10" stroke-linecap="round" stroke-linejoin="round"/>
<path d="M8 37.6367H16" stroke="#01C89E" stroke-width="3.3" stroke-miterlimit="10" stroke-linecap="round" stroke-linejoin="round"/>
<path d="M2 22.6367H46" stroke="#20457C" stroke-width="3.3" stroke-miterlimit="10" stroke-linecap="round" stroke-linejoin="round"/>
<path d="M46 47.1367L46 14.1367L2 14.1367L2 47.1367L46 47.1367Z" stroke="#20457C" stroke-width="3.3" stroke-miterlimit="10" stroke-linecap="round" stroke-linejoin="round"/>
<path d="M11.5 17.6367L11.5 10.6367" stroke="#01C89E" stroke-width="3.3" stroke-miterlimit="10" stroke-linecap="round" stroke-linejoin="round"/>
<path d="M8 14.1367L15 14.1367" stroke="#01C89E" stroke-width="3.3" stroke-miterlimit="10" stroke-linecap="round" stroke-linejoin="round"/>
<defs>
<linearGradient id="paint0_linear" x1="24" y1="14.6628" x2="24" y2="46.3225" gradientUnits="userSpaceOnUse">
<stop stop-color="#2690F2"/>
<stop offset="0.953125" stop-color="#59AFFF"/>
</linearGradient>
</defs>
</svg>
