<svg width="51" height="51" viewBox="0 0 51 51" fill="none" xmlns="http://www.w3.org/2000/svg">
<path d="M25 37.1738C31.3513 37.1738 36.5 32.0251 36.5 25.6738C36.5 19.3226 31.3513 14.1738 25 14.1738C18.6487 14.1738 13.5 19.3226 13.5 25.6738C13.5 32.0251 18.6487 37.1738 25 37.1738Z" stroke="#01C89E" stroke-width="3.3" stroke-miterlimit="10" stroke-linecap="round" stroke-linejoin="round"/>
<path d="M25 43.1738C34.665 43.1738 42.5 35.3388 42.5 25.6738C42.5 16.0088 34.665 8.17383 25 8.17383C15.335 8.17383 7.5 16.0088 7.5 25.6738C7.5 35.3388 15.335 43.1738 25 43.1738Z" stroke="#20457C" stroke-width="3.3" stroke-miterlimit="10" stroke-linecap="round" stroke-linejoin="round"/>
<path d="M25 31.6738C28.3137 31.6738 31 28.9875 31 25.6738C31 22.3601 28.3137 19.6738 25 19.6738C21.6863 19.6738 19 22.3601 19 25.6738C19 28.9875 21.6863 31.6738 25 31.6738Z" fill="#20457C"/>
<path d="M2 25.6738L7.5 25.6738" stroke="#01C89E" stroke-width="3.3" stroke-miterlimit="10" stroke-linecap="round" stroke-linejoin="round"/>
<path d="M42.5 25.6738L48 25.6738" stroke="#01C89E" stroke-width="3.3" stroke-miterlimit="10" stroke-linecap="round" stroke-linejoin="round"/>
<path d="M25 2.67383V8.17383" stroke="#01C89E" stroke-width="3.3" stroke-miterlimit="10" stroke-linecap="round" stroke-linejoin="round"/>
<path d="M25 43.1738V48.6738" stroke="#01C89E" stroke-width="3.3" stroke-miterlimit="10" stroke-linecap="round" stroke-linejoin="round"/>
</svg>
