<svg width="101" height="19" viewBox="0 0 101 19" fill="none" xmlns="http://www.w3.org/2000/svg">
<path d="M20.2389 15.25V2.15439H24.9429C26.6278 2.15439 27.908 2.46319 28.7834 3.08079C29.6648 3.6984 30.1056 4.59482 30.1056 5.77007C30.1056 6.44764 29.9497 7.02627 29.6379 7.50596C29.3261 7.98565 28.8674 8.33943 28.2617 8.56728C28.9453 8.74716 29.47 9.08295 29.8357 9.57463C30.2015 10.0663 30.3844 10.6659 30.3844 11.3735C30.3844 12.6567 29.9766 13.622 29.1612 14.2696C28.3517 14.9112 27.1495 15.238 25.5545 15.25H20.2389ZM23.3959 9.68257V12.8216H25.4645C26.0342 12.8216 26.4719 12.6926 26.7777 12.4348C27.0835 12.171 27.2364 11.8022 27.2364 11.3285C27.2364 10.2372 26.6937 9.68856 25.6084 9.68257H23.3959ZM23.3959 7.61389H25.0418C25.7314 7.60789 26.223 7.48197 26.5169 7.23613C26.8107 6.99029 26.9576 6.62752 26.9576 6.14783C26.9576 5.59618 26.7987 5.20044 26.4809 4.96059C26.1631 4.71475 25.6504 4.59183 24.9429 4.59183H23.3959V7.61389ZM41.0785 15.25H31.9404V13.2713L36.1497 8.8461C37.187 7.66486 37.7057 6.72646 37.7057 6.0309C37.7057 5.46726 37.5828 5.03854 37.3369 4.74473C37.0911 4.45092 36.7343 4.30401 36.2666 4.30401C35.8049 4.30401 35.4301 4.50188 35.1423 4.89763C34.8545 5.28738 34.7106 5.77607 34.7106 6.36369H31.6706C31.6706 5.56021 31.8714 4.81968 32.2732 4.14211C32.6749 3.45855 33.2326 2.92489 33.9461 2.54114C34.6596 2.15738 35.4571 1.96551 36.3386 1.96551C37.7537 1.96551 38.842 2.2923 39.6035 2.94588C40.371 3.59946 40.7547 4.53786 40.7547 5.76108C40.7547 6.27675 40.6588 6.78042 40.4669 7.27211C40.275 7.7578 39.9752 8.27047 39.5675 8.81012C39.1658 9.34378 38.5152 10.0603 37.6158 10.9597L35.9248 12.9115H41.0785V15.25ZM52.3753 3.57548H48.166V15.25H46.4481V3.57548H42.2478V2.15439H52.3753V3.57548ZM58.0776 7.01128C57.8258 6.9693 57.553 6.94832 57.2592 6.94832C56.1679 6.94832 55.4273 7.41302 55.0376 8.34242V15.25H53.3737V5.51823H54.9926L55.0196 6.64251C55.5653 5.77307 56.3388 5.33835 57.3401 5.33835C57.6639 5.33835 57.9098 5.38032 58.0776 5.46427V7.01128ZM65.264 15.25C65.1681 15.0581 65.0902 14.7163 65.0302 14.2247C64.2567 15.0281 63.3333 15.4299 62.26 15.4299C61.3006 15.4299 60.5121 15.1601 59.8945 14.6204C59.2829 14.0748 58.9771 13.3852 58.9771 12.5517C58.9771 11.5384 59.3608 10.7529 60.1283 10.1952C60.9018 9.6316 61.9871 9.34978 63.3843 9.34978H65.0032V8.58527C65.0032 8.00364 64.8293 7.54194 64.4815 7.20015C64.1338 6.85238 63.6211 6.67849 62.9435 6.67849C62.3499 6.67849 61.8522 6.82839 61.4505 7.1282C61.0487 7.42801 60.8479 7.79078 60.8479 8.2165H59.1749C59.1749 7.73082 59.3458 7.26311 59.6876 6.8134C60.0354 6.35769 60.5031 5.99792 61.0907 5.73409C61.6843 5.47026 62.3349 5.33835 63.0425 5.33835C64.1638 5.33835 65.0422 5.62017 65.6778 6.18381C66.3134 6.74145 66.6432 7.51196 66.6671 8.49533V12.9745C66.6671 13.8679 66.7811 14.5784 67.0089 15.1061V15.25H65.264ZM62.5028 13.9818C63.0245 13.9818 63.5192 13.8469 63.9869 13.5771C64.4546 13.3072 64.7933 12.9565 65.0032 12.5247V10.528H63.699C61.6604 10.528 60.641 11.1246 60.641 12.3179C60.641 12.8395 60.8149 13.2473 61.1627 13.5411C61.5105 13.8349 61.9572 13.9818 62.5028 13.9818ZM68.8707 10.3032C68.8707 8.81012 69.2245 7.61089 69.9321 6.70547C70.6396 5.79406 71.566 5.33835 72.7113 5.33835C73.8505 5.33835 74.753 5.7281 75.4185 6.5076V1.43485H77.0825V15.25H75.5535L75.4725 14.2067C74.8069 15.0221 73.8805 15.4299 72.6933 15.4299C71.566 15.4299 70.6456 14.9682 69.9321 14.0448C69.2245 13.1214 68.8707 11.9161 68.8707 10.4291V10.3032ZM70.5347 10.492C70.5347 11.5953 70.7625 12.4588 71.2182 13.0824C71.6739 13.706 72.3035 14.0178 73.107 14.0178C74.1623 14.0178 74.9329 13.5441 75.4185 12.5967V8.12656C74.9209 7.20915 74.1563 6.75044 73.125 6.75044C72.3095 6.75044 71.6739 7.06524 71.2182 7.69484C70.7625 8.32443 70.5347 9.25684 70.5347 10.492ZM83.7112 15.4299C82.3921 15.4299 81.3188 14.9982 80.4913 14.1347C79.6638 13.2653 79.2501 12.105 79.2501 10.6539V10.3481C79.2501 9.38276 79.433 8.52231 79.7987 7.76679C80.1705 7.00528 80.6862 6.41166 81.3457 5.98593C82.0113 5.55421 82.7309 5.33835 83.5044 5.33835C84.7696 5.33835 85.7529 5.75508 86.4545 6.58855C87.156 7.42201 87.5068 8.61525 87.5068 10.1683V10.8608H80.914C80.938 11.8202 81.2168 12.5967 81.7505 13.1903C82.2901 13.7779 82.9737 14.0718 83.8012 14.0718C84.3888 14.0718 84.8865 13.9518 85.2942 13.712C85.702 13.4721 86.0587 13.1543 86.3645 12.7586L87.3809 13.5501C86.5654 14.8033 85.3422 15.4299 83.7112 15.4299ZM83.5044 6.70547C82.8328 6.70547 82.2692 6.95131 81.8134 7.443C81.3577 7.92869 81.0759 8.61225 80.968 9.49369H85.8429V9.36777C85.7949 8.52231 85.567 7.86873 85.1593 7.40702C84.7516 6.93932 84.1999 6.70547 83.5044 6.70547ZM94.1445 7.01128C93.8927 6.9693 93.6199 6.94832 93.3261 6.94832C92.2348 6.94832 91.4942 7.41302 91.1045 8.34242V15.25H89.4406V5.51823H91.0595L91.0865 6.64251C91.6322 5.77307 92.4057 5.33835 93.407 5.33835C93.7308 5.33835 93.9767 5.38032 94.1445 5.46427V7.01128Z" fill="white"/>
<circle cx="10.6162" cy="15.0506" r="2.46659" fill="#59C59E"/>
<circle cx="10.6162" cy="15.0506" r="2.46659" fill="#07D6A5"/>
<circle cx="10.6162" cy="8.88456" r="2.46659" fill="#59C59E"/>
<circle cx="10.6162" cy="8.88456" r="2.46659" fill="#07D6A5"/>
<circle cx="10.6162" cy="2.71659" r="2.46659" fill="#59C59E"/>
<circle cx="10.6162" cy="2.71659" r="2.46659" fill="#FF5252"/>
<circle cx="3.21659" cy="15.0506" r="2.46659" fill="#59C59E"/>
<circle cx="3.21659" cy="15.0506" r="2.46659" fill="#07D6A5"/>
<circle cx="3.21659" cy="8.88456" r="2.46659" fill="#59C59E"/>
<circle cx="3.21659" cy="8.88456" r="2.46659" fill="#FF5252"/>
<circle cx="3.21659" cy="2.71659" r="2.46659" fill="#59C59E"/>
<circle cx="3.21659" cy="2.71659" r="2.46659" fill="#FF5252"/>
</svg>
