<svg width="315" height="206" viewBox="0 0 315 206" fill="none" xmlns="http://www.w3.org/2000/svg">
<g clip-path="url(#clip0)">
<g clip-path="url(#clip1)">
<path d="M25.0312 129.965H30.2537L34.0188 144.053L38.0267 129.965H43.2492L47.2571 144.053L51.0221 129.965H56.2446L50.172 149.276H44.7066L40.6987 135.552L36.5693 149.276H31.1039L25.0312 129.965Z" fill="#7A7A7A"/>
<path d="M61.5859 129.965H66.8084V149.276H61.5859V129.965Z" fill="#7A7A7A"/>
<path d="M74.582 129.965H87.5775C93.0429 129.965 94.3788 133.244 94.3788 135.795C94.3788 139.924 92.1927 142.353 87.9418 142.353H79.8045V149.276H74.582V129.965ZM79.8045 138.952H85.3913C86.9702 138.952 88.9135 138.952 88.9135 136.28C88.9135 133.608 87.3346 133.487 85.8771 133.487H79.8045V138.952Z" fill="#7A7A7A"/>
<path d="M111.868 129.479C122.313 129.479 123.891 135.673 123.891 139.681C123.891 143.688 122.313 149.883 111.868 149.883C101.423 149.883 99.8438 143.688 99.8438 139.681C99.8438 135.673 101.544 129.479 111.868 129.479ZM111.868 146.239C116.604 146.239 118.305 142.717 118.305 139.681C118.305 136.644 116.604 133.122 111.868 133.122C107.131 133.122 105.431 136.644 105.431 139.681C105.431 142.717 107.131 146.239 111.868 146.239Z" fill="#7A7A7A"/>
<path d="M121.219 25.7597C122.798 24.0593 123.648 21.7517 123.77 19.4441C123.648 12.157 113.811 6.20577 98.2647 1.46911L97.7789 1.34766V3.89816L98.1432 4.01962C105.795 5.96286 111.867 8.14901 115.997 10.5781C120.126 13.0071 122.312 15.5576 122.312 18.1081C122.312 19.9299 121.341 21.8732 119.276 23.5735C114.904 19.8085 107.738 16.6507 98.5076 13.8573L97.9003 13.7358V16.2864L98.2647 16.4078C105.916 18.351 111.989 20.5372 116.118 22.9663C116.847 23.4521 117.697 23.9379 118.426 24.4237C115.268 26.6098 111.867 28.4316 108.345 29.7676C105.43 28.5531 102.151 27.46 98.629 26.3669L98.0218 26.2455V28.796L98.3861 28.9174C100.937 29.5247 103.244 30.2534 105.43 30.8607C94.7425 34.5043 79.6824 37.5406 61.8288 39.6053V46.0423C80.1682 43.6132 95.7142 39.9696 106.645 35.3544C108.467 34.6257 110.167 33.897 111.624 33.0468C113.203 33.6541 114.782 34.5043 116.24 35.3544C116.968 35.8403 117.819 36.3261 118.547 36.8119C115.39 38.998 111.989 40.8198 108.467 42.1558C105.552 40.9413 102.273 39.8482 98.7505 38.7551L98.1432 38.6337V41.3056L98.5076 41.4271C101.058 42.0343 103.366 42.7631 105.552 43.3703C94.864 47.0139 79.8039 50.0502 61.9503 52.1149V58.4305C80.2897 56.0014 95.8356 52.3578 106.766 47.7426C108.588 47.0139 110.289 46.2852 111.746 45.435C113.325 46.0423 114.782 46.8925 116.24 47.7426C116.968 48.2284 117.819 48.7142 118.547 49.2001C115.39 51.3862 111.989 53.208 108.467 54.544C105.552 53.3295 102.273 52.2364 98.7505 51.1433L98.1432 51.0219V53.5724L98.5076 53.6938C101.058 54.3011 103.366 55.0298 105.552 55.6371C94.864 59.2806 79.8039 62.317 61.9503 64.3817V70.8187C80.2897 68.3896 95.8356 64.746 106.766 60.1308C108.588 59.4021 110.289 58.6734 111.746 57.8232C113.325 58.4305 114.904 59.2806 116.361 60.1308C117.09 60.6166 117.94 61.1024 118.669 61.5882C115.511 63.7744 112.11 65.5962 108.588 66.9322C105.43 65.5962 102.151 64.5031 98.8719 63.5315L97.7789 63.2886V65.8391L98.1432 65.9605C100.694 66.5678 103.001 67.2965 105.187 67.9038C94.4996 71.5474 79.4395 74.5837 61.5859 76.6484V83.0854C79.9253 80.6563 95.4713 77.0127 106.402 72.3975C108.224 71.6688 109.924 70.9401 111.382 70.0899C112.96 70.6972 114.539 71.5474 115.997 72.3975C116.726 72.8834 117.576 73.3692 118.304 73.855C115.147 76.0411 111.746 77.8629 108.224 79.1989C105.066 77.8629 101.787 76.7698 98.5076 75.7982L97.9003 75.6768V78.2273L98.2647 78.3487C100.815 78.956 103.123 79.6847 105.309 80.292C94.6211 83.9356 79.561 86.9719 61.7074 89.0366V95.4736C80.0468 93.0445 95.5927 89.4009 106.523 84.7857C108.345 84.057 110.046 83.3283 111.624 82.4781C113.203 83.0854 114.782 83.9356 116.24 84.7857C116.968 85.2715 117.819 85.7574 118.547 86.2432C115.754 88.4293 111.382 90.6155 105.795 92.5587C95.1069 96.3237 79.9253 99.3601 61.8288 101.425V107.862C80.1682 105.433 95.7142 101.789 106.645 97.1739C113.082 94.502 117.94 91.5871 120.976 88.4293C121.948 89.5224 122.555 90.8584 122.555 92.4373C122.677 96.8096 116.604 101.303 105.795 105.068C94.9855 108.833 79.9253 111.87 61.8288 113.934V120.371C80.1682 117.942 95.7142 114.299 106.645 109.684C117.576 105.19 124.134 99.8459 124.134 93.7732C124.013 91.4656 123.163 89.2795 121.584 87.5791C123.163 85.8788 124.013 83.5712 124.134 81.2636C124.013 78.956 123.163 76.7698 121.584 75.191C123.163 73.4906 124.013 71.183 124.134 68.8754C124.013 66.5678 123.163 64.3817 121.584 62.6813C123.041 60.8595 123.891 58.6734 124.013 56.3658C123.891 54.0582 123.041 51.872 121.462 50.2931C123.041 48.5928 123.891 46.2852 124.013 43.9776C123.891 41.67 123.041 39.4838 121.462 37.9049C123.041 36.2046 123.891 33.897 124.013 31.5894C123.648 29.6462 122.798 27.46 121.219 25.7597ZM113.082 32.0752C115.875 30.6178 118.304 28.796 120.491 26.6098C121.462 27.7029 122.069 29.0389 122.069 30.6178C122.069 32.4396 121.098 34.3828 119.033 36.0832C117.211 34.5043 115.268 33.1683 113.082 32.0752ZM122.191 80.0491C122.191 81.8709 121.219 83.8141 119.155 85.5145C117.333 83.9356 115.268 82.5996 113.203 81.5065C115.997 80.0491 118.426 78.2273 120.612 76.0411C121.584 77.2557 122.191 78.5916 122.191 80.0491ZM122.191 67.6609C122.191 69.4827 121.219 71.4259 119.155 73.1263C117.333 71.5474 115.268 70.2114 113.203 69.1183C115.997 67.6609 118.426 65.8391 120.612 63.6529C121.584 64.8675 122.191 66.2034 122.191 67.6609ZM122.191 55.2727C122.191 57.0945 121.219 59.0377 119.155 60.7381C117.333 59.1592 115.268 57.8232 113.203 56.7301C115.997 55.2727 118.426 53.4509 120.612 51.2648C121.584 52.4793 122.191 53.8153 122.191 55.2727ZM122.191 42.8845C122.191 44.7063 121.219 46.6496 119.155 48.3499C117.333 46.771 115.268 45.435 113.203 44.3419C115.997 42.8845 118.426 41.0627 120.612 38.8766C121.584 40.0911 122.191 41.4271 122.191 42.8845Z" fill="#7A7A7A"/>
<path d="M60.375 160.088H62.5611L64.6258 167.375L66.9335 160.088H68.9981L71.3057 167.375L73.4919 160.088H75.5566L72.3988 169.561H70.3341L68.0265 162.274L65.7189 169.561H63.5328L60.375 160.088Z" fill="#7A7A7A"/>
<path d="M77.6211 164.823C77.6211 162.151 79.2 159.844 83.2079 159.844C87.2159 159.844 88.7948 162.151 88.7948 164.823C88.7948 167.495 87.2159 169.803 83.2079 169.803C79.2 169.681 77.6211 167.374 77.6211 164.823ZM86.6086 164.823C86.6086 162.88 85.0297 161.301 83.0865 161.301C81.1432 161.301 79.5643 162.88 79.5643 164.823C79.5643 166.767 81.1432 168.345 83.0865 168.345C84.9083 168.467 86.4871 167.131 86.6086 165.309C86.6086 165.066 86.6086 164.945 86.6086 164.823Z" fill="#7A7A7A"/>
<path d="M91.5863 160.088H97.5375C99.9665 160.088 100.695 161.181 100.695 162.638C100.817 163.61 100.088 164.582 99.1164 164.946C100.209 165.189 100.452 166.161 100.452 167.497C100.452 168.225 100.574 168.832 100.817 169.44H98.6306C98.3876 168.954 98.3877 168.468 98.3877 167.982C98.3877 166.646 98.1447 165.675 96.8088 165.675H93.4081V169.44H91.4648L91.5863 160.088ZM96.9302 164.217C98.0233 164.217 98.6306 163.853 98.6306 162.881C98.6306 161.788 98.0233 161.545 96.9302 161.545H93.5295V164.339H96.9302V164.217Z" fill="#7A7A7A"/>
<path d="M103.855 160.088H105.799V167.982H111.507V169.561H103.855V160.088Z" fill="#7A7A7A"/>
<path d="M114.176 160.088H119.277C122.92 160.088 123.892 162.153 123.892 164.946C123.892 167.011 122.92 169.561 119.763 169.561H114.176V160.088ZM116.119 167.982H118.912C120.37 167.982 121.827 167.497 121.827 164.703C121.827 161.667 119.884 161.424 118.791 161.424H116.119V167.982Z" fill="#7A7A7A"/>
<path d="M61.4648 177.211H64.6226V186.684H61.4648V177.211Z" fill="#7A7A7A"/>
<path d="M68.0277 177.211H71.6713L76.0436 183.162V177.211H79.0799V186.684H75.5578L71.064 180.733V186.684H67.9062V177.211H68.0277Z" fill="#7A7A7A"/>
<path d="M81.5078 177.211H91.5884V179.276H88.1877V186.563H85.0299V179.276H81.6293V177.211H81.5078Z" fill="#7A7A7A"/>
<path d="M94.0156 177.211H103.489V179.276H97.1734V180.976H103.125V182.919H97.1734V184.62H103.489V186.684H94.0156V177.211Z" fill="#7A7A7A"/>
<path d="M106.285 177.211H109.443V184.377H115.151V186.563H106.285V177.211Z" fill="#7A7A7A"/>
<path d="M117.82 177.211H120.978V184.377H126.808V186.563H117.942V177.211H117.82Z" fill="#7A7A7A"/>
<path d="M129.359 177.211H138.833V179.276H132.517V180.976H138.468V182.919H132.517V184.62H138.833V186.684H129.359V177.211Z" fill="#7A7A7A"/>
<path d="M153.043 183.041C152.679 185.106 151.586 187.049 147.092 187.049C143.084 187.049 141.141 185.349 141.141 182.069C141.141 178.912 142.962 177.09 147.092 177.09C150.007 177.09 152.314 177.697 153.043 181.098H149.521C149.278 180.005 148.306 179.155 147.092 179.276C145.149 179.276 144.42 180.612 144.42 182.191C144.42 183.77 145.027 185.106 147.092 185.106C148.306 185.227 149.399 184.498 149.521 183.284L153.043 183.041Z" fill="#7A7A7A"/>
<path d="M154.863 177.211H164.944V179.276H161.422V186.563H158.264V179.276H154.863V177.211Z" fill="#7A7A7A"/>
<path d="M167.254 177.211H170.412V182.798C170.412 184.377 171.14 184.741 172.598 184.741C174.055 184.741 174.784 184.255 174.784 182.798V177.211H177.942V183.284C177.942 185.834 175.999 186.927 172.598 186.927C169.197 186.927 167.254 185.956 167.254 183.284V177.211Z" fill="#7A7A7A"/>
<path d="M183.891 177.211H187.778L191.786 186.684H188.385L187.778 185.105H183.649L183.041 186.684H179.641L183.891 177.211ZM185.713 179.64L184.377 183.162H187.049L185.713 179.64Z" fill="#7A7A7A"/>
<path d="M193.848 177.211H197.005V184.377H202.714V186.563H193.848V177.211Z" fill="#7A7A7A"/>
<path d="M211.945 177.211H218.868C221.419 177.211 222.39 178.547 222.39 180.369C222.39 181.948 221.54 183.526 219.111 183.526H215.103V186.684H211.945V177.211ZM215.103 181.583H217.897C218.747 181.583 219.111 181.219 219.111 180.369C219.111 179.519 218.747 179.154 217.897 179.154H215.103V181.583Z" fill="#7A7A7A"/>
<path d="M225.188 177.211H232.839C235.147 177.211 235.997 178.304 235.997 179.883C236.118 180.855 235.511 181.826 234.539 182.069C235.268 182.312 235.754 183.041 235.632 183.769C235.754 185.591 235.875 186.198 236.24 186.684H232.718C232.596 186.198 232.475 185.713 232.596 185.227C232.596 183.769 232.11 183.526 231.26 183.526H228.345V186.684H225.188V177.211ZM228.345 181.462H231.26C231.989 181.462 232.475 181.097 232.475 180.369C232.475 179.761 232.11 179.397 231.26 179.397H228.345V181.462Z" fill="#7A7A7A"/>
<path d="M244.62 176.969C247.899 176.969 250.814 178.062 250.814 181.948C250.814 185.835 248.021 186.928 244.62 186.928C241.341 186.928 238.426 185.835 238.426 181.948C238.426 178.062 241.219 176.969 244.62 176.969ZM244.62 184.863C246.199 184.863 247.535 183.649 247.656 182.07C247.656 180.491 246.442 179.155 244.863 179.033C243.284 179.033 241.948 180.248 241.826 181.827C241.826 181.827 241.826 181.827 241.826 181.948C241.705 183.406 242.677 184.62 244.134 184.863C244.256 184.863 244.377 184.863 244.62 184.863Z" fill="#7A7A7A"/>
<path d="M253.605 177.211H260.528C263.079 177.211 264.05 178.547 264.05 180.369C264.05 181.948 263.2 183.526 260.771 183.526H256.763V186.684H253.605V177.211ZM256.763 181.583H259.557C260.407 181.583 260.771 181.219 260.771 180.369C260.771 179.519 260.407 179.154 259.557 179.154H256.763V181.583Z" fill="#7A7A7A"/>
<path d="M266.844 177.211H276.317V179.276H270.002V180.976H275.953V182.919H270.002V184.62H276.317V186.684H266.844V177.211Z" fill="#7A7A7A"/>
<path d="M279.11 177.211H286.64C288.947 177.211 289.798 178.304 289.798 179.883C289.919 180.855 289.312 181.826 288.34 182.069C289.069 182.312 289.555 183.041 289.433 183.769C289.555 185.591 289.676 186.198 290.04 186.684H286.64C286.518 186.198 286.397 185.713 286.397 185.227C286.397 183.769 285.911 183.526 285.061 183.526H282.146V186.684H278.988V177.211H279.11ZM282.268 181.462H285.304C286.033 181.462 286.518 181.097 286.518 180.369C286.518 179.761 286.154 179.397 285.304 179.397H282.268V181.462Z" fill="#7A7A7A"/>
<path d="M291.863 177.211H301.944V179.276H298.543V186.563H295.385V179.276H291.985V177.211H291.863Z" fill="#7A7A7A"/>
<path d="M307.165 183.771L302.914 177.334H306.558L308.622 181.342L310.687 177.334H314.331L310.08 183.771V186.686H306.922L307.165 183.771Z" fill="#7A7A7A"/>
<path d="M60.375 199.194C60.375 196.522 61.9539 194.215 65.9618 194.215C69.9698 194.215 71.5487 196.522 71.5487 199.194C71.5487 201.866 69.9698 204.174 65.9618 204.174C61.9539 204.174 60.375 201.866 60.375 199.194ZM69.484 199.194C69.484 197.251 67.9051 195.672 65.9618 195.672C64.0186 195.672 62.4397 197.251 62.4397 199.194C62.4397 201.138 64.0186 202.717 65.9618 202.717C67.7836 202.838 69.3625 201.502 69.484 199.68C69.484 199.559 69.484 199.316 69.484 199.194Z" fill="#7A7A7A"/>
<path d="M74.4652 194.457H80.4164C82.8454 194.457 83.5742 195.55 83.5742 197.008C83.6956 198.101 83.0884 198.951 81.9953 199.315C83.0884 199.558 83.3313 200.53 83.3313 201.866C83.3313 202.594 83.4527 203.202 83.6956 203.809H81.5095C81.2666 203.323 81.2666 202.837 81.2666 202.351C81.2666 201.015 81.0237 200.044 79.6877 200.044H76.287V203.809H74.3438V194.457H74.4652ZM79.8091 198.708C80.9022 198.708 81.5095 198.344 81.5095 197.372C81.5095 196.279 80.9022 196.036 79.8091 196.036H76.4084V198.829L79.8091 198.708Z" fill="#7A7A7A"/>
<path d="M96.6918 203.931H95.4772L95.2343 202.717C94.2627 203.688 93.0482 204.295 91.5907 204.174C87.5828 204.174 86.0039 201.866 86.0039 199.194C86.0039 196.522 87.7042 194.215 91.4693 194.215C94.3841 194.215 96.2059 195.672 96.4488 197.494H94.2627C93.8983 196.28 92.6838 195.551 91.4693 195.672C89.0402 195.672 88.0686 197.13 88.0686 199.194C87.8257 200.895 89.0402 202.474 90.7406 202.595C90.9835 202.595 91.1049 202.595 91.3478 202.595C93.2911 202.595 94.2627 201.623 94.6271 200.166H91.8336V198.709H96.6918V203.931Z" fill="#7A7A7A"/>
<path d="M103.247 194.457H105.554L109.805 203.93H107.619L106.647 201.623H102.275L101.303 203.93H99.1172L103.247 194.457ZM106.04 200.044L104.461 196.036L102.882 200.044H106.04Z" fill="#7A7A7A"/>
<path d="M112.113 194.457H114.421L120.008 201.501V194.457H121.951V203.93H119.765L114.057 196.886V203.93H112.113V194.457Z" fill="#7A7A7A"/>
<path d="M125.352 194.457H127.295V203.93H125.352V194.457Z" fill="#7A7A7A"/>
<path d="M129.969 202.473L136.406 195.914H130.333V194.457H138.956V195.914L132.519 202.351H139.199V203.93H130.09L129.969 202.473Z" fill="#7A7A7A"/>
<path d="M144.903 194.457H147.21L151.461 203.93H149.275L148.304 201.623H143.931L142.96 203.93H140.773L144.903 194.457ZM147.696 200.044L146.117 196.036L144.538 200.044H147.696Z" fill="#7A7A7A"/>
<path d="M155.592 195.914H152.07V194.457H161.179V195.914H157.657V203.809H155.714V195.914H155.592Z" fill="#7A7A7A"/>
<path d="M163.605 194.457H165.549V203.93H163.605V194.457Z" fill="#7A7A7A"/>
<path d="M168.465 199.194C168.465 196.522 170.044 194.215 174.052 194.215C178.06 194.215 179.639 196.522 179.639 199.194C179.639 201.866 178.06 204.174 174.052 204.174C170.044 204.174 168.465 201.866 168.465 199.194ZM177.574 199.194C177.574 197.251 175.995 195.672 174.052 195.672C172.108 195.672 170.53 197.251 170.53 199.194C170.53 201.138 172.108 202.717 174.052 202.717C175.873 202.838 177.452 201.502 177.574 199.68C177.574 199.559 177.574 199.316 177.574 199.194Z" fill="#7A7A7A"/>
<path d="M182.434 194.457H184.741L190.328 201.501V194.457H192.271V203.93H190.085L184.377 196.886V203.93H182.434V194.457Z" fill="#7A7A7A"/>
</g>
</g>
<defs>
<clipPath id="clip0">
<rect width="314" height="205" fill="white" transform="translate(0.902344 0.173828)"/>
</clipPath>
<clipPath id="clip1">
<rect width="314" height="203" fill="white" transform="translate(0.902344 1.17383)"/>
</clipPath>
</defs>
</svg>
