<svg width="41" height="41" viewBox="0 0 41 41" fill="none" xmlns="http://www.w3.org/2000/svg">
<path d="M20.4435 37.5972C10.5963 37.5972 2.61399 29.6149 2.61399 19.7677C2.61399 9.92047 10.5963 1.93821 20.4435 1.93821C30.2907 1.93821 38.273 9.92047 38.273 19.7677C38.273 29.6149 30.2907 37.5972 20.4435 37.5972ZM20.4435 34.1521C24.2585 34.1521 27.9172 32.6366 30.6148 29.939C33.3124 27.2414 34.8279 23.5827 34.8279 19.7677C34.8279 15.9527 33.3124 12.294 30.6148 9.5964C27.9172 6.8988 24.2585 5.3833 20.4435 5.3833C16.6285 5.3833 12.9698 6.8988 10.2722 9.5964C7.57458 12.294 6.05908 15.9527 6.05908 19.7677C6.05908 23.5827 7.57458 27.2414 10.2722 29.939C12.9698 32.6366 16.6285 34.1521 20.4435 34.1521Z" fill="#383838"/>
<path d="M20.4435 37.5972C10.5963 37.5972 2.61399 29.6149 2.61399 19.7677C2.61399 9.92047 10.5963 1.93821 20.4435 1.93821C30.2907 1.93821 38.273 9.92047 38.273 19.7677C38.273 29.6149 30.2907 37.5972 20.4435 37.5972ZM20.4435 34.1521C24.2585 34.1521 27.9172 32.6366 30.6148 29.939C33.3124 27.2414 34.8279 23.5827 34.8279 19.7677C34.8279 15.9527 33.3124 12.294 30.6148 9.5964C27.9172 6.8988 24.2585 5.3833 20.4435 5.3833C16.6285 5.3833 12.9698 6.8988 10.2722 9.5964C7.57458 12.294 6.05908 15.9527 6.05908 19.7677C6.05908 23.5827 7.57458 27.2414 10.2722 29.939C12.9698 32.6366 16.6285 34.1521 20.4435 34.1521Z" fill="url(#paint0_linear)"/>
<path d="M20.4435 37.5972C10.5963 37.5972 2.61399 29.6149 2.61399 19.7677C2.61399 9.92047 10.5963 1.93821 20.4435 1.93821C30.2907 1.93821 38.273 9.92047 38.273 19.7677C38.273 29.6149 30.2907 37.5972 20.4435 37.5972ZM20.4435 34.1521C24.2585 34.1521 27.9172 32.6366 30.6148 29.939C33.3124 27.2414 34.8279 23.5827 34.8279 19.7677C34.8279 15.9527 33.3124 12.294 30.6148 9.5964C27.9172 6.8988 24.2585 5.3833 20.4435 5.3833C16.6285 5.3833 12.9698 6.8988 10.2722 9.5964C7.57458 12.294 6.05908 15.9527 6.05908 19.7677C6.05908 23.5827 7.57458 27.2414 10.2722 29.939C12.9698 32.6366 16.6285 34.1521 20.4435 34.1521Z" stroke="#FBFBFB" stroke-width="0.134225"/>
<path d="M16.5587 12.8729L16.5588 12.8729C17.6336 11.9648 19.0495 11.4644 20.5476 11.4644C22.0454 11.4644 23.4615 11.9613 24.5365 12.873C25.6548 13.8197 26.2762 15.0975 26.2727 16.4697C26.2727 16.4698 26.2727 16.4699 26.2727 16.47L26.1385 16.4697C26.1385 18.4249 24.8063 20.1839 22.7434 20.9517L16.5587 12.8729ZM16.5587 12.8729C15.4403 13.8197 14.8189 15.0976 14.8189 16.4697V16.7268C14.8189 16.9539 15.0091 17.1316 15.2328 17.1316H16.9112C17.1349 17.1316 17.3251 16.9539 17.3251 16.7268V16.4697C17.3251 15.0776 18.7436 13.8978 20.5476 13.8978C22.3515 13.8978 23.77 15.0776 23.77 16.4697C23.77 17.4519 23.0497 18.3743 21.8959 18.8031C21.1298 19.0863 20.4787 19.5831 20.0119 20.2342L20.0117 20.2345C19.5369 20.9007 19.2909 21.6993 19.2909 22.5078V23.235C19.2909 23.4622 19.4811 23.6399 19.7049 23.6399H21.3832C21.607 23.6399 21.7972 23.4622 21.7972 23.235V22.4676C21.7989 22.1673 21.894 21.8741 22.0708 21.6261C22.2477 21.3781 22.4982 21.1866 22.7902 21.0775L16.5587 12.8729ZM19.0147 27.0236C19.0147 27.4195 19.1773 27.7983 19.4653 28.0769C19.753 28.3553 20.1424 28.5109 20.5476 28.5109C20.9527 28.5109 21.3421 28.3553 21.6298 28.0769C21.9178 27.7983 22.0804 27.4195 22.0804 27.0236C22.0804 26.6277 21.9178 26.249 21.6298 25.9704C21.3421 25.692 20.9527 25.5363 20.5476 25.5363C20.1424 25.5363 19.753 25.692 19.4653 25.9704C19.1773 26.249 19.0147 26.6277 19.0147 27.0236Z" fill="#383838"/>
<path d="M16.5587 12.8729L16.5588 12.8729C17.6336 11.9648 19.0495 11.4644 20.5476 11.4644C22.0454 11.4644 23.4615 11.9613 24.5365 12.873C25.6548 13.8197 26.2762 15.0975 26.2727 16.4697C26.2727 16.4698 26.2727 16.4699 26.2727 16.47L26.1385 16.4697C26.1385 18.4249 24.8063 20.1839 22.7434 20.9517L16.5587 12.8729ZM16.5587 12.8729C15.4403 13.8197 14.8189 15.0976 14.8189 16.4697V16.7268C14.8189 16.9539 15.0091 17.1316 15.2328 17.1316H16.9112C17.1349 17.1316 17.3251 16.9539 17.3251 16.7268V16.4697C17.3251 15.0776 18.7436 13.8978 20.5476 13.8978C22.3515 13.8978 23.77 15.0776 23.77 16.4697C23.77 17.4519 23.0497 18.3743 21.8959 18.8031C21.1298 19.0863 20.4787 19.5831 20.0119 20.2342L20.0117 20.2345C19.5369 20.9007 19.2909 21.6993 19.2909 22.5078V23.235C19.2909 23.4622 19.4811 23.6399 19.7049 23.6399H21.3832C21.607 23.6399 21.7972 23.4622 21.7972 23.235V22.4676C21.7989 22.1673 21.894 21.8741 22.0708 21.6261C22.2477 21.3781 22.4982 21.1866 22.7902 21.0775L16.5587 12.8729ZM19.0147 27.0236C19.0147 27.4195 19.1773 27.7983 19.4653 28.0769C19.753 28.3553 20.1424 28.5109 20.5476 28.5109C20.9527 28.5109 21.3421 28.3553 21.6298 28.0769C21.9178 27.7983 22.0804 27.4195 22.0804 27.0236C22.0804 26.6277 21.9178 26.249 21.6298 25.9704C21.3421 25.692 20.9527 25.5363 20.5476 25.5363C20.1424 25.5363 19.753 25.692 19.4653 25.9704C19.1773 26.249 19.0147 26.6277 19.0147 27.0236Z" fill="url(#paint1_linear)"/>
<path d="M16.5587 12.8729L16.5588 12.8729C17.6336 11.9648 19.0495 11.4644 20.5476 11.4644C22.0454 11.4644 23.4615 11.9613 24.5365 12.873C25.6548 13.8197 26.2762 15.0975 26.2727 16.4697C26.2727 16.4698 26.2727 16.4699 26.2727 16.47L26.1385 16.4697C26.1385 18.4249 24.8063 20.1839 22.7434 20.9517L16.5587 12.8729ZM16.5587 12.8729C15.4403 13.8197 14.8189 15.0976 14.8189 16.4697V16.7268C14.8189 16.9539 15.0091 17.1316 15.2328 17.1316H16.9112C17.1349 17.1316 17.3251 16.9539 17.3251 16.7268V16.4697C17.3251 15.0776 18.7436 13.8978 20.5476 13.8978C22.3515 13.8978 23.77 15.0776 23.77 16.4697C23.77 17.4519 23.0497 18.3743 21.8959 18.8031C21.1298 19.0863 20.4787 19.5831 20.0119 20.2342L20.0117 20.2345C19.5369 20.9007 19.2909 21.6993 19.2909 22.5078V23.235C19.2909 23.4622 19.4811 23.6399 19.7049 23.6399H21.3832C21.607 23.6399 21.7972 23.4622 21.7972 23.235V22.4676C21.7989 22.1673 21.894 21.8741 22.0708 21.6261C22.2477 21.3781 22.4982 21.1866 22.7902 21.0775L16.5587 12.8729ZM19.0147 27.0236C19.0147 27.4195 19.1773 27.7983 19.4653 28.0769C19.753 28.3553 20.1424 28.5109 20.5476 28.5109C20.9527 28.5109 21.3421 28.3553 21.6298 28.0769C21.9178 27.7983 22.0804 27.4195 22.0804 27.0236C22.0804 26.6277 21.9178 26.249 21.6298 25.9704C21.3421 25.692 20.9527 25.5363 20.5476 25.5363C20.1424 25.5363 19.753 25.692 19.4653 25.9704C19.1773 26.249 19.0147 26.6277 19.0147 27.0236Z" fill="url(#paint2_linear)"/>
<path d="M16.5587 12.8729L16.5588 12.8729C17.6336 11.9648 19.0495 11.4644 20.5476 11.4644C22.0454 11.4644 23.4615 11.9613 24.5365 12.873C25.6548 13.8197 26.2762 15.0975 26.2727 16.4697C26.2727 16.4698 26.2727 16.4699 26.2727 16.47L26.1385 16.4697C26.1385 18.4249 24.8063 20.1839 22.7434 20.9517L16.5587 12.8729ZM16.5587 12.8729C15.4403 13.8197 14.8189 15.0976 14.8189 16.4697V16.7268C14.8189 16.9539 15.0091 17.1316 15.2328 17.1316H16.9112C17.1349 17.1316 17.3251 16.9539 17.3251 16.7268V16.4697C17.3251 15.0776 18.7436 13.8978 20.5476 13.8978C22.3515 13.8978 23.77 15.0776 23.77 16.4697C23.77 17.4519 23.0497 18.3743 21.8959 18.8031C21.1298 19.0863 20.4787 19.5831 20.0119 20.2342L20.0117 20.2345C19.5369 20.9007 19.2909 21.6993 19.2909 22.5078V23.235C19.2909 23.4622 19.4811 23.6399 19.7049 23.6399H21.3832C21.607 23.6399 21.7972 23.4622 21.7972 23.235V22.4676C21.7989 22.1673 21.894 21.8741 22.0708 21.6261C22.2477 21.3781 22.4982 21.1866 22.7902 21.0775L16.5587 12.8729ZM19.0147 27.0236C19.0147 27.4195 19.1773 27.7983 19.4653 28.0769C19.753 28.3553 20.1424 28.5109 20.5476 28.5109C20.9527 28.5109 21.3421 28.3553 21.6298 28.0769C21.9178 27.7983 22.0804 27.4195 22.0804 27.0236C22.0804 26.6277 21.9178 26.249 21.6298 25.9704C21.3421 25.692 20.9527 25.5363 20.5476 25.5363C20.1424 25.5363 19.753 25.692 19.4653 25.9704C19.1773 26.249 19.0147 26.6277 19.0147 27.0236Z" stroke="url(#paint3_linear)" stroke-width="0.268449"/>
<defs>
<linearGradient id="paint0_linear" x1="2.17162" y1="19.8884" x2="37.9317" y2="19.8884" gradientUnits="userSpaceOnUse">
<stop stop-color="#00DFAD"/>
<stop offset="1" stop-color="#01B48C"/>
</linearGradient>
<linearGradient id="paint1_linear" x1="14.8359" y1="20.0443" x2="26.0109" y2="20.0443" gradientUnits="userSpaceOnUse">
<stop stop-color="#00DFAD"/>
<stop offset="1" stop-color="#01B48C"/>
</linearGradient>
<linearGradient id="paint2_linear" x1="14.8359" y1="20.0443" x2="26.0109" y2="20.0443" gradientUnits="userSpaceOnUse">
<stop stop-color="#00DFAD"/>
<stop offset="1" stop-color="#01B48C"/>
</linearGradient>
<linearGradient id="paint3_linear" x1="14.8359" y1="20.0443" x2="26.0109" y2="20.0443" gradientUnits="userSpaceOnUse">
<stop stop-color="#00DFAD"/>
<stop offset="1" stop-color="#01B48C"/>
</linearGradient>
</defs>
</svg>
