<svg width="9" height="9" viewBox="0 0 9 9" fill="none" xmlns="http://www.w3.org/2000/svg">
<path d="M3.76707 3.53406L1.86949 5.51257C1.62572 5.76697 1.21947 5.77234 0.970505 5.52332L0.684799 5.23474C0.4384 4.99109 0.4384 4.59265 0.684799 4.34656L4.16283 0.86853C4.40654 0.621948 4.80498 0.621948 5.05132 0.86853L8.52672 4.34656C8.77312 4.59021 8.77312 4.98865 8.52672 5.23474L8.24101 5.52332C7.99205 5.77234 7.5858 5.76697 7.34203 5.51257L5.44444 3.53406V8.3197C5.44444 8.49597 5.37273 8.65466 5.2567 8.76892C5.14336 8.88025 4.98772 8.94861 4.81541 8.94861H4.3961C4.04747 8.94861 3.76707 8.66833 3.76707 8.3197V3.53406Z" fill="#1BCAA4"/>
</svg>
