<svg width="17" height="12" viewBox="0 0 17 12" fill="none" xmlns="http://www.w3.org/2000/svg">
<path d="M6.84823 8.07032V3.67905L11.1696 5.88778L6.84823 8.07032ZM8.5 0.544922C5.13396 0.544922 2.90184 0.702065 2.90184 0.702065C2.58935 0.736985 1.90185 0.736985 1.29472 1.36556C1.29472 1.36556 0.803649 1.83699 0.660794 2.91952C0.491153 4.1854 0.500081 5.45127 0.500081 5.45127V6.63857C0.500081 6.63857 0.491153 7.90444 0.660794 9.17032C0.803649 10.2441 1.29472 10.7243 1.29472 10.7243C1.90185 11.3441 2.70542 11.3267 3.06256 11.3878C3.06256 11.3878 4.33933 11.51 8.5 11.5449C11.866 11.5449 14.0982 11.379 14.0982 11.379C14.4107 11.3441 15.0981 11.3441 15.7053 10.7243C15.7053 10.7243 16.1964 10.2441 16.3392 9.17032C16.5089 7.90444 16.4999 6.63857 16.4999 6.63857V5.45127C16.4999 5.45127 16.5089 4.1854 16.3392 2.91952C16.1964 1.83699 15.7053 1.36556 15.7053 1.36556C15.0981 0.736985 14.4107 0.736985 14.0982 0.702065C14.0982 0.702065 11.866 0.544922 8.5 0.544922Z" fill="white"/>
</svg>
