<svg width="20" height="20" viewBox="0 0 20 20" fill="none" xmlns="http://www.w3.org/2000/svg">
<circle cx="10" cy="10" r="10" fill="#454545"/>
<path d="M16.9879 7.78136C17.048 8.5422 16.9161 9.45406 16.4011 9.49919C15.5599 9.57267 15.9986 8.66891 16.0097 8.12504C16.0406 6.54838 14.6611 5.45312 13.3095 5.45312C12.9269 5.45312 12.0373 5.70654 12.1744 4.9185C12.2362 4.57135 12.5378 4.57597 12.8394 4.53663C15.1125 4.24155 16.8281 5.76613 16.9879 7.78136Z" fill="white"/>
<path d="M13.2688 9.61403C14.2459 10.1353 15.4195 10.3951 15.2252 11.9423C14.8671 14.7941 8.77728 16.7098 4.97348 14.6142C3.93051 14.0391 2.85079 13.1978 3.01704 11.5222C3.16053 10.0798 4.1545 8.96254 5.13039 8.01076C6.06136 7.10237 7.0425 6.39186 8.37771 6.06438C9.82666 5.70913 10.2548 6.88714 9.86458 8.04894C10.704 7.99398 12.4825 7.08039 13.2688 7.97257C13.6153 8.36601 13.4829 9.07015 13.2688 9.61403ZM12.2124 13.2782C12.5257 12.9322 12.8401 12.4046 12.8383 11.7901C12.8325 9.2472 8.38471 8.67961 5.9517 10.0723C3.1827 11.6576 4.35166 14.5066 7.75181 14.7288C9.55309 14.8468 11.3561 14.2265 12.2124 13.2782Z" fill="white"/>
<path d="M14.6401 8.88898C14.0702 8.92601 14.2831 8.50827 14.2487 8.01126C14.2271 7.70518 13.9669 7.35167 13.74 7.24752C13.2949 7.04386 12.6055 7.39564 12.6055 6.78986C12.6055 6.33971 13.0056 6.38658 13.2319 6.3698C15.3056 6.2159 15.434 8.83748 14.6401 8.88898Z" fill="white"/>
<path d="M10.4902 11.5969C11.3238 14.0547 6.98041 15.1974 6.18593 13.0856C5.65453 11.6733 6.93083 10.5496 8.25962 10.4137C9.39417 10.2974 10.24 10.8621 10.4902 11.5969ZM8.49411 12.0169C8.67086 12.3155 9.07743 12.1008 9.04185 11.8642C8.99926 11.5905 8.49061 11.631 8.49411 12.0169ZM7.79005 13.3147C8.52036 13.1452 8.61836 11.8034 7.51589 12.0551C6.59017 12.2657 6.76925 13.5514 7.79005 13.3147Z" fill="white"/>
</svg>
