<svg width="20" height="20" viewBox="0 0 20 20" fill="none" xmlns="http://www.w3.org/2000/svg">
<circle cx="10" cy="10" r="10" fill="#454545"/>
<path d="M13.732 7.19658C12.7717 7.19658 11.9905 6.34262 11.9905 5.29297C11.9905 5.13115 11.8705 5 11.7225 5H10.2871C10.1391 5 10.0191 5.13115 10.0191 5.29297V11.7259C10.0191 12.343 9.55973 12.845 8.99522 12.845C8.43071 12.845 7.97145 12.343 7.97145 11.7259C7.97145 11.1088 8.43071 10.6068 8.99522 10.6068C9.14326 10.6068 9.26324 10.4756 9.26324 10.3138V8.74474C9.26324 8.58299 9.14326 8.45177 8.99522 8.45177C7.34364 8.45177 6 9.92058 6 11.7259C6 13.5313 7.34364 15 8.99522 15C10.6468 15 11.9905 13.5313 11.9905 11.7259V8.8784C12.5239 9.1893 13.1175 9.35158 13.732 9.35158C13.88 9.35158 14 9.22043 14 9.05861V7.48955C14 7.3278 13.88 7.19658 13.732 7.19658Z" fill="#919191"/>
</svg>
