<svg width="20" height="20" viewBox="0 0 20 20" fill="none" xmlns="http://www.w3.org/2000/svg">
<circle cx="10" cy="10" r="10" fill="#454545"/>
<path d="M8.71468 6C6.58419 6 4.85742 7.4394 4.85742 9.21438C4.85742 10.2378 5.43473 11.1456 6.33025 11.7332L5.82174 12.7502L7.20714 12.1568C7.50415 12.2623 7.81273 12.3491 8.14252 12.3896C8.09752 12.1935 8.07181 11.9923 8.07181 11.7859C8.07181 10.0135 9.80179 8.57151 11.9291 8.57151C12.1239 8.57151 12.3142 8.58758 12.5019 8.61072C12.1624 7.12439 10.597 6 8.71468 6ZM7.42893 8.41079C7.16278 8.41079 6.94677 8.19478 6.94677 7.92863C6.94677 7.66248 7.16278 7.44647 7.42893 7.44647C7.69508 7.44647 7.91109 7.66248 7.91109 7.92863C7.91109 8.19478 7.69508 8.41079 7.42893 8.41079ZM10.0004 8.41079C9.73429 8.41079 9.51828 8.19478 9.51828 7.92863C9.51828 7.66248 9.73429 7.44647 10.0004 7.44647C10.2666 7.44647 10.4826 7.66248 10.4826 7.92863C10.4826 8.19478 10.2666 8.41079 10.0004 8.41079Z" fill="white"/>
<path d="M15.1426 11.7864C15.1426 10.3662 13.7032 9.21484 11.9283 9.21484C10.1533 9.21484 8.71387 10.3662 8.71387 11.7864C8.71387 13.2065 10.1533 14.3579 11.9283 14.3579C12.2201 14.3579 12.4978 14.3167 12.7672 14.2582L14.4998 15.0007L13.9006 13.8031C14.6515 13.3325 15.1426 12.6086 15.1426 11.7864ZM10.9639 11.6256C10.6978 11.6256 10.4818 11.4096 10.4818 11.1435C10.4818 10.8773 10.6978 10.6613 10.9639 10.6613C11.2301 10.6613 11.4461 10.8773 11.4461 11.1435C11.4461 11.4096 11.2301 11.6256 10.9639 11.6256ZM12.8926 11.6256C12.6264 11.6256 12.4104 11.4096 12.4104 11.1435C12.4104 10.8773 12.6264 10.6613 12.8926 10.6613C13.1587 10.6613 13.3747 10.8773 13.3747 11.1435C13.3747 11.4096 13.1587 11.6256 12.8926 11.6256Z" fill="white"/>
</svg>
