<svg width="20" height="20" viewBox="0 0 20 20" fill="none" xmlns="http://www.w3.org/2000/svg">
<circle cx="10" cy="10" r="10" fill="#454545"/>
<path d="M9.99999 5.90092C11.3351 5.90092 11.4932 5.906 12.0204 5.93006C12.5079 5.9523 12.7727 6.03376 12.9489 6.10221C13.1822 6.19292 13.3488 6.30128 13.5238 6.47624C13.6987 6.6512 13.8071 6.81778 13.8978 7.05114C13.9662 7.22735 14.0477 7.4921 14.0699 7.97957C14.094 8.50682 14.0991 8.66495 14.0991 10C14.0991 11.3351 14.094 11.4932 14.0699 12.0204C14.0477 12.5079 13.9662 12.7727 13.8978 12.9489C13.8071 13.1822 13.6987 13.3488 13.5238 13.5238C13.3488 13.6987 13.1822 13.8071 12.9489 13.8978C12.7727 13.9663 12.5079 14.0477 12.0204 14.07C11.4933 14.094 11.3351 14.0991 9.99999 14.0991C8.66485 14.0991 8.50672 14.094 7.97957 14.07C7.49208 14.0477 7.22733 13.9663 7.05114 13.8978C6.81776 13.8071 6.65118 13.6987 6.47622 13.5238C6.30126 13.3488 6.1929 13.1822 6.10221 12.9489C6.03374 12.7727 5.95228 12.5079 5.93004 12.0204C5.90598 11.4932 5.9009 11.3351 5.9009 10C5.9009 8.66495 5.90598 8.50682 5.93004 7.97959C5.95228 7.4921 6.03374 7.22735 6.10221 7.05114C6.1929 6.81778 6.30126 6.6512 6.47622 6.47624C6.65118 6.30128 6.81776 6.19292 7.05114 6.10221C7.22733 6.03376 7.49208 5.9523 7.97955 5.93006C8.5068 5.906 8.66493 5.90092 9.99999 5.90092ZM9.99999 5C8.64206 5 8.47181 5.00576 7.93851 5.03009C7.40629 5.05438 7.04285 5.13889 6.72479 5.2625C6.396 5.39028 6.11716 5.56125 5.83919 5.83921C5.56123 6.11718 5.39026 6.39602 5.26248 6.72481C5.13887 7.04287 5.05436 7.40631 5.03007 7.93853C5.00574 8.47181 5 8.64208 5 10C5 11.3579 5.00574 11.5282 5.03007 12.0615C5.05436 12.5937 5.13887 12.9572 5.26248 13.2752C5.39026 13.604 5.56123 13.8828 5.83919 14.1608C6.11716 14.4388 6.396 14.6097 6.72479 14.7375C7.04285 14.8611 7.40629 14.9456 7.93851 14.9699C8.47181 14.9943 8.64206 15 9.99999 15C11.3579 15 11.5282 14.9943 12.0615 14.9699C12.5937 14.9456 12.9571 14.8611 13.2752 14.7375C13.604 14.6097 13.8828 14.4388 14.1608 14.1608C14.4388 13.8828 14.6097 13.604 14.7375 13.2752C14.8611 12.9572 14.9456 12.5937 14.9699 12.0615C14.9942 11.5282 15 11.3579 15 10C15 8.64208 14.9942 8.47181 14.9699 7.93853C14.9456 7.40631 14.8611 7.04287 14.7375 6.72481C14.6097 6.39602 14.4388 6.11718 14.1608 5.83921C13.8828 5.56125 13.604 5.39028 13.2752 5.2625C12.9571 5.13889 12.5937 5.05438 12.0615 5.03009C11.5282 5.00576 11.3579 5 9.99999 5ZM9.99999 7.43243C8.58196 7.43243 7.43241 8.58198 7.43241 10C7.43241 11.418 8.58196 12.5676 9.99999 12.5676C11.418 12.5676 12.5676 11.418 12.5676 10C12.5676 8.58198 11.418 7.43243 9.99999 7.43243ZM9.99999 11.6667C9.07952 11.6667 8.33331 10.9205 8.33331 10C8.33331 9.07954 9.07952 8.33333 9.99999 8.33333C10.9205 8.33333 11.6667 9.07954 11.6667 10C11.6667 10.9205 10.9205 11.6667 9.99999 11.6667ZM13.269 7.33099C13.269 7.66237 13.0004 7.931 12.669 7.931C12.3376 7.931 12.069 7.66237 12.069 7.33099C12.069 6.99962 12.3376 6.731 12.669 6.731C13.0004 6.731 13.269 6.99962 13.269 7.33099Z" fill="white"/>
</svg>
