<svg width="20" height="20" viewBox="0 0 20 20" fill="none" xmlns="http://www.w3.org/2000/svg">
<circle cx="10" cy="10" r="10" fill="#454545"/>
<path fill-rule="evenodd" clip-rule="evenodd" d="M11.6602 14.4913C11.7943 14.5863 11.9672 14.6101 12.1214 14.5517C12.2756 14.493 12.3889 14.3613 12.4231 14.2017C12.7852 12.5001 13.6635 8.19298 13.9931 6.64506C14.0181 6.5284 13.9764 6.40715 13.8847 6.32923C13.7931 6.25131 13.666 6.22881 13.5527 6.2709C11.8056 6.91756 6.42517 8.93631 4.226 9.75006C4.08642 9.80173 3.99558 9.9359 4.00017 10.083C4.00517 10.2305 4.10433 10.3584 4.24725 10.4013C5.2335 10.6963 6.52808 11.1067 6.52808 11.1067C6.52808 11.1067 7.13308 12.9338 7.4485 13.863C7.48808 13.9796 7.57933 14.0713 7.69975 14.103C7.81975 14.1342 7.94808 14.1013 8.03767 14.0167C8.54433 13.5384 9.32767 12.7988 9.32767 12.7988C9.32767 12.7988 10.816 13.8901 11.6602 14.4913ZM7.07267 10.8759L7.77225 13.1834L7.92767 11.7221C7.92767 11.7221 10.6306 9.28423 12.1714 7.89465C12.2164 7.85381 12.2227 7.78548 12.1852 7.73756C12.1481 7.68965 12.0798 7.6784 12.0285 7.7109C10.2427 8.85131 7.07267 10.8759 7.07267 10.8759Z" fill="white"/>
</svg>
