<svg width="20" height="20" viewBox="0 0 20 20" fill="none" xmlns="http://www.w3.org/2000/svg">
<path d="M9.92277 19.8577C15.403 19.8577 19.8455 15.4124 19.8455 9.92885C19.8455 4.4453 15.403 0 9.92277 0C4.44257 0 0 4.4453 0 9.92885C0 15.4124 4.44257 19.8577 9.92277 19.8577Z" fill="#454545"/>
<path d="M16.5578 7.11292C16.1325 7.30159 15.6751 7.4292 15.1954 7.48619C15.6852 7.19257 16.0611 6.72796 16.2385 6.17345C15.7802 6.44549 15.2724 6.64283 14.7323 6.7492C14.2997 6.28814 13.6832 6 13.0007 6C11.691 6 10.6288 7.06283 10.6288 8.37327C10.6288 8.55929 10.6499 8.74035 10.6906 8.91416C8.71939 8.81522 6.97161 7.87044 5.80171 6.43416C5.59759 6.7846 5.48049 7.19257 5.48049 7.62743C5.48049 8.45062 5.89953 9.17735 6.5356 9.60283C6.14698 9.59062 5.78101 9.48389 5.46139 9.30566C5.46121 9.31575 5.46121 9.32584 5.46121 9.33575C5.46121 10.4857 6.27912 11.4448 7.36394 11.6627C7.16512 11.7172 6.95516 11.746 6.73919 11.746C6.58601 11.746 6.4376 11.7313 6.29291 11.7037C6.59467 12.6464 7.47042 13.3326 8.50855 13.3519C7.69665 13.9885 6.6741 14.3678 5.56256 14.3678C5.37153 14.3678 5.18227 14.3566 4.99707 14.3345C6.04616 15.0081 7.29318 15.4009 8.63254 15.4009C12.9952 15.4009 15.381 11.7846 15.381 8.64814C15.381 8.54531 15.3787 8.44283 15.3741 8.34124C15.8379 8.00673 16.2399 7.58885 16.5578 7.11292Z" fill="white"/>
</svg>
