<svg width="21" height="20" viewBox="0 0 21 20" fill="none" xmlns="http://www.w3.org/2000/svg">
<path d="M19.98 17.1019L15.6497 12.769C15.6267 12.7459 15.5997 12.7298 15.5757 12.7084C16.4277 11.4151 16.925 9.86697 16.925 8.20211C16.925 3.67327 13.256 0.00195312 8.72997 0.00195312C4.20398 0.00195312 0.534912 3.67327 0.534912 8.20203C0.534912 12.7307 4.2039 16.4021 8.72989 16.4021C10.3938 16.4021 11.9409 15.9045 13.2334 15.0519C13.2548 15.0759 13.2708 15.1029 13.2939 15.1259L17.6243 19.459C18.2748 20.1098 19.3294 20.1098 19.98 19.459C20.6305 18.8081 20.6305 17.7528 19.98 17.1019Z" fill="#DADADA"/>
<path d="M8.73182 13.5586C5.77475 13.5586 3.37766 11.16 3.37766 8.2012C3.37766 5.24232 5.77483 2.84375 8.73182 2.84375C11.6887 2.84375 14.0859 5.2424 14.0859 8.2012C14.0859 11.16 11.6887 13.5586 8.73182 13.5586Z" fill="#212121"/>
</svg>
