<svg width="88" height="88" viewBox="0 0 88 88" fill="none" xmlns="http://www.w3.org/2000/svg">
<circle cx="44.0548" cy="43.9054" r="43.2979" fill="#313A44"/>
<path d="M54.4924 27.1365L50.9986 23.125L50.8692 22.9956C50.7398 22.9956 50.7398 22.8662 50.6104 22.8662C50.481 22.8662 50.481 22.7368 50.3516 22.7368C50.3516 22.7368 50.2222 22.7368 50.2222 22.6074C50.2222 22.6074 50.2222 22.6074 50.0928 22.6074C49.9634 22.6074 49.9633 22.6074 49.8339 22.6074C49.7045 22.6074 49.7045 22.6074 49.5751 22.6074C49.4457 22.6074 49.4457 22.6074 49.3163 22.6074C49.1869 22.6074 49.1869 22.6074 49.0575 22.6074C49.0575 22.6074 49.0575 22.6074 48.9281 22.6074C48.9281 22.6074 48.7987 22.6074 48.7987 22.7368C48.6693 22.7368 48.6693 22.8662 48.5399 22.8662C48.4105 22.8662 48.4105 22.9956 48.2811 22.9956L48.1517 23.125L44.6579 27.1365C44.0109 27.9129 44.1403 28.9481 44.9167 29.5951C45.6931 30.2421 46.7283 30.1127 47.3753 29.3363L47.7635 28.9481V61.6865C47.7635 62.5923 48.5399 63.4981 49.4457 63.4981C50.3516 63.4981 51.128 62.7217 51.128 61.6865V28.9481L51.5162 29.3363C52.1632 30.1127 53.1984 30.1127 53.9748 29.5951C55.01 28.9481 55.1394 27.9129 54.4924 27.1365Z" fill="white"/>
<path d="M54.6215 62.5919L42.7166 56.3807V37.2294C43.3636 38.0058 44.6576 38.1352 45.434 37.4882C46.2104 36.8412 46.3398 35.5471 45.6928 34.7707L42.199 30.7593L42.0696 30.6299C41.9402 30.5005 41.9402 30.5005 41.8108 30.3711C41.6814 30.3711 41.6814 30.2417 41.552 30.2417L41.4226 30.1123C41.4226 30.1123 41.4226 30.1123 41.2932 30.1123C41.1638 30.1123 41.1638 30.1123 41.0344 30.1123C40.905 30.1123 40.7756 30.1123 40.7756 30.1123C40.6462 30.1123 40.6462 30.1123 40.5168 30.1123C40.3874 30.1123 40.258 30.1123 40.258 30.1123C40.258 30.1123 40.258 30.1123 40.1286 30.1123L39.9992 30.2417C39.8698 30.2417 39.8698 30.3711 39.7404 30.3711C39.611 30.3711 39.611 30.5005 39.4816 30.6299L39.3522 30.7593L35.8583 34.7707C35.0819 35.5471 35.2113 36.8412 35.9877 37.4882C36.7641 38.1352 38.0582 38.1352 38.7052 37.2294V54.3103L33.5291 51.5929C33.5291 51.4635 33.5291 51.3341 33.5291 51.3341V44.9934C34.1761 45.7698 35.4701 45.8992 36.2465 45.2522C37.0229 44.6052 37.1524 43.3112 36.5053 42.5348L33.0115 38.5234L32.8821 38.394C32.7527 38.2646 32.7527 38.2646 32.6233 38.1352C32.4939 38.1352 32.4939 38.0058 32.3645 38.0058L32.2351 37.8764C32.2351 37.8764 32.2351 37.8764 32.1057 37.8764C31.9763 37.8764 31.9763 37.8764 31.8469 37.8764C31.7175 37.8764 31.7175 37.8764 31.5881 37.8764C31.4587 37.8764 31.4587 37.8764 31.3293 37.8764C31.1999 37.8764 31.0705 37.8764 31.0705 37.8764C31.0705 37.8764 31.0705 37.8764 30.9411 37.8764C30.8117 37.8764 30.8117 38.0058 30.8117 38.0058C30.6823 38.0058 30.6823 38.1352 30.5529 38.1352C30.4235 38.1352 30.4235 38.2646 30.2941 38.394L30.1647 38.5234L26.6709 42.5348C26.0239 43.3112 26.1533 44.6052 26.9297 45.2522C27.7061 45.8992 29.0001 45.8992 29.6471 44.9934V49.6518L27.5767 48.4872C26.6709 47.9696 25.5063 48.3578 24.9887 49.2637C24.4711 50.1695 24.8593 51.3341 25.7651 51.8517L52.8099 65.8269C53.0687 65.9563 53.4569 66.0858 53.7157 66.0858C54.3627 66.0858 55.1391 65.6975 55.3979 65.0505C55.9155 64.2741 55.5273 63.1095 54.6215 62.5919Z" fill="url(#paint0_linear)"/>
<defs>
<linearGradient id="paint0_linear" x1="24.7299" y1="48.1692" x2="55.6048" y2="48.1692" gradientUnits="userSpaceOnUse">
<stop stop-color="#00DFAD"/>
<stop offset="1" stop-color="#01B48C"/>
</linearGradient>
</defs>
</svg>
