<svg width="21" height="20" viewBox="0 0 21 20" fill="none" xmlns="http://www.w3.org/2000/svg">
<ellipse cx="10.5505" cy="10.002" rx="8.99448" ry="9" fill="white"/>
<path fill-rule="evenodd" clip-rule="evenodd" d="M13.4936 5.30859H7.55239C6.60408 5.30859 5.83255 6.08059 5.83255 7.02948V12.9744C5.83255 13.9233 6.60408 14.6955 7.55239 14.6955H13.4936C14.4419 14.6955 15.2137 13.9235 15.2137 12.9744V7.02948C15.2137 6.08059 14.4422 5.30859 13.4936 5.30859ZM10.524 13.0921C8.82126 13.0921 7.43589 11.7059 7.43589 10.0019C7.43589 8.29815 8.82126 6.91193 10.524 6.91193C12.227 6.91193 13.6123 8.29815 13.6123 10.0019C13.6123 11.7057 12.2267 13.0921 10.524 13.0921ZM12.9797 6.81971C12.9797 7.22282 13.3077 7.55082 13.7111 7.55082C14.1142 7.55082 14.4422 7.22282 14.4422 6.81971C14.4422 6.41659 14.1142 6.08859 13.7111 6.08859C13.3077 6.08859 12.9797 6.41659 12.9797 6.81971Z" fill="#454545"/>
<path d="M10.523 8.2168C9.54006 8.2168 8.73966 9.01724 8.73966 10.0008C8.73966 10.9848 9.54006 11.7855 10.523 11.7855C11.5064 11.7855 12.3061 10.9848 12.3061 10.0008C12.3061 9.01746 11.5062 8.2168 10.523 8.2168Z" fill="#454545"/>
<path fill-rule="evenodd" clip-rule="evenodd" d="M0.556011 9.97506C0.556011 4.46729 5.01861 0.00195312 10.523 0.00195312C16.0274 0.00195312 20.49 4.46729 20.49 9.97506C20.49 15.4828 16.0274 19.9482 10.523 19.9482C5.01861 19.9482 0.556011 15.4828 0.556011 9.97506ZM13.4936 16.0011C15.1617 16.0011 16.5184 14.6435 16.5184 12.9744V7.02951C16.5184 5.36062 15.1617 4.00284 13.4936 4.00284H7.55239C5.88452 4.00284 4.52758 5.36062 4.52758 7.02951V12.9744C4.52758 14.6435 5.88452 16.0011 7.55239 16.0011H13.4936Z" fill="#454545"/>
</svg>

