<svg width="13" height="10" viewBox="0 0 13 10" fill="none" xmlns="http://www.w3.org/2000/svg">
<path d="M12.0953 1.11487C11.67 1.30355 11.2126 1.43116 10.7329 1.48815C11.2227 1.19452 11.5986 0.729918 11.776 0.175404C11.3177 0.44744 10.8099 0.644785 10.2698 0.751157C9.83718 0.290095 9.22074 0.00195312 8.53815 0.00195312C7.22851 0.00195312 6.16633 1.06479 6.16633 2.37523C6.16633 2.56125 6.18738 2.74231 6.22806 2.91611C4.25688 2.81717 2.50911 1.8724 1.3392 0.436112C1.13508 0.786555 1.01799 1.19452 1.01799 1.62939C1.01799 2.45257 1.43702 3.1793 2.07309 3.60478C1.68448 3.59257 1.31851 3.48585 0.998882 3.30762C0.998705 3.31771 0.998705 3.32779 0.998705 3.33771C0.998705 4.48762 1.81661 5.44673 2.90143 5.66461C2.70262 5.71912 2.49266 5.74797 2.27668 5.74797C2.1235 5.74797 1.9751 5.73328 1.83041 5.70567C2.13217 6.64832 3.00792 7.33452 4.04604 7.35381C3.23415 7.99045 2.21159 8.36974 1.10006 8.36974C0.909026 8.36974 0.719761 8.35859 0.534565 8.33647C1.58366 9.0101 2.83068 9.40284 4.17003 9.40284C8.53267 9.40284 10.9185 5.78655 10.9185 2.65009C10.9185 2.54726 10.9162 2.44479 10.9116 2.34319C11.3754 2.00868 11.7774 1.5908 12.0953 1.11487Z" fill="white"/>
</svg>
