<svg width="14" height="9" viewBox="0 0 14 9" fill="none" xmlns="http://www.w3.org/2000/svg">
<path fill-rule="evenodd" clip-rule="evenodd" d="M7.14073 8.28538H7.91954C7.91954 8.28538 8.1548 8.25953 8.2749 8.12998C8.38545 8.01104 8.38191 7.78768 8.38191 7.78768C8.38191 7.78768 8.3667 6.74201 8.85171 6.58803C9.32983 6.43635 9.94379 7.59865 10.5945 8.04555C11.0866 8.38378 11.4606 8.30962 11.4606 8.30962L13.2006 8.28538C13.2006 8.28538 14.1108 8.22927 13.6792 7.51316C13.6438 7.45458 13.4278 6.98343 12.3855 6.01529C11.2945 5.00201 11.4406 5.16591 12.7548 3.41316C13.5552 2.34573 13.8752 1.69405 13.7752 1.41493C13.6799 1.14909 13.0912 1.21936 13.0912 1.21936L11.1321 1.23157C11.1321 1.23157 10.9869 1.21175 10.8791 1.27617C10.7739 1.33936 10.7062 1.48661 10.7062 1.48661C10.7062 1.48661 10.3961 2.31263 9.98253 3.01511C9.11014 4.49741 8.76133 4.57564 8.61876 4.48361C8.2871 4.26909 8.36989 3.62184 8.36989 3.16201C8.36989 1.72555 8.58763 1.12661 7.9459 0.97157C7.73293 0.920066 7.57621 0.886083 7.03159 0.880597C6.33255 0.87334 5.74088 0.882721 5.40586 1.04697C5.18299 1.15617 5.01106 1.39953 5.11577 1.41352C5.24525 1.43086 5.53852 1.49263 5.694 1.70449C5.89477 1.97776 5.88769 2.59157 5.88769 2.59157C5.88769 2.59157 6.00302 4.28254 5.6183 4.49263C5.35421 4.6367 4.99196 4.34254 4.2142 2.99776C3.81569 2.30892 3.51481 1.5475 3.51481 1.5475C3.51481 1.5475 3.45679 1.4052 3.35331 1.32909C3.22773 1.23688 3.05226 1.2075 3.05226 1.2075L1.19057 1.21971C1.19057 1.21971 0.911095 1.2275 0.808503 1.34909C0.717231 1.45723 0.801251 1.68095 0.801251 1.68095C0.801251 1.68095 2.25876 5.09299 3.90908 6.81245C5.42231 8.38891 7.14073 8.28538 7.14073 8.28538Z" fill="white"/>
</svg>
