<svg width="22" height="23" viewBox="0 0 22 23" fill="none" xmlns="http://www.w3.org/2000/svg">
<path d="M18.0308 4.57539C20.1804 6.72499 20.1804 10.204 18.0308 12.3536L10.6062 19.7782C9.04351 21.3409 6.51207 21.3409 4.94936 19.7782C3.38665 18.2155 3.38665 15.684 4.94936 14.1213L10.9598 8.11092C11.9356 7.13512 13.5195 7.13512 14.4953 8.11092C15.4711 9.08673 15.4711 10.6707 14.4953 11.6465L9.192 16.9498L7.77779 15.5355L13.1447 10.1686C13.5336 9.7797 12.8265 9.07259 12.4376 9.4615L6.36357 15.5355C5.58576 16.3134 5.58576 17.5862 6.36357 18.364C7.14139 19.1418 8.41418 19.1418 9.192 18.364L16.6166 10.9394C17.9813 9.57464 17.9813 7.35432 16.6166 5.9896C15.2519 4.62489 13.0316 4.62489 11.6669 5.9896L4.94936 12.7071L3.53515 11.2929L10.2527 4.57539C12.4023 2.42579 15.8812 2.42579 18.0308 4.57539Z" fill="#4CAE89"/>
</svg>
