<svg width="11" height="12" viewBox="0 0 11 12" fill="none" xmlns="http://www.w3.org/2000/svg">
<path d="M10.6203 9.08929C10.6203 8.86607 10.531 8.64286 10.3703 8.48214L7.74527 5.85714L10.3703 3.23214C10.531 3.07143 10.6203 2.84821 10.6203 2.625C10.6203 2.40178 10.531 2.17857 10.3703 2.01786L9.15598 0.803571C8.99527 0.642857 8.77205 0.553571 8.54884 0.553571C8.32563 0.553571 8.10241 0.642857 7.9417 0.803571L5.3167 3.42857L2.6917 0.803571C2.53098 0.642857 2.30777 0.553571 2.08455 0.553571C1.86134 0.553571 1.63813 0.642857 1.47741 0.803571L0.263126 2.01786C0.102412 2.17857 0.0131259 2.40178 0.0131259 2.625C0.0131259 2.84821 0.102412 3.07143 0.263126 3.23214L2.88813 5.85714L0.263126 8.48214C0.102412 8.64286 0.0131259 8.86607 0.0131259 9.08929C0.0131259 9.3125 0.102412 9.53571 0.263126 9.69643L1.47741 10.9107C1.63813 11.0714 1.86134 11.1607 2.08455 11.1607C2.30777 11.1607 2.53098 11.0714 2.6917 10.9107L5.3167 8.28571L7.9417 10.9107C8.10241 11.0714 8.32563 11.1607 8.54884 11.1607C8.77205 11.1607 8.99527 11.0714 9.15598 10.9107L10.3703 9.69643C10.531 9.53571 10.6203 9.3125 10.6203 9.08929Z" fill="#EE0064"/>
</svg>
