<svg width="66" height="95" viewBox="0 0 66 95" fill="none" xmlns="http://www.w3.org/2000/svg">
<path fill-rule="evenodd" clip-rule="evenodd" d="M57.5444 62.3662C57.5444 69.7112 51.5894 75.6662 44.2434 75.6662C36.8984 75.6662 30.9434 69.7112 30.9434 62.3662C30.9434 55.0202 36.8984 49.0652 44.2434 49.0652C51.5894 49.0652 57.5444 55.0202 57.5444 62.3662Z" stroke="#4BAE89" stroke-width="2"/>
<path d="M36.9365 73.2148V92.3168L44.2445 85.0098L51.5495 92.3168V73.2148" stroke="#4BAE89" stroke-width="2"/>
<path d="M36.937 77.3789H17.579C8.423 77.3789 1 69.9559 1 60.7999V-0.00012207H48.607L64.671 16.0659V77.3789H51.55" stroke="#4BAE89" stroke-width="2"/>
<path d="M64.6714 16.0654H48.6074V0.000366211" stroke="#4BAE89" stroke-width="2"/>
<path d="M14.8838 26.417H50.7868" stroke="#4BAE89" stroke-width="2"/>
<path d="M14.8838 34.2559H50.7868" stroke="#4BAE89" stroke-width="2"/>
<path d="M14.8838 42.0938H50.7868" stroke="#4BAE89" stroke-width="2"/>
</svg>
