<svg width="90" height="99" viewBox="0 0 90 99" fill="none" xmlns="http://www.w3.org/2000/svg">
<g id="Ripple">
<path id="Ripple_2" fill-rule="evenodd" clip-rule="evenodd" d="M49.4363 20.1216C49.4363 23.8859 50.7621 27.3506 52.4534 30.5632C53.8767 33.2659 54.5957 38.2805 49.7176 41.1256C46.0877 43.2423 41.558 41.9025 39.2946 38.2455C37.3841 35.1559 35.0771 32.2616 31.8466 30.3783C22.6454 25.0132 10.8804 28.1968 5.56884 37.4887C3.83475 40.5217 3.00277 43.8298 2.98801 47.0976C3.01827 53.9575 6.46504 60.4461 12.6093 64.0286C18.5616 67.4999 25.8943 67.4999 31.8466 64.0286C35.0756 62.146 37.3833 59.254 39.2938 56.1666C40.8618 53.6309 44.7788 50.3997 49.7168 53.282C53.3408 55.3964 54.4614 60.0294 52.4519 63.8459C50.7614 67.0585 49.437 70.5209 49.437 74.2853C49.437 85.0154 58.0499 93.7139 68.6744 93.7139C79.2982 93.7139 87.9103 85.0154 87.9103 74.2853C87.9103 67.3441 84.2443 60.9315 78.292 57.4602C75.0357 55.5612 71.3682 55.011 67.7361 54.8827C64.688 54.7746 60.1413 52.8026 60.1413 47.2034C60.1413 43.0313 63.4899 39.674 67.7376 39.5249C71.3704 39.3966 75.0364 38.8449 78.292 36.9467C87.4932 31.5824 90.6461 19.6996 85.3339 10.4069C81.7712 4.17471 75.3036 0.689941 68.6559 0.689941C65.3915 0.689941 62.085 1.52945 59.0553 3.29569C53.1031 6.76703 49.4363 13.1811 49.4363 20.1216Z" fill="black"/>
</g>
</svg>
