<svg width="117" height="117" viewBox="0 0 117 117" fill="none" xmlns="http://www.w3.org/2000/svg">
<g id="Bitcoin Cash">
<path id="Bitcoin Cash_2" fill-rule="evenodd" clip-rule="evenodd" d="M56.7023 40.636C58.2188 40.2297 59.5967 40.0639 60.6715 40.2838C62.6315 40.7745 63.9926 42.4416 64.5767 44.6215C65.491 48.0338 64.1354 50.9368 60.7233 51.851L52.9508 53.9337L49.8777 42.4647L56.7023 40.636ZM58.1828 73.459L54.678 60.379L63.2086 58.0932C67.1897 57.0265 70.2702 59.0456 71.1915 62.8623C71.928 65.611 71.3558 68.4057 69.3351 69.9631C68.5837 70.5707 67.3768 70.9955 66.3343 71.2748L58.1828 73.459ZM68.8451 77.6118L70.6229 84.247L66.1679 85.4407L64.39 78.8055L59.7457 80.05L61.5236 86.6851L57.0688 87.8788L55.2909 81.2437L46.381 83.631L44.7557 77.5652L47.5046 76.8286C48.9261 76.4477 49.664 75.0307 49.3085 73.7038L42.121 46.8798C41.74 45.4581 40.3233 44.7203 38.9964 45.0759L36.2476 45.8124L34.6221 39.7461L43.5319 37.3587L41.7541 30.7238L46.2089 29.5302L47.9868 36.1651L52.6311 34.9206L50.8533 28.2857L55.3083 27.092L57.1115 33.8215C59.4117 33.3069 61.2887 33.1088 63.2929 33.3845C67.6801 33.8342 71.4195 36.7942 72.7402 41.7231C73.8577 45.8938 72.8761 49.8139 69.8516 52.5544C75.2121 52.8453 78.535 56.5262 79.7796 61.1707C81.2849 67.1673 78.4721 72.5942 74.1392 75.3807C72.3961 76.4572 70.7408 77.1039 68.8451 77.6118ZM12.1484 69.2349C18.8025 94.0684 44.4011 108.848 69.2348 102.194C94.0682 95.5398 108.848 69.9409 102.193 45.1074C95.5394 20.274 69.9406 5.49455 45.1072 12.1487C20.2735 18.8028 5.49434 44.4015 12.1484 69.2349Z" fill="black"/>
</g>
</svg>
