<svg width="99" height="99" viewBox="0 0 99 99" fill="none" xmlns="http://www.w3.org/2000/svg">
<g id="Dash">
<path id="Logo" fill-rule="evenodd" clip-rule="evenodd" d="M49.302 93.7139C74.9898 93.7139 95.814 72.8898 95.814 47.2019C95.814 21.5141 74.9898 0.689941 49.302 0.689941C23.6141 0.689941 2.78998 21.5141 2.78998 47.2019C2.78998 72.8898 23.6141 93.7139 49.302 93.7139ZM28.7781 38.2151C28.8216 38.0582 28.8571 37.903 28.9072 37.7528C29.8043 35.0646 30.703 32.377 31.6019 29.6894C31.7584 29.2215 31.7594 29.2202 32.2618 29.2202C41.1337 29.2198 50.0056 29.2199 58.8775 29.2199C63.7327 29.2199 68.5878 29.2241 73.443 29.2173C74.8279 29.2154 76.1108 29.5766 77.3113 30.2428C77.9566 30.6009 78.4657 31.1088 78.8559 31.7405C79.5063 32.7936 79.818 33.9418 79.9576 35.1659C80.0988 36.4055 79.8745 37.5589 79.4626 38.7219C78.9001 40.3098 78.427 41.9293 77.9158 43.5354C76.6093 47.6395 75.31 51.7459 73.9909 55.8459C73.715 56.7037 73.2601 57.4865 72.8325 58.2788C71.967 59.8827 70.7003 61.1302 69.329 62.2929C68.3301 63.14 67.1938 63.7694 66.0697 64.4244C65.0395 65.0247 63.9117 65.2718 62.7537 65.4123C62.1848 65.4813 61.6063 65.4933 61.0322 65.4935C47.5179 65.4977 34.0035 65.4968 20.4892 65.4959C20.2927 65.4959 20.0961 65.4834 19.8444 65.4749C19.8798 65.3022 19.893 65.1705 19.9339 65.048C20.8511 62.2997 21.7707 59.5521 22.6918 56.8051C22.8174 56.4305 22.8223 56.4304 23.2648 56.4304C28.708 56.4299 34.1513 56.4301 39.5946 56.4301H59.8661C59.9537 56.4301 60.0413 56.4305 60.1289 56.43C60.54 56.4278 60.5424 56.4285 60.6739 56.026C61.6197 53.13 62.5637 50.2335 63.5098 47.3377C64.4328 44.5129 65.358 41.6889 66.2808 38.8641C66.33 38.7131 66.366 38.5577 66.4215 38.3557C66.2256 38.3442 66.0689 38.327 65.9121 38.327C63.3469 38.3253 60.7817 38.3258 58.2165 38.3258C48.6313 38.3258 39.0461 38.326 29.4609 38.324C29.2415 38.324 29.0109 38.3659 28.7781 38.2151ZM18.5007 51.4034C18.5554 51.2082 18.5882 51.0546 18.6409 50.9081C19.481 48.5763 20.3236 46.2455 21.1656 43.9143C21.2417 43.7035 21.3179 43.4928 21.3929 43.2815C21.4451 43.1345 21.5437 43.0605 21.7039 43.0682C21.8034 43.0731 21.9035 43.0676 22.0033 43.0676C29.0536 43.0675 36.1039 43.0674 43.1543 43.0685C43.3252 43.0685 43.4962 43.0826 43.7205 43.0924C43.6748 43.276 43.6494 43.4185 43.6041 43.5545C42.7811 46.025 41.9562 48.4949 41.1305 50.9645C40.9721 51.4381 40.9697 51.4387 40.4754 51.4388C33.6621 51.4391 26.8489 51.4391 20.0356 51.439C19.6613 51.439 19.2869 51.4414 18.9126 51.4374C18.7924 51.4361 18.6723 51.4182 18.5007 51.4034Z" fill="black"/>
</g>
</svg>
