<svg width="87" height="93" viewBox="0 0 87 93" fill="none" xmlns="http://www.w3.org/2000/svg">
<path d="M59.5448 27.9594L60.5152 27.7181L60.3929 27.2263L59.924 27.0341L59.5448 27.9594ZM52.7301 20.116L53.7295 20.1509L53.8289 17.302L51.9715 19.4644L52.7301 20.116ZM41.0685 26.4524L40.7881 25.4925L40.7881 25.4925L41.0685 26.4524ZM43.5005 50.1309L43.5 51.1309H43.501L43.5005 50.1309ZM85.5339 89.4632L86.513 89.2597L86.5096 89.2433L86.5056 89.2271L85.5339 89.4632ZM79.3581 80.437L78.767 81.2436L78.767 81.2436L79.3581 80.437ZM74.5394 77.4689L74.049 78.3404L74.0499 78.3409L74.5394 77.4689ZM58.8868 68.7538L58.3558 69.6012L58.3781 69.6151L58.401 69.6279L58.8868 68.7538ZM56.712 66.9055L57.4655 66.248L57.4654 66.2479L56.712 66.9055ZM54.7713 57.1638L55.7613 57.3049L56.0281 55.4327L54.3306 56.2661L54.7713 57.1638ZM38.737 56.6984L39.0727 55.7565L35.657 54.5393L37.966 57.3352L38.737 56.6984ZM56.032 49.1492L55.1989 48.596L55.1989 48.596L56.032 49.1492ZM59.2906 41.725V40.725H58.5143L58.3219 41.4771L59.2906 41.725ZM66.9602 41.725H67.9602V40.725H66.9602V41.725ZM66.5765 47.3189L65.8707 46.6105L65.8707 46.6105L66.5765 47.3189ZM61.0486 52.8267L61.7529 53.5366L61.7544 53.5351L61.0486 52.8267ZM62.8989 54.669L62.1932 53.9606L62.1923 53.9614L62.8989 54.669ZM69.3871 48.2055L70.0929 48.914L69.3871 48.2055ZM67.368 24.9143L66.3699 24.8544L66.31 25.8514L67.3069 25.9125L67.368 24.9143ZM67.4143 23.4993L68.4143 23.5015V23.4992L67.4143 23.4993ZM43.826 0L43.8261 -1H43.8258L43.826 0ZM20.2387 23.4993L19.2387 23.4993V23.4993H20.2387ZM26.8033 39.7557L27.7673 39.4898L27.6998 39.2452L27.5239 39.0623L26.8033 39.7557ZM34.3533 52.9228H35.3533V52.3122L34.8101 52.0333L34.3533 52.9228ZM29.3206 68.0714L29.8123 68.9421L29.8369 68.9283L29.8606 68.913L29.3206 68.0714ZM28.2277 68.6898L28.7136 69.5638L28.7158 69.5626L28.2277 68.6898ZM12.4596 77.4689L12.9496 78.3406L12.95 78.3404L12.4596 77.4689ZM7.64092 80.437L7.0501 79.6302L7.04964 79.6305L7.64092 80.437ZM1.4661 89.4632L2.43763 89.7001L2.43781 89.6994L1.4661 89.4632ZM1 91.7058L0.020489 91.5044L0 91.6041V91.7058H1ZM1 92H0V93H1V92ZM86 92V93H87V92H86ZM86 91.7058H87V91.603L86.9791 91.5023L86 91.7058ZM61.1907 33.9919C61.1726 32.145 61.0063 30.5882 60.8438 29.4893C60.7625 28.9395 60.682 28.5032 60.621 28.2013C60.5905 28.0503 60.5649 27.9328 60.5465 27.8514C60.5373 27.8107 60.5299 27.779 60.5246 27.7567C60.5219 27.7456 60.5198 27.7367 60.5182 27.7303C60.5174 27.7271 60.5168 27.7244 60.5163 27.7224C60.516 27.7214 60.5158 27.7205 60.5157 27.7198C60.5156 27.7194 60.5155 27.7191 60.5154 27.7188C60.5154 27.7187 60.5153 27.7185 60.5153 27.7184C60.5153 27.7183 60.5152 27.7181 59.5448 27.9594C58.5744 28.2008 58.5743 28.2007 58.5743 28.2005C58.5743 28.2005 58.5742 28.2004 58.5742 28.2003C58.5742 28.2002 58.5742 28.2001 58.5742 28.2C58.5741 28.1999 58.5741 28.1999 58.5742 28.2001C58.5743 28.2004 58.5745 28.2014 58.5749 28.2029C58.5756 28.206 58.5769 28.2114 58.5788 28.2191C58.5824 28.2345 58.5882 28.2591 58.5957 28.2925C58.6109 28.3595 58.6332 28.4619 58.6606 28.5971C58.7152 28.8677 58.7896 29.2695 58.8653 29.7819C59.017 30.8075 59.1737 32.2718 59.1908 34.0115L61.1907 33.9919ZM59.924 27.0341C56.6382 25.6876 55.1205 23.8858 54.4047 22.5038C54.0418 21.8031 53.8738 21.1883 53.796 20.7601C53.7572 20.546 53.741 20.3793 53.7343 20.2729C53.731 20.2198 53.73 20.1819 53.7298 20.161C53.7297 20.1505 53.7297 20.1443 53.7297 20.1425C53.7297 20.1416 53.7297 20.1419 53.7297 20.1433C53.7297 20.144 53.7297 20.1449 53.7296 20.1462C53.7296 20.1468 53.7296 20.1475 53.7296 20.1483C53.7296 20.1487 53.7295 20.1493 53.7295 20.1495C53.7295 20.1502 53.7295 20.1509 52.7301 20.116C51.7307 20.0811 51.7307 20.0818 51.7306 20.0826C51.7306 20.0828 51.7306 20.0836 51.7306 20.0841C51.7306 20.0852 51.7305 20.0864 51.7305 20.0876C51.7304 20.0901 51.7303 20.0929 51.7303 20.096C51.7301 20.1022 51.73 20.1096 51.7299 20.1182C51.7297 20.1355 51.7296 20.1576 51.7299 20.1843C51.7305 20.2377 51.7327 20.3096 51.7382 20.3982C51.7494 20.5753 51.7742 20.82 51.8282 21.1175C51.9363 21.7124 52.1616 22.5215 52.6288 23.4236C53.5733 25.2473 55.4629 27.3673 59.1656 28.8848L59.924 27.0341ZM52.7301 20.116C51.9715 19.4644 51.9718 19.4641 51.9721 19.4638C51.9721 19.4637 51.9724 19.4634 51.9725 19.4632C51.9728 19.4629 51.973 19.4626 51.9732 19.4624C51.9736 19.462 51.9738 19.4618 51.9737 19.4618C51.9737 19.4619 51.9728 19.4629 51.9711 19.4648C51.9677 19.4687 51.961 19.4761 51.9511 19.4871C51.9311 19.509 51.8978 19.5449 51.8509 19.5934C51.7571 19.6903 51.6087 19.8377 51.4025 20.0253C50.9903 20.4003 50.3474 20.9357 49.4492 21.5485C47.6539 22.7732 44.8334 24.3106 40.7881 25.4925L41.349 27.4123C45.6061 26.1685 48.6164 24.5377 50.5763 23.2006C51.5556 22.5325 52.2714 21.9387 52.7485 21.5046C52.987 21.2876 53.1658 21.1106 53.2881 20.9842C53.3493 20.921 53.3963 20.8704 53.4296 20.8339C53.4463 20.8156 53.4595 20.8009 53.4693 20.7897C53.4742 20.7842 53.4783 20.7796 53.4815 20.7759C53.4831 20.774 53.4845 20.7724 53.4857 20.771C53.4863 20.7703 53.4869 20.7697 53.4873 20.7691C53.4876 20.7688 53.4879 20.7684 53.488 20.7683C53.4884 20.7679 53.4887 20.7676 52.7301 20.116ZM40.7881 25.4925C32.9184 27.7921 26.2575 27.6002 25.0725 27.543L24.976 29.5407C26.2782 29.6036 33.1844 29.798 41.349 27.4123L40.7881 25.4925ZM37.2988 48.6888C38.9328 50.2033 41.097 51.1297 43.5 51.1309L43.501 49.1309C41.6267 49.13 39.9415 48.4113 38.6584 47.222L37.2988 48.6888ZM43.501 51.1309C45.9028 51.1297 48.068 50.2034 49.7011 48.6898L48.3416 47.2229C47.0596 48.4112 45.3734 49.13 43.5 49.1309L43.501 51.1309ZM86.5056 89.2271C85.5258 85.1957 83.2207 82.0275 79.9491 79.6303L78.767 81.2436C81.7014 83.3936 83.7057 86.1755 84.5622 89.6994L86.5056 89.2271ZM79.9491 79.6303C78.3766 78.4781 76.6663 77.5161 75.0289 76.5969L74.0499 78.3409C75.7032 79.269 77.3078 80.1743 78.767 81.2436L79.9491 79.6303ZM75.0298 76.5974C69.8233 73.6676 64.5886 70.7788 59.3726 67.8798L58.401 69.6279C63.6241 72.5309 68.8486 75.4141 74.049 78.3404L75.0298 76.5974ZM59.4178 67.9065C58.912 67.5895 58.1647 67.0492 57.4655 66.248L55.9586 67.5631C56.8244 68.5551 57.7406 69.2157 58.3558 69.6012L59.4178 67.9065ZM57.4654 66.2479C56.2595 64.8666 55.7905 62.7134 55.6665 60.7425C55.606 59.7818 55.6304 58.915 55.6701 58.2881C55.6899 57.9755 55.7134 57.7247 55.7316 57.5543C55.7407 57.4691 55.7485 57.4042 55.7538 57.3618C55.7565 57.3406 55.7585 57.3251 55.7598 57.3155C55.7605 57.3107 55.7609 57.3074 55.7612 57.3056C55.7613 57.3047 55.7614 57.3042 55.7614 57.3041C55.7614 57.304 55.7614 57.304 55.7614 57.3042C55.7614 57.3042 55.7613 57.3044 55.7613 57.3044C55.7613 57.3046 55.7613 57.3049 54.7713 57.1638C53.7813 57.0227 53.7812 57.0229 53.7812 57.0232C53.7812 57.0234 53.7811 57.0237 53.7811 57.0239C53.781 57.0245 53.7809 57.0251 53.7808 57.0258C53.7806 57.0273 53.7804 57.0291 53.7801 57.0313C53.7795 57.0358 53.7786 57.0418 53.7776 57.0493C53.7756 57.0644 53.7728 57.0855 53.7694 57.1125C53.7627 57.1664 53.7535 57.2435 53.743 57.3415C53.722 57.5373 53.6959 57.8171 53.6741 58.1617C53.6305 58.8492 53.6034 59.8031 53.6704 60.8681C53.8013 62.9485 54.3026 65.6662 55.9587 67.5632L57.4654 66.2479ZM54.3306 56.2661C48.9582 58.9037 45.2117 58.7402 42.8707 58.0248C41.6873 57.6631 40.8283 57.1501 40.2731 56.7373C39.9953 56.5309 39.7939 56.3498 39.6667 56.226C39.6032 56.1642 39.5584 56.1168 39.532 56.088C39.5188 56.0736 39.5102 56.0639 39.5062 56.0593C39.5042 56.057 39.5034 56.0561 39.5037 56.0564C39.5039 56.0566 39.5043 56.0571 39.505 56.058C39.5054 56.0584 39.5058 56.059 39.5064 56.0596C39.5066 56.0599 39.507 56.0604 39.5072 56.0606C39.5076 56.0611 39.5081 56.0617 38.737 56.6984C37.966 57.3352 37.9665 57.3358 37.967 57.3365C37.9672 57.3367 37.9678 57.3374 37.9682 57.3379C37.969 57.3388 37.9699 57.3399 37.9708 57.341C37.9728 57.3433 37.975 57.346 37.9775 57.349C37.9826 57.355 37.989 57.3625 37.9966 57.3712C38.0119 57.3888 38.0322 57.4117 38.0576 57.4394C38.1084 57.4948 38.1797 57.5696 38.2719 57.6593C38.4561 57.8386 38.7245 58.0783 39.0799 58.3425C39.7912 58.8712 40.853 59.4995 42.2862 59.9375C45.1786 60.8214 49.4492 60.8907 55.212 58.0614L54.3306 56.2661ZM38.4014 57.6404C40.7043 58.461 43.6593 59.0413 46.9127 58.081C50.1727 57.1187 53.575 54.6567 56.865 49.7024L55.1989 48.596C52.0921 53.2744 49.0388 55.3681 46.3465 56.1628C43.6476 56.9594 41.1535 56.4979 39.0727 55.7565L38.4014 57.6404ZM56.865 49.7024C58.5466 47.1703 59.6083 44.5177 60.2594 41.9729L58.3219 41.4771C57.7173 43.8398 56.7378 46.2787 55.1989 48.596L56.865 49.7024ZM59.2906 42.725H66.9602V40.725H59.2906V42.725ZM65.9602 41.725V46.3973H67.9602V41.725H65.9602ZM65.9602 46.3973C65.9602 46.4757 65.9292 46.5522 65.8707 46.6105L67.2822 48.0274C67.716 47.5953 67.9602 47.0094 67.9602 46.3973H65.9602ZM65.8707 46.6105L60.3428 52.1184L61.7544 53.5351L67.2823 48.0273L65.8707 46.6105ZM60.3443 52.1169C59.9074 52.5502 59.6658 53.1376 59.6658 53.7474H61.6658C61.6658 53.6667 61.6975 53.5916 61.7529 53.5366L60.3443 52.1169ZM59.6658 53.7474C59.6658 55.8048 62.1552 56.8249 63.6055 55.3766L62.1923 53.9614C61.9952 54.1583 61.6658 54.0136 61.6658 53.7474H59.6658ZM63.6047 55.3775L70.0929 48.914L68.6814 47.4971L62.1932 53.9606L63.6047 55.3775ZM70.0929 48.914C70.5264 48.4822 70.7699 47.896 70.7699 47.2839H68.7699C68.7699 47.3643 68.7381 47.4406 68.6814 47.4971L70.0929 48.914ZM70.7699 47.2839V39.1773H68.7699V47.2839H70.7699ZM70.7699 39.1773V28.5759H68.7699V39.1773H70.7699ZM70.7699 28.5759V27.4471H68.7699V28.5759H70.7699ZM70.7699 27.4471C70.7699 25.5512 69.2823 24.0298 67.4292 23.9162L67.3069 25.9125C68.1319 25.963 68.7699 26.6351 68.7699 27.4471H70.7699ZM68.3662 24.9743C68.3953 24.4901 68.4132 23.9993 68.4143 23.5015L66.4143 23.4972C66.4133 23.9501 66.397 24.4019 66.3699 24.8544L68.3662 24.9743ZM68.4143 23.4992C68.4122 9.96446 57.4034 -0.997914 43.8261 -1L43.8258 1C56.3059 1.00192 66.4123 11.0762 66.4143 23.4995L68.4143 23.4992ZM43.8258 -1C30.2485 -0.997914 19.2397 9.96446 19.2387 23.4993L21.2387 23.4994C21.2396 11.0762 31.346 1.00192 43.8261 1L43.8258 -1ZM19.2387 23.4993C19.2387 30.0799 21.8493 36.0493 26.0827 40.449L27.5239 39.0623C23.6326 35.0181 21.2387 29.5396 21.2387 23.4993H19.2387ZM25.8392 40.0215C27.3616 45.542 29.3032 48.9568 30.9093 51.0132C31.7119 52.0408 32.4276 52.7251 32.9595 53.1609C33.2253 53.3786 33.4445 53.5338 33.6049 53.6385C33.6851 53.6908 33.7505 53.7304 33.7996 53.7589C33.8242 53.7731 33.8447 53.7846 33.8609 53.7934C33.869 53.7979 33.876 53.8016 33.8819 53.8048C33.8849 53.8064 33.8876 53.8078 33.89 53.809C33.8912 53.8097 33.8924 53.8103 33.8935 53.8108C33.894 53.8111 33.8947 53.8115 33.895 53.8116C33.8957 53.812 33.8965 53.8124 34.3533 52.9228C34.8101 52.0333 34.8108 52.0336 34.8115 52.034C34.8117 52.0341 34.8123 52.0344 34.8127 52.0346C34.8135 52.035 34.8142 52.0354 34.8149 52.0357C34.8162 52.0364 34.8172 52.037 34.818 52.0374C34.8195 52.0382 34.82 52.0384 34.8193 52.0381C34.8181 52.0374 34.8126 52.0344 34.803 52.0288C34.7837 52.0176 34.7482 51.9963 34.6977 51.9634C34.5968 51.8976 34.436 51.785 34.2271 51.6139C33.8097 51.2719 33.1974 50.6936 32.4855 49.7821C31.0628 47.9606 29.2294 44.7918 27.7673 39.4898L25.8392 40.0215ZM33.3533 52.9228V59.5624H35.3533V52.9228H33.3533ZM33.3533 59.5624C33.3533 63.6939 30.4638 66.1498 28.7806 67.2297L29.8606 68.913C31.7275 67.7153 35.3533 64.7355 35.3533 59.5624H33.3533ZM28.8289 67.2006C28.2662 67.5183 27.795 67.786 27.7396 67.817L28.7158 69.5626C28.7748 69.5295 29.262 69.2528 29.8123 68.9421L28.8289 67.2006ZM27.7418 67.8158C22.4879 70.7367 17.2148 73.6457 11.9692 76.5974L12.95 78.3404C18.1897 75.392 23.452 72.489 28.7136 69.5638L27.7418 67.8158ZM11.9697 76.5971C10.3348 77.516 8.62343 78.478 7.0501 79.6302L8.23174 81.2438C9.69209 80.1744 11.2976 79.2691 12.9496 78.3406L11.9697 76.5971ZM7.04964 79.6305C3.78033 82.0275 1.47422 85.1956 0.494389 89.2271L2.43781 89.6994C3.29425 86.1756 5.29957 83.3936 8.23221 81.2434L7.04964 79.6305ZM0.494567 89.2263C0.308302 89.9902 0.165887 90.7972 0.020489 91.5044L1.97951 91.9072C2.1415 91.1193 2.26227 90.4193 2.43763 89.7001L0.494567 89.2263ZM0 91.7058V92H2V91.7058H0ZM1 93H38.8074V91H1V93ZM38.8074 93H43.5005V91H38.8074V93ZM43.5005 93H48.8446V91H43.5005V93ZM48.8446 93H86V91H48.8446V93ZM87 92V91.7058H85V92H87ZM86.9791 91.5023L86.513 89.2597L84.5548 89.6667L85.0209 91.9093L86.9791 91.5023Z" fill="#4BAE89"/>
</svg>
