<svg width="74" height="78" viewBox="0 0 74 78" fill="none" xmlns="http://www.w3.org/2000/svg">
<path fill-rule="evenodd" clip-rule="evenodd" d="M12.984 25.5875C12.984 28.8975 10.301 31.5795 6.992 31.5795C3.682 31.5795 1 28.8975 1 25.5875C1 22.2775 3.682 19.5955 6.992 19.5955C10.301 19.5955 12.984 22.2775 12.984 25.5875Z" stroke="#4BAE89" stroke-width="2"/>
<path fill-rule="evenodd" clip-rule="evenodd" d="M27.8287 5.99161C27.8287 9.30161 25.1457 11.9836 21.8367 11.9836C18.5277 11.9836 15.8447 9.30161 15.8447 5.99161C15.8447 2.68261 18.5277 0.000610352 21.8367 0.000610352C25.1457 0.000610352 27.8287 2.68261 27.8287 5.99161Z" stroke="#4BAE89" stroke-width="2"/>
<path fill-rule="evenodd" clip-rule="evenodd" d="M42.8639 21.5385C42.8639 24.8485 40.1809 27.5305 36.8719 27.5305C33.5629 27.5305 30.8809 24.8485 30.8809 21.5385C30.8809 18.2295 33.5629 15.5465 36.8719 15.5465C40.1809 15.5465 42.8639 18.2295 42.8639 21.5385Z" stroke="#4BAE89" stroke-width="2"/>
<path fill-rule="evenodd" clip-rule="evenodd" d="M57.6002 35.7905C57.6002 39.0995 54.9172 41.7815 51.6082 41.7815C48.2982 41.7815 45.6162 39.0995 45.6162 35.7905C45.6162 32.4805 48.2982 29.7985 51.6082 29.7985C54.9172 29.7985 57.6002 32.4805 57.6002 35.7905Z" stroke="#4BAE89" stroke-width="2"/>
<path fill-rule="evenodd" clip-rule="evenodd" d="M72.111 13.978C72.111 17.288 69.428 19.97 66.119 19.97C62.809 19.97 60.127 17.288 60.127 13.978C60.127 10.668 62.809 7.98596 66.119 7.98596C69.428 7.98596 72.111 10.668 72.111 13.978Z" stroke="#4BAE89" stroke-width="2"/>
<path d="M21.8369 77.977V11.984" stroke="#4BAE89" stroke-width="2"/>
<path d="M6.99219 31.5795V37.9205C6.99219 40.9635 8.20119 43.8815 10.3522 46.0325C12.5042 48.1845 13.7132 51.1025 13.7132 54.1455V77.9765" stroke="#4BAE89" stroke-width="2"/>
<path d="M43.376 77.977V72.527C43.376 69.484 44.585 66.566 46.736 64.414L62.759 48.391C64.91 46.24 66.119 43.322 66.119 40.279V19.97" stroke="#4BAE89" stroke-width="2"/>
<path d="M36.9247 27.936V46.909C36.9247 49.952 35.7167 52.87 33.5647 55.021L32.9567 55.628C30.8057 57.78 29.5967 60.699 29.5967 63.741V77.977" stroke="#4BAE89" stroke-width="2"/>
<path d="M51.6084 41.7817V77.9767" stroke="#4BAE89" stroke-width="2"/>
</svg>
