<svg width="96" height="93" viewBox="0 0 96 93" fill="none" xmlns="http://www.w3.org/2000/svg">
<g id="NEM">
<path id="Fill 1" fill-rule="evenodd" clip-rule="evenodd" d="M47.7601 88.2975C47.9376 88.2087 48.1595 88.0755 48.3371 87.9424C53.9294 84.658 59.0778 80.7523 63.7825 76.3139C64.0932 76.0476 64.3151 75.6926 64.4926 75.3375C64.8033 74.7606 65.114 74.1392 65.3803 73.5622C67.5995 68.9463 68.0877 64.1529 66.623 59.182C63.7381 49.5952 54.5064 44.0917 45.2302 45.2456C42.5673 45.5563 40.1262 46.3996 37.8182 47.7311C33.4243 50.2166 28.7197 51.2374 23.66 50.7492C21.1745 50.5272 18.8222 49.8615 16.5586 48.8851C14.7833 48.0861 13.0967 47.1097 11.5877 45.9114C11.4989 45.8226 11.3658 45.7782 11.1439 45.6451C11.1882 45.867 11.2326 46.0001 11.277 46.0889C13.2743 51.1486 15.7154 55.942 18.6003 60.5135C21.7515 65.44 25.3465 70.0115 29.4298 74.1836C33.5131 78.3556 37.9957 82.0837 42.8336 85.3238C45.0527 86.744 47.1387 88.0311 47.7601 88.2975ZM70.9726 68.4581C71.1945 68.3249 71.3276 68.1474 71.4164 68.0143C73.1917 65.7951 74.8783 63.4872 76.4317 61.0905C81.9797 52.4801 85.8854 43.204 88.0601 33.1734C88.8147 29.7558 89.3028 26.3383 89.6136 22.8764C89.8355 20.5241 89.9243 18.1718 89.9243 15.7751C89.9243 15.5976 89.9243 15.4644 89.8799 15.2869L89.2141 14.8874C87.3944 13.8666 85.5303 12.8902 83.6662 12.0025C80.9144 10.7154 78.1627 9.56144 75.2778 8.62938C71.7715 7.51983 68.2208 7.38663 64.6702 8.27432C54.5064 10.7154 47.982 20.7016 49.9349 30.9542C51.0001 36.6353 54.0625 41.0736 58.9447 44.1804C59.2554 44.4023 59.6105 44.5799 59.9211 44.8018C63.5162 46.9765 66.3123 49.9503 68.3096 53.6341C70.44 57.4954 71.372 61.6675 71.1057 66.0614C71.1501 66.8159 71.0613 67.6148 70.9726 68.4581ZM5.50719 15.2869V15.8195C5.50719 19.0595 5.7291 22.3439 6.12853 25.5394C6.48359 28.4687 6.97181 31.3536 7.6376 34.2386C7.77072 34.7268 7.90387 35.215 8.12581 35.7032C12.1203 44.1804 21.352 48.7076 30.495 46.6215C37.4632 45.0237 43.1442 39.6533 45.0527 32.7739C45.5853 30.8654 45.7629 28.9126 45.8516 26.9597C45.896 25.6726 46.0291 24.3854 46.2511 23.0984C47.7601 15.2869 52.9529 8.85129 60.2762 5.78886C60.6756 5.61133 61.1195 5.47817 61.5189 5.30064C61.5633 5.25627 61.6521 5.25627 61.6521 5.16748C60.4981 4.76805 53.6187 4.05789 49.491 3.96914C40.6144 3.79161 31.9153 4.94558 23.4381 7.51983C17.1356 9.42829 11.1882 12.0025 5.50719 15.2869ZM47.7601 92.8245L47.2275 92.5582C26.4561 80.3972 10.7444 60.336 4.35319 36.369C3.33242 32.5964 2.57789 28.735 2.0453 24.8293C1.55708 20.9236 1.29076 16.9735 1.24639 13.0233C1.24639 12.3576 1.15761 12.4463 1.77898 12.1357C9.59047 7.69732 17.8457 4.45736 26.5893 2.41571C29.8292 1.66121 33.0692 1.08425 36.3536 0.684775C40.8807 0.152184 45.4078 -0.0697573 49.9792 0.0190265C52.5535 0.0633998 55.0834 0.24093 57.6132 0.507244C70.3512 1.88311 82.2903 5.70007 93.4749 11.9581C93.6525 12.0469 93.7856 12.1357 93.9631 12.2244C94.1407 12.3132 94.2294 12.4463 94.2294 12.6682V13.334C94.185 15.642 94.0962 17.9055 93.9187 20.2134C93.6525 23.4978 93.2086 26.7378 92.5873 29.9778C91.2557 36.9459 89.1697 43.6478 86.2848 50.0834C81.7133 60.336 75.4553 69.4789 67.5551 77.4679C61.874 83.2378 55.5272 88.2087 48.5146 92.3363C48.2483 92.5138 48.0264 92.647 47.7601 92.8245Z" fill="black"/>
<path id="Fill 4" fill-rule="evenodd" clip-rule="evenodd" d="M5.50718 15.2866C11.1882 12.0023 17.1356 9.42806 23.3937 7.56397C31.9152 5.0341 40.57 3.83576 49.4467 4.01329C53.5743 4.10203 60.4538 4.76778 61.6077 5.21163C61.6521 5.30041 61.5633 5.34478 61.4745 5.34478C61.0751 5.52231 60.6312 5.65547 60.2318 5.833C52.9085 8.89543 47.7157 15.331 46.2067 23.1425C45.9847 24.4296 45.8516 25.7167 45.8072 27.0038C45.7628 28.9567 45.5853 30.9096 45.0083 32.8181C43.0554 39.6975 37.4188 45.0679 30.4506 46.6657C21.3076 48.7517 12.0759 44.2246 8.08139 35.7474C7.85949 35.2592 7.68195 34.7709 7.59317 34.2827C6.92742 31.3978 6.4392 28.5129 6.08414 25.5836C5.68467 22.3436 5.46277 19.1036 5.46277 15.8636C5.50718 15.6417 5.50718 15.5086 5.50718 15.2866Z" fill="white"/>
<path id="Fill 6" fill-rule="evenodd" clip-rule="evenodd" d="M71.1945 66.0615C71.2389 65.2626 70.4844 57.4956 68.3983 53.6342C66.4011 49.9504 63.6049 47.0211 60.0099 44.8019C59.6992 44.58 59.3441 44.4025 59.0335 44.1806C54.1069 41.0738 51.0888 36.6798 50.0236 30.9544C48.1152 20.6574 54.5952 10.7156 64.7589 8.27449C68.354 7.43117 71.8602 7.51996 75.3666 8.62955C78.2514 9.5172 81.0032 10.7156 83.755 12.0027C85.6635 12.8904 87.4832 13.8668 89.3029 14.8876C89.5248 15.0208 89.7024 15.1095 89.9686 15.287C89.9686 15.4646 90.013 15.5977 90.013 15.7753C90.013 18.1276 89.8799 20.5243 89.7024 22.8766C89.4404 26.3476 88.8591 29.8004 88.1489 33.1735C85.9742 43.2041 82.1128 52.4803 76.5205 61.0906C74.9671 63.4873 73.2805 65.7952 71.5052 68.0144C71.3277 68.1476 71.2389 68.3251 70.9726 68.4583C71.0613 67.615 71.1501 66.8605 71.1945 66.0615Z" fill="white"/>
<path id="Fill 8" fill-rule="evenodd" clip-rule="evenodd" d="M47.7602 88.2973C47.0944 88.031 45.0528 86.7883 42.878 85.3237C38.0402 82.0836 33.5575 78.3554 29.4742 74.1834C25.3909 70.0114 21.7515 65.4399 18.6447 60.5134C15.7154 55.9419 13.2743 51.1485 11.3215 46.0888C11.2771 45.9556 11.2327 45.8669 11.1883 45.645C11.4102 45.7781 11.499 45.8225 11.6321 45.9113C13.1855 47.1096 14.8277 48.1304 16.6031 48.8849C18.8666 49.8613 21.2189 50.5271 23.7044 50.749C28.7197 51.2372 33.4243 50.2164 37.8627 47.731C40.1706 46.4438 42.6561 45.6005 45.2747 45.2455C54.5508 44.0915 63.7826 49.5951 66.6675 59.1819C68.1321 64.1084 67.6883 68.9018 65.4247 73.562C65.114 74.1834 64.8477 74.7604 64.5371 75.3374C64.3595 75.6924 64.1376 76.0475 63.8269 76.3138C59.1223 80.7522 53.9738 84.6579 48.3815 87.9422C48.1596 88.0754 47.9376 88.2085 47.7602 88.2973V88.2973Z" fill="white"/>
</g>
</svg>
