<svg width="79" height="80" viewBox="0 0 79 80" fill="none" xmlns="http://www.w3.org/2000/svg">
<path d="M17.4668 0.999512H55.8518H68.2298C70.2658 0.999512 71.9168 2.65051 71.9168 4.68751V28.1835" stroke="#4BAE89" stroke-width="2"/>
<path d="M22.9551 11.1245V78.3785H44.1831H71.1751V71.3755" stroke="#4BAE89" stroke-width="2"/>
<path d="M11.9773 44.7515V6.48851C11.9773 3.45751 14.4353 0.999512 17.4663 0.999512C20.4983 0.999512 22.9553 3.45751 22.9553 6.48851V64.0805H6.48828" stroke="#4BAE89" stroke-width="2"/>
<path fill-rule="evenodd" clip-rule="evenodd" d="M1 17.0649H11.978V60.3489C11.978 62.4109 10.307 64.0809 8.246 64.0809H4.731C2.671 64.0809 1 62.4109 1 60.3489V17.0649Z" stroke="#4BAE89" stroke-width="2"/>
<path d="M33.3213 12.5063H62.1073" stroke="#4BAE89" stroke-width="2"/>
<path d="M33.3213 20.3442H62.1073" stroke="#4BAE89" stroke-width="2"/>
<mask id="mask0" mask-type="alpha" maskUnits="userSpaceOnUse" x="0" y="-1" width="79" height="81">
<path fill-rule="evenodd" clip-rule="evenodd" d="M0 79.3788H78.897V-0.000244141H0V79.3788Z" fill="white"/>
</mask>
<g mask="url(#mask0)">
<path fill-rule="evenodd" clip-rule="evenodd" d="M47.7129 71.3757H77.8959V28.1837H47.7129V71.3757Z" stroke="#4BAE89" stroke-width="2"/>
<path fill-rule="evenodd" clip-rule="evenodd" d="M57.291 49.3003C57.291 50.4743 56.339 51.4253 55.165 51.4253C53.991 51.4253 53.04 50.4743 53.04 49.3003C53.04 48.1263 53.991 47.1743 55.165 47.1743C56.339 47.1743 57.291 48.1263 57.291 49.3003Z" stroke="#4BAE89" stroke-width="2"/>
<path fill-rule="evenodd" clip-rule="evenodd" d="M65.2949 49.3003C65.2949 50.4743 64.3439 51.4253 63.1699 51.4253C61.9959 51.4253 61.0439 50.4743 61.0439 49.3003C61.0439 48.1263 61.9959 47.1743 63.1699 47.1743C64.3439 47.1743 65.2949 48.1263 65.2949 49.3003Z" stroke="#4BAE89" stroke-width="2"/>
<path fill-rule="evenodd" clip-rule="evenodd" d="M73.2998 49.3003C73.2998 50.4743 72.3488 51.4253 71.1748 51.4253C70.0008 51.4253 69.0488 50.4743 69.0488 49.3003C69.0488 48.1263 70.0008 47.1743 71.1748 47.1743C72.3488 47.1743 73.2998 48.1263 73.2998 49.3003Z" stroke="#4BAE89" stroke-width="2"/>
<path fill-rule="evenodd" clip-rule="evenodd" d="M57.291 56.8276C57.291 58.0016 56.339 58.9536 55.165 58.9536C53.991 58.9536 53.04 58.0016 53.04 56.8276C53.04 55.6536 53.991 54.7026 55.165 54.7026C56.339 54.7026 57.291 55.6536 57.291 56.8276Z" stroke="#4BAE89" stroke-width="2"/>
<path fill-rule="evenodd" clip-rule="evenodd" d="M65.2949 56.8276C65.2949 58.0016 64.3439 58.9536 63.1699 58.9536C61.9959 58.9536 61.0439 58.0016 61.0439 56.8276C61.0439 55.6536 61.9959 54.7026 63.1699 54.7026C64.3439 54.7026 65.2949 55.6536 65.2949 56.8276Z" stroke="#4BAE89" stroke-width="2"/>
<path fill-rule="evenodd" clip-rule="evenodd" d="M73.2998 56.8276C73.2998 58.0016 72.3488 58.9536 71.1748 58.9536C70.0008 58.9536 69.0488 58.0016 69.0488 56.8276C69.0488 55.6536 70.0008 54.7026 71.1748 54.7026C72.3488 54.7026 73.2998 55.6536 73.2998 56.8276Z" stroke="#4BAE89" stroke-width="2"/>
<path fill-rule="evenodd" clip-rule="evenodd" d="M57.291 64.356C57.291 65.53 56.339 66.481 55.165 66.481C53.991 66.481 53.04 65.53 53.04 64.356C53.04 63.182 53.991 62.23 55.165 62.23C56.339 62.23 57.291 63.182 57.291 64.356Z" stroke="#4BAE89" stroke-width="2"/>
<path fill-rule="evenodd" clip-rule="evenodd" d="M65.2949 64.356C65.2949 65.53 64.3439 66.481 63.1699 66.481C61.9959 66.481 61.0439 65.53 61.0439 64.356C61.0439 63.182 61.9959 62.23 63.1699 62.23C64.3439 62.23 65.2949 63.182 65.2949 64.356Z" stroke="#4BAE89" stroke-width="2"/>
<path fill-rule="evenodd" clip-rule="evenodd" d="M73.2998 64.356C73.2998 65.53 72.3488 66.481 71.1748 66.481C70.0008 66.481 69.0488 65.53 69.0488 64.356C69.0488 63.182 70.0008 62.23 71.1748 62.23C72.3488 62.23 73.2998 63.182 73.2998 64.356Z" stroke="#4BAE89" stroke-width="2"/>
<path fill-rule="evenodd" clip-rule="evenodd" d="M53.1182 41.4607H73.3002V34.4777H53.1182V41.4607Z" stroke="#4BAE89" stroke-width="2"/>
</g>
</svg>
