<svg width="94" height="62" viewBox="0 0 94 62" fill="none" xmlns="http://www.w3.org/2000/svg">
<path fill-rule="evenodd" clip-rule="evenodd" d="M73.076 47.2171H6.76C3.579 47.2171 1 44.6391 1 41.4571V5.76012C1 2.57812 3.579 0.00012207 6.76 0.00012207H73.076C76.257 0.00012207 78.836 2.57812 78.836 5.76012V41.4571C78.836 44.6391 76.257 47.2171 73.076 47.2171Z" stroke="#4BAE89" stroke-width="2"/>
<path d="M78.8354 13.3998H82.8084C88.0144 13.3998 92.2344 17.6198 92.2344 22.8268V51.1908C92.2344 56.3968 88.0144 60.6168 82.8084 60.6168H23.8254C22.7514 60.6168 21.7204 60.4368 20.7584 60.1068C17.0584 58.8348 14.3984 55.3228 14.3984 51.1908V47.2168" stroke="#4BAE89" stroke-width="2"/>
<path d="M56.6748 7.01501H70.7288H56.6748" stroke="#4BAE89" stroke-width="2"/>
<path d="M22.8919 40.1078H8.83789H22.8919" stroke="#4BAE89" stroke-width="2"/>
<path d="M29.7666 29.2874C29.7666 32.4704 34.3116 35.0494 39.9176 35.0494C45.5246 35.0494 50.0696 32.4704 50.0696 29.2874C50.0696 20.8534 29.7666 25.8254 29.7666 17.7644C29.7666 14.5824 34.3116 12.0024 39.9176 12.0024C45.5246 12.0024 50.0696 14.5824 50.0696 17.7644" stroke="#4BAE89" stroke-width="2"/>
<path d="M39.918 7.22009V12.0021" stroke="#4BAE89" stroke-width="2"/>
<path d="M39.918 35.0492V39.9972" stroke="#4BAE89" stroke-width="2"/>
</svg>
