<svg width="28" height="13" viewBox="0 0 28 13" fill="none" xmlns="http://www.w3.org/2000/svg">
<path fill-rule="evenodd" clip-rule="evenodd" d="M12.0122 3.40476C10.9299 1.37856 8.81804 0 6.3913 0C2.8615 0 0 2.91017 0 6.5C0 10.0898 2.8615 13 6.3913 13C8.81804 13 10.9299 11.6214 12.0122 9.59524H16.4348L18.2609 7.7381L20.087 9.59524L21.913 7.7381L23.7391 9.59524L28 6.19048L24.9565 3.40476H12.0122ZM2.43478 6.5C2.43478 5.47433 3.25236 4.64286 4.26087 4.64286C5.26938 4.64286 6.08696 5.47433 6.08696 6.5C6.08696 7.52567 5.26938 8.35715 4.26087 8.35715C3.25236 8.35715 2.43478 7.52567 2.43478 6.5Z" fill="#4CAE89"/>
</svg>
