<svg width="141" height="38" viewBox="0 0 141 38" fill="none" xmlns="http://www.w3.org/2000/svg">
<path fill-rule="evenodd" clip-rule="evenodd" d="M64.0324 24.1487C64.0324 23.7947 63.9694 23.4537 63.8434 23.1227C63.7164 22.7927 63.5134 22.4987 63.2364 22.2377C62.9574 21.9787 62.5974 21.7727 62.1554 21.6187C61.7124 21.4647 61.1884 21.3887 60.5814 21.3887H55.6134V26.8377H60.5814C61.8204 26.8377 62.7054 26.5677 63.2364 26.0247C63.7674 25.4817 64.0324 24.8567 64.0324 24.1487ZM63.4264 14.3117C63.4264 13.6277 63.1724 13.0667 62.6674 12.6297C62.1614 12.1937 61.3024 11.9757 60.0884 11.9757H55.6134V16.8947H60.0884C61.3024 16.8947 62.1614 16.6347 62.6674 16.1157C63.1724 15.5977 63.4264 14.9957 63.4264 14.3117ZM70.0244 24.3967C70.0244 25.5057 69.8034 26.5077 69.3614 27.4047C68.9184 28.3007 68.3244 29.0677 67.5784 29.7047C66.8324 30.3417 65.9604 30.8367 64.9614 31.1907C63.9624 31.5447 62.9074 31.7217 61.7954 31.7217H49.7734V7.09171H60.8854C62.2754 7.09171 63.5134 7.26371 64.6014 7.60571C65.6884 7.94771 66.6044 8.42471 67.3504 9.03871C68.0964 9.65171 68.6594 10.3887 69.0384 11.2507C69.4174 12.1117 69.6074 13.0487 69.6074 14.0637C69.6074 14.9607 69.3544 15.8567 68.8484 16.7527C68.3434 17.6497 67.4964 18.3577 66.3074 18.8767V19.0177C66.9144 19.2307 67.4454 19.5367 67.9014 19.9377C68.3564 20.3387 68.7404 20.7877 69.0574 21.2827C69.3734 21.7777 69.6134 22.2967 69.7784 22.8387C69.9424 23.3817 70.0244 23.9017 70.0244 24.3967Z" fill="white"/>
<path fill-rule="evenodd" clip-rule="evenodd" d="M73.324 14.0989C73.45 12.9899 73.761 11.9929 74.254 11.1089C74.746 10.2239 75.372 9.4689 76.131 8.8439C76.888 8.2189 77.742 7.7409 78.69 7.4109C79.638 7.0799 80.631 6.9149 81.668 6.9149C82.881 6.9149 84.006 7.0569 85.043 7.3399C86.079 7.6229 86.976 8.0589 87.735 8.6489C88.494 9.2389 89.088 9.9709 89.517 10.8429C89.947 11.7159 90.163 12.7429 90.163 13.9219C90.163 14.8189 89.998 15.7029 89.67 16.5759C89.341 17.4489 88.886 18.2039 88.304 18.8409L80.795 26.8379H90.125V31.7219H73.248V27.3699L83.791 16.0799C84.271 15.5619 84.512 14.9719 84.512 14.3109C84.512 13.6739 84.278 13.0969 83.81 12.5769C83.342 12.0579 82.666 11.7989 81.781 11.7989C81.048 11.7989 80.403 12.0409 79.847 12.5239C79.291 13.0079 78.937 13.8159 78.785 14.9479L73.324 14.0989Z" fill="white"/>
<path fill-rule="evenodd" clip-rule="evenodd" d="M109.048 24.1487C109.048 23.7947 108.985 23.4537 108.859 23.1227C108.732 22.7927 108.529 22.4987 108.252 22.2377C107.973 21.9787 107.613 21.7727 107.171 21.6187C106.729 21.4647 106.204 21.3887 105.597 21.3887H100.629V26.8377H105.597C106.835 26.8377 107.721 26.5677 108.252 26.0247C108.782 25.4817 109.048 24.8567 109.048 24.1487ZM108.442 14.3117C108.442 13.6277 108.189 13.0667 107.683 12.6297C107.177 12.1937 106.318 11.9757 105.104 11.9757H100.629V16.8947H105.104C106.318 16.8947 107.177 16.6347 107.683 16.1157C108.189 15.5977 108.442 14.9957 108.442 14.3117ZM115.04 24.3967C115.04 25.5057 114.819 26.5077 114.376 27.4047C113.934 28.3007 113.34 29.0677 112.594 29.7047C111.848 30.3417 110.976 30.8367 109.978 31.1907C108.979 31.5447 107.923 31.7217 106.811 31.7217H94.7881V7.09171H105.901C107.29 7.09171 108.529 7.26371 109.617 7.60571C110.704 7.94771 111.62 8.42471 112.366 9.03871C113.111 9.65171 113.675 10.3887 114.054 11.2507C114.434 12.1117 114.623 13.0487 114.623 14.0637C114.623 14.9607 114.37 15.8567 113.864 16.7527C113.359 17.6497 112.512 18.3577 111.323 18.8767V19.0177C111.931 19.2307 112.461 19.5367 112.916 19.9377C113.371 20.3387 113.757 20.7877 114.073 21.2827C114.389 21.7777 114.629 22.2967 114.794 22.8387C114.958 23.3817 115.04 23.9017 115.04 24.3967Z" fill="white"/>
<path fill-rule="evenodd" clip-rule="evenodd" d="M133.395 31.7219L128.124 23.7239L122.89 31.7219H116.291L125.242 19.1239L116.785 7.0919H123.421L128.124 14.4879L132.865 7.0919H139.501L131.044 19.1239L140.032 31.7219H133.395Z" fill="white"/>
<mask id="mask0" mask-type="alpha" maskUnits="userSpaceOnUse" x="0" y="0" width="141" height="38">
<path fill-rule="evenodd" clip-rule="evenodd" d="M0 37.211H140.032V0H0V37.211Z" fill="white"/>
</mask>
<g mask="url(#mask0)">
<path fill-rule="evenodd" clip-rule="evenodd" d="M18.6055 26.803H26.8035V18.606H18.6055V26.803Z" fill="white"/>
<path fill-rule="evenodd" clip-rule="evenodd" d="M10.4082 18.606H18.6062V10.408H10.4082V18.606Z" fill="white"/>
<path fill-rule="evenodd" clip-rule="evenodd" d="M9.786 22.7044H6.308V6.3084H22.704V9.7864L32.491 -0.000595093H0V32.4904L9.786 22.7044Z" fill="white"/>
<path fill-rule="evenodd" clip-rule="evenodd" d="M27.4247 14.5066H30.9027V30.9026H14.5067V27.4246L4.71973 37.2116H37.2107V4.7206L27.4247 14.5066Z" fill="white"/>
</g>
</svg>
