<svg width="14" height="12" viewBox="0 0 14 12" fill="none" xmlns="http://www.w3.org/2000/svg">
<path d="M13.7592 2.80385C13.7592 2.58064 13.6699 2.35742 13.5092 2.19671L12.2949 0.982422C12.1342 0.821708 11.911 0.732422 11.6878 0.732422C11.4646 0.732422 11.2414 0.821708 11.0806 0.982422L5.22349 6.84849L2.59849 4.21457C2.43778 4.05385 2.21456 3.96457 1.99135 3.96457C1.76814 3.96457 1.54492 4.05385 1.38421 4.21457L0.169922 5.42885C0.00920761 5.58956 -0.0800781 5.81278 -0.0800781 6.03599C-0.0800781 6.25921 0.00920761 6.48242 0.169922 6.64314L3.40206 9.87528L4.61635 11.0896C4.77707 11.2503 5.00028 11.3396 5.22349 11.3396C5.44671 11.3396 5.66992 11.2503 5.83064 11.0896L7.04492 9.87528L13.5092 3.41099C13.6699 3.25028 13.7592 3.02707 13.7592 2.80385Z" fill="#21C5A2"/>
</svg>
