<svg width="42" height="32" viewBox="0 0 42 32" fill="none" xmlns="http://www.w3.org/2000/svg">
<rect x="29.1367" y="2.25739" width="3" height="15" transform="rotate(-45 29.1367 2.25739)" fill="#D8D8D8"/>
<rect width="3" height="15" transform="matrix(-0.707107 -0.707107 -0.707107 0.707107 41.8633 21.2574)" fill="#D8D8D8"/>
<path d="M0.649414 20H2.64551V15.7959C2.64551 14.8457 3.21289 14.1895 4.1084 14.1895C5.00391 14.1895 5.45508 14.7363 5.45508 15.6934V20H7.45117V15.2764C7.45117 13.5605 6.53516 12.5352 4.9082 12.5352C3.78027 12.5352 3.00781 13.0684 2.61816 13.9775H2.57715V12.6719H0.649414V20ZM12.0039 13.9912C12.8926 13.9912 13.501 14.6338 13.542 15.5703H10.4316C10.5 14.6543 11.1289 13.9912 12.0039 13.9912ZM13.5693 17.7578C13.3848 18.3184 12.8242 18.6807 12.0928 18.6807C11.0742 18.6807 10.4111 17.9629 10.4111 16.917V16.7939H15.4629V16.1855C15.4629 13.957 14.1162 12.5146 11.9834 12.5146C9.81641 12.5146 8.44922 14.0322 8.44922 16.3701C8.44922 18.7148 9.80273 20.1572 12.0586 20.1572C13.8701 20.1572 15.1826 19.1934 15.4014 17.7578H13.5693ZM19.4004 17.457L20.7949 20H22.9619L20.6924 16.2949L22.9824 12.6719H20.8086L19.5098 15.1465H19.4688L18.1494 12.6719H15.9004L18.1836 16.3496L15.8867 20H17.9854L19.3594 17.457H19.4004ZM24.3154 10.9834V12.6719H23.2832V14.1758H24.3154V18.0244C24.3154 19.4531 24.9854 20.0273 26.708 20.0273C27.1113 20.0273 27.4531 19.9932 27.6582 19.9453V18.4756C27.5352 18.4961 27.3506 18.5098 27.1729 18.5098C26.585 18.5098 26.3115 18.2432 26.3115 17.6826V14.1758H27.665V12.6719H26.3115V10.9834H24.3154Z" fill="#D8D8D8"/>
</svg>
