<svg width="40" height="43" viewBox="0 0 40 43" fill="none" xmlns="http://www.w3.org/2000/svg">
<path fill-rule="evenodd" clip-rule="evenodd" d="M-0.000341415 21.7555C-0.000341415 10.1318 8.95378 0.708984 19.9989 0.708984C31.0441 0.708984 39.9982 10.1318 39.9982 21.7555C39.9982 33.3792 31.0441 42.802 19.9989 42.802C8.95378 42.802 -0.000341415 33.3792 -0.000341415 21.7555ZM16.9119 29.4476L26.9116 22.8706C27.2769 22.6298 27.4991 22.2084 27.4991 21.755C27.4991 21.3016 27.2769 20.8802 26.9116 20.6393L16.9119 14.0623C16.5266 13.8086 16.0407 13.7945 15.6434 14.0276C15.2461 14.2594 14.9995 14.6995 14.9995 15.1779V28.332C14.9995 28.8105 15.2461 29.2505 15.6434 29.4823C15.8323 29.5928 16.041 29.6474 16.2495 29.6474C16.4795 29.6474 16.7096 29.5806 16.9119 29.4476Z" fill="white"/>
</svg>
