<svg width="42" height="32" viewBox="0 0 42 32" fill="none" xmlns="http://www.w3.org/2000/svg">
<rect width="3" height="15" transform="matrix(-0.707107 -0.707107 -0.707107 0.707107 12.8633 2.25739)" fill="#D8D8D8"/>
<rect x="0.136719" y="21.2574" width="3" height="15" transform="rotate(-45 0.136719 21.2574)" fill="#D8D8D8"/>
<path d="M17.9287 12.5557C16.8691 12.5557 16.0557 13.0889 15.6592 13.9502H15.6182V12.6719H13.6494V22.3926H15.6455V18.7695H15.6865C16.0762 19.5967 16.8965 20.1162 17.9629 20.1162C19.7949 20.1162 20.9297 18.6943 20.9297 16.3359C20.9297 13.9707 19.7881 12.5557 17.9287 12.5557ZM17.2588 18.5098C16.2812 18.5098 15.6387 17.6621 15.6387 16.3359C15.6387 15.0234 16.2812 14.1553 17.2588 14.1553C18.2568 14.1553 18.8857 15.0098 18.8857 16.3359C18.8857 17.6689 18.2568 18.5098 17.2588 18.5098ZM21.9619 20H23.958V15.9053C23.958 14.873 24.5322 14.2715 25.5166 14.2715C25.8037 14.2715 26.0771 14.3193 26.2412 14.3877V12.6309C26.1045 12.5898 25.9062 12.5557 25.6738 12.5557C24.8125 12.5557 24.1904 13.0615 23.9307 13.9912H23.8896V12.6719H21.9619V20ZM30.1035 13.9912C30.9922 13.9912 31.6006 14.6338 31.6416 15.5703H28.5312C28.5996 14.6543 29.2285 13.9912 30.1035 13.9912ZM31.6689 17.7578C31.4844 18.3184 30.9238 18.6807 30.1924 18.6807C29.1738 18.6807 28.5107 17.9629 28.5107 16.917V16.7939H33.5625V16.1855C33.5625 13.957 32.2158 12.5146 30.083 12.5146C27.916 12.5146 26.5488 14.0322 26.5488 16.3701C26.5488 18.7148 27.9023 20.1572 30.1582 20.1572C31.9697 20.1572 33.2822 19.1934 33.501 17.7578H31.6689ZM41.1846 12.6719H39.0996L37.582 18.2363H37.541L36.0166 12.6719H33.877L36.4131 20H38.6689L41.1846 12.6719Z" fill="#D8D8D8"/>
</svg>
