<svg width="152" height="171" viewBox="0 0 152 171" fill="none" xmlns="http://www.w3.org/2000/svg">
<path d="M127.23 62.1266L127.73 62.9927L127.23 62.1266ZM81.9315 88.2796L81.4315 87.4136L81.4314 87.4137L81.9315 88.2796ZM69.7225 88.2796L70.2227 87.4137L70.2225 87.4136L69.7225 88.2796ZM24.4225 62.1266L23.9225 62.9927L23.9225 62.9927L24.4225 62.1266ZM24.4225 40.9796L23.9225 40.1136L23.9224 40.1136L24.4225 40.9796ZM69.7225 14.8266L70.2225 15.6927L70.2225 15.6926L69.7225 14.8266ZM81.9315 14.8266L82.4315 13.9606L82.4314 13.9606L81.9315 14.8266ZM127.23 40.9796L127.731 40.1136L127.73 40.1136L127.23 40.9796ZM144.088 38.3806L143.588 39.2466L143.589 39.2467L144.088 38.3806ZM82.3915 2.75863L82.8915 1.89261L82.8914 1.89253L82.3915 2.75863ZM69.2625 2.75863L68.7625 1.89258L68.7625 1.8926L69.2625 2.75863ZM7.56349 38.3806L8.06346 39.2467L8.06349 39.2467L7.56349 38.3806ZM7.56349 132.363L8.06348 131.497L8.06346 131.497L7.56349 132.363ZM69.2625 167.984L69.7626 167.118L69.7625 167.118L69.2625 167.984ZM82.3915 167.984L81.8915 167.118L81.8914 167.118L82.3915 167.984ZM144.088 132.363L143.589 131.497L143.588 131.497L144.088 132.363ZM126.73 61.2606L81.4315 87.4136L82.4315 89.1457L127.73 62.9927L126.73 61.2606ZM81.4314 87.4137C77.9628 89.417 73.6902 89.4169 70.2227 87.4137L69.2223 89.1455C73.3088 91.5064 78.3442 91.5063 82.4316 89.1456L81.4314 87.4137ZM70.2225 87.4136L24.9225 61.2606L23.9225 62.9927L69.2225 89.1457L70.2225 87.4136ZM24.9225 61.2606C17.4502 56.9465 17.4501 46.1607 24.9226 41.8456L23.9224 40.1136C15.1169 45.1985 15.1167 57.9087 23.9225 62.9927L24.9225 61.2606ZM24.9225 41.8457L70.2225 15.6927L69.2225 13.9606L23.9225 40.1136L24.9225 41.8457ZM70.2225 15.6926C73.6901 13.6903 77.9629 13.6903 81.4315 15.6927L82.4314 13.9606C78.3441 11.601 73.3089 11.6009 69.2224 13.9606L70.2225 15.6926ZM81.4315 15.6927L126.73 41.8457L127.73 40.1136L82.4315 13.9606L81.4315 15.6927ZM126.73 41.8456C134.203 46.1607 134.203 56.9465 126.73 61.2606L127.73 62.9927C136.536 57.9087 136.536 45.1985 127.731 40.1136L126.73 41.8456ZM144.589 37.5146L82.8915 1.89261L81.8915 3.62465L143.588 39.2466L144.589 37.5146ZM82.8914 1.89253C78.5191 -0.630985 73.1339 -0.631046 68.7625 1.89258L69.7625 3.62467C73.515 1.4583 78.1379 1.45824 81.8916 3.62472L82.8914 1.89253ZM68.7625 1.8926L7.06349 37.5146L8.06349 39.2467L69.7625 3.62465L68.7625 1.8926ZM7.06352 37.5146C2.6919 40.0383 0.000488281 44.7026 0.000488281 49.7506H2.00049C2.00049 45.4167 4.31107 41.4129 8.06346 39.2467L7.06352 37.5146ZM0.000488281 49.7506V120.993H2.00049V49.7506H0.000488281ZM0.000488281 120.993C0.000488281 126.041 2.69191 130.705 7.06352 133.229L8.06346 131.497C4.31107 129.33 2.00049 125.327 2.00049 120.993H0.000488281ZM7.0635 133.229L68.7625 168.85L69.7625 167.118L8.06348 131.497L7.0635 133.229ZM68.7624 168.85C73.1339 171.374 78.5191 171.374 82.8915 168.85L81.8914 167.118C78.1378 169.285 73.5151 169.285 69.7626 167.118L68.7624 168.85ZM82.8915 168.85L144.588 133.229L143.588 131.497L81.8915 167.118L82.8915 168.85ZM144.588 133.229C148.96 130.705 151.653 126.041 151.653 120.993H149.653C149.653 125.326 147.341 129.33 143.589 131.497L144.588 133.229ZM151.653 120.993V49.7506H149.653V120.993H151.653ZM151.653 49.7506C151.653 44.7023 148.96 40.0382 144.588 37.5146L143.589 39.2467C147.341 41.4131 149.653 45.417 149.653 49.7506H151.653Z" fill="#4EAD88"/>
<path d="M109.558 62.1959L79.8322 45.0339C77.3532 43.6029 74.2992 43.6029 71.8212 45.0339L42.0952 62.1959" stroke="#4EAD88" stroke-width="2"/>
<path d="M75.8267 102V156.857" stroke="#4EAD88" stroke-width="2"/>
</svg>
