<svg width="197" height="132" viewBox="0 0 197 132" fill="none" xmlns="http://www.w3.org/2000/svg">
<path fill-rule="evenodd" clip-rule="evenodd" d="M164.288 67.3692C164.275 67.3692 164.262 67.3702 164.249 67.3702C164.262 66.8432 164.288 66.3192 164.288 65.7892C164.288 30.0072 135.281 1.00024 99.5005 1.00024C71.1395 1.00024 47.0515 19.2312 38.2725 44.6072C17.2215 47.4942 1.00049 65.5402 1.00049 87.3862C1.00049 111.24 20.3385 130.578 44.1925 130.578H164.288C181.743 130.578 195.892 116.428 195.892 98.9732C195.892 81.5182 181.743 67.3692 164.288 67.3692Z" stroke="#4EAD88" stroke-width="2"/>
<path d="M98.7461 67.4915V94.7905" stroke="#4EAD88" stroke-width="2"/>
<path d="M83.6733 67.4915L98.7463 52.4185L113.819 67.4915" stroke="#4EAD88" stroke-width="2"/>
</svg>
