<svg width="48" height="48" viewBox="0 0 48 48" fill="none" xmlns="http://www.w3.org/2000/svg">
<path d="M40.7754 40.7766C31.4754 50.0766 16.2754 50.0766 6.97539 40.7766C-2.32461 31.4766 -2.32461 16.2766 6.97539 6.97656" fill="#637686"/>
<path d="M6.97696 6.975C16.277 -2.325 31.477 -2.325 40.777 6.975C50.077 16.275 50.077 31.475 40.777 40.775" fill="url(#paint0_linear)" fill-opacity="0.8"/>
<path d="M4.47852 23.8756C4.47852 13.1756 13.1785 4.47559 23.8785 4.47559C34.5785 4.47559 43.2785 13.1756 43.2785 23.8756C43.2785 34.5756 34.5785 43.2756 23.8785 43.2756C13.1785 43.2756 4.47852 34.5756 4.47852 23.8756Z" fill="#FBFBFB"/>
<path d="M8.07617 23.8762C8.07617 15.1762 15.1762 8.07617 23.8762 8.07617C32.5762 8.07617 39.6762 15.1762 39.6762 23.8762C39.6762 32.5762 32.5762 39.6762 23.8762 39.6762C15.1762 39.6762 8.07617 32.5762 8.07617 23.8762Z" fill="url(#paint1_linear)" fill-opacity="0.8"/>
<path d="M23.8777 23.8762V8.07617C32.5777 8.07617 39.6777 15.1762 39.6777 23.8762C39.6777 32.5762 32.5777 39.6762 23.8777 39.6762C19.4777 39.6762 15.5777 37.8762 12.6777 35.0762" fill="#637686"/>
<defs>
<linearGradient id="paint0_linear" x1="27.3645" y1="0.650047" x2="27.3645" y2="39.7689" gradientUnits="userSpaceOnUse">
<stop stop-color="#16F1C2"/>
<stop offset="0.953125" stop-color="#01BD95"/>
</linearGradient>
<linearGradient id="paint1_linear" x1="8.57995" y1="23.8762" x2="38.8965" y2="23.8762" gradientUnits="userSpaceOnUse">
<stop stop-color="#00E8B6"/>
<stop offset="0.953125" stop-color="#01BD95"/>
</linearGradient>
</defs>
</svg>
