<svg width="35" height="120" viewBox="0 0 35 120" fill="none" xmlns="http://www.w3.org/2000/svg">
<path d="M26.2929 118.851C26.6834 119.241 27.3166 119.241 27.7071 118.851L34.0711 112.487C34.4616 112.096 34.4616 111.463 34.0711 111.073C33.6805 110.682 33.0474 110.682 32.6569 111.073L27 116.73L21.3431 111.073C20.9526 110.682 20.3195 110.682 19.9289 111.073C19.5384 111.463 19.5384 112.096 19.9289 112.487L26.2929 118.851ZM26 1.37598L26 118.144L28 118.144L28 1.37598L26 1.37598Z" fill="#999999" fill-opacity="0.3"/>
<path d="M8.70711 0.667656C8.31658 0.27713 7.68342 0.27713 7.29289 0.667656L0.928933 7.03162C0.538409 7.42214 0.538409 8.05531 0.928933 8.44583C1.31946 8.83636 1.95262 8.83636 2.34315 8.44583L8 2.78898L13.6569 8.44583C14.0474 8.83636 14.6805 8.83636 15.0711 8.44583C15.4616 8.05531 15.4616 7.42214 15.0711 7.03162L8.70711 0.667656ZM9 118.143L9 1.37476L7 1.37476L7 118.143L9 118.143Z" fill="#999999" fill-opacity="0.3"/>
</svg>
