<svg width="20" height="20" viewBox="0 0 20 20" fill="none" xmlns="http://www.w3.org/2000/svg">
<circle cx="10" cy="10" r="10" fill="white"/>
<path d="M13.9703 10.361C13.9506 9.51425 13.6208 8.86441 12.9709 8.36718C12.8183 8.24903 12.6903 8.23918 12.5278 8.33764C11.8583 8.73148 11.1789 9.11056 10.5045 9.5044C9.49032 10.1001 8.48109 10.7007 7.46695 11.3013C7.25525 11.4244 7.03864 11.5425 6.83187 11.6804C6.03926 12.1924 5.76357 13.2804 6.22141 14.0632C6.73341 14.9395 7.76725 15.2841 8.63371 14.8213C9.51494 14.3487 10.3715 13.8367 11.238 13.3395C11.75 13.0441 12.2669 12.7585 12.7691 12.4533C13.5617 11.9758 13.9555 11.257 13.9703 10.361Z" fill="#01C4FF"/>
<path d="M9.13609 10.3076C9.10163 10.3224 8.49609 10.6965 8.49609 10.6965L12.7742 12.4541L9.13609 10.3076Z" fill="#0397FE"/>
<path d="M13.9996 10.3118C13.9799 11.1586 13.6501 11.8084 13.0002 12.3056C12.8476 12.4238 12.7738 12.4533 12.7738 12.4533C12.1042 12.0595 11.2033 11.5573 10.5338 11.1635C9.51962 10.5678 8.51039 9.96717 7.49624 9.36656C7.28455 9.24348 7.06794 9.12533 6.86117 8.98748C6.06856 8.47549 5.79287 7.38749 6.25071 6.60473C6.76271 5.72842 7.79655 5.38381 8.66301 5.84658C9.54423 6.31919 10.4008 6.83119 11.2673 7.32842C11.7793 7.6238 12.2962 7.90934 12.7984 8.21457C13.591 8.70195 13.9799 9.42071 13.9996 10.3118Z" fill="#FF4176"/>
</svg>
