<svg width="20" height="20" viewBox="0 0 20 20" fill="none" xmlns="http://www.w3.org/2000/svg">
<path d="M9.92277 19.8577C15.403 19.8577 19.8455 15.4124 19.8455 9.92885C19.8455 4.4453 15.403 0 9.92277 0C4.44257 0 0 4.4453 0 9.92885C0 15.4124 4.44257 19.8577 9.92277 19.8577Z" fill="white"/>
<path d="M15.5568 7.11292C15.1316 7.30159 14.6741 7.4292 14.1944 7.48619C14.6842 7.19257 15.0601 6.72796 15.2375 6.17345C14.7792 6.44549 14.2714 6.64283 13.7314 6.7492C13.2987 6.28814 12.6823 6 11.9997 6C10.69 6 9.62786 7.06283 9.62786 8.37327C9.62786 8.55929 9.64891 8.74035 9.68959 8.91416C7.71841 8.81522 5.97064 7.87044 4.80073 6.43416C4.59661 6.7846 4.47951 7.19257 4.47951 7.62743C4.47951 8.45062 4.89855 9.17735 5.53462 9.60283C5.14601 9.59062 4.78004 9.48389 4.46041 9.30566C4.46023 9.31575 4.46023 9.32584 4.46023 9.33575C4.46023 10.4857 5.27814 11.4448 6.36296 11.6627C6.16414 11.7172 5.95419 11.746 5.73821 11.746C5.58503 11.746 5.43663 11.7313 5.29194 11.7037C5.5937 12.6464 6.46944 13.3326 7.50757 13.3519C6.69568 13.9885 5.67312 14.3678 4.56159 14.3678C4.37055 14.3678 4.18129 14.3566 3.99609 14.3345C5.04518 15.0081 6.29221 15.4009 7.63156 15.4009C11.9942 15.4009 14.38 11.7846 14.38 8.64814C14.38 8.54531 14.3777 8.44283 14.3731 8.34124C14.8369 8.00673 15.2389 7.58885 15.5568 7.11292Z" fill="#1DA1F2"/>
</svg>
