<svg width="20" height="20" viewBox="0 0 20 20" fill="none" xmlns="http://www.w3.org/2000/svg">
<circle cx="10" cy="10" r="10" fill="#454545"/>
<path d="M14.794 7.44519C14.6787 7.0168 14.3409 6.67912 13.9126 6.56377C13.1301 6.34961 9.9999 6.34961 9.9999 6.34961C9.9999 6.34961 6.8698 6.34961 6.08726 6.5556C5.66719 6.67088 5.3212 7.01687 5.20592 7.44519C5 8.22765 5 9.85042 5 9.85042C5 9.85042 5 11.4813 5.20592 12.2557C5.32127 12.684 5.65895 13.0217 6.08734 13.1371C6.87804 13.3512 9.99998 13.3512 9.99998 13.3512C9.99998 13.3512 13.1301 13.3512 13.9126 13.1452C14.341 13.03 14.6787 12.6922 14.794 12.2639C15 11.4813 15 9.85866 15 9.85866C15 9.85866 15.0082 8.22765 14.794 7.44519Z" fill="white"/>
<path d="M9.00391 11.3499L11.6068 9.85074L9.00391 8.35156V11.3499Z" fill="#454545"/>
</svg>
