<svg width="20" height="20" viewBox="0 0 20 20" fill="none" xmlns="http://www.w3.org/2000/svg">
<circle cx="10" cy="10" r="10" fill="#454545"/>
<path d="M13.9703 10.36C13.9506 9.51327 13.6208 8.86343 12.9709 8.3662C12.8183 8.24805 12.6903 8.2382 12.5278 8.33666C11.8583 8.73051 11.1789 9.10958 10.5045 9.50343C9.49032 10.0991 8.48109 10.6997 7.46695 11.3003C7.25525 11.4234 7.03864 11.5416 6.83187 11.6794C6.03926 12.1914 5.76357 13.2794 6.22141 14.0622C6.73341 14.9385 7.76725 15.2831 8.63371 14.8203C9.51494 14.3477 10.3715 13.8357 11.238 13.3385C11.75 13.0431 12.2669 12.7576 12.7691 12.4523C13.5617 11.9748 13.9555 11.256 13.9703 10.36Z" fill="white"/>
<path d="M9.13511 10.3066C9.10065 10.3214 8.49512 10.6956 8.49512 10.6956L12.7733 12.4531L9.13511 10.3066Z" fill="#DBDBDB"/>
<path d="M13.9996 10.3118C13.9799 11.1586 13.6501 11.8084 13.0002 12.3056C12.8476 12.4238 12.7738 12.4533 12.7738 12.4533C12.1042 12.0595 11.2033 11.5573 10.5338 11.1635C9.51962 10.5678 8.51039 9.96717 7.49624 9.36656C7.28455 9.24348 7.06794 9.12533 6.86117 8.98748C6.06856 8.47549 5.79287 7.38749 6.25071 6.60473C6.76271 5.72842 7.79655 5.38381 8.66301 5.84658C9.54423 6.31919 10.4008 6.83119 11.2673 7.32842C11.7793 7.6238 12.2962 7.90934 12.7984 8.21457C13.591 8.70195 13.9799 9.42071 13.9996 10.3118Z" fill="white"/>
</svg>
