<svg width="49" height="48" viewBox="0 0 49 48" fill="none" xmlns="http://www.w3.org/2000/svg">
<g clip-path="url(#clip0)">
<path d="M23.2227 48V35.2915H48.4379V48H23.2227Z" fill="#00D7B4"/>
<path d="M48.4199 30.5337V17.8252L0.107502 17.8252V30.5337L48.4199 30.5337Z" fill="#1F2832"/>
<path d="M25.2148 12.7085L25.2148 0L-0.000411987 0L-0.000411987 12.7085L25.2148 12.7085Z" fill="#1F2832"/>
<path d="M7.58971 9.97482C9.53935 9.97482 11.1198 8.39433 11.1198 6.44469C11.1198 4.49505 9.53935 2.91455 7.58971 2.91455C5.64007 2.91455 4.05957 4.49505 4.05957 6.44469C4.05957 8.39433 5.64007 9.97482 7.58971 9.97482Z" fill="white"/>
<path d="M17.6756 9.97433C19.6253 9.97433 21.2058 8.39384 21.2058 6.4442C21.2058 4.49456 19.6253 2.91406 17.6756 2.91406C15.726 2.91406 14.1455 4.49456 14.1455 6.4442C14.1455 8.39384 15.726 9.97433 17.6756 9.97433Z" fill="#00D7B4"/>
</g>
<defs>
<clipPath id="clip0">
<rect width="48.4378" height="48.0001" fill="white"/>
</clipPath>
</defs>
</svg>
