<svg width="49" height="48" viewBox="0 0 49 48" fill="none" xmlns="http://www.w3.org/2000/svg">
<mask id="mask0" mask-type="alpha" maskUnits="userSpaceOnUse" x="0" y="0" width="49" height="48">
<path d="M24.2 47.8C37.5653 47.8 48.4 37.0996 48.4 23.9C48.4 10.7004 37.5653 0 24.2 0C10.8347 0 0 10.7004 0 23.9C0 37.0996 10.8347 47.8 24.2 47.8Z" fill="#63636E"/>
</mask>
<g mask="url(#mask0)">
<path fill-rule="evenodd" clip-rule="evenodd" d="M16.7322 1.15911C17.0544 2.06827 17.1176 3.0802 16.8565 4.08403C16.1615 6.75653 13.4315 8.35958 10.759 7.66453C9.69771 7.38851 8.80505 6.79156 8.15801 6.00474C4.34847 9.33815 1.61105 13.8398 0.521267 18.9414C0.605306 18.9588 0.689352 18.9784 0.773342 19.0002C3.44585 19.6952 5.04889 22.4252 4.35384 25.0977C3.85598 27.012 2.31407 28.3776 0.49707 28.7429C1.57227 33.902 4.33093 38.454 8.18099 41.8144C9.38303 40.3836 11.3419 39.688 13.2709 40.1897C15.9434 40.8847 17.5465 43.6146 16.8514 46.2872C16.8199 46.4083 16.7842 46.5272 16.7445 46.6439C19.093 47.3941 21.5985 47.7995 24.1999 47.7995C26.8716 47.7995 29.4422 47.3719 31.8453 46.5823C31.5477 45.6944 31.4958 44.7128 31.7491 43.7389C32.4441 41.0664 35.1741 39.4634 37.8466 40.1584C38.8544 40.4205 39.7102 40.972 40.348 41.7008C44.1031 38.3761 46.8002 33.9094 47.8793 28.8538C47.651 28.8272 47.4218 28.7846 47.1931 28.7251C44.5206 28.03 42.9176 25.3001 43.6126 22.6276C44.147 20.5728 45.8843 19.1503 47.8735 18.9183C46.7906 13.8737 44.0963 9.41693 40.3478 6.09812C39.1402 7.46819 37.2232 8.12437 35.335 7.63328C32.6624 6.93823 31.0594 4.20828 31.7545 1.53578C31.7825 1.428 31.8138 1.32197 31.8483 1.21775C29.4443 0.427456 26.8727 -0.000488281 24.1999 -0.000488281C21.5939 -0.000488281 19.0842 0.406308 16.7322 1.15911Z" fill="url(#paint0_linear)"/>
<path d="M24.2 36.9993C31.4902 36.9993 37.4 31.1342 37.4 23.8993C37.4 16.6644 31.4902 10.7993 24.2 10.7993C16.9098 10.7993 11 16.6644 11 23.8993C11 31.1342 16.9098 36.9993 24.2 36.9993Z" fill="white"/>
<path d="M24.1998 33.6996C29.6674 33.6996 34.0998 29.312 34.0998 23.8996C34.0998 18.4872 29.6674 14.0996 24.1998 14.0996C18.7322 14.0996 14.2998 18.4872 14.2998 23.8996C14.2998 29.312 18.7322 33.6996 24.1998 33.6996Z" fill="#1F2832"/>
</g>
<defs>
<linearGradient id="paint0_linear" x1="1.25245" y1="23.8995" x2="46.7102" y2="23.8995" gradientUnits="userSpaceOnUse">
<stop stop-color="#0BF5C4"/>
<stop offset="1" stop-color="#03C89E"/>
</linearGradient>
</defs>
</svg>
