<svg width="48" height="48" viewBox="0 0 48 48" fill="none" xmlns="http://www.w3.org/2000/svg">
<mask id="mask0" mask-type="alpha" maskUnits="userSpaceOnUse" x="0" y="0" width="48" height="48">
<circle cx="24" cy="24" r="24" fill="#C4C4C4"/>
</mask>
<g mask="url(#mask0)">
<path d="M40.8401 6.89969L23.9404 -10L-10.0004 23.9408L6.89932 40.8405L40.8401 6.89969Z" fill="#1F2832"/>
<path d="M40.8916 6.91748C40.8916 6.91748 23.8916 23.8175 23.8916 23.9175L6.8916 40.9175L23.7916 57.8175L57.6916 23.9175L40.8916 6.91748Z" fill="url(#paint0_linear)"/>
<path d="M24.0918 36.3184C30.7192 36.3184 36.0918 30.9458 36.0918 24.3184C36.0918 17.6909 30.7192 12.3184 24.0918 12.3184C17.4644 12.3184 12.0918 17.6909 12.0918 24.3184C12.0918 30.9458 17.4644 36.3184 24.0918 36.3184Z" fill="white"/>
<path d="M48.6557 44.0058L26.1699 21.52L20.301 27.389L42.7868 49.8747L48.6557 44.0058Z" fill="#1F2832"/>
<path d="M20.3918 27.5174L-1.9082 5.21739L3.9918 -0.682617L26.2918 21.6174L20.3918 27.5174Z" fill="url(#paint1_linear)"/>
</g>
<defs>
<linearGradient id="paint0_linear" x1="7.70147" y1="32.3674" x2="56.4382" y2="32.3674" gradientUnits="userSpaceOnUse">
<stop stop-color="#0BF5C4"/>
<stop offset="1" stop-color="#03C89E"/>
</linearGradient>
<linearGradient id="paint1_linear" x1="-1.45863" y1="13.4174" x2="25.596" y2="13.4174" gradientUnits="userSpaceOnUse">
<stop stop-color="#0BF5C4"/>
<stop offset="1" stop-color="#03C89E"/>
</linearGradient>
</defs>
</svg>
