<svg width="49" height="49" viewBox="0 0 49 49" fill="none" xmlns="http://www.w3.org/2000/svg">
<path d="M48.3716 1.01562H0.371582V8.35446H48.3716V1.01562Z" fill="url(#paint0_linear)"/>
<path d="M48.3716 14.5078H0.371582V21.8466H48.3716V14.5078Z" fill="url(#paint1_linear)"/>
<path d="M48.3716 27.8965H0.371582V35.2353H48.3716V27.8965Z" fill="url(#paint2_linear)"/>
<path d="M48.3716 41.2852H0.371582V48.624H48.3716V41.2852Z" fill="url(#paint3_linear)"/>
<path d="M48.3719 48.8203C34.8593 48.8203 23.9685 38.1096 23.9685 24.8203C23.9685 11.5311 34.8593 0.820312 48.3719 0.820312" fill="#637786"/>
<path d="M8.33797 1.01562H0.371582V8.35446H8.33797V1.01562Z" fill="#637786"/>
<path d="M8.33797 14.5078H0.371582V21.8466H8.33797V14.5078Z" fill="#637786"/>
<path d="M8.33797 27.8984H0.371582V35.2373H8.33797V27.8984Z" fill="#637786"/>
<path d="M8.33797 41.2852H0.371582V48.624H8.33797V41.2852Z" fill="#637786"/>
<defs>
<linearGradient id="paint0_linear" x1="1.13681" y1="4.68504" x2="47.1872" y2="4.68504" gradientUnits="userSpaceOnUse">
<stop stop-color="#00F2D5"/>
<stop offset="0.953125" stop-color="#01BD95"/>
</linearGradient>
<linearGradient id="paint1_linear" x1="1.13681" y1="18.1772" x2="47.1872" y2="18.1772" gradientUnits="userSpaceOnUse">
<stop stop-color="#00F2D5"/>
<stop offset="0.953125" stop-color="#01BD95"/>
</linearGradient>
<linearGradient id="paint2_linear" x1="1.13681" y1="31.5659" x2="47.1872" y2="31.5659" gradientUnits="userSpaceOnUse">
<stop stop-color="#00F2D5"/>
<stop offset="0.953125" stop-color="#01BD95"/>
</linearGradient>
<linearGradient id="paint3_linear" x1="1.13681" y1="44.9546" x2="47.1872" y2="44.9546" gradientUnits="userSpaceOnUse">
<stop stop-color="#00F2D5"/>
<stop offset="0.953125" stop-color="#01BD95"/>
</linearGradient>
</defs>
</svg>
