<svg width="49" height="49" viewBox="0 0 49 49" fill="none" xmlns="http://www.w3.org/2000/svg">
<mask id="mask0" mask-type="alpha" maskUnits="userSpaceOnUse" x="0" y="0" width="49" height="49">
<path d="M24.1997 48.9277C37.4545 48.9277 48.1997 38.1826 48.1997 24.9277C48.1997 11.6729 37.4545 0.927734 24.1997 0.927734C10.9449 0.927734 0.199707 11.6729 0.199707 24.9277C0.199707 38.1826 10.9449 48.9277 24.1997 48.9277Z" fill="#63636E"/>
</mask>
<g mask="url(#mask0)">
<path d="M24.1997 48.9277C37.4545 48.9277 48.1997 38.1826 48.1997 24.9277C48.1997 11.6729 37.4545 0.927734 24.1997 0.927734C10.9449 0.927734 0.199707 11.6729 0.199707 24.9277C0.199707 38.1826 10.9449 48.9277 24.1997 48.9277Z" fill="url(#paint0_linear)"/>
<path d="M13.4998 24.4277H7.2998V38.9277H13.4998V24.4277Z" fill="#637786"/>
<path d="M41.3997 13.9277H35.1997V28.4277H41.3997V13.9277Z" fill="#637786"/>
<path d="M22.8997 13.9277H16.6997V48.9277H22.8997V13.9277Z" fill="#637786"/>
<path d="M32.3997 18.8301H26.1997V48.7301H32.3997V18.8301Z" fill="#637786"/>
</g>
<defs>
<linearGradient id="paint0_linear" x1="0.964938" y1="24.9277" x2="47.0154" y2="24.9277" gradientUnits="userSpaceOnUse">
<stop stop-color="#00F2D5"/>
<stop offset="0.953125" stop-color="#01BD95"/>
</linearGradient>
</defs>
</svg>
