<svg width="49" height="49" viewBox="0 0 49 49" fill="none" xmlns="http://www.w3.org/2000/svg">
<path d="M24.6504 48.8203C37.9052 48.8203 48.6504 38.0751 48.6504 24.8203C48.6504 11.5655 37.9052 0.820312 24.6504 0.820312C11.3956 0.820312 0.650391 11.5655 0.650391 24.8203C0.650391 38.0751 11.3956 48.8203 24.6504 48.8203Z" fill="#637786"/>
<path d="M24.6504 0.820312C37.9504 0.820312 48.6504 11.5203 48.6504 24.8203C48.6504 38.1203 37.9504 48.8203 24.6504 48.8203" fill="url(#paint0_linear)"/>
<path d="M24.6502 36.0211C30.8358 36.0211 35.8502 31.0067 35.8502 24.8211C35.8502 18.6355 30.8358 13.6211 24.6502 13.6211C18.4646 13.6211 13.4502 18.6355 13.4502 24.8211C13.4502 31.0067 18.4646 36.0211 24.6502 36.0211Z" fill="white"/>
<path d="M24.6504 13.6211C30.8504 13.6211 35.8504 18.6211 35.8504 24.8211C35.8504 31.0211 30.8504 36.0211 24.6504 36.0211" fill="white"/>
<path d="M24.65 32.2219C28.7369 32.2219 32.05 28.9088 32.05 24.8219C32.05 20.735 28.7369 17.4219 24.65 17.4219C20.5631 17.4219 17.25 20.735 17.25 24.8219C17.25 28.9088 20.5631 32.2219 24.65 32.2219Z" fill="#637786"/>
<path d="M24.65 32.2219C20.55 32.2219 17.25 28.9219 17.25 24.8219C17.25 20.7219 20.55 17.4219 24.65 17.4219" fill="url(#paint1_linear)"/>
<defs>
<linearGradient id="paint0_linear" x1="25.033" y1="24.8203" x2="48.0582" y2="24.8203" gradientUnits="userSpaceOnUse">
<stop stop-color="#00F2D5"/>
<stop offset="0.953125" stop-color="#01BD95"/>
</linearGradient>
<linearGradient id="paint1_linear" x1="17.368" y1="24.8219" x2="24.4674" y2="24.8219" gradientUnits="userSpaceOnUse">
<stop stop-color="#00F2D5"/>
<stop offset="0.953125" stop-color="#01BD95"/>
</linearGradient>
</defs>
</svg>
