<svg width="48" height="49" viewBox="0 0 48 49" fill="none" xmlns="http://www.w3.org/2000/svg">
<mask id="mask0" mask-type="alpha" maskUnits="userSpaceOnUse" x="0" y="0" width="48" height="49">
<path d="M24 48.4277C37.2548 48.4277 48 37.6826 48 24.4277C48 11.1729 37.2548 0.427734 24 0.427734C10.7452 0.427734 0 11.1729 0 24.4277C0 37.6826 10.7452 48.4277 24 48.4277Z" fill="#63636E"/>
</mask>
<g mask="url(#mask0)">
<path d="M24 48.4277C37.2548 48.4277 48 37.6826 48 24.4277C48 11.1729 37.2548 0.427734 24 0.427734C10.7452 0.427734 0 11.1729 0 24.4277C0 37.6826 10.7452 48.4277 24 48.4277Z" fill="#637786"/>
<path d="M13.3001 23.9277H7.1001V38.4277H13.3001V23.9277Z" fill="url(#paint0_linear)"/>
<path d="M41.2 13.4277H35V27.9277H41.2V13.4277Z" fill="url(#paint1_linear)"/>
<path d="M22.7 13.4277H16.5V48.4277H22.7V13.4277Z" fill="url(#paint2_linear)"/>
<path d="M32.2 18.3301H26V48.2301H32.2V18.3301Z" fill="url(#paint3_linear)"/>
</g>
<defs>
<linearGradient id="paint0_linear" x1="7.19894" y1="31.1777" x2="13.1471" y2="31.1777" gradientUnits="userSpaceOnUse">
<stop stop-color="#00F2D5"/>
<stop offset="0.953125" stop-color="#01BD95"/>
</linearGradient>
<linearGradient id="paint1_linear" x1="35.0988" y1="20.6777" x2="41.047" y2="20.6777" gradientUnits="userSpaceOnUse">
<stop stop-color="#00F2D5"/>
<stop offset="0.953125" stop-color="#01BD95"/>
</linearGradient>
<linearGradient id="paint2_linear" x1="16.5988" y1="30.9277" x2="22.547" y2="30.9277" gradientUnits="userSpaceOnUse">
<stop stop-color="#00F2D5"/>
<stop offset="0.953125" stop-color="#01BD95"/>
</linearGradient>
<linearGradient id="paint3_linear" x1="26.0988" y1="33.2801" x2="32.047" y2="33.2801" gradientUnits="userSpaceOnUse">
<stop stop-color="#00F2D5"/>
<stop offset="0.953125" stop-color="#01BD95"/>
</linearGradient>
</defs>
</svg>
