<svg width="49" height="49" viewBox="0 0 49 49" fill="none" xmlns="http://www.w3.org/2000/svg">
<path d="M24.5137 0.927734H0.513672V48.9277H24.5137V0.927734Z" fill="#637786"/>
<path d="M48.5137 0.927734H24.5137V48.9277H48.5137V0.927734Z" fill="url(#paint0_linear)"/>
<path d="M24.5137 35.7748C30.6993 35.7748 35.7137 30.8527 35.7137 24.781C35.7137 18.7092 30.6993 13.7871 24.5137 13.7871C18.3281 13.7871 13.3137 18.7092 13.3137 24.781C13.3137 30.8527 18.3281 35.7748 24.5137 35.7748Z" fill="white"/>
<path d="M24.5137 13.7871C30.7137 13.7871 35.7137 18.6951 35.7137 24.781C35.7137 30.8669 30.7137 35.7748 24.5137 35.7748" fill="white"/>
<path d="M24.5138 32.0452C28.6007 32.0452 31.9138 28.7931 31.9138 24.7814C31.9138 20.7697 28.6007 17.5176 24.5138 17.5176C20.4269 17.5176 17.1138 20.7697 17.1138 24.7814C17.1138 28.7931 20.4269 32.0452 24.5138 32.0452Z" fill="#637786"/>
<path d="M24.5138 31.9475C20.4138 31.9475 17.1138 28.7083 17.1138 24.6837C17.1138 20.6592 20.4138 17.4199 24.5138 17.4199" fill="url(#paint1_linear)"/>
<defs>
<linearGradient id="paint0_linear" x1="24.8963" y1="24.9277" x2="47.9215" y2="24.9277" gradientUnits="userSpaceOnUse">
<stop stop-color="#00F2D5"/>
<stop offset="0.953125" stop-color="#01BD95"/>
</linearGradient>
<linearGradient id="paint1_linear" x1="17.2317" y1="24.6837" x2="24.3312" y2="24.6837" gradientUnits="userSpaceOnUse">
<stop stop-color="#00F2D5"/>
<stop offset="0.953125" stop-color="#01BD95"/>
</linearGradient>
</defs>
</svg>
