<svg width="48" height="48" viewBox="0 0 48 48" fill="none" xmlns="http://www.w3.org/2000/svg">
<path d="M48 24C48 10.7452 37.2548 -4.7956e-10 24 -1.07112e-09C10.7452 -1.66268e-09 3.81638e-06 10.7452 3.81578e-06 24C3.81518e-06 37.2548 10.7452 48 24 48C37.2548 48 48 37.2548 48 24Z" fill="#1F2832"/>
<path d="M18.0793 28.7174C12.6003 28.7174 8.15866 24.3034 8.15866 18.8584C8.15866 13.4135 12.6003 8.99951 18.0793 8.99951C23.5584 8.99951 28 13.4135 28 18.8584C28 24.3034 23.5584 28.7174 18.0793 28.7174Z" fill="white"/>
<path d="M30.0793 38.7174C24.6003 38.7174 20.1587 34.3034 20.1587 28.8584C20.1587 23.4135 24.6003 18.9995 30.0793 18.9995C35.5584 18.9995 40 23.4135 40 28.8584C40 34.3034 35.5584 38.7174 30.0793 38.7174Z" fill="url(#paint0_linear)"/>
<path d="M30 32.9995C27.7909 32.9995 26 31.2087 26 28.9995C26 26.7904 27.7909 24.9995 30 24.9995C32.2091 24.9995 34 26.7904 34 28.9995C34 31.2087 32.2091 32.9995 30 32.9995Z" fill="#1F2832"/>
<defs>
<linearGradient id="paint0_linear" x1="39.6837" y1="28.8584" x2="20.6482" y2="28.8584" gradientUnits="userSpaceOnUse">
<stop stop-color="#00F2D5"/>
<stop offset="0.953125" stop-color="#01BD95"/>
</linearGradient>
</defs>
</svg>
