<?xml version="1.0" encoding="utf-8"?><svg xmlns="http://www.w3.org/2000/svg" xmlns:xlink="http://www.w3.org/1999/xlink"><symbol fill="none" viewBox="0 0 15 11" id="bold_check" xmlns="http://www.w3.org/2000/svg"><path d="M14.75 2.34a.866.866 0 00-.25-.608L13.284.518a.866.866 0 00-1.215 0L6.213 6.384 3.588 3.75a.866.866 0 00-1.214 0L1.16 4.964a.866.866 0 000 1.215L4.392 9.41l1.214 1.214a.866.866 0 001.215 0L8.035 9.41l6.464-6.465c.16-.16.25-.384.25-.607z" fill="#01B68F"/></symbol><symbol fill="none" viewBox="0 0 24 18" id="check" xmlns="http://www.w3.org/2000/svg"><path d="M7.627 14.201l-5.69-5.597L0 10.497 7.627 18 24 1.893 22.076 0 7.627 14.201z" fill="#fff"/></symbol><symbol fill="none" viewBox="0 0 22 23" id="clip" xmlns="http://www.w3.org/2000/svg"><path d="M18.03 4.575a5.497 5.497 0 010 7.779l-7.424 7.424a3.999 3.999 0 01-5.657 0 3.999 3.999 0 010-5.657l6.01-6.01a2.5 2.5 0 013.536 3.535L9.192 16.95l-1.414-1.414 5.367-5.367c.389-.39-.319-1.096-.707-.708l-6.074 6.075a2.006 2.006 0 000 2.828c.777.778 2.05.778 2.828 0l7.425-7.425a3.504 3.504 0 000-4.95 3.504 3.504 0 00-4.95 0l-6.718 6.718-1.414-1.414 6.718-6.718a5.497 5.497 0 017.778 0z" fill="#4CAE89"/></symbol><symbol fill="none" viewBox="0 0 11 12" id="close" xmlns="http://www.w3.org/2000/svg"><path d="M10.62 9.09a.866.866 0 00-.25-.608L7.745 5.857l2.625-2.625a.866.866 0 000-1.214L9.156.804a.866.866 0 00-1.214 0L5.317 3.429 2.692.804a.866.866 0 00-1.215 0L.263 2.018a.866.866 0 000 1.214l2.625 2.625L.263 8.482a.866.866 0 000 1.214l1.214 1.215a.866.866 0 001.215 0l2.625-2.625 2.625 2.625a.866.866 0 001.214 0l1.214-1.215a.862.862 0 00.25-.607z" fill="#EE0064"/></symbol><symbol fill="none" viewBox="0 0 15 18" id="doc" xmlns="http://www.w3.org/2000/svg"><path fill-rule="evenodd" clip-rule="evenodd" d="M9 0l6 6v9.9a2.1 2.1 0 01-2.1 2.1H2.1A2.1 2.1 0 010 15.9V2.1C0 .94.94 0 2.1 0H9z" fill="#4CAE89"/><mask id="aea" maskUnits="userSpaceOnUse" x="0" y="0" width="15" height="18"><path fill-rule="evenodd" clip-rule="evenodd" d="M9 0l6 6v9.9a2.1 2.1 0 01-2.1 2.1H2.1A2.1 2.1 0 010 15.9V2.1C0 .94.94 0 2.1 0H9z" fill="#fff"/></mask><g mask="url(#aea)"><path fill-rule="evenodd" clip-rule="evenodd" d="M15 6h-3.794C10.046 6 9 4.954 9 3.794V0l6 6z" fill="#2C2929"/></g></symbol><symbol fill="none" viewBox="0 0 12 24" id="facebook" xmlns="http://www.w3.org/2000/svg"><path fill-rule="evenodd" clip-rule="evenodd" d="M7.478 23.738v-11.87h3.327l.44-4.091H7.478l.005-2.047c0-1.067.103-1.639 1.66-1.639h2.079V0H7.895C3.898 0 2.49 1.984 2.49 5.321v2.456H0v4.09h2.491v11.87h4.987z" fill="#fff"/></symbol><symbol fill="none" viewBox="0 0 15 9" id="gray_arrow" xmlns="http://www.w3.org/2000/svg"><path d="M7.021 8.638L.888 2.368a1.037 1.037 0 010-1.444.984.984 0 011.412 0l5.427 5.548L13.154.924a.984.984 0 011.413 0c.39.399.39 1.045 0 1.444l-6.134 6.27a.984.984 0 01-1.412 0z" fill="#383838" fill-opacity=".5"/></symbol><symbol fill="none" viewBox="0 0 117 117" id="icon1" xmlns="http://www.w3.org/2000/svg"><path fill-rule="evenodd" clip-rule="evenodd" d="M56.702 40.636c1.517-.406 2.895-.572 3.97-.352 1.96.49 3.32 2.158 3.905 4.337.914 3.413-.442 6.316-3.854 7.23l-7.772 2.083-3.073-11.47 6.824-1.828zm1.48 32.823l-3.504-13.08 8.53-2.286c3.982-1.067 7.062.953 7.984 4.77.736 2.748.164 5.543-1.857 7.1-.751.608-1.958 1.033-3 1.312l-8.152 2.184zm10.663 4.153l1.778 6.635-4.455 1.194-1.778-6.636-4.644 1.245 1.778 6.635-4.455 1.194-1.778-6.635-8.91 2.387-1.625-6.066 2.749-.736a2.534 2.534 0 001.803-3.125L42.122 46.88a2.533 2.533 0 00-3.125-1.804l-2.748.736-1.626-6.066 8.91-2.387-1.778-6.635 4.455-1.194 1.778 6.635 4.644-1.244-1.778-6.635 4.455-1.194 1.803 6.73c2.3-.515 4.178-.713 6.182-.438 4.387.45 8.127 3.41 9.447 8.34 1.118 4.17.136 8.09-2.888 10.83 5.36.291 8.683 3.972 9.928 8.617 1.505 5.996-1.308 11.423-5.64 14.21-1.744 1.076-3.4 1.723-5.295 2.23zm-56.697-8.377c6.654 24.833 32.253 39.613 57.087 32.959 24.833-6.654 39.613-32.253 32.958-57.087C95.539 20.274 69.941 5.495 45.107 12.15 20.273 18.803 5.494 44.4 12.148 69.235z" fill="#000"/></symbol><symbol fill="none" viewBox="0 0 74 78" id="icon1-wl" xmlns="http://www.w3.org/2000/svg"><path clip-rule="evenodd" d="M12.984 25.587a5.992 5.992 0 11-11.983.001 5.992 5.992 0 0111.983 0zM27.829 5.992a5.992 5.992 0 11-11.984 0 5.992 5.992 0 0111.984 0zm15.035 15.546a5.992 5.992 0 11-11.984.001 5.992 5.992 0 0111.984 0zM57.6 35.79a5.992 5.992 0 01-5.992 5.992 5.991 5.991 0 110-11.983A5.992 5.992 0 0157.6 35.79zm14.511-21.812a5.992 5.992 0 11-11.983 0 5.992 5.992 0 0111.983 0z" stroke="#4BAE89" stroke-width="2"/><path d="M21.837 77.977V11.984M6.992 31.58v6.34c0 3.044 1.21 5.962 3.36 8.112a11.473 11.473 0 013.361 8.114v23.83m29.663.001v-5.45c0-3.043 1.209-5.961 3.36-8.113l16.023-16.023a11.472 11.472 0 003.36-8.112V19.97m-29.194 7.966v18.973c0 3.043-1.208 5.961-3.36 8.112l-.608.607a11.478 11.478 0 00-3.36 8.113v14.236m22.011-36.195v36.195" stroke="#4BAE89" stroke-width="2"/></symbol><symbol fill="none" viewBox="0 0 60 99" id="icon2" xmlns="http://www.w3.org/2000/svg"><g fill-rule="evenodd" clip-rule="evenodd" fill="#000"><path d="M30.886.69L2.064 47.202l28.822-12.523v.016l27.38 12.507L30.886.69z"/><path d="M2.064 48.293l28.822-12.72 27.38 12.723-27.38 16.348-28.822-16.35z"/><path d="M30.886 71.25L2.064 54.47l28.822 39.244 27.38-39.245-27.38 16.78v.001zm27.38-24.048l-27.38-12.507V.69l27.38 46.512z"/><path d="M58.266 48.296l-27.38-12.722v29.07l27.38-16.348zm0 6.174l-27.38 16.779v22.465l27.38-39.245z"/></g></symbol><symbol fill="none" viewBox="0 0 94 62" id="icon2-wl" xmlns="http://www.w3.org/2000/svg"><path clip-rule="evenodd" d="M73.076 47.217H6.76A5.76 5.76 0 011 41.457V5.76A5.76 5.76 0 016.76 0h66.316a5.76 5.76 0 015.76 5.76v35.697a5.76 5.76 0 01-5.76 5.76z" stroke="#4BAE89" stroke-width="2"/><path d="M78.835 13.4h3.973a9.426 9.426 0 019.426 9.427V51.19a9.426 9.426 0 01-9.426 9.426H23.825a9.432 9.432 0 01-3.067-.51 9.43 9.43 0 01-6.36-8.916v-3.974M56.675 7.015h14.054-14.054M22.892 40.108H8.838h14.054" stroke="#4BAE89" stroke-width="2"/><path d="M29.767 29.287c0 3.183 4.545 5.762 10.15 5.762 5.608 0 10.153-2.579 10.153-5.762 0-8.434-20.303-3.462-20.303-11.523 0-3.182 4.545-5.762 10.15-5.762 5.608 0 10.153 2.58 10.153 5.762M39.918 7.22v4.782m0 23.048v4.947" stroke="#4BAE89" stroke-width="2"/></symbol><symbol fill="none" viewBox="0 0 90 99" id="icon3" xmlns="http://www.w3.org/2000/svg"><path fill-rule="evenodd" clip-rule="evenodd" d="M49.436 20.122c0 3.764 1.326 7.229 3.017 10.441 1.424 2.703 2.143 7.718-2.735 10.563-3.63 2.116-8.16.777-10.423-2.88-1.91-3.09-4.218-5.984-7.448-7.868-9.202-5.365-20.967-2.181-26.278 7.11a19.487 19.487 0 00-2.581 9.61c.03 6.86 3.477 13.348 9.621 16.93a19.07 19.07 0 0019.238 0c3.229-1.882 5.536-4.774 7.447-7.861 1.568-2.536 5.485-5.767 10.423-2.885 3.624 2.114 4.744 6.747 2.735 10.564-1.69 3.212-3.015 6.675-3.015 10.44 0 10.73 8.613 19.428 19.237 19.428 10.624 0 19.236-8.699 19.236-19.429 0-6.94-3.666-13.353-9.618-16.825-3.256-1.899-6.924-2.449-10.556-2.577-3.048-.108-7.595-2.08-7.595-7.68 0-4.172 3.349-7.529 7.597-7.678 3.632-.128 7.298-.68 10.554-2.578 9.201-5.365 12.354-17.247 7.042-26.54A19.196 19.196 0 0068.656.69c-3.265 0-6.571.84-9.6 2.606-5.953 3.471-9.62 9.885-9.62 16.826z" fill="#000"/></symbol><symbol fill="none" viewBox="0 0 86 80" id="icon3-wl" xmlns="http://www.w3.org/2000/svg"><path d="M77.527 1.415C77.527 44.038 42.973 78.59.35 78.59M70.233 8.707l7.293-7.292 7.292 7.292m-7.292 28.691V78.59M54.087 66.15v12.44" stroke="#4BAE89" stroke-width="2"/><mask id="ama" maskUnits="userSpaceOnUse" x="0" y="0" width="86" height="80"><path fill-rule="evenodd" clip-rule="evenodd" d="M0 79.59h85.526V0H0v79.59z" fill="#fff"/></mask><g mask="url(#ama)" stroke="#4BAE89" stroke-width="2"><path clip-rule="evenodd" d="M4.985 28.486H19.06v-13.82H4.985v13.82zm13.481 11.828h-7.249L7.19 28.487h7.25l4.026 11.827z"/><path d="M4.985 25.561a3.985 3.985 0 010-7.97"/><path clip-rule="evenodd" d="M19.059 13.8v15.553a35.471 35.471 0 0119.482 5.8V8a35.472 35.472 0 01-19.482 5.8z"/><path d="M42.493 21.214h6.791m-6.645-4.612l6.5-1.963m-6.5 11.189l6.5 1.963"/></g></symbol><symbol fill="none" viewBox="0 0 99 99" id="icon4" xmlns="http://www.w3.org/2000/svg"><path fill-rule="evenodd" clip-rule="evenodd" d="M47.556 93.714c25.688 0 46.512-20.824 46.512-46.512S73.244.69 47.556.69 1.044 21.514 1.044 47.202s20.824 46.512 46.512 46.512zm-14.016-46.8l-5.88 2.178L26 55.557l5.816-2.06-3.824 14.914h38.767l2.38-8.84h-23.88l2.968-12.015 6.545-2.374 1.538-6.556-6.154 2.246 4.84-18.972H40.2l-6.66 25.015z" fill="#000"/></symbol><symbol fill="none" viewBox="0 0 79 80" id="icon4-wl" xmlns="http://www.w3.org/2000/svg"><path d="M17.467 1H68.23a3.688 3.688 0 013.687 3.688v23.495M22.955 11.124V78.38h48.22v-7.004" stroke="#4BAE89" stroke-width="2"/><path d="M11.977 44.752V6.489a5.49 5.49 0 0110.978 0V64.08H6.488" stroke="#4BAE89" stroke-width="2"/><path clip-rule="evenodd" d="M1 17.065h10.978v43.284a3.732 3.732 0 01-3.732 3.732H4.731A3.731 3.731 0 011 60.349V17.065z" stroke="#4BAE89" stroke-width="2"/><path d="M33.321 12.506h28.786m-28.786 7.838h28.786" stroke="#4BAE89" stroke-width="2"/><mask id="aoa" maskUnits="userSpaceOnUse" x="0" y="-1" width="79" height="81"><path fill-rule="evenodd" clip-rule="evenodd" d="M0 79.379h78.897V-.001H0v79.38z" fill="#fff"/></mask><g mask="url(#aoa)" clip-rule="evenodd" stroke="#4BAE89" stroke-width="2"><path d="M47.713 71.376h30.183V28.184H47.713v43.192z"/><path d="M57.291 49.3a2.125 2.125 0 11-4.25 0 2.125 2.125 0 014.25 0zm8.004 0a2.124 2.124 0 11-4.251 0 2.126 2.126 0 014.25 0zm8.005 0a2.124 2.124 0 11-4.251 0 2.126 2.126 0 014.25 0zm-16.009 7.528a2.126 2.126 0 11-4.252 0 2.126 2.126 0 014.252 0zm8.004 0a2.125 2.125 0 11-4.25 0 2.125 2.125 0 014.25 0zm8.005 0a2.125 2.125 0 11-4.25 0 2.125 2.125 0 014.25 0zm-16.009 7.528a2.125 2.125 0 11-4.25 0 2.125 2.125 0 014.25 0zm8.004 0a2.124 2.124 0 11-4.251 0 2.126 2.126 0 014.25 0zm8.005 0a2.124 2.124 0 11-4.251 0 2.126 2.126 0 014.25 0zM53.118 41.46H73.3v-6.982H53.118v6.983z"/></g></symbol><symbol fill="none" viewBox="0 0 99 99" id="icon5" xmlns="http://www.w3.org/2000/svg"><path fill-rule="evenodd" clip-rule="evenodd" d="M49.302 93.714c25.688 0 46.512-20.824 46.512-46.512S74.99.69 49.302.69 2.79 21.514 2.79 47.202s20.824 46.512 46.512 46.512zM28.778 38.215c.044-.157.08-.312.13-.462.896-2.688 1.795-5.376 2.694-8.064.156-.468.157-.469.66-.469h26.615c4.856 0 9.71.004 14.566-.003 1.385-.002 2.668.36 3.868 1.026a4.196 4.196 0 011.545 1.498c.65 1.053.962 2.2 1.102 3.425.14 1.24-.084 2.393-.495 3.556-.563 1.588-1.036 3.207-1.547 4.813-1.307 4.105-2.606 8.21-3.925 12.31-.276.859-.73 1.642-1.159 2.434-.865 1.604-2.132 2.851-3.503 4.014-.999.847-2.135 1.476-3.26 2.131-1.03.6-2.157.848-3.315.988-.57.07-1.148.081-1.722.081-13.514.005-27.028.004-40.543.003-.196 0-.393-.013-.645-.021.036-.173.049-.304.09-.427.917-2.748 1.837-5.496 2.758-8.243.125-.374.13-.375.573-.375h36.864c.411-.002.413-.002.545-.404l2.836-8.688c.923-2.825 1.848-5.65 2.77-8.474.05-.15.086-.306.141-.508-.195-.012-.352-.029-.509-.029-2.565-.002-5.13-.001-7.696-.001-9.585 0-19.17 0-28.755-.002-.22 0-.45.042-.683-.109zM18.501 51.403c.054-.195.087-.348.14-.495.84-2.332 1.683-4.663 2.525-6.994l.227-.633c.052-.146.15-.22.31-.213.1.005.2 0 .3 0h21.151c.171 0 .342.015.566.024-.045.184-.07.327-.116.462a6433 6433 0 01-2.474 7.41c-.158.474-.16.475-.655.475h-20.44c-.374 0-.748.002-1.122-.002-.12 0-.24-.019-.412-.034z" fill="#000"/></symbol><symbol fill="none" viewBox="0 0 66 95" id="icon5-wl" xmlns="http://www.w3.org/2000/svg"><path clip-rule="evenodd" d="M57.544 62.366c0 7.345-5.955 13.3-13.3 13.3-7.346 0-13.3-5.955-13.3-13.3 0-7.346 5.954-13.3 13.3-13.3 7.345 0 13.3 5.954 13.3 13.3z" stroke="#4BAE89" stroke-width="2"/><path d="M36.937 73.215v19.102l7.308-7.307 7.305 7.307V73.215" stroke="#4BAE89" stroke-width="2"/><path d="M36.937 77.379H17.579C8.423 77.379 1 69.956 1 60.799V0h47.607l16.064 16.067V77.38H51.55" stroke="#4BAE89" stroke-width="2"/><path d="M64.671 16.065H48.607V0M14.884 26.417h35.903m-35.903 7.839h35.903m-35.903 7.838h35.903" stroke="#4BAE89" stroke-width="2"/></symbol><symbol fill="none" viewBox="0 0 78 96" id="icon6" xmlns="http://www.w3.org/2000/svg"><path d="M0 17.423L31.118 32.27v60.754L0 78.176V17.423zm45.7 10.303L77.42 16.06v60.905l-31.72-15v-34.24zM1.203 16.211L46.302 0l30.667 14.544L32.02 30.907 1.203 16.211z" fill-rule="evenodd" clip-rule="evenodd" fill="#000"/></symbol><symbol fill="none" viewBox="0 0 87 93" id="icon6-wl" xmlns="http://www.w3.org/2000/svg"><path d="M59.545 27.96l.97-.242-.122-.492-.469-.192-.38.925zm-6.815-7.844l1 .035.099-2.849-1.858 2.162.76.652zm-11.66 6.336l-.28-.96.28.96zm2.43 23.679v1h.001v-1zm42.034 39.332l.979-.203-.003-.017-.004-.016-.972.236zm-6.176-9.026l-.591.807.591-.807zm-4.819-2.968l-.49.871.49-.871zm-15.652-8.715l-.531.847.022.014.023.013.486-.874zm-2.175-1.849l.753-.657-.753.657zm-1.94-9.741l.99.14.266-1.871-1.697.833.44.898zm-16.035-.466l.336-.941-3.416-1.218 2.309 2.796.771-.637zm17.295-7.549l-.833-.553.833.553zm3.259-7.424v-1h-.777l-.192.752.969.248zm7.67 0h1v-1h-1v1zm-.385 5.594l-.705-.709.706.709zm-5.527 5.508l.704.71.001-.002-.705-.708zm1.85 1.842l-.706-.708.706.708zm6.488-6.463l.706.708-.706-.709zm-2.019-23.292l-.998-.06-.06.997.997.062.061-.999zm.046-1.415l1 .003v-.003h-1zM43.826 0v-1 1zM20.239 23.5h-1 1zm6.564 16.256l.964-.266-.067-.245-.176-.183-.72.694zm7.55 13.167h1v-.61l-.543-.28-.457.89zM29.321 68.07l.491.871.025-.014.024-.015-.54-.842zm-1.093.619l.486.874.002-.001-.488-.873zm-15.768 8.78l.49.872-.49-.872zm-4.82 2.968l-.59-.807.59.807zm-6.174 9.026l.972.237-.972-.237zM1 91.706l-.98-.202-.02.1v.102h1zM1 92H0v1h1v-1zm85 0v1h1v-1h-1zm0-.294h1v-.103l-.02-.1-.98.203zM61.19 33.992a33.284 33.284 0 00-.346-4.503 25.082 25.082 0 00-.297-1.638 8.91 8.91 0 00-.022-.094l-.007-.027-.002-.008v-.003l-.971.24-.97.242V28.2v.003l.004.016.017.073.065.305c.054.27.129.672.204 1.185.152 1.026.309 2.49.326 4.23l2-.02zm-1.266-6.958c-3.286-1.346-4.803-3.148-5.52-4.53a6.245 6.245 0 01-.608-1.744 4.267 4.267 0 01-.066-.599v-.019.008l-1-.034c-1-.035-1-.034-1-.033v.013a1.14 1.14 0 000 .088c0 .054.003.126.008.214.011.177.036.422.09.72.108.594.334 1.404.8 2.306.945 1.823 2.835 3.943 6.538 5.46l.758-1.85zm-7.194-6.918l-.758-.652.001-.002-.002.003-.02.022a9.909 9.909 0 01-.549.538 17.92 17.92 0 01-1.953 1.524c-1.795 1.224-4.616 2.762-8.66 3.944l.56 1.92c4.257-1.244 7.267-2.875 9.227-4.212a19.9 19.9 0 002.172-1.696 11.867 11.867 0 00.682-.671l.04-.044.011-.014.005-.005.001-.002h.001l-.758-.653zm-11.942 5.377c-7.87 2.3-14.53 2.107-15.715 2.05l-.097 1.998c1.302.063 8.208.257 16.373-2.129l-.56-1.92zm-3.49 23.196A9.076 9.076 0 0043.5 51.13l.001-2a7.08 7.08 0 01-4.843-1.909l-1.36 1.467zm6.203 2.442a9.077 9.077 0 006.2-2.441l-1.36-1.467A7.077 7.077 0 0143.5 49.13l.001 2zm43.005 38.096c-.98-4.031-3.285-7.2-6.557-9.597l-1.182 1.614c2.934 2.15 4.939 4.931 5.795 8.455l1.944-.472zm-6.557-9.597c-1.572-1.152-3.283-2.114-4.92-3.033l-.98 1.744c1.654.928 3.259 1.833 4.718 2.903l1.182-1.614zm-4.92-3.033c-5.206-2.93-10.44-5.818-15.656-8.717l-.972 1.748c5.223 2.903 10.448 5.786 15.648 8.712l.98-1.743zm-15.611-8.69a8.856 8.856 0 01-1.953-1.659l-1.506 1.315a10.855 10.855 0 002.397 2.038l1.062-1.695zm-1.953-1.66c-1.206-1.38-1.675-3.534-1.799-5.505a19.755 19.755 0 01.066-3.188 10.786 10.786 0 01.028-.239l.001-.01c0-.001 0-.001 0 0l-.99-.141-.99-.14v.007c-.002.005-.002.01-.003.018l-.009.063-.026.23a21.754 21.754 0 00-.073 3.527c.131 2.08.633 4.797 2.289 6.694l1.506-1.315zm-3.134-9.98c-5.373 2.637-9.12 2.473-11.46 1.758a8.522 8.522 0 01-2.598-1.288 6.03 6.03 0 01-.606-.511 3.412 3.412 0 01-.16-.167l-.003-.003.001.002.001.002h.001c0 .001.001.002-.77.638-.771.637-.77.638-.77.639h.001l.003.004.007.008a2.111 2.111 0 00.08.09c.05.056.122.13.214.22.184.18.453.42.808.684a10.521 10.521 0 003.206 1.594c2.893.884 7.163.954 12.926-1.876l-.881-1.795zM38.4 57.64c2.303.821 5.258 1.401 8.512.441 3.26-.962 6.662-3.424 9.952-8.379l-1.666-1.106c-3.107 4.678-6.16 6.772-8.852 7.567-2.7.796-5.194.335-7.274-.406L38.4 57.64zm18.464-7.938c1.682-2.532 2.743-5.184 3.394-7.73l-1.937-.495c-.605 2.363-1.584 4.802-3.123 7.119l1.666 1.106zm2.426-6.977h7.67v-2h-7.67v2zm6.67-1v4.672h2v-4.672h-2zm0 4.672a.3.3 0 01-.09.214l1.411 1.416a2.3 2.3 0 00.678-1.63h-2zm-.09.214l-5.528 5.507 1.411 1.417 5.528-5.508-1.411-1.416zm-5.527 5.506a2.295 2.295 0 00-.678 1.63h2c0-.08.032-.155.087-.21l-1.409-1.42zm-.678 1.63c0 2.058 2.49 3.078 3.94 1.63l-1.414-1.416a.308.308 0 01-.526-.214h-2zm3.939 1.63l6.488-6.463-1.412-1.417-6.488 6.464 1.412 1.416zm6.488-6.463a2.3 2.3 0 00.677-1.63h-2a.3.3 0 01-.089.213l1.412 1.417zm.677-1.63v-8.107h-2v8.107h2zm0-8.107V28.576h-2v10.601h2zm0-10.601v-1.129h-2v1.129h2zm0-1.129c0-1.896-1.488-3.417-3.34-3.53l-.123 1.995a1.546 1.546 0 011.463 1.535h2zm-2.404-2.473c.03-.484.047-.975.048-1.473l-2-.004c0 .453-.017.905-.044 1.357l1.996.12zm.048-1.475C68.412 9.964 57.404-.998 43.826-1v2c12.48.002 22.586 10.076 22.588 22.5h2zM43.826-1C30.248-.998 19.24 9.964 19.239 23.5h2c0-12.424 10.107-22.498 22.587-22.5v-2zM19.239 23.5c0 6.58 2.61 12.55 6.844 16.949l1.44-1.387c-3.89-4.044-6.284-9.522-6.284-15.563h-2zm6.6 16.522c1.523 5.52 3.464 8.935 5.07 10.991.803 1.028 1.519 1.712 2.05 2.148.266.218.485.373.646.477a4.423 4.423 0 00.256.155l.02.012a.35.35 0 00.014.007s.002 0 .458-.89c.457-.889.458-.888.459-.888l.003.002.003.001.001.001-.016-.01a5.482 5.482 0 01-.576-.415c-.417-.341-1.03-.92-1.742-1.83-1.422-1.822-3.256-4.991-4.718-10.293l-1.928.532zm7.514 12.9v6.64h2v-6.64h-2zm0 6.64c0 4.132-2.89 6.588-4.572 7.668l1.08 1.683c1.866-1.198 5.492-4.177 5.492-9.35h-2zm-4.524 7.639c-.563.317-1.034.585-1.09.616l.977 1.746 1.096-.62-.983-1.742zm-1.087.615c-5.254 2.92-10.527 5.83-15.773 8.781l.981 1.743c5.24-2.948 10.502-5.851 15.764-8.776l-.972-1.748zM11.97 76.597c-1.635.919-3.347 1.881-4.92 3.033l1.182 1.614c1.46-1.07 3.066-1.975 4.718-2.903l-.98-1.744zm-4.92 3.034c-3.27 2.397-5.576 5.565-6.556 9.596l1.944.472c.856-3.523 2.862-6.305 5.794-8.456L7.05 79.631zM.495 89.225c-.187.764-.33 1.571-.475 2.278l1.96.403c.162-.788.282-1.488.458-2.207l-1.943-.474zM0 91.706V92h2v-.294H0zM1 93h37.807v-2H1v2zm37.807 0h4.694v-2h-4.694v2zm4.694 0h5.344v-2H43.5v2zm5.344 0H86v-2H48.845v2zM87 92v-.294h-2V92h2zm-.02-.498l-.467-2.242-1.958.407.466 2.242 1.958-.407z" fill="#4BAE89"/></symbol><symbol fill="none" viewBox="0 0 96 93" id="icon7" xmlns="http://www.w3.org/2000/svg"><g fill-rule="evenodd" clip-rule="evenodd"><path d="M47.76 88.297c.178-.088.4-.221.577-.355 5.592-3.284 10.74-7.19 15.445-11.628.311-.266.533-.621.71-.976.311-.577.622-1.199.888-1.776 2.22-4.616 2.708-9.41 1.243-14.38-2.885-9.587-12.117-15.09-21.393-13.936-2.663.31-5.104 1.154-7.412 2.485-4.394 2.486-9.098 3.506-14.158 3.018-2.486-.222-4.838-.888-7.101-1.864-1.776-.799-3.462-1.775-4.971-2.974-.09-.088-.222-.133-.444-.266.044.222.089.355.133.444A86.35 86.35 0 0018.6 60.514c3.151 4.926 6.746 9.497 10.83 13.67a84.674 84.674 0 0013.404 11.14c2.219 1.42 4.305 2.707 4.926 2.974zm23.213-19.839c.222-.133.355-.31.443-.444a85.892 85.892 0 005.016-6.923c5.548-8.61 9.453-17.887 11.628-27.918.755-3.417 1.243-6.835 1.554-10.297.221-2.352.31-4.704.31-7.1 0-.178 0-.312-.044-.49l-.666-.399a94.084 94.084 0 00-5.548-2.885c-2.752-1.287-5.503-2.44-8.388-3.373-3.507-1.11-7.057-1.242-10.608-.355-10.164 2.441-16.688 12.428-14.735 22.68 1.065 5.681 4.127 10.12 9.01 13.226.31.222.666.4.976.622 3.595 2.175 6.391 5.148 8.389 8.832 2.13 3.861 3.062 8.033 2.796 12.427.044.755-.045 1.554-.133 2.397zM5.507 15.287v.532c0 3.24.222 6.525.622 9.72.355 2.93.843 5.815 1.509 8.7.133.488.266.976.488 1.464 3.994 8.477 13.226 13.005 22.369 10.918 6.968-1.597 12.65-6.968 14.558-13.847.532-1.909.71-3.861.799-5.814.044-1.287.177-2.575.4-3.862 1.508-7.811 6.7-14.247 14.024-17.31.4-.177.843-.31 1.243-.487.044-.045.133-.045.133-.134-1.154-.399-8.033-1.11-12.161-1.198-8.877-.177-17.576.977-26.053 3.55a84.597 84.597 0 00-17.93 7.768zM47.76 92.824l-.532-.266C26.456 80.398 10.743 60.336 4.352 36.37c-1.02-3.773-1.775-7.634-2.308-11.54a104.77 104.77 0 01-.799-11.806c0-.665-.088-.577.533-.887a92.517 92.517 0 0124.81-9.72A91.797 91.797 0 0136.354.685 99.721 99.721 0 0149.979.019c2.575.044 5.104.222 7.634.488C70.351 1.883 82.29 5.7 93.475 11.958c.178.089.31.178.488.266.178.09.266.222.266.444v.666a118.906 118.906 0 01-.31 6.88 90.532 90.532 0 01-1.332 9.764c-1.331 6.968-3.417 13.67-6.302 20.105-4.572 10.253-10.83 19.396-18.73 27.385a92.424 92.424 0 01-19.04 14.868c-.267.178-.489.311-.755.489z" fill="#000"/><path d="M5.507 15.287a82.84 82.84 0 0117.887-7.723c8.521-2.53 17.176-3.728 26.053-3.55 4.127.088 11.007.754 12.16 1.198.045.088-.044.133-.133.133-.399.177-.843.31-1.242.488-7.324 3.062-12.516 9.498-14.025 17.31a28.467 28.467 0 00-.4 3.86c-.044 1.954-.222 3.907-.799 5.815-1.953 6.88-7.59 12.25-14.557 13.848-9.143 2.086-18.375-2.441-22.37-10.919-.222-.488-.399-.976-.488-1.464a82.887 82.887 0 01-1.509-8.7 79.29 79.29 0 01-.621-9.72c.044-.221.044-.354.044-.576z" fill="#fff"/><path d="M71.195 66.061c.044-.798-.71-8.565-2.797-12.427-1.997-3.684-4.793-6.613-8.388-8.832-.31-.222-.666-.4-.977-.621-4.926-3.107-7.944-7.501-9.01-13.227-1.908-10.297 4.572-20.238 14.736-22.68 3.595-.843 7.101-.754 10.608.356 2.884.887 5.636 2.086 8.388 3.373 1.909.887 3.728 1.864 5.548 2.885.222.133.4.222.666.399 0 .178.044.31.044.488 0 2.353-.133 4.75-.31 7.102-.263 3.47-.844 6.923-1.554 10.296-2.175 10.031-6.036 19.307-11.629 27.918a85.892 85.892 0 01-5.015 6.923c-.177.134-.266.311-.532.444.088-.843.177-1.597.222-2.397z" fill="#fff"/><path d="M47.76 88.297c-.666-.266-2.707-1.509-4.882-2.973a84.679 84.679 0 01-13.404-11.14 82.393 82.393 0 01-10.83-13.67 80.109 80.109 0 01-7.322-14.425c-.045-.133-.09-.222-.134-.444.222.133.311.177.444.266 1.553 1.199 3.196 2.22 4.971 2.974 2.264.976 4.616 1.642 7.101 1.864 5.016.488 9.72-.533 14.159-3.018a20.917 20.917 0 017.412-2.486c9.276-1.153 18.508 4.35 21.393 13.937 1.464 4.926 1.02 9.72-1.243 14.38-.311.621-.577 1.198-.888 1.775-.178.355-.4.71-.71.977-4.705 4.438-9.853 8.344-15.445 11.628-.222.133-.444.267-.622.355z" fill="#fff"/></g></symbol><symbol fill="none" viewBox="0 0 150 144" id="icon8" xmlns="http://www.w3.org/2000/svg"><path fill-rule="evenodd" clip-rule="evenodd" d="M78 144c39.764 0 72-32.236 72-72S117.764 0 78 0 6 32.236 6 72s32.236 72 72 72z" fill="#000"/><g filter="url(#aufilter0_d)"><path fill-rule="evenodd" clip-rule="evenodd" d="M76.829 28.128c-.398.002-.79.023-1.178.063l-.008.428-1.176-.02.004-.227c-.371.076-.736.17-1.094.28l-.153 1.247-1.78-.219.032-.256A11.879 11.879 0 0065 40.007c0 1.307.315 2.879.6 3.74.629 1.896.424 6.578-3.92 10.997l-.044.045-.002.002-.003.003v.001c-6.378 7.555-16.756 6.67-21.963 6.225-.934-.08-1.702-.146-2.25-.146-13.802 0-25.03 11.333-25.03 25.134 0 13.802 11.188 24.99 24.99 24.99a24.891 24.891 0 0016.259-6.012c3.261-2.797 11.351-6.761 22.448-4.431 13.14 3.011 16.649 10.305 17.06 11.821 2.047 7.637 9.448 13.919 18.137 13.919 10.367 0 18.771-8.404 18.771-18.771 0-10.366-8.404-18.77-18.771-18.77a18.683 18.683 0 00-10.536 3.234c-3.177 2.158-9.1 6.02-21.182 3.218l.003-.003c-11.393-2.8-16.616-11.534-17.647-13.928-1.452-3.371-4.023-15.272 2.7-23.366l.001-.003c4.43-6.157 9.565-6.066 11.815-6.026.162.003.309.005.44.005a11.86 11.86 0 0011.113-7.675l-1.037-.146.297-2.108 1.312.184c.076-.426.13-.86.161-1.302l-1.926-.236.335-2.725 1.46.18c-.05-.303-.11-.6-.183-.895h-.813v-1.176h.458c-.094-.26-.196-.517-.307-.768l-.832-.088.133-1.258-.09-.144h-.5v-.74a12.456 12.456 0 00-.414-.533l-.625-.099.081-.516a11.855 11.855 0 00-1.398-1.26l-1.554-.164.084-.802a11.826 11.826 0 00-.539-.281l-.006.368-1.065-.018.014-.805a11.67 11.67 0 00-.404-.144l-.148 1.208-2.392-.294.177-1.439a11.92 11.92 0 00-.823-.067l-.005.267-.616-.011.005-.27zm-3.959 4.084l-3.717-.523-.523 3.718 3.718.522.522-3.718zm2.231-3.3l1.947.24-.24 1.946-1.946-.239.24-1.946zm2.033 3.681l-2.391-.293-.294 2.391 2.392.294.293-2.392zm6.157-1.165l-3.718-.522-.522 3.718 3.717.522.523-3.718zm1.755.714l-.893-.078-.078.893.893.078.078-.893zm-.829 1.828l1.613.198-.198 1.612-1.613-.198.198-1.612zm-.675 2.578l1.838.194-.193 1.839-1.839-.194.194-1.839zm-2.149 2.509l1.337.14-.14 1.338-1.338-.14.141-1.338zm1.984 2.911l2.774.39-.39 2.774-2.774-.39.39-2.774z" fill="#fff"/></g><g filter="url(#aufilter1_d)"><path fill-rule="evenodd" clip-rule="evenodd" d="M95.617 15.47l3.44.484-.484 3.44-3.44-.484.484-3.44z" fill="#fff"/></g><g filter="url(#aufilter2_d)"><path fill-rule="evenodd" clip-rule="evenodd" d="M94.95 21.136l4.107.577-.577 4.106-4.106-.577.577-4.106z" fill="#fff"/></g><g filter="url(#aufilter3_d)"><path fill-rule="evenodd" clip-rule="evenodd" d="M95.723 26.814l2.17.266-.267 2.17-2.169-.267.266-2.17z" fill="#fff"/></g><g filter="url(#aufilter4_d)"><path fill-rule="evenodd" clip-rule="evenodd" d="M92.837 27.176l1.724.212-.212 1.724-1.724-.212.212-1.724z" fill="#fff"/></g><g filter="url(#aufilter5_d)"><path fill-rule="evenodd" clip-rule="evenodd" d="M89.086 25.997l1.78.218-.219 1.78-1.78-.219.22-1.78z" fill="#fff"/></g><g filter="url(#aufilter6_d)"><path fill-rule="evenodd" clip-rule="evenodd" d="M86.258 28.012l4.161.585-.585 4.161-4.161-.584.585-4.162z" fill="#fff"/></g><g filter="url(#aufilter7_d)"><path fill-rule="evenodd" clip-rule="evenodd" d="M90.988 30.146l1.724.211-.212 1.724-1.724-.211.212-1.724z" fill="#fff"/></g><g filter="url(#aufilter8_d)"><path fill-rule="evenodd" clip-rule="evenodd" d="M92.493 32.466l2.886.405-.406 2.886-2.885-.406.405-2.885z" fill="#fff"/></g><g filter="url(#aufilter9_d)"><path fill-rule="evenodd" clip-rule="evenodd" d="M95.87 35.292l2.174.228-.229 2.174-2.173-.229.228-2.173z" fill="#fff"/></g><g filter="url(#aufilter10_d)"><path fill-rule="evenodd" clip-rule="evenodd" d="M89.759 35.41l1.78.218-.22 1.78-1.779-.218.219-1.78z" fill="#fff"/></g><g filter="url(#aufilter11_d)"><path fill-rule="evenodd" clip-rule="evenodd" d="M90.725 38.946l2.04-.783.783 2.04-2.04.783-.783-2.04z" fill="#fff"/></g><g filter="url(#aufilter12_d)"><path fill-rule="evenodd" clip-rule="evenodd" d="M99.792 26.049l1.835.225-.225 1.836-1.835-.226.225-1.835z" fill="#fff"/></g><g filter="url(#aufilter13_d)"><path fill-rule="evenodd" clip-rule="evenodd" d="M97.034 30.524l3.21-.508.509 3.21-3.21.508-.509-3.21z" fill="#fff"/></g><g filter="url(#aufilter14_d)"><path fill-rule="evenodd" clip-rule="evenodd" d="M97.407 11.155l2.497.351-.35 2.497-2.498-.35.351-2.498z" fill="#fff"/></g><g filter="url(#aufilter15_d)"><path fill-rule="evenodd" clip-rule="evenodd" d="M90.736 13.96l2.385.335-.335 2.386-2.386-.336.335-2.385z" fill="#fff"/></g><g filter="url(#aufilter16_d)"><path fill-rule="evenodd" clip-rule="evenodd" d="M92.207 18.197l1.83.258-.257 1.83-1.83-.257.257-1.83z" fill="#fff"/></g><g filter="url(#aufilter17_d)"><path fill-rule="evenodd" clip-rule="evenodd" d="M89.817 18.396l1.557.191-.191 1.557-1.557-.19.191-1.558z" fill="#fff"/></g><g filter="url(#aufilter18_d)"><path fill-rule="evenodd" clip-rule="evenodd" d="M86.097 18.262l2.553.359-.36 2.552-2.551-.359.358-2.552z" fill="#fff"/></g><g filter="url(#aufilter19_d)"><path fill-rule="evenodd" clip-rule="evenodd" d="M82.135 19.19l2.336.288-.287 2.335-2.335-.286.286-2.336z" fill="#fff"/></g><g filter="url(#aufilter20_d)"><path fill-rule="evenodd" clip-rule="evenodd" d="M83.988 22.942l2.391.293-.293 2.392-2.392-.294.294-2.391z" fill="#fff"/></g><g filter="url(#aufilter21_d)"><path fill-rule="evenodd" clip-rule="evenodd" d="M83.355 26.199l1.505.158-.158 1.504-1.505-.158.158-1.504z" fill="#fff"/></g><g filter="url(#aufilter22_d)"><path fill-rule="evenodd" clip-rule="evenodd" d="M88.767 21.49l3.773.53-.53 3.773-3.774-.53.53-3.774z" fill="#fff"/></g><g filter="url(#aufilter23_d)"><path fill-rule="evenodd" clip-rule="evenodd" d="M78.397 22.277l3.717.523-.522 3.717-3.718-.522.523-3.718z" fill="#fff"/></g><g filter="url(#aufilter24_d)"><path fill-rule="evenodd" clip-rule="evenodd" d="M101.228 13.194l1.221.172-.172 1.22-1.221-.171.172-1.22z" fill="#fff"/></g><g filter="url(#aufilter25_d)"><path fill-rule="evenodd" clip-rule="evenodd" d="M104.511 12.045l1.665.234-.234 1.664-1.665-.234.234-1.664z" fill="#fff"/></g><g filter="url(#aufilter26_d)"><path fill-rule="evenodd" clip-rule="evenodd" d="M100.429 15.849l1.776.25-.25 1.775-1.775-.25.249-1.775z" fill="#fff"/></g><g filter="url(#aufilter27_d)"><path fill-rule="evenodd" clip-rule="evenodd" d="M101.166 18.995l1.776.25-.25 1.775-1.775-.25.249-1.775z" fill="#fff"/></g><g filter="url(#aufilter28_d)"><path fill-rule="evenodd" clip-rule="evenodd" d="M100.181 21.728l2.83.398-.398 2.83-2.83-.398.398-2.83z" fill="#fff"/></g><g filter="url(#aufilter29_d)"><path fill-rule="evenodd" clip-rule="evenodd" d="M104.004 16.803l.888.125-.125.888-.887-.125.124-.888z" fill="#fff"/></g><g fill-rule="evenodd" clip-rule="evenodd" fill="#fff"><path d="M87.424 38.25l2.057.254-.252 2.057-2.058-.252.253-2.058zm-6.329-9.576l.953.017-.017.952-.952-.016.016-.953zm1.837-.368l1.95.205-.205 1.95-1.95-.204.205-1.95zm-7.826-2.76l1.947.239-.24 1.946-1.946-.239.24-1.946zm1.838 2.35l.392.007-.007.392-.392-.007.007-.392zm1.734-.266l1.724.212-.212 1.724-1.724-.211.212-1.724zm-6.854.466l1.446.177-.178 1.446-1.446-.177.178-1.446zm1.866.086l.35.006-.006.351-.351-.006.006-.351z"/><path d="M74.025 28.126l.352.006-.006.352-.352-.007.006-.351zm.618-.116l.84.014-.007.42-.84-.014.007-.42zm.756 1.272l1.279.157-.157 1.28-1.28-.158.158-1.279zm-.412 3.329l1.835.226-.225 1.835-1.835-.225.225-1.836zm-5.596-.606l3.163.445-.445 3.163-3.162-.445.444-3.163zm10.469-.72l3.051.429-.429 3.051-3.052-.429.43-3.051zm4.395.9l.673.059-.06.672-.672-.058.06-.673zm.157 2.033l1.168.143-.143 1.168-1.168-.143.143-1.168zm-.671 2.576l1.393.146-.146 1.393-1.393-.146.146-1.393zm-2.248 2.386l1.115.117-.118 1.115-1.114-.117.117-1.115zm2.075 3.04l2.33.328-.327 2.33-2.33-.327.327-2.33zm3.872-.013l1.664.234-.234 1.665-1.664-.234.234-1.665zm.323-6.053h.84v.84h-.84v-.84zm-.541-2.246l1.081.113-.114 1.081-1.08-.113.113-1.081z"/></g><defs><filter id="aufilter0_d" x=".387" y="16.128" width="141.665" height="122.166" filterUnits="userSpaceOnUse" color-interpolation-filters="sRGB"><feFlood flood-opacity="0" result="BackgroundImageFix"/><feColorMatrix in="SourceAlpha" values="0 0 0 0 0 0 0 0 0 0 0 0 0 0 0 0 0 0 127 0"/><feOffset/><feGaussianBlur stdDeviation="2"/><feColorMatrix values="0 0 0 0 0 0 0 0 0 0 0 0 0 0 0 0 0 0 0.2 0"/><feBlend in2="BackgroundImageFix" result="effect1_dropShadow"/><feBlend in="SourceGraphic" in2="effect1_dropShadow" result="shape"/></filter><filter id="aufilter1_d" x="92.133" y="12.47" width="9.924" height="9.924" filterUnits="userSpaceOnUse" color-interpolation-filters="sRGB"><feFlood flood-opacity="0" result="BackgroundImageFix"/><feColorMatrix in="SourceAlpha" values="0 0 0 0 0 0 0 0 0 0 0 0 0 0 0 0 0 0 127 0"/><feOffset/><feGaussianBlur stdDeviation=".5"/><feColorMatrix values="0 0 0 0 0 0 0 0 0 0 0 0 0 0 0 0 0 0 0.2 0"/><feBlend in2="BackgroundImageFix" result="effect1_dropShadow"/><feBlend in="SourceGraphic" in2="effect1_dropShadow" result="shape"/></filter><filter id="aufilter2_d" x="91.374" y="18.136" width="10.683" height="10.683" filterUnits="userSpaceOnUse" color-interpolation-filters="sRGB"><feFlood flood-opacity="0" result="BackgroundImageFix"/><feColorMatrix in="SourceAlpha" values="0 0 0 0 0 0 0 0 0 0 0 0 0 0 0 0 0 0 127 0"/><feOffset/><feGaussianBlur stdDeviation=".5"/><feColorMatrix values="0 0 0 0 0 0 0 0 0 0 0 0 0 0 0 0 0 0 0.2 0"/><feBlend in2="BackgroundImageFix" result="effect1_dropShadow"/><feBlend in="SourceGraphic" in2="effect1_dropShadow" result="shape"/></filter><filter id="aufilter3_d" x="92.457" y="23.814" width="8.435" height="8.435" filterUnits="userSpaceOnUse" color-interpolation-filters="sRGB"><feFlood flood-opacity="0" result="BackgroundImageFix"/><feColorMatrix in="SourceAlpha" values="0 0 0 0 0 0 0 0 0 0 0 0 0 0 0 0 0 0 127 0"/><feOffset/><feGaussianBlur stdDeviation=".5"/><feColorMatrix values="0 0 0 0 0 0 0 0 0 0 0 0 0 0 0 0 0 0 0.2 0"/><feBlend in2="BackgroundImageFix" result="effect1_dropShadow"/><feBlend in="SourceGraphic" in2="effect1_dropShadow" result="shape"/></filter><filter id="aufilter4_d" x="89.625" y="24.176" width="7.936" height="7.936" filterUnits="userSpaceOnUse" color-interpolation-filters="sRGB"><feFlood flood-opacity="0" result="BackgroundImageFix"/><feColorMatrix in="SourceAlpha" values="0 0 0 0 0 0 0 0 0 0 0 0 0 0 0 0 0 0 127 0"/><feOffset/><feGaussianBlur stdDeviation=".5"/><feColorMatrix values="0 0 0 0 0 0 0 0 0 0 0 0 0 0 0 0 0 0 0.2 0"/><feBlend in2="BackgroundImageFix" result="effect1_dropShadow"/><feBlend in="SourceGraphic" in2="effect1_dropShadow" result="shape"/></filter><filter id="aufilter5_d" x="85.868" y="22.997" width="7.998" height="7.998" filterUnits="userSpaceOnUse" color-interpolation-filters="sRGB"><feFlood flood-opacity="0" result="BackgroundImageFix"/><feColorMatrix in="SourceAlpha" values="0 0 0 0 0 0 0 0 0 0 0 0 0 0 0 0 0 0 127 0"/><feOffset/><feGaussianBlur stdDeviation=".5"/><feColorMatrix values="0 0 0 0 0 0 0 0 0 0 0 0 0 0 0 0 0 0 0.2 0"/><feBlend in2="BackgroundImageFix" result="effect1_dropShadow"/><feBlend in="SourceGraphic" in2="effect1_dropShadow" result="shape"/></filter><filter id="aufilter6_d" x="82.673" y="25.012" width="10.746" height="10.746" filterUnits="userSpaceOnUse" color-interpolation-filters="sRGB"><feFlood flood-opacity="0" result="BackgroundImageFix"/><feColorMatrix in="SourceAlpha" values="0 0 0 0 0 0 0 0 0 0 0 0 0 0 0 0 0 0 127 0"/><feOffset/><feGaussianBlur stdDeviation=".5"/><feColorMatrix values="0 0 0 0 0 0 0 0 0 0 0 0 0 0 0 0 0 0 0.2 0"/><feBlend in2="BackgroundImageFix" result="effect1_dropShadow"/><feBlend in="SourceGraphic" in2="effect1_dropShadow" result="shape"/></filter><filter id="aufilter7_d" x="87.776" y="27.145" width="7.936" height="7.936" filterUnits="userSpaceOnUse" color-interpolation-filters="sRGB"><feFlood flood-opacity="0" result="BackgroundImageFix"/><feColorMatrix in="SourceAlpha" values="0 0 0 0 0 0 0 0 0 0 0 0 0 0 0 0 0 0 127 0"/><feOffset/><feGaussianBlur stdDeviation=".5"/><feColorMatrix values="0 0 0 0 0 0 0 0 0 0 0 0 0 0 0 0 0 0 0.2 0"/><feBlend in2="BackgroundImageFix" result="effect1_dropShadow"/><feBlend in="SourceGraphic" in2="effect1_dropShadow" result="shape"/></filter><filter id="aufilter8_d" x="89.088" y="29.465" width="9.291" height="9.291" filterUnits="userSpaceOnUse" color-interpolation-filters="sRGB"><feFlood flood-opacity="0" result="BackgroundImageFix"/><feColorMatrix in="SourceAlpha" values="0 0 0 0 0 0 0 0 0 0 0 0 0 0 0 0 0 0 127 0"/><feOffset/><feGaussianBlur stdDeviation=".5"/><feColorMatrix values="0 0 0 0 0 0 0 0 0 0 0 0 0 0 0 0 0 0 0.2 0"/><feBlend in2="BackgroundImageFix" result="effect1_dropShadow"/><feBlend in="SourceGraphic" in2="effect1_dropShadow" result="shape"/></filter><filter id="aufilter9_d" x="92.642" y="32.292" width="8.402" height="8.402" filterUnits="userSpaceOnUse" color-interpolation-filters="sRGB"><feFlood flood-opacity="0" result="BackgroundImageFix"/><feColorMatrix in="SourceAlpha" values="0 0 0 0 0 0 0 0 0 0 0 0 0 0 0 0 0 0 127 0"/><feOffset/><feGaussianBlur stdDeviation=".5"/><feColorMatrix values="0 0 0 0 0 0 0 0 0 0 0 0 0 0 0 0 0 0 0.2 0"/><feBlend in2="BackgroundImageFix" result="effect1_dropShadow"/><feBlend in="SourceGraphic" in2="effect1_dropShadow" result="shape"/></filter><filter id="aufilter10_d" x="86.54" y="32.41" width="7.998" height="7.998" filterUnits="userSpaceOnUse" color-interpolation-filters="sRGB"><feFlood flood-opacity="0" result="BackgroundImageFix"/><feColorMatrix in="SourceAlpha" values="0 0 0 0 0 0 0 0 0 0 0 0 0 0 0 0 0 0 127 0"/><feOffset/><feGaussianBlur stdDeviation=".5"/><feColorMatrix values="0 0 0 0 0 0 0 0 0 0 0 0 0 0 0 0 0 0 0.2 0"/><feBlend in2="BackgroundImageFix" result="effect1_dropShadow"/><feBlend in="SourceGraphic" in2="effect1_dropShadow" result="shape"/></filter><filter id="aufilter11_d" x="87.724" y="35.162" width="8.823" height="8.823" filterUnits="userSpaceOnUse" color-interpolation-filters="sRGB"><feFlood flood-opacity="0" result="BackgroundImageFix"/><feColorMatrix in="SourceAlpha" values="0 0 0 0 0 0 0 0 0 0 0 0 0 0 0 0 0 0 127 0"/><feOffset/><feGaussianBlur stdDeviation=".5"/><feColorMatrix values="0 0 0 0 0 0 0 0 0 0 0 0 0 0 0 0 0 0 0.2 0"/><feBlend in2="BackgroundImageFix" result="effect1_dropShadow"/><feBlend in="SourceGraphic" in2="effect1_dropShadow" result="shape"/></filter><filter id="aufilter12_d" x="96.567" y="23.049" width="8.061" height="8.061" filterUnits="userSpaceOnUse" color-interpolation-filters="sRGB"><feFlood flood-opacity="0" result="BackgroundImageFix"/><feColorMatrix in="SourceAlpha" values="0 0 0 0 0 0 0 0 0 0 0 0 0 0 0 0 0 0 127 0"/><feOffset/><feGaussianBlur stdDeviation=".5"/><feColorMatrix values="0 0 0 0 0 0 0 0 0 0 0 0 0 0 0 0 0 0 0.2 0"/><feBlend in2="BackgroundImageFix" result="effect1_dropShadow"/><feBlend in="SourceGraphic" in2="effect1_dropShadow" result="shape"/></filter><filter id="aufilter13_d" x="94.034" y="27.016" width="9.718" height="9.718" filterUnits="userSpaceOnUse" color-interpolation-filters="sRGB"><feFlood flood-opacity="0" result="BackgroundImageFix"/><feColorMatrix in="SourceAlpha" values="0 0 0 0 0 0 0 0 0 0 0 0 0 0 0 0 0 0 127 0"/><feOffset/><feGaussianBlur stdDeviation=".5"/><feColorMatrix values="0 0 0 0 0 0 0 0 0 0 0 0 0 0 0 0 0 0 0.2 0"/><feBlend in2="BackgroundImageFix" result="effect1_dropShadow"/><feBlend in="SourceGraphic" in2="effect1_dropShadow" result="shape"/></filter><filter id="aufilter14_d" x="94.056" y="8.156" width="8.848" height="8.848" filterUnits="userSpaceOnUse" color-interpolation-filters="sRGB"><feFlood flood-opacity="0" result="BackgroundImageFix"/><feColorMatrix in="SourceAlpha" values="0 0 0 0 0 0 0 0 0 0 0 0 0 0 0 0 0 0 127 0"/><feOffset/><feGaussianBlur stdDeviation=".5"/><feColorMatrix values="0 0 0 0 0 0 0 0 0 0 0 0 0 0 0 0 0 0 0.2 0"/><feBlend in2="BackgroundImageFix" result="effect1_dropShadow"/><feBlend in="SourceGraphic" in2="effect1_dropShadow" result="shape"/></filter><filter id="aufilter15_d" x="87.4" y="10.96" width="8.721" height="8.721" filterUnits="userSpaceOnUse" color-interpolation-filters="sRGB"><feFlood flood-opacity="0" result="BackgroundImageFix"/><feColorMatrix in="SourceAlpha" values="0 0 0 0 0 0 0 0 0 0 0 0 0 0 0 0 0 0 127 0"/><feOffset/><feGaussianBlur stdDeviation=".5"/><feColorMatrix values="0 0 0 0 0 0 0 0 0 0 0 0 0 0 0 0 0 0 0.2 0"/><feBlend in2="BackgroundImageFix" result="effect1_dropShadow"/><feBlend in="SourceGraphic" in2="effect1_dropShadow" result="shape"/></filter><filter id="aufilter16_d" x="88.949" y="15.198" width="8.088" height="8.088" filterUnits="userSpaceOnUse" color-interpolation-filters="sRGB"><feFlood flood-opacity="0" result="BackgroundImageFix"/><feColorMatrix in="SourceAlpha" values="0 0 0 0 0 0 0 0 0 0 0 0 0 0 0 0 0 0 127 0"/><feOffset/><feGaussianBlur stdDeviation=".5"/><feColorMatrix values="0 0 0 0 0 0 0 0 0 0 0 0 0 0 0 0 0 0 0.2 0"/><feBlend in2="BackgroundImageFix" result="effect1_dropShadow"/><feBlend in="SourceGraphic" in2="effect1_dropShadow" result="shape"/></filter><filter id="aufilter17_d" x="86.626" y="15.396" width="7.748" height="7.748" filterUnits="userSpaceOnUse" color-interpolation-filters="sRGB"><feFlood flood-opacity="0" result="BackgroundImageFix"/><feColorMatrix in="SourceAlpha" values="0 0 0 0 0 0 0 0 0 0 0 0 0 0 0 0 0 0 127 0"/><feOffset/><feGaussianBlur stdDeviation=".5"/><feColorMatrix values="0 0 0 0 0 0 0 0 0 0 0 0 0 0 0 0 0 0 0.2 0"/><feBlend in2="BackgroundImageFix" result="effect1_dropShadow"/><feBlend in="SourceGraphic" in2="effect1_dropShadow" result="shape"/></filter><filter id="aufilter18_d" x="82.739" y="15.262" width="8.911" height="8.911" filterUnits="userSpaceOnUse" color-interpolation-filters="sRGB"><feFlood flood-opacity="0" result="BackgroundImageFix"/><feColorMatrix in="SourceAlpha" values="0 0 0 0 0 0 0 0 0 0 0 0 0 0 0 0 0 0 127 0"/><feOffset/><feGaussianBlur stdDeviation=".5"/><feColorMatrix values="0 0 0 0 0 0 0 0 0 0 0 0 0 0 0 0 0 0 0.2 0"/><feBlend in2="BackgroundImageFix" result="effect1_dropShadow"/><feBlend in="SourceGraphic" in2="effect1_dropShadow" result="shape"/></filter><filter id="aufilter19_d" x="78.849" y="16.191" width="8.623" height="8.623" filterUnits="userSpaceOnUse" color-interpolation-filters="sRGB"><feFlood flood-opacity="0" result="BackgroundImageFix"/><feColorMatrix in="SourceAlpha" values="0 0 0 0 0 0 0 0 0 0 0 0 0 0 0 0 0 0 127 0"/><feOffset/><feGaussianBlur stdDeviation=".5"/><feColorMatrix values="0 0 0 0 0 0 0 0 0 0 0 0 0 0 0 0 0 0 0.2 0"/><feBlend in2="BackgroundImageFix" result="effect1_dropShadow"/><feBlend in="SourceGraphic" in2="effect1_dropShadow" result="shape"/></filter><filter id="aufilter20_d" x="80.694" y="19.942" width="8.685" height="8.685" filterUnits="userSpaceOnUse" color-interpolation-filters="sRGB"><feFlood flood-opacity="0" result="BackgroundImageFix"/><feColorMatrix in="SourceAlpha" values="0 0 0 0 0 0 0 0 0 0 0 0 0 0 0 0 0 0 127 0"/><feOffset/><feGaussianBlur stdDeviation=".5"/><feColorMatrix values="0 0 0 0 0 0 0 0 0 0 0 0 0 0 0 0 0 0 0.2 0"/><feBlend in2="BackgroundImageFix" result="effect1_dropShadow"/><feBlend in="SourceGraphic" in2="effect1_dropShadow" result="shape"/></filter><filter id="aufilter21_d" x="80.197" y="23.199" width="7.663" height="7.663" filterUnits="userSpaceOnUse" color-interpolation-filters="sRGB"><feFlood flood-opacity="0" result="BackgroundImageFix"/><feColorMatrix in="SourceAlpha" values="0 0 0 0 0 0 0 0 0 0 0 0 0 0 0 0 0 0 127 0"/><feOffset/><feGaussianBlur stdDeviation=".5"/><feColorMatrix values="0 0 0 0 0 0 0 0 0 0 0 0 0 0 0 0 0 0 0.2 0"/><feBlend in2="BackgroundImageFix" result="effect1_dropShadow"/><feBlend in="SourceGraphic" in2="effect1_dropShadow" result="shape"/></filter><filter id="aufilter22_d" x="85.236" y="18.489" width="10.303" height="10.303" filterUnits="userSpaceOnUse" color-interpolation-filters="sRGB"><feFlood flood-opacity="0" result="BackgroundImageFix"/><feColorMatrix in="SourceAlpha" values="0 0 0 0 0 0 0 0 0 0 0 0 0 0 0 0 0 0 127 0"/><feOffset/><feGaussianBlur stdDeviation=".5"/><feColorMatrix values="0 0 0 0 0 0 0 0 0 0 0 0 0 0 0 0 0 0 0.2 0"/><feBlend in2="BackgroundImageFix" result="effect1_dropShadow"/><feBlend in="SourceGraphic" in2="effect1_dropShadow" result="shape"/></filter><filter id="aufilter23_d" x="74.874" y="19.277" width="10.24" height="10.24" filterUnits="userSpaceOnUse" color-interpolation-filters="sRGB"><feFlood flood-opacity="0" result="BackgroundImageFix"/><feColorMatrix in="SourceAlpha" values="0 0 0 0 0 0 0 0 0 0 0 0 0 0 0 0 0 0 127 0"/><feOffset/><feGaussianBlur stdDeviation=".5"/><feColorMatrix values="0 0 0 0 0 0 0 0 0 0 0 0 0 0 0 0 0 0 0.2 0"/><feBlend in2="BackgroundImageFix" result="effect1_dropShadow"/><feBlend in="SourceGraphic" in2="effect1_dropShadow" result="shape"/></filter><filter id="aufilter24_d" x="98.056" y="10.194" width="7.392" height="7.392" filterUnits="userSpaceOnUse" color-interpolation-filters="sRGB"><feFlood flood-opacity="0" result="BackgroundImageFix"/><feColorMatrix in="SourceAlpha" values="0 0 0 0 0 0 0 0 0 0 0 0 0 0 0 0 0 0 127 0"/><feOffset/><feGaussianBlur stdDeviation=".5"/><feColorMatrix values="0 0 0 0 0 0 0 0 0 0 0 0 0 0 0 0 0 0 0.2 0"/><feBlend in2="BackgroundImageFix" result="effect1_dropShadow"/><feBlend in="SourceGraphic" in2="effect1_dropShadow" result="shape"/></filter><filter id="aufilter25_d" x="101.277" y="9.045" width="7.899" height="7.899" filterUnits="userSpaceOnUse" color-interpolation-filters="sRGB"><feFlood flood-opacity="0" result="BackgroundImageFix"/><feColorMatrix in="SourceAlpha" values="0 0 0 0 0 0 0 0 0 0 0 0 0 0 0 0 0 0 127 0"/><feOffset/><feGaussianBlur stdDeviation=".5"/><feColorMatrix values="0 0 0 0 0 0 0 0 0 0 0 0 0 0 0 0 0 0 0.2 0"/><feBlend in2="BackgroundImageFix" result="effect1_dropShadow"/><feBlend in="SourceGraphic" in2="effect1_dropShadow" result="shape"/></filter><filter id="aufilter26_d" x="97.18" y="12.848" width="8.025" height="8.025" filterUnits="userSpaceOnUse" color-interpolation-filters="sRGB"><feFlood flood-opacity="0" result="BackgroundImageFix"/><feColorMatrix in="SourceAlpha" values="0 0 0 0 0 0 0 0 0 0 0 0 0 0 0 0 0 0 127 0"/><feOffset/><feGaussianBlur stdDeviation=".5"/><feColorMatrix values="0 0 0 0 0 0 0 0 0 0 0 0 0 0 0 0 0 0 0.2 0"/><feBlend in2="BackgroundImageFix" result="effect1_dropShadow"/><feBlend in="SourceGraphic" in2="effect1_dropShadow" result="shape"/></filter><filter id="aufilter27_d" x="97.917" y="15.995" width="8.025" height="8.025" filterUnits="userSpaceOnUse" color-interpolation-filters="sRGB"><feFlood flood-opacity="0" result="BackgroundImageFix"/><feColorMatrix in="SourceAlpha" values="0 0 0 0 0 0 0 0 0 0 0 0 0 0 0 0 0 0 127 0"/><feOffset/><feGaussianBlur stdDeviation=".5"/><feColorMatrix values="0 0 0 0 0 0 0 0 0 0 0 0 0 0 0 0 0 0 0.2 0"/><feBlend in2="BackgroundImageFix" result="effect1_dropShadow"/><feBlend in="SourceGraphic" in2="effect1_dropShadow" result="shape"/></filter><filter id="aufilter28_d" x="96.784" y="18.728" width="9.227" height="9.227" filterUnits="userSpaceOnUse" color-interpolation-filters="sRGB"><feFlood flood-opacity="0" result="BackgroundImageFix"/><feColorMatrix in="SourceAlpha" values="0 0 0 0 0 0 0 0 0 0 0 0 0 0 0 0 0 0 127 0"/><feOffset/><feGaussianBlur stdDeviation=".5"/><feColorMatrix values="0 0 0 0 0 0 0 0 0 0 0 0 0 0 0 0 0 0 0.2 0"/><feBlend in2="BackgroundImageFix" result="effect1_dropShadow"/><feBlend in="SourceGraphic" in2="effect1_dropShadow" result="shape"/></filter><filter id="aufilter29_d" x="100.88" y="13.803" width="7.013" height="7.013" filterUnits="userSpaceOnUse" color-interpolation-filters="sRGB"><feFlood flood-opacity="0" result="BackgroundImageFix"/><feColorMatrix in="SourceAlpha" values="0 0 0 0 0 0 0 0 0 0 0 0 0 0 0 0 0 0 127 0"/><feOffset/><feGaussianBlur stdDeviation=".5"/><feColorMatrix values="0 0 0 0 0 0 0 0 0 0 0 0 0 0 0 0 0 0 0.2 0"/><feBlend in2="BackgroundImageFix" result="effect1_dropShadow"/><feBlend in="SourceGraphic" in2="effect1_dropShadow" result="shape"/></filter></defs></symbol><symbol fill="none" viewBox="0 0 144 144" id="icon9" xmlns="http://www.w3.org/2000/svg"><g fill-rule="evenodd" clip-rule="evenodd" fill="#000"><path d="M25.056 95.207V34.272L72 80.928l46.368-46.656v60.935h21.809A71.93 71.93 0 00144 72c0-39.765-32.236-72-72-72S0 32.235 0 72c0 8.12 1.346 15.925 3.823 23.207h21.233z"/><path d="M102.816 109.151v-37.44L72 102.527 40.608 71.711v37.44H10.315C22.921 130.035 45.83 143.999 72 143.999s49.079-13.964 61.684-34.848h-30.868z"/></g></symbol><symbol fill="none" viewBox="0 0 28 13" id="key" xmlns="http://www.w3.org/2000/svg"><path fill-rule="evenodd" clip-rule="evenodd" d="M12.012 3.405C10.93 1.379 8.818 0 6.392 0 2.861 0 0 2.91 0 6.5S2.861 13 6.391 13c2.427 0 4.539-1.379 5.621-3.405h4.423l1.826-1.857 1.826 1.857 1.826-1.857 1.826 1.857L28 6.19l-3.044-2.785H12.012zM2.435 6.5c0-1.026.817-1.857 1.826-1.857 1.008 0 1.826.831 1.826 1.857s-.818 1.857-1.826 1.857c-1.009 0-1.826-.831-1.826-1.857z" fill="#4CAE89"/></symbol><symbol fill="none" viewBox="0 0 1 84" id="line" xmlns="http://www.w3.org/2000/svg"><path d="M.5 1v82" stroke="#3C9B77" stroke-linecap="square"/></symbol><symbol fill="none" viewBox="0 0 1 84" id="line-grey" xmlns="http://www.w3.org/2000/svg"><path d="M.5 1v82" stroke="#EBEBEB" stroke-linecap="square"/></symbol><symbol fill="none" viewBox="0 0 141 38" id="logo-black" xmlns="http://www.w3.org/2000/svg"><path fill-rule="evenodd" clip-rule="evenodd" d="M64.032 24.149c0-.354-.063-.695-.189-1.026a2.389 2.389 0 00-.607-.885c-.279-.26-.639-.465-1.08-.62-.444-.153-.968-.23-1.575-.23h-4.968v5.45h4.968c1.24 0 2.124-.27 2.655-.813.531-.543.796-1.168.796-1.876zm-.606-9.837c0-.684-.254-1.245-.759-1.682-.506-.436-1.365-.654-2.579-.654h-4.475v4.919h4.475c1.214 0 2.073-.26 2.58-.78.504-.517.758-1.12.758-1.803zm6.598 10.085c0 1.109-.22 2.11-.663 3.008a7.165 7.165 0 01-1.783 2.3 8.203 8.203 0 01-2.617 1.486 9.407 9.407 0 01-3.166.53H49.773V7.092h11.112c1.39 0 2.628.173 3.716.515 1.087.342 2.003.819 2.75 1.433a5.91 5.91 0 011.687 2.212c.38.86.57 1.798.57 2.813 0 .897-.254 1.793-.76 2.689-.505.897-1.352 1.605-2.54 2.124v.14a4.782 4.782 0 011.593.92 6.35 6.35 0 011.877 2.902 5.39 5.39 0 01.246 1.558zm3.3-10.298c.126-1.11.437-2.106.93-2.99a7.834 7.834 0 011.877-2.265A8.241 8.241 0 0178.69 7.41a8.97 8.97 0 012.978-.496c1.213 0 2.338.142 3.375.425 1.036.283 1.933.719 2.692 1.309a6.218 6.218 0 011.782 2.194c.43.873.646 1.9.646 3.079 0 .897-.165 1.78-.493 2.654a6.95 6.95 0 01-1.366 2.265l-7.509 7.997h9.33v4.884H73.248V27.37l10.543-11.29c.48-.518.721-1.108.721-1.77 0-.636-.234-1.213-.702-1.733-.468-.52-1.144-.778-2.029-.778a2.86 2.86 0 00-1.934.725c-.556.484-.91 1.292-1.062 2.424l-5.461-.85zm35.725 10.05c0-.354-.063-.695-.189-1.026a2.389 2.389 0 00-.607-.885c-.279-.26-.639-.465-1.081-.62-.442-.153-.967-.23-1.574-.23h-4.968v5.45h4.968c1.238 0 2.124-.27 2.655-.813.53-.543.796-1.168.796-1.876zm-.606-9.837c0-.684-.253-1.245-.759-1.682-.506-.436-1.365-.654-2.579-.654h-4.475v4.919h4.475c1.214 0 2.073-.26 2.579-.78.506-.517.759-1.12.759-1.803zm6.598 10.085c0 1.109-.221 2.11-.664 3.008a7.148 7.148 0 01-1.782 2.3 8.21 8.21 0 01-2.616 1.486 9.413 9.413 0 01-3.167.53H94.789V7.092h11.113c1.389 0 2.628.173 3.716.515 1.087.342 2.003.819 2.749 1.433a5.921 5.921 0 011.688 2.212c.38.86.569 1.798.569 2.813 0 .897-.253 1.793-.759 2.689-.505.897-1.352 1.605-2.541 2.124v.14a4.757 4.757 0 011.593.92 6.326 6.326 0 011.878 2.902 5.39 5.39 0 01.246 1.558zm18.354 7.325l-5.271-7.998-5.234 7.998h-6.599l8.951-12.598-8.457-12.032h6.636l4.703 7.396 4.741-7.396h6.636l-8.457 12.032 8.988 12.598h-6.637z" fill="#1D1D1B"/><mask id="aza" maskUnits="userSpaceOnUse" x="0" y="0" width="141" height="38"><path fill-rule="evenodd" clip-rule="evenodd" d="M0 37.211h140.032V0H0v37.211z" fill="#fff"/></mask><g mask="url(#aza)" fill-rule="evenodd" clip-rule="evenodd"><path d="M18.605 26.803h8.198v-8.197h-8.198v8.197z" fill="#4AAE89"/><path d="M10.408 18.606h8.198v-8.198h-8.198v8.198z" fill="#212121"/><path d="M9.786 22.704H6.308V6.308h16.396v3.478L32.491 0H0v32.49l9.786-9.786z" fill="#4AAE89"/><path d="M27.424 14.507h3.478v16.396H14.506v-3.478l-9.787 9.787h32.49V4.72l-9.785 9.786z" fill="#212121"/></g></symbol><symbol fill="none" viewBox="0 0 141 38" id="logo-white" xmlns="http://www.w3.org/2000/svg"><path fill-rule="evenodd" clip-rule="evenodd" d="M64.032 24.149c0-.354-.063-.695-.189-1.026a2.389 2.389 0 00-.607-.885c-.279-.26-.639-.465-1.08-.62-.444-.153-.968-.23-1.575-.23h-4.968v5.45h4.968c1.24 0 2.124-.27 2.655-.813.531-.543.796-1.168.796-1.876zm-.606-9.837c0-.684-.254-1.245-.759-1.682-.506-.436-1.365-.654-2.579-.654h-4.475v4.919h4.475c1.214 0 2.073-.26 2.58-.78.504-.517.758-1.12.758-1.803zm6.598 10.085c0 1.109-.22 2.11-.663 3.008a7.165 7.165 0 01-1.783 2.3 8.203 8.203 0 01-2.617 1.486 9.407 9.407 0 01-3.166.53H49.773V7.092h11.112c1.39 0 2.628.173 3.716.515 1.087.342 2.003.819 2.75 1.433a5.91 5.91 0 011.687 2.212c.38.86.57 1.798.57 2.813 0 .897-.254 1.793-.76 2.689-.505.897-1.352 1.605-2.54 2.124v.14a4.782 4.782 0 011.593.92 6.35 6.35 0 011.877 2.902 5.39 5.39 0 01.246 1.558zm3.3-10.298c.126-1.11.437-2.106.93-2.99a7.834 7.834 0 011.877-2.265A8.241 8.241 0 0178.69 7.41a8.97 8.97 0 012.978-.496c1.213 0 2.338.142 3.375.425 1.036.283 1.933.719 2.692 1.309a6.218 6.218 0 011.782 2.194c.43.873.646 1.9.646 3.079 0 .897-.165 1.78-.493 2.654a6.95 6.95 0 01-1.366 2.265l-7.509 7.997h9.33v4.884H73.248V27.37l10.543-11.29c.48-.518.721-1.108.721-1.77 0-.636-.234-1.213-.702-1.733-.468-.52-1.144-.778-2.029-.778a2.86 2.86 0 00-1.934.725c-.556.484-.91 1.292-1.062 2.424l-5.461-.85zm35.724 10.05c0-.354-.063-.695-.189-1.026a2.389 2.389 0 00-.607-.885c-.279-.26-.639-.465-1.081-.62-.442-.153-.967-.23-1.574-.23h-4.968v5.45h4.968c1.238 0 2.124-.27 2.655-.813.53-.543.796-1.168.796-1.876zm-.606-9.837c0-.684-.253-1.245-.759-1.682-.506-.436-1.365-.654-2.579-.654h-4.475v4.919h4.475c1.214 0 2.073-.26 2.579-.78.506-.517.759-1.12.759-1.803zm6.598 10.085c0 1.109-.221 2.11-.664 3.008a7.148 7.148 0 01-1.782 2.3 8.21 8.21 0 01-2.616 1.486 9.413 9.413 0 01-3.167.53H94.788V7.092h11.113c1.389 0 2.628.173 3.716.515 1.087.342 2.003.819 2.749 1.433a5.921 5.921 0 011.688 2.212c.38.86.569 1.798.569 2.813 0 .897-.253 1.793-.759 2.689-.505.897-1.352 1.605-2.541 2.124v.14a4.757 4.757 0 011.593.92 6.326 6.326 0 011.878 2.902 5.39 5.39 0 01.246 1.558zm18.355 7.325l-5.271-7.998-5.234 7.998h-6.599l8.951-12.598-8.457-12.032h6.636l4.703 7.396 4.741-7.396h6.636l-8.457 12.032 8.988 12.598h-6.637z" fill="#fff"/><mask id="baa" maskUnits="userSpaceOnUse" x="0" y="0" width="141" height="38"><path fill-rule="evenodd" clip-rule="evenodd" d="M0 37.211h140.032V0H0v37.211z" fill="#fff"/></mask><g mask="url(#baa)" fill-rule="evenodd" clip-rule="evenodd" fill="#fff"><path d="M18.605 26.803h8.198v-8.197h-8.198v8.197zm-8.197-8.197h8.198v-8.198h-8.198v8.198z"/><path d="M9.786 22.704H6.308V6.308h16.396v3.478L32.491 0H0v32.49l9.786-9.786zm17.639-8.197h3.478v16.396H14.507v-3.478L4.72 37.212h32.49V4.72l-9.785 9.786z"/></g></symbol><symbol fill="none" viewBox="0 0 42 32" id="next" xmlns="http://www.w3.org/2000/svg"><path fill="#D8D8D8" d="M29.137 2.257L31.258.136l10.607 10.606-2.122 2.122zm12.726 19l-2.121-2.12-10.607 10.606 2.122 2.121zM.65 20h1.996v-4.204c0-.95.567-1.606 1.462-1.606.896 0 1.347.546 1.347 1.503V20h1.996v-4.724c0-1.716-.916-2.74-2.543-2.74-1.128 0-1.9.532-2.29 1.441h-.04v-1.305H.648V20zm11.354-6.009c.889 0 1.497.643 1.538 1.58h-3.11c.068-.917.697-1.58 1.572-1.58zm1.565 3.767c-.184.56-.745.923-1.476.923-1.019 0-1.682-.718-1.682-1.764v-.123h5.052v-.608c0-2.229-1.347-3.671-3.48-3.671-2.167 0-3.534 1.517-3.534 3.855 0 2.345 1.354 3.787 3.61 3.787 1.811 0 3.124-.964 3.342-2.4H13.57zm5.831-.301L20.795 20h2.167l-2.27-3.705 2.29-3.623H20.81l-1.3 2.474h-.04l-1.32-2.474H15.9l2.284 3.678L15.887 20h2.098l1.374-2.543h.041zm4.915-6.474v1.689h-1.032v1.504h1.032v3.848c0 1.43.67 2.003 2.393 2.003.403 0 .745-.034.95-.082v-1.47a3.23 3.23 0 01-.485.035c-.588 0-.861-.267-.861-.827v-3.507h1.353v-1.504h-1.354v-1.689h-1.996z"/></symbol><symbol fill="none" viewBox="0 0 40 43" id="play" xmlns="http://www.w3.org/2000/svg"><path fill-rule="evenodd" clip-rule="evenodd" d="M0 21.756C0 10.132 8.954.709 19.999.709c11.045 0 20 9.423 20 21.047 0 11.623-8.955 21.046-20 21.046s-20-9.423-20-21.046zm16.912 7.692l10-6.577c.365-.241.587-.663.587-1.116 0-.453-.222-.875-.587-1.116l-10-6.577a1.194 1.194 0 00-1.269-.034 1.327 1.327 0 00-.644 1.15v13.154c0 .479.247.918.644 1.15a1.198 1.198 0 001.269-.034z" fill="#fff"/></symbol><symbol fill="none" viewBox="0 0 42 32" id="prev" xmlns="http://www.w3.org/2000/svg"><path fill="#D8D8D8" d="M12.863 2.257L10.742.137.135 10.742l2.122 2.121zm-12.726 19l2.121-2.121 10.607 10.606-2.122 2.122zm17.792-8.701c-1.06 0-1.873.533-2.27 1.394h-.04v-1.278h-1.97v9.72h1.997V18.77h.04c.39.827 1.21 1.346 2.277 1.346 1.832 0 2.967-1.422 2.967-3.78 0-2.365-1.142-3.78-3.001-3.78zm-.67 5.954c-.978 0-1.62-.848-1.62-2.174 0-1.313.642-2.18 1.62-2.18.998 0 1.627.854 1.627 2.18 0 1.333-.63 2.174-1.627 2.174zM21.962 20h1.996v-4.095c0-1.032.574-1.633 1.559-1.633.287 0 .56.047.724.116V12.63a2.03 2.03 0 00-.567-.075c-.861 0-1.484.506-1.743 1.435h-.041v-1.32h-1.928V20zm8.142-6.009c.888 0 1.497.643 1.538 1.58h-3.11c.068-.917.697-1.58 1.572-1.58zm1.565 3.767c-.185.56-.745.923-1.477.923-1.018 0-1.681-.718-1.681-1.764v-.123h5.052v-.608c0-2.229-1.347-3.671-3.48-3.671-2.167 0-3.534 1.517-3.534 3.855 0 2.345 1.353 3.787 3.61 3.787 1.81 0 3.123-.964 3.342-2.4h-1.832zm9.516-5.086H39.1l-1.518 5.564h-.041l-1.524-5.564h-2.14L36.413 20h2.256l2.516-7.328z"/></symbol><symbol fill="none" viewBox="0 0 26 23" id="reddit" xmlns="http://www.w3.org/2000/svg"><path fill-rule="evenodd" clip-rule="evenodd" d="M17.86 10.91c-.893 0-1.615.704-1.615 1.574 0 .87.722 1.575 1.615 1.575.892 0 1.615-.705 1.615-1.575s-.723-1.575-1.615-1.575z" fill="#fff"/><path fill-rule="evenodd" clip-rule="evenodd" d="M23.214 10.912c-.517-.79-1.216-1.511-2.06-2.135a1.62 1.62 0 011.46-.901c.89 0 1.615.706 1.615 1.575 0 .66-.42 1.227-1.015 1.46zM12.922 20.18c-5.185 0-9.389-2.69-9.389-6.005 0-3.316 4.204-6.005 9.389-6.005 5.186 0 9.389 2.689 9.389 6.005 0 3.315-4.203 6.005-9.39 6.005zM1.615 9.45c0-.869.725-1.575 1.615-1.575.644 0 1.202.368 1.46.901-.844.624-1.543 1.345-2.06 2.135A1.577 1.577 0 011.615 9.45zm20.19-7.974c.503 0 .91.396.91.886a.898.898 0 01-.91.886.898.898 0 01-.908-.886c0-.49.407-.886.909-.886zm.808 4.823a3.242 3.242 0 00-2.822 1.62c-1.661-.886-3.684-1.458-5.888-1.59l1.928-4.222 3.69 1.04a2.42 2.42 0 002.285 1.577c1.338 0 2.423-1.058 2.423-2.362C24.229 1.057 23.144 0 21.806 0c-.923 0-1.725.503-2.134 1.243L15.559.086a.968.968 0 00-1.142.517L11.8 6.34c-2.15.147-4.121.714-5.746 1.58A3.243 3.243 0 003.23 6.3C1.446 6.3 0 7.71 0 9.45c0 1.288.793 2.394 1.928 2.883a5.624 5.624 0 00-.313 1.843c0 4.349 5.062 7.875 11.307 7.875 6.244 0 11.307-3.526 11.307-7.875a5.6 5.6 0 00-.313-1.843c1.134-.489 1.928-1.595 1.928-2.882 0-1.74-1.447-3.15-3.23-3.15z" fill="#fff"/><path fill-rule="evenodd" clip-rule="evenodd" d="M9.876 12.484c0-.87-.723-1.575-1.615-1.575-.893 0-1.615.705-1.615 1.575s.722 1.575 1.615 1.575c.892 0 1.615-.705 1.615-1.575zm6.417 3.716c-.667.513-1.986 1.064-3.309 1.064-1.323 0-2.642-.551-3.309-1.063a.976.976 0 00-1.347.155.92.92 0 00.159 1.313c1.16.89 2.924 1.466 4.497 1.466s3.338-.576 4.496-1.466a.92.92 0 00.16-1.313.977.977 0 00-1.347-.155z" fill="#fff"/></symbol><symbol fill="none" viewBox="0 0 145 146" id="sec-1" xmlns="http://www.w3.org/2000/svg"><path d="M72.464 20.591v106.826M53.58 145.221l18.884-18.884 18.884 18.884M53.58 1.707l18.884 18.884L91.348 1.707m33.989 71.757H18.512M.707 54.58l18.884 18.884L.707 92.349M144.221 54.58l-18.884 18.884 18.884 18.885m-35.074 17.798L35.031 36.032m.749-25.455V36.78H9.578m125.773 73.368h-26.204v26.204m0-99.572l-74.116 74.117m-25.454-.749H35.78v26.204m73.367-125.775V36.78h26.204" stroke="#4EAD88" stroke-width="2"/></symbol><symbol fill="none" viewBox="0 0 131 148" id="sec-2" xmlns="http://www.w3.org/2000/svg"><path clip-rule="evenodd" d="M99.495 146.223H30.996C14.432 146.223 1 132.792 1 116.226V61.9h128.493v54.326c0 16.566-13.431 29.997-29.998 29.997z" stroke="#4EAD88" stroke-width="2"/><path d="M21.747 61.9V44.835C21.747 20.625 41.372 1 65.58 1c24.21 0 43.835 19.626 43.835 43.835V61.9M79.859 91.681H48.627m31.232 17.399H48.627" stroke="#4EAD88" stroke-width="2"/></symbol><symbol fill="none" viewBox="0 0 197 132" id="sec-3" xmlns="http://www.w3.org/2000/svg"><path clip-rule="evenodd" d="M164.288 67.37h-.039c.013-.527.039-1.05.039-1.58C164.288 30.006 135.281 1 99.5 1 71.14 1 47.052 19.231 38.274 44.607 17.22 47.494 1 65.54 1 87.387c0 23.853 19.338 43.191 43.193 43.191h120.095c17.455 0 31.604-14.15 31.604-31.605S181.743 67.37 164.288 67.37z" stroke="#4EAD88" stroke-width="2"/><path d="M98.746 67.492V94.79M83.673 67.492l15.073-15.074 15.073 15.074" stroke="#4EAD88" stroke-width="2"/></symbol><symbol fill="none" viewBox="0 0 152 171" id="sec-4" xmlns="http://www.w3.org/2000/svg"><path d="M127.23 62.127l.5.866-.5-.866zM81.931 88.28l-.5-.866.5.866zm-12.209 0l.5-.866-.5.866zm-45.3-26.153l-.5.866.5-.866zm0-21.147l-.5-.866.5.866zm45.3-26.153l.5.866-.5-.866zm12.21 0l.5-.866-.5.866zM127.23 40.98l.501-.866h-.001l-.5.866zm16.858-2.6l-.5.867h.001l.499-.866zM82.391 2.76l.5-.866-.5.866zm-13.129 0l-.5-.866.5.866zM7.564 38.38l.5.866-.5-.866zm0 93.982l.5-.866-.5.866zm61.7 35.621l.5-.866-.5.866zm13.128 0l-.5-.866.5.866zm61.697-35.621l-.499-.866h-.001l.5.866zM126.73 61.261L81.431 87.414l1 1.732 45.299-26.153-1-1.732zM81.431 87.414a11.204 11.204 0 01-11.208 0l-1 1.731a13.204 13.204 0 0013.209 0l-1-1.731zm-11.209 0l-45.3-26.153-1 1.732 45.3 26.153 1-1.732zm-45.3-26.153c-7.472-4.315-7.472-15.1 0-19.415l-1-1.732c-8.805 5.085-8.805 17.795 0 22.879l1-1.732zm0-19.415l45.3-26.153-1-1.732-45.3 26.153 1 1.732zm45.3-26.153a11.209 11.209 0 0111.21 0l1-1.732a13.209 13.209 0 00-13.21 0l1 1.732zm11.21 0l45.298 26.153 1-1.732L82.431 13.96l-1 1.732zm45.298 26.153c7.473 4.315 7.473 15.1 0 19.415l1 1.732c8.806-5.084 8.806-17.794.001-22.88l-1.001 1.733zm17.859-4.331L82.891 1.893l-1 1.732 61.697 35.622 1.001-1.732zM82.891 1.893a14.13 14.13 0 00-14.129 0l1 1.732a12.13 12.13 0 0112.13 0l1-1.732zm-14.129 0L7.064 37.515l1 1.732 61.7-35.622-1-1.732zM7.065 37.515A14.127 14.127 0 000 49.75h2c0-4.334 2.311-8.338 6.063-10.504l-1-1.732zM0 49.75v71.242h2V49.751H0zm0 71.242c0 5.048 2.692 9.712 7.064 12.236l1-1.732A12.128 12.128 0 012 120.993H0zm7.064 12.236l61.699 35.621 1-1.732-61.7-35.621-1 1.732zm61.698 35.621a14.129 14.129 0 0014.13 0l-1-1.732a12.127 12.127 0 01-12.13 0l-1 1.732zm14.13 0l61.696-35.621-1-1.732-61.697 35.621 1 1.732zm61.696-35.621a14.128 14.128 0 007.065-12.236h-2a12.13 12.13 0 01-6.064 10.504l.999 1.732zm7.065-12.236V49.751h-2v71.242h2zm0-71.242c0-5.049-2.693-9.713-7.065-12.236l-.999 1.732a12.13 12.13 0 016.064 10.504h2z" fill="#4EAD88"/><path d="M109.558 62.196L79.832 45.034a8.011 8.011 0 00-8.01 0L42.094 62.196M75.827 102v54.857" stroke="#4EAD88" stroke-width="2"/></symbol><symbol fill="none" viewBox="0 0 1 1112" id="sec-line" xmlns="http://www.w3.org/2000/svg"><path d="M.5.832V1110.78" stroke="#EBEBEB" stroke-linecap="square"/></symbol><symbol fill="none" viewBox="0 0 1440 981" id="separator" xmlns="http://www.w3.org/2000/svg"><path fill-rule="evenodd" clip-rule="evenodd" d="M-68.757 118.044c33.727-31.153 74.694-28.093 137.071 0 62.377 28.094 97.047 26.816 163.955 7.389 66.909-19.427 89.004 29.971 141.525-23.711 52.522-53.682 71.243-80.163 152.475-17.45C607.5 146.985 631.633 7.379 761.078 70.837S985.859 0 1071.89 0c86.02 0 184.29 159.498 348.54 80.449C1584.68 1.399 1477.99 981 1477.99 981l-1513.02-5.67s-67.455-826.132-33.727-857.286z" fill="url(#bkpaint0_linear)"/><defs><linearGradient id="bkpaint0_linear" x1="-80" y1="0" x2="-80" y2="981" gradientUnits="userSpaceOnUse"><stop stop-color="#fff"/><stop offset="1" stop-color="#fff"/></linearGradient></defs></symbol><symbol fill="none" viewBox="0 0 10 16" id="slider-arrow" xmlns="http://www.w3.org/2000/svg"><path d="M8.795 8.961l-6.827 6.678a1.129 1.129 0 01-1.572 0 1.071 1.071 0 010-1.538l6.04-5.909-6.04-5.909a1.071 1.071 0 010-1.538 1.13 1.13 0 011.572 0l6.827 6.678a1.072 1.072 0 010 1.538z" fill="#fff"/></symbol><symbol fill="none" viewBox="0 0 10 16" id="slider-arrow-green" xmlns="http://www.w3.org/2000/svg"><path d="M8.795 8.961l-6.827 6.678a1.129 1.129 0 01-1.572 0 1.071 1.071 0 010-1.538l6.04-5.909-6.04-5.909a1.071 1.071 0 010-1.538 1.13 1.13 0 011.572 0l6.827 6.678a1.072 1.072 0 010 1.538z" fill="#01BD95"/></symbol><symbol fill="none" viewBox="0 0 662 661" id="star" xmlns="http://www.w3.org/2000/svg"><path fill-rule="evenodd" clip-rule="evenodd" d="M331 343.968l-31.464 316.533 29.01-316.767-90.799 304.858 88.433-305.553-146.853 282.166L323.989 341.91l-197.6 249.274 195.662-250.799L80.847 547.759l239.589-209.237L44.346 496.5l274.858-160.113-301 102.872 300.193-105.202L3.369 378.106l314.678-46.489L.375 315.25l317.789 13.904L9.33 252.964l309.415 73.795L29.912 193.498l289.857 131.018L61.375 139.001 321.2 322.508 102.584 91.444l220.4 229.362-170.936-268.26 173.01 266.927L207.98 23.71l119.366 294.847L268.358 5.982l61.409 312.109L331 0l1.233 318.091 61.409-312.11-58.988 312.576L454.02 23.71 336.942 319.473l173.01-266.928-170.936 268.261 220.4-229.362-218.615 231.064 259.824-183.507-258.394 185.515 289.857-131.018-288.833 133.261 309.415-73.795-308.834 76.19 317.789-13.904-317.672 16.367 314.678 46.489-315.028-44.049 300.192 105.202-300.999-102.872L617.654 496.5l-276.09-157.978 239.589 209.237-241.204-207.374 195.662 250.799-197.6-249.274 144.662 283.295L335.82 343.039l88.433 305.553-90.799-304.858 29.01 316.767L331 343.968z" fill="#F2F2F2"/></symbol><symbol fill="none" viewBox="0 0 25 20" id="telegram" xmlns="http://www.w3.org/2000/svg"><path fill-rule="evenodd" clip-rule="evenodd" d="M10.286 13.738l-.633-.462-.453-.144c.451-.394 10.41-9.716 9.812-9.358L6.335 11.65.859 9.968C-.323 9.61-.33 8.81 1.125 8.235L22.462.132c.975-.436 1.916.23 1.544 1.7l-3.634 16.865c-.254 1.199-.99 1.486-2.008.932l-5.53-4.033-2.666 2.553a2.775 2.775 0 01-.025.024c-.298.285-.544.522-1.083.522l.14-5.563 1.086.606z" fill="#fff"/></symbol><symbol fill="none" viewBox="0 0 35 120" id="twink_arrow" xmlns="http://www.w3.org/2000/svg"><path d="M26.293 118.851a1 1 0 001.414 0l6.364-6.364a1 1 0 10-1.414-1.414L27 116.73l-5.657-5.657a1 1 0 10-1.414 1.414l6.364 6.364zM26 1.376v116.768h2V1.376h-2zM8.707.668a1 1 0 00-1.414 0L.929 7.032a1 1 0 101.414 1.414L8 2.789l5.657 5.657a1 1 0 101.414-1.414L8.707.668zM9 118.143V1.375H7v116.768h2z" fill="#999" fill-opacity=".3"/></symbol><symbol fill="none" viewBox="0 0 22 18" id="twitter" xmlns="http://www.w3.org/2000/svg"><path fill-rule="evenodd" clip-rule="evenodd" d="M10.412 4.643l.047.755-.775-.092C6.864 4.95 4.401 3.75 2.31 1.73l-1.024-1-.263.74c-.558 1.648-.202 3.389.96 4.56.62.647.48.74-.588.354-.372-.123-.698-.215-.729-.17-.108.109.264 1.51.558 2.065.403.77 1.224 1.526 2.123 1.972l.76.355-.9.015c-.867 0-.898.016-.805.34.31 1 1.534 2.064 2.897 2.526l.96.323-.836.494a8.825 8.825 0 01-4.152 1.14C.573 15.459 0 15.52 0 15.567c0 .154 1.89 1.017 2.99 1.356 3.3 1.001 7.221.57 10.165-1.14 2.092-1.217 4.184-3.636 5.16-5.978.527-1.248 1.053-3.529 1.053-4.623 0-.708.047-.8.915-1.648.511-.493.991-1.032 1.084-1.187.155-.292.14-.292-.65-.03-1.317.462-1.503.4-.853-.293.48-.493 1.054-1.387 1.054-1.649 0-.046-.232.031-.496.17-.279.154-.899.385-1.363.524l-.837.262-.76-.509c-.418-.277-1.006-.585-1.316-.678-.79-.215-2-.185-2.712.062-1.937.693-3.161 2.48-3.021 4.437z" fill="#fff"/></symbol><symbol fill="none" viewBox="0 0 24 17" id="youtube" xmlns="http://www.w3.org/2000/svg"><path fill-rule="evenodd" clip-rule="evenodd" d="M22.453 1.248c.708.721.94 2.36.94 2.36s.236 1.925.236 3.85v1.804c0 1.925-.237 3.849-.237 3.849s-.23 1.639-.939 2.36c-.81.854-1.707.942-2.215.992-.055.005-.106.01-.152.016-3.307.24-8.272.248-8.272.248s-6.143-.056-8.033-.239a5.205 5.205 0 00-.321-.045c-.6-.072-1.539-.186-2.285-.972-.708-.721-.939-2.36-.939-2.36S0 11.187 0 9.26V7.458c0-1.924.236-3.849.236-3.849s.23-1.639.939-2.36C1.986.393 2.885.306 3.392.256l.15-.015C6.85 0 11.81 0 11.81 0h.01s4.96 0 8.267.24c.045.006.096.011.15.016.508.05 1.407.137 2.217.992zM9.374 4.766v6.682l6.384-3.33-6.384-3.352z" fill="#fff"/></symbol></svg>