<svg width="48" height="48" viewBox="0 0 48 48" fill="none" xmlns="http://www.w3.org/2000/svg">
<path d="M24 48C37.2548 48 48 37.2548 48 24C48 10.7452 37.2548 0 24 0C10.7452 0 0 10.7452 0 24C0 37.2548 10.7452 48 24 48Z" fill="#1F2832"/>
<path d="M24 0C37.3 0 48 10.7 48 24C48 37.3 37.3 48 24 48" fill="url(#paint0_linear)"/>
<path d="M23.9998 35.1998C30.1854 35.1998 35.1998 30.1854 35.1998 23.9998C35.1998 17.8142 30.1854 12.7998 23.9998 12.7998C17.8142 12.7998 12.7998 17.8142 12.7998 23.9998C12.7998 30.1854 17.8142 35.1998 23.9998 35.1998Z" fill="white"/>
<path d="M24 12.7998C30.2 12.7998 35.2 17.7998 35.2 23.9998C35.2 30.1998 30.2 35.1998 24 35.1998" fill="white"/>
<path d="M23.9996 31.4016C28.0865 31.4016 31.3996 28.0885 31.3996 24.0016C31.3996 19.9147 28.0865 16.6016 23.9996 16.6016C19.9127 16.6016 16.5996 19.9147 16.5996 24.0016C16.5996 28.0885 19.9127 31.4016 23.9996 31.4016Z" fill="#1F2832"/>
<path d="M23.9996 31.4016C19.8996 31.4016 16.5996 28.1016 16.5996 24.0016C16.5996 19.9016 19.8996 16.6016 23.9996 16.6016" fill="url(#paint1_linear)"/>
<defs>
<linearGradient id="paint0_linear" x1="24.3826" y1="24" x2="47.4078" y2="24" gradientUnits="userSpaceOnUse">
<stop stop-color="#00F2D5"/>
<stop offset="0.953125" stop-color="#01BD95"/>
</linearGradient>
<linearGradient id="paint1_linear" x1="16.7176" y1="24.0016" x2="23.817" y2="24.0016" gradientUnits="userSpaceOnUse">
<stop stop-color="#00F2D5"/>
<stop offset="0.953125" stop-color="#01BD95"/>
</linearGradient>
</defs>
</svg>
