<svg width="48" height="48" viewBox="0 0 48 48" fill="none" xmlns="http://www.w3.org/2000/svg">
<path d="M24 0H0V48H24V0Z" fill="#1F2832"/>
<path d="M48 0H24V48H48V0Z" fill="url(#paint0_linear)"/>
<path d="M35.2998 12.7607H12.2998V35.3374H35.2998V12.7607Z" fill="white"/>
<path d="M23.9996 31.3118C28.0865 31.3118 31.3996 28.0597 31.3996 24.048C31.3996 20.0363 28.0865 16.7842 23.9996 16.7842C19.9127 16.7842 16.5996 20.0363 16.5996 24.048C16.5996 28.0597 19.9127 31.3118 23.9996 31.3118Z" fill="#1F2832"/>
<path d="M23.9996 31.2146C19.8996 31.2146 16.5996 27.9754 16.5996 23.9508C16.5996 19.9263 19.8996 16.687 23.9996 16.687" fill="url(#paint1_linear)"/>
<defs>
<linearGradient id="paint0_linear" x1="24.3826" y1="24" x2="47.4078" y2="24" gradientUnits="userSpaceOnUse">
<stop stop-color="#00F2D5"/>
<stop offset="0.953125" stop-color="#01BD95"/>
</linearGradient>
<linearGradient id="paint1_linear" x1="16.7176" y1="23.9508" x2="23.817" y2="23.9508" gradientUnits="userSpaceOnUse">
<stop stop-color="#00F2D5"/>
<stop offset="0.953125" stop-color="#01BD95"/>
</linearGradient>
</defs>
</svg>
