<svg width="48" height="48" viewBox="0 0 48 48" fill="none" xmlns="http://www.w3.org/2000/svg">
<path d="M24 48C37.2548 48 48 37.2548 48 24C48 10.7452 37.2548 0 24 0C10.7452 0 0 10.7452 0 24C0 37.2548 10.7452 48 24 48Z" fill="#1F2832"/>
<path d="M13.2996 23.5H7.09961V38H13.2996V23.5Z" fill="url(#paint0_linear)"/>
<path d="M41.2 13H35V27.5H41.2V13Z" fill="url(#paint1_linear)"/>
<path d="M22.7 13H16.5V48H22.7V13Z" fill="url(#paint2_linear)"/>
<path d="M32.2 17.9023H26V47.8023H32.2V17.9023Z" fill="url(#paint3_linear)"/>
<defs>
<linearGradient id="paint0_linear" x1="7.19845" y1="30.75" x2="13.1466" y2="30.75" gradientUnits="userSpaceOnUse">
<stop stop-color="#00F2D5"/>
<stop offset="0.953125" stop-color="#01BD95"/>
</linearGradient>
<linearGradient id="paint1_linear" x1="35.0988" y1="20.25" x2="41.047" y2="20.25" gradientUnits="userSpaceOnUse">
<stop stop-color="#00F2D5"/>
<stop offset="0.953125" stop-color="#01BD95"/>
</linearGradient>
<linearGradient id="paint2_linear" x1="16.5988" y1="30.5" x2="22.547" y2="30.5" gradientUnits="userSpaceOnUse">
<stop stop-color="#00F2D5"/>
<stop offset="0.953125" stop-color="#01BD95"/>
</linearGradient>
<linearGradient id="paint3_linear" x1="26.0988" y1="32.8523" x2="32.047" y2="32.8523" gradientUnits="userSpaceOnUse">
<stop stop-color="#00F2D5"/>
<stop offset="0.953125" stop-color="#01BD95"/>
</linearGradient>
</defs>
</svg>
