<svg width="37" height="38" viewBox="0 0 37 38" fill="none" xmlns="http://www.w3.org/2000/svg">
<g clip-path="url(#clip0)">
<path d="M0.138672 18.9678C0.138672 21.199 0.540038 23.3363 1.27323 25.3124L18.3793 26.8985L35.4855 25.3124C36.2187 23.3363 36.62 21.199 36.62 18.9678C36.62 16.7366 36.2187 14.5993 35.4855 12.6233L18.3793 11.0371L1.27323 12.6233C0.540038 14.5993 0.138672 16.7366 0.138672 18.9678Z" fill="#FFDA44"/>
<path d="M35.4857 12.6227C32.9084 5.6767 26.2224 0.726562 18.3796 0.726562C10.5367 0.726562 3.85072 5.6767 1.27344 12.6227H35.4857Z" fill="#D80027"/>
<path d="M1.27344 25.3115C3.85072 32.2575 10.5367 37.2077 18.3796 37.2077C26.2224 37.2077 32.9084 32.2575 35.4857 25.3115H1.27344Z" fill="#D80027"/>
</g>
<defs>
<clipPath id="clip0">
<rect x="0.138672" y="0.726562" width="36.4813" height="36.4813" fill="white"/>
</clipPath>
</defs>
</svg>
