<svg width="37" height="38" viewBox="0 0 37 38" fill="none" xmlns="http://www.w3.org/2000/svg">
<g clip-path="url(#clip0)">
<path d="M18.2724 37.2079C28.3465 37.2079 36.5131 29.0413 36.5131 18.9672C36.5131 8.89319 28.3465 0.726562 18.2724 0.726562C8.19837 0.726562 0.0317383 8.89319 0.0317383 18.9672C0.0317383 29.0413 8.19837 37.2079 18.2724 37.2079Z" fill="#F0F0F0"/>
<path d="M35.3785 25.3112C36.1118 23.3351 36.5131 21.1978 36.5131 18.9666C36.5131 16.7354 36.1118 14.5981 35.3785 12.6221H1.16629C0.433104 14.5981 0.0317383 16.7354 0.0317383 18.9666C0.0317383 21.1978 0.433104 23.3351 1.16629 25.3112L18.2724 26.8973L35.3785 25.3112Z" fill="#0052B4"/>
<path d="M18.2726 37.2076C26.1155 37.2076 32.8015 32.2576 35.3787 25.3115H1.1665C3.74378 32.2576 10.4298 37.2076 18.2726 37.2076Z" fill="#D80027"/>
</g>
<defs>
<clipPath id="clip0">
<rect x="0.0317383" y="0.726562" width="36.4813" height="36.4813" fill="white"/>
</clipPath>
</defs>
</svg>
