<svg width="37" height="38" viewBox="0 0 37 38" fill="none" xmlns="http://www.w3.org/2000/svg">
<g clip-path="url(#clip0)">
<path d="M18.7592 37.2079C28.8333 37.2079 36.9999 29.0413 36.9999 18.9672C36.9999 8.89319 28.8333 0.726562 18.7592 0.726562C8.68518 0.726562 0.518555 8.89319 0.518555 18.9672C0.518555 29.0413 8.68518 37.2079 18.7592 37.2079Z" fill="#D80027"/>
<path d="M18.0124 15.6318L19.509 17.6942L21.9328 16.9083L20.4338 18.969L21.9303 21.0313L19.5073 20.2424L18.0084 22.303L18.0099 19.7549L15.5869 18.966L18.0108 18.1801L18.0124 15.6318Z" fill="#F0F0F0"/>
<path d="M13.9278 24.1227C11.0808 24.1227 8.77282 21.8146 8.77282 18.9677C8.77282 16.1207 11.0808 13.8127 13.9278 13.8127C14.8155 13.8127 15.6507 14.0372 16.3799 14.4323C15.2359 13.3135 13.6714 12.623 11.9451 12.623C8.44107 12.623 5.60059 15.4636 5.60059 18.9676C5.60059 22.4716 8.44114 25.3121 11.9451 25.3121C13.6716 25.3121 15.236 24.6216 16.3799 23.5029C15.6507 23.8981 14.8155 24.1227 13.9278 24.1227Z" fill="#F0F0F0"/>
</g>
<defs>
<clipPath id="clip0">
<rect x="0.518555" y="0.726562" width="36.4813" height="36.4813" fill="white"/>
</clipPath>
</defs>
</svg>
