<svg width="1440" height="2132" viewBox="0 0 1440 2132" fill="none" xmlns="http://www.w3.org/2000/svg">
    <g opacity="0.1" filter="url(#filter0_i)">
        <path fill-rule="evenodd" clip-rule="evenodd" d="M1465.05 200.42C1438.57 179.704 1406.33 190.463 1378.12 208.876C1349.9 227.288 1283.83 280.531 1185.29 222.058C1086.75 163.586 1062.57 170.502 1029.25 183.038C995.94 195.573 955.345 162.495 919.091 187.042C882.836 211.589 830.647 234.579 752.99 170.265C675.332 105.951 646.683 181.83 579.974 113.979C513.266 46.1278 450.132 -26.6958 365.974 9.71601C281.816 46.1278 241.534 47.0624 194.064 22.6351C146.594 -1.79223 129.114 -2.83762 77.9799 38.7023C26.8461 80.2422 -55.1517 87.47 -55.1517 87.47L-87 579.149L1484.54 600C1484.54 600 1491.53 221.136 1465.05 200.42Z" fill="#F7F9FB"/>
    </g>
    <g opacity="0.2" filter="url(#filter1_i)">
        <path fill-rule="evenodd" clip-rule="evenodd" d="M1520.76 248.056C1487.03 216.899 1446.06 219.96 1383.69 248.056C1321.31 276.152 1286.64 274.874 1219.73 255.445C1152.82 236.016 1130.73 285.42 1078.21 231.732C1025.68 178.045 996.664 180.505 925.731 214.28C854.799 248.056 855.471 151.958 690.922 170.844C526.373 189.73 546.432 70 380.113 70C213.795 70 195.821 259.514 31.573 180.457C-132.675 101.4 -25.9917 620 -25.9917 620L1487.03 614.33C1487.03 614.33 1554.49 279.213 1520.76 248.056Z" fill="#F2F4F8"/>
    </g>
    <path fill-rule="evenodd" clip-rule="evenodd" d="M1436.13 256.373C1483.11 232.503 1524.4 271.192 1524.4 271.192L1533 957H1439V2132H-1V957H-43.0459C-43.0459 957 -100.258 331.944 -20.8258 256.373C34.3169 203.911 70.6077 215.655 107.96 227.743C124.413 233.068 141.072 238.459 159.639 238.459C186.226 238.459 203.913 224.374 223.797 208.539C249.323 188.211 278.47 165 334.715 165C371.642 165 406.674 177.445 442.034 190.006C502.488 211.481 563.899 233.296 637.369 193.842C732.61 142.696 770.544 174.244 812.826 209.409C822.239 217.238 831.867 225.246 842.391 232.56C886.459 263.188 944.433 255.41 984.862 249.987C997.459 248.297 1008.35 246.835 1016.59 246.835C1028.66 246.835 1041.21 251.306 1055.52 256.401C1082.35 265.953 1115.35 277.7 1162.8 266.28C1202.37 256.757 1238.1 266.079 1267.35 273.71C1291.89 280.11 1311.87 285.322 1325.73 277.231C1339.8 269.021 1354.43 269.057 1370.75 269.096C1389.69 269.143 1410.9 269.195 1436.13 256.373Z" fill="white"/>
    <mask id="mask0" mask-type="alpha" maskUnits="userSpaceOnUse" x="-63" y="165" width="1596" height="1967">
        <path fill-rule="evenodd" clip-rule="evenodd" d="M1436.13 256.373C1483.11 232.503 1524.4 271.192 1524.4 271.192L1533 957H1439V2132H-1V957H-43.0459C-43.0459 957 -100.258 331.944 -20.8258 256.373C34.3169 203.911 70.6077 215.655 107.96 227.743C124.413 233.068 141.072 238.459 159.639 238.459C186.226 238.459 203.913 224.374 223.797 208.539C249.323 188.211 278.47 165 334.715 165C371.642 165 406.674 177.445 442.034 190.006C502.488 211.481 563.899 233.296 637.369 193.842C732.61 142.696 770.544 174.244 812.826 209.409C822.239 217.238 831.867 225.246 842.391 232.56C886.459 263.188 944.433 255.41 984.862 249.987C997.459 248.297 1008.35 246.835 1016.59 246.835C1028.66 246.835 1041.21 251.306 1055.52 256.401C1082.35 265.953 1115.35 277.7 1162.8 266.28C1202.37 256.757 1238.1 266.079 1267.35 273.71C1291.89 280.11 1311.87 285.322 1325.73 277.231C1339.8 269.021 1354.43 269.057 1370.75 269.096C1389.69 269.143 1410.9 269.195 1436.13 256.373Z" fill="white"/>
    </mask>
    <g mask="url(#mask0)">
    </g>
    <defs>
        <filter id="filter0_i" x="-87" y="0" width="1572.37" height="601" filterUnits="userSpaceOnUse" color-interpolation-filters="sRGB">
            <feFlood flood-opacity="0" result="BackgroundImageFix"/>
            <feBlend mode="normal" in="SourceGraphic" in2="BackgroundImageFix" result="shape"/>
            <feColorMatrix in="SourceAlpha" type="matrix" values="0 0 0 0 0 0 0 0 0 0 0 0 0 0 0 0 0 0 127 0" result="hardAlpha"/>
            <feOffset dy="1"/>
            <feGaussianBlur stdDeviation="36.5"/>
            <feComposite in2="hardAlpha" operator="arithmetic" k2="-1" k3="1"/>
            <feColorMatrix type="matrix" values="0 0 0 0 0.922177 0 0 0 0 0.953106 0 0 0 0 0.984035 0 0 0 1 0"/>
            <feBlend mode="normal" in2="shape" result="effect1_innerShadow"/>
        </filter>
        <filter id="filter1_i" x="-60.0524" y="70" width="1590.25" height="551" filterUnits="userSpaceOnUse" color-interpolation-filters="sRGB">
            <feFlood flood-opacity="0" result="BackgroundImageFix"/>
            <feBlend mode="normal" in="SourceGraphic" in2="BackgroundImageFix" result="shape"/>
            <feColorMatrix in="SourceAlpha" type="matrix" values="0 0 0 0 0 0 0 0 0 0 0 0 0 0 0 0 0 0 127 0" result="hardAlpha"/>
            <feOffset dy="1"/>
            <feGaussianBlur stdDeviation="56.5"/>
            <feComposite in2="hardAlpha" operator="arithmetic" k2="-1" k3="1"/>
            <feColorMatrix type="matrix" values="0 0 0 0 0.847059 0 0 0 0 0.886275 0 0 0 0 0.92549 0 0 0 1 0"/>
            <feBlend mode="normal" in2="shape" result="effect1_innerShadow"/>
        </filter>
    </defs>
</svg>
