<svg width="38" height="38" viewBox="0 0 38 38" fill="none" xmlns="http://www.w3.org/2000/svg">
<g clip-path="url(#clip0)">
<path d="M18.9196 37.2079C28.9937 37.2079 37.1603 29.0413 37.1603 18.9672C37.1603 8.89319 28.9937 0.726562 18.9196 0.726562C8.84558 0.726562 0.678955 8.89319 0.678955 18.9672C0.678955 29.0413 8.84558 37.2079 18.9196 37.2079Z" fill="#F0F0F0"/>
<path d="M0.678955 18.9671C0.678955 25.8811 4.52581 31.8962 10.1958 34.9899V2.94434C4.52581 6.03805 0.678955 12.0531 0.678955 18.9671Z" fill="#F0F0F0"/>
<path d="M18.9196 0.726562C15.7596 0.726562 12.7873 1.53051 10.1958 2.94444V34.99C12.7873 36.404 15.7596 37.2079 18.9196 37.2079C28.9936 37.2079 37.1603 29.0412 37.1603 18.9672C37.1603 8.89325 28.9936 0.726562 18.9196 0.726562Z" fill="#496E2D"/>
<path d="M26.7185 21.985C24.4108 23.6524 21.1884 23.1333 19.521 20.8258C17.8536 18.518 18.3727 15.2956 20.6803 13.6283C21.3998 13.1085 22.2083 12.8011 23.0307 12.6943C21.4484 12.4577 19.7758 12.8143 18.3766 13.8253C15.5365 15.8775 14.8975 19.8435 16.9497 22.6837C19.0018 25.5238 22.9679 26.1628 25.8082 24.1104C27.2075 23.0994 28.0711 21.6236 28.3432 20.0468C27.9837 20.794 27.4381 21.465 26.7185 21.985Z" fill="#F0F0F0"/>
<path d="M26.6197 12.623L27.9196 14.0239L29.6536 13.2208L28.7229 14.8898L30.0227 16.2908L28.1476 15.9214L27.2169 17.5906L26.9889 15.6931L25.1138 15.3237L26.8478 14.5205L26.6197 12.623Z" fill="#F0F0F0"/>
</g>
<defs>
<clipPath id="clip0">
<rect x="0.678955" y="0.726562" width="36.4813" height="36.4813" fill="white"/>
</clipPath>
</defs>
</svg>
