<svg width="38" height="38" viewBox="0 0 38 38" fill="none" xmlns="http://www.w3.org/2000/svg">
<g clip-path="url(#clip0)">
<path d="M19.2187 37.2079C29.2927 37.2079 37.4594 29.0413 37.4594 18.9672C37.4594 8.89319 29.2927 0.726562 19.2187 0.726562C9.14465 0.726562 0.978027 8.89319 0.978027 18.9672C0.978027 29.0413 9.14465 37.2079 19.2187 37.2079Z" fill="#D80027"/>
<path d="M10.9603 11.8271L12.5349 16.6723H17.6295L13.5111 19.6721L15.0858 24.5172L10.9603 21.5246L6.83473 24.5172L8.41654 19.6721L4.29102 16.6723H9.38558L10.9603 11.8271Z" fill="#FFDA44"/>
<path d="M22.6028 28.9782L21.3986 27.4962L19.6173 28.1873L20.6505 26.5841L19.4463 25.0949L21.2917 25.5866L22.332 23.9834L22.4318 25.893L24.2843 26.3846L22.4959 27.0686L22.6028 28.9782Z" fill="#FFDA44"/>
<path d="M24.9972 24.6316L25.5673 22.8076L24.0068 21.7032L25.9164 21.6747L26.4793 19.8506L27.0992 21.6604L29.0088 21.639L27.4768 22.7791L28.0896 24.5889L26.5292 23.4845L24.9972 24.6316Z" fill="#FFDA44"/>
<path d="M28.2246 14.1146L27.3838 15.8318L28.7519 17.1642L26.8637 16.8935L26.0229 18.6035L25.6951 16.7225L23.7998 16.4517L25.4956 15.561L25.1679 13.6729L26.5359 15.0053L28.2246 14.1146Z" fill="#FFDA44"/>
<path d="M22.653 8.91309L22.5105 10.8155L24.2847 11.5352L22.425 11.9912L22.2897 13.9008L21.285 12.2762L19.4253 12.7322L20.658 11.2715L19.6462 9.65411L21.4204 10.3738L22.653 8.91309Z" fill="#FFDA44"/>
</g>
<defs>
<clipPath id="clip0">
<rect x="0.978027" y="0.726562" width="36.4813" height="36.4813" fill="white"/>
</clipPath>
</defs>
</svg>
