<svg width="37" height="38" viewBox="0 0 37 38" fill="none" xmlns="http://www.w3.org/2000/svg">
<g clip-path="url(#clip0)">
<path d="M18.3256 37.2079C28.3997 37.2079 36.5663 29.0413 36.5663 18.9672C36.5663 8.89319 28.3997 0.726562 18.3256 0.726562C8.25159 0.726562 0.0849609 8.89319 0.0849609 18.9672C0.0849609 29.0413 8.25159 37.2079 18.3256 37.2079Z" fill="#F0F0F0"/>
<path d="M10.395 25.3115L11.9812 36.0732C13.9572 36.8065 16.0945 37.2077 18.3257 37.2077C26.1685 37.2077 32.8546 32.2576 35.4318 25.3115H10.395Z" fill="black"/>
<path d="M10.395 12.6227L11.9812 1.86098C13.9572 1.12771 16.0945 0.726562 18.3257 0.726562C26.1685 0.726562 32.8546 5.67662 35.4318 12.6227H10.395Z" fill="#6DA544"/>
<path d="M0.0849609 18.9674C0.0849609 26.8103 5.03509 33.4963 11.9811 36.0736V1.86133C5.03509 4.43861 0.0849609 11.1246 0.0849609 18.9674Z" fill="#A2001D"/>
</g>
<defs>
<clipPath id="clip0">
<rect x="0.0849609" y="0.726562" width="36.4813" height="36.4813" fill="white"/>
</clipPath>
</defs>
</svg>
