<svg width="38" height="38" viewBox="0 0 38 38" fill="none" xmlns="http://www.w3.org/2000/svg">
<g clip-path="url(#clip0)">
<path d="M18.8127 37.2079C28.8867 37.2079 37.0534 29.0413 37.0534 18.9672C37.0534 8.89319 28.8867 0.726562 18.8127 0.726562C8.73865 0.726562 0.572021 8.89319 0.572021 18.9672C0.572021 29.0413 8.73865 37.2079 18.8127 37.2079Z" fill="#FCFCFC"/>
<path d="M8.10621 17.6455L6.12354 14.0484L8.10621 10.5078L10.0889 14.0484L8.10621 17.6455Z" fill="#A2001D"/>
<path d="M4.14088 17.6455L2.1582 14.0484L4.14088 10.5078L6.12355 14.0484L4.14088 17.6455Z" fill="#A2001D"/>
<path d="M8.10621 27.4267L6.12354 23.8297L8.10621 20.2891L10.0889 23.8297L8.10621 27.4267Z" fill="#A2001D"/>
<path d="M4.14088 27.4267L2.1582 23.8297L4.14088 20.2891L6.12355 23.8297L4.14088 27.4267Z" fill="#A2001D"/>
<path d="M10.089 4.26703L9.52772 3.26465C8.52092 3.86118 7.57661 4.55183 6.70654 5.32449L8.10637 7.86401L10.089 4.26703Z" fill="#A2001D"/>
<path d="M8.1063 30.0703L6.69165 32.5967C7.56093 33.3703 8.5046 34.062 9.51097 34.6598L10.089 33.611L8.1063 30.0703Z" fill="#A2001D"/>
<path d="M11.675 23.7256V35.7575C13.8674 36.6907 16.2795 37.2078 18.8127 37.2078C26.6556 37.2078 33.3415 32.2577 35.9188 25.3117L11.675 23.7256Z" fill="#6DA544"/>
<path d="M35.9188 25.3118C36.6521 23.3357 37.0534 21.1984 37.0534 18.9672C37.0534 8.89325 28.8867 0.726562 18.8127 0.726562C16.2797 0.726562 13.8674 1.24336 11.675 2.17641V25.3119H35.9188V25.3118Z" fill="#A2001D"/>
</g>
<defs>
<clipPath id="clip0">
<rect x="0.572021" y="0.726562" width="36.4813" height="36.4813" fill="white"/>
</clipPath>
</defs>
</svg>
