<svg width="37" height="38" viewBox="0 0 37 38" fill="none" xmlns="http://www.w3.org/2000/svg">
<g clip-path="url(#clip0)">
<path d="M18.2407 37.2079C28.3147 37.2079 36.4813 29.0413 36.4813 18.9672C36.4813 8.89319 28.3147 0.726562 18.2407 0.726562C8.16663 0.726562 0 8.89319 0 18.9672C0 29.0413 8.16663 37.2079 18.2407 37.2079Z" fill="#F0F0F0"/>
<path d="M3.77073 7.86133C2.33791 9.72551 1.25751 11.8741 0.628418 14.2083H10.1177L3.77073 7.86133Z" fill="#0052B4"/>
<path d="M35.8529 14.2082C35.2238 11.8741 34.1433 9.72551 32.7106 7.86133L26.3638 14.2082H35.8529Z" fill="#0052B4"/>
<path d="M0.628418 23.7256C1.25758 26.0597 2.33798 28.2083 3.77073 30.0724L10.1175 23.7256H0.628418Z" fill="#0052B4"/>
<path d="M29.3459 4.49688C27.4817 3.06406 25.3332 1.98365 22.999 1.35449V10.8437L29.3459 4.49688Z" fill="#0052B4"/>
<path d="M7.13525 33.4366C8.99944 34.8694 11.1481 35.9498 13.4822 36.579V27.0898L7.13525 33.4366Z" fill="#0052B4"/>
<path d="M13.4821 1.35449C11.148 1.98365 8.99937 3.06406 7.13525 4.4968L13.4821 10.8436V1.35449Z" fill="#0052B4"/>
<path d="M22.999 36.579C25.3331 35.9498 27.4817 34.8694 29.3459 33.4367L22.999 27.0898V36.579Z" fill="#0052B4"/>
<path d="M26.3638 23.7256L32.7106 30.0725C34.1433 28.2084 35.2238 26.0597 35.8529 23.7256H26.3638Z" fill="#0052B4"/>
<path d="M36.3269 16.588H20.62H20.6199V0.880967C19.8411 0.779574 19.047 0.726562 18.2407 0.726562C17.4342 0.726562 16.6403 0.779574 15.8615 0.880967V16.5879V16.588H0.154404C0.053012 17.3668 0 18.1609 0 18.9672C0 19.7737 0.053012 20.5676 0.154404 21.3464H15.8613H15.8614V37.0535C16.6403 37.1549 17.4342 37.2079 18.2407 37.2079C19.047 37.2079 19.8411 37.155 20.6199 37.0535V21.3466V21.3465H36.3269C36.4283 20.5676 36.4813 19.7737 36.4813 18.9672C36.4813 18.1609 36.4283 17.3668 36.3269 16.588Z" fill="#D80027"/>
<path d="M22.999 23.7257L31.1386 31.8653C31.513 31.4911 31.8701 31.0998 32.2108 30.6942L25.2422 23.7256H22.999V23.7257Z" fill="#D80027"/>
<path d="M13.4825 23.7256H13.4823L5.34277 31.8651C5.71699 32.2395 6.10824 32.5966 6.51381 32.9373L13.4825 25.9685V23.7256Z" fill="#D80027"/>
<path d="M13.4823 14.2092V14.209L5.34272 6.06934C4.96836 6.44355 4.61124 6.8348 4.27051 7.24037L11.2392 14.2091H13.4823V14.2092Z" fill="#D80027"/>
<path d="M22.999 14.209L31.1387 6.06921C30.7645 5.69485 30.3732 5.33773 29.9677 4.99707L22.999 11.9658V14.209Z" fill="#D80027"/>
</g>
<defs>
<clipPath id="clip0">
<rect y="0.726562" width="36.4813" height="36.4813" fill="white"/>
</clipPath>
</defs>
</svg>
