<svg width="38" height="38" viewBox="0 0 38 38" fill="none" xmlns="http://www.w3.org/2000/svg">
<g clip-path="url(#clip0)">
<path d="M19.1655 37.2079C29.2395 37.2079 37.4062 29.0413 37.4062 18.9672C37.4062 8.89319 29.2395 0.726562 19.1655 0.726562C9.09143 0.726562 0.924805 8.89319 0.924805 18.9672C0.924805 29.0413 9.09143 37.2079 19.1655 37.2079Z" fill="#F0F0F0"/>
<path d="M19.1656 0.726562C11.9339 0.726562 5.68529 4.9351 2.73486 11.0365H35.5962C32.6459 4.9351 26.3972 0.726562 19.1656 0.726562Z" fill="#FF9811"/>
<path d="M19.1656 37.2074C26.3972 37.2074 32.6459 32.9989 35.5963 26.8975H2.73486C5.68529 32.9989 11.9339 37.2074 19.1656 37.2074Z" fill="#6DA544"/>
<path d="M19.1653 25.3121C22.6693 25.3121 25.5099 22.4716 25.5099 18.9676C25.5099 15.4636 22.6693 12.623 19.1653 12.623C15.6614 12.623 12.8208 15.4636 12.8208 18.9676C12.8208 22.4716 15.6614 25.3121 19.1653 25.3121Z" fill="#0052B4"/>
<path d="M19.1655 22.9326C21.3555 22.9326 23.1309 21.1573 23.1309 18.9673C23.1309 16.7773 21.3555 15.002 19.1655 15.002C16.9755 15.002 15.2002 16.7773 15.2002 18.9673C15.2002 21.1573 16.9755 22.9326 19.1655 22.9326Z" fill="#F0F0F0"/>
<path d="M19.1653 14.0742L20.3887 16.8487L23.403 16.5208L21.6119 18.9674L23.403 21.414L20.3887 21.0862L19.1653 23.8606L17.942 21.0862L14.9277 21.414L16.7187 18.9674L14.9277 16.5208L17.942 16.8487L19.1653 14.0742Z" fill="#0052B4"/>
</g>
<defs>
<clipPath id="clip0">
<rect x="0.924805" y="0.726562" width="36.4813" height="36.4813" fill="white"/>
</clipPath>
</defs>
</svg>
