<svg width="108" height="15" viewBox="0 0 108 15" fill="none" xmlns="http://www.w3.org/2000/svg">
<path d="M0.59375 0.895676H7.3044C9.10814 0.895676 12.0174 1.72036 12.0174 4.48894C12.0174 6.88446 10.0197 7.51279 10.0197 7.51279C10.0197 7.51279 12.4829 7.90549 12.5023 10.7526C12.5023 12.8929 10.9701 14.6797 7.84746 14.6797H0.59375V13.0303L2.08716 12.7554V2.81994L0.59375 2.52541V0.895676ZM13.4914 5.15655C13.4914 5.15655 13.4138 0.679688 18.2238 0.679688C22.51 0.679688 22.8204 3.99806 22.801 4.66566C22.801 5.49035 22.4325 6.74701 21.967 7.2968C21.23 8.20002 17.2928 12.5787 17.2928 12.5787H20.9972L21.1136 11.2042H23.1889V14.6797H13.7047V12.8732L18.1074 8.23929C18.1074 8.23929 20.1051 6.17758 20.0275 4.72457C19.9887 4.13551 19.7172 2.81994 18.2044 2.81994C16.6722 2.81994 16.2067 4.09624 16.2067 5.17618L13.4914 5.15655ZM7.92504 12.5787C7.92504 12.5787 9.76756 12.4609 9.76756 10.7133C9.76756 8.9658 8.52629 8.55346 8.06081 8.55346H4.86064V12.5787H7.92504ZM7.22682 2.99666H4.84125V6.6881C4.84125 6.6881 7.3238 6.6881 7.42077 6.6881C7.53714 6.6881 9.20511 6.55065 9.20511 4.88165C9.2245 3.05556 7.22682 2.99666 7.22682 2.99666Z" fill="#01B68F"/>
<path d="M38.1435 4.99748H37.2901V1.97364H33.0232V13.5389H34.2839V14.4421H30.754V13.5389H32.0147V1.97364H27.7478V5.01712H26.875V1.05078H38.1435V4.99748Z" fill="#383838"/>
<path d="M34.4804 14.6404H30.5626V13.3444H31.8233V2.15227H27.9443V5.19575H26.6836V0.875977H38.3206V5.19575H37.0987V2.15227H33.2197V13.3444H34.4804V14.6404ZM30.9505 14.2476H34.1119V13.7175H32.8512V1.7792H37.4866V4.82268H37.9715V1.24905H27.0715V4.82268H27.5758V1.7792H32.2112V13.7175H30.9505V14.2476Z" fill="#383838"/>
<path d="M52.2855 13.5407V14.4439H49.6478L49.2211 13.58C48.3483 11.8128 47.7277 10.615 47.3592 10.026C46.9907 9.41728 46.661 9.02458 46.3313 8.82822C46.0015 8.63187 45.5167 8.53369 44.8572 8.53369H42.3553V13.5407H43.9263V14.4439H40.1055V13.5407H41.3661V1.97549H40.1055V1.07227H46.6028C49.4538 1.07227 50.7145 2.19148 50.7145 4.74407C50.7145 7.08068 49.609 8.19989 47.1846 8.2588V8.35698C47.4756 8.45515 47.7083 8.61224 47.8828 8.82822C48.0768 9.04421 48.3483 9.47619 48.678 10.1438C49.0271 10.7721 49.5896 11.9306 50.3848 13.5407H52.2855ZM46.661 1.97549H42.3747V7.63047H46.6416C48.775 7.63047 49.706 6.76651 49.706 4.80298C49.6866 2.80018 48.7944 1.97549 46.661 1.97549Z" fill="#383838"/>
<path d="M52.4784 14.6385H49.5303L49.0648 13.6567C48.1921 11.9092 47.5714 10.7114 47.2223 10.1224C46.8732 9.53331 46.5435 9.16024 46.2526 8.98352C45.9617 8.80681 45.4962 8.72826 44.8755 8.72826H42.5675V13.3426H44.1385V14.6385H39.9492V13.3426H41.2099V2.15042H39.9492V0.854492H46.6017C49.5691 0.854492 50.888 2.05225 50.888 4.72265C50.888 6.98072 49.8406 8.17847 47.7072 8.39446C47.8236 8.473 47.9205 8.57118 48.0175 8.66936C48.2115 8.88535 48.483 9.31732 48.8515 10.0242C49.22 10.6918 49.7825 11.8306 50.5001 13.3229H52.4784V14.6385ZM49.7631 14.2458H52.0905V13.7156H50.2479L50.1898 13.6175C49.4527 12.0663 48.8515 10.9078 48.5024 10.2205C48.1533 9.57258 47.9012 9.1406 47.7266 8.94425C47.552 8.7479 47.3387 8.61045 47.106 8.53191L46.9702 8.49264V8.0803H47.1447C49.4527 8.02139 50.5001 7.00035 50.5001 4.74229C50.5001 2.30751 49.3364 1.26683 46.5823 1.26683H40.2983V1.79699H41.559V13.7353H40.2983V14.2654H43.7506V13.7353H42.1796V8.33556H44.8755C45.5544 8.33556 46.0974 8.43373 46.4465 8.64972C46.7956 8.86571 47.1447 9.27805 47.552 9.90638C47.9205 10.5151 48.5412 11.7128 49.414 13.48L49.7631 14.2458ZM46.6405 7.8054H42.199V1.77735H46.6599C48.8903 1.77735 49.8794 2.70021 49.8794 4.78156C49.8794 6.86291 48.8709 7.8054 46.6405 7.8054ZM42.5675 7.43233H46.6405C48.6769 7.43233 49.5109 6.66655 49.5109 4.8012C49.5109 2.89657 48.7157 2.17006 46.6599 2.17006H42.5675V7.43233Z" fill="#383838"/>
<path d="M66.8486 13.5407V14.4439H62.7563V13.5407H64.56L63.0666 9.67254H57.3063L55.8129 13.5407H57.6166V14.4439H53.6406V13.5407H54.8431L59.5949 1.07227H60.8749L65.6461 13.5407H66.8486ZM62.7369 8.80859L60.2155 2.23075H60.1379L57.6166 8.80859H62.7369Z" fill="#383838"/>
<path d="M67.0257 14.6384H62.5648V13.3425H64.2716L62.9334 9.84737H57.4252L56.0869 13.3425H57.7937V14.6384H53.4492V13.3425H54.7099L59.4617 0.874023H60.9939L65.765 13.3425H67.0257V14.6384ZM62.9334 14.2457H66.6378V13.7155H65.4935L60.7223 1.2471H59.6944L54.9426 13.7155H53.7983V14.2457H57.3864V13.7155H55.5245L57.1537 9.4743H63.1855L64.8147 13.7155H62.9334V14.2457ZM63.0109 9.00305H57.3476L60.0047 2.05214H60.3344L63.0109 9.00305ZM57.8907 8.62998H62.4679L60.1793 2.66084L57.8907 8.62998Z" fill="#383838"/>
<path d="M73.717 14.4459H68.4609V13.5427H69.7216V1.97744H68.4609V1.07422H73.717C77.7123 1.07422 79.8846 3.35192 79.8846 7.76987C79.8846 12.1485 77.7123 14.4459 73.717 14.4459ZM73.7752 1.97744H70.7107V13.5427H73.7752C77.0723 13.5427 78.876 11.5595 78.876 7.76987C78.876 3.96061 77.0723 1.97744 73.7752 1.97744Z" fill="#383838"/>
<path d="M73.7157 14.6385H68.2852V13.3426H69.5458V2.15042H68.2852V0.854492H73.7157C77.8663 0.854492 80.0773 3.23037 80.0773 7.72686C80.0773 12.1841 77.8081 14.6385 73.7157 14.6385ZM68.6537 14.2458H73.7157C77.6335 14.2458 79.6894 12.0074 79.6894 7.7465C79.6894 3.48563 77.6141 1.2472 73.7157 1.2472H68.6537V1.77735H69.9143V13.7156H68.6537V14.2458ZM73.7739 13.7156H70.535V1.77735H73.7739C77.1874 1.77735 79.0688 3.89797 79.0688 7.7465C79.0688 11.595 77.1874 13.7156 73.7739 13.7156ZM70.9035 13.3426H73.7739C76.9935 13.3426 78.6809 11.4183 78.6809 7.7465C78.6809 4.09432 76.9741 2.15042 73.7739 2.15042H70.9035V13.3426Z" fill="#383838"/>
<path d="M91.6934 4.35332V1.97744H84.2264V7.063H90.2582V7.94659H84.2264V13.5427H91.6934V10.7937H92.6438V14.4459H81.9766V13.5427H83.2372V1.97744H81.9766V1.07422H92.6438V4.35332H91.6934Z" fill="#383838"/>
<path d="M92.8403 14.6385H81.7852V13.3426H83.0458V2.15042H81.7852V0.854492H92.8403V4.5263H91.502V2.15042H84.4035V6.86291H90.4353V8.1392H84.4035V13.3426H91.502V10.5936H92.8403V14.6385ZM82.1537 14.2458H92.4524V10.9667H91.8705V13.7156H84.035V7.7465H90.0668V7.23598H84.035V1.77735H91.8705V4.15323H92.4524V1.2472H82.1537V1.77735H83.4143V13.7156H82.1537V14.2458Z" fill="#383838"/>
<path d="M107.211 13.5427V14.4459H104.574L104.147 13.5819C103.274 11.8147 102.653 10.617 102.285 10.0279C101.916 9.41924 101.587 9.02653 101.257 8.83018C100.927 8.63382 100.442 8.53565 99.783 8.53565H97.2811V13.5427H98.8521V14.4459H95.0312V13.5427H96.2919V1.97744H95.0312V1.07422H101.509C104.36 1.07422 105.621 2.19343 105.621 4.74603C105.621 7.08263 104.515 8.20185 102.091 8.26075V8.35893C102.382 8.45711 102.615 8.61419 102.789 8.83018C102.983 9.04617 103.255 9.47814 103.584 10.1457C103.934 10.7741 104.496 11.9326 105.291 13.5427H107.211ZM101.587 1.97744H97.3005V7.63242H101.567C103.701 7.63242 104.632 6.76847 104.632 4.80493C104.612 2.80213 103.72 1.97744 101.587 1.97744Z" fill="#383838"/>
<path d="M107.404 14.6385H104.456L103.991 13.6567C103.118 11.9092 102.497 10.7114 102.148 10.1224C101.799 9.53331 101.469 9.16024 101.178 8.98352C100.887 8.80681 100.422 8.72826 99.8013 8.72826H97.4933V13.3426H99.0643V14.6385H94.875V13.3426H96.1357V2.15042H94.875V0.854492H101.527C104.495 0.854492 105.814 2.05225 105.814 4.72265C105.814 6.98072 104.766 8.17847 102.633 8.39446C102.749 8.473 102.846 8.57118 102.943 8.66936C103.137 8.88535 103.409 9.31732 103.777 10.0242C104.126 10.6918 104.708 11.8306 105.426 13.3229H107.404V14.6385ZM104.689 14.2458H107.016V13.7156H105.174L105.116 13.6175C104.379 12.0663 103.777 10.9078 103.428 10.2205C103.079 9.55295 102.827 9.1406 102.652 8.94425C102.478 8.7479 102.264 8.61045 102.032 8.53191L101.896 8.49264V8.0803H102.071C104.379 8.02139 105.426 7.00035 105.426 4.74229C105.426 2.30751 104.262 1.26683 101.508 1.26683H95.2241V1.79699H96.4848V13.7353H95.2241V14.2654H98.6764V13.7353H97.1054V8.33556H99.8013C100.48 8.33556 101.023 8.43373 101.372 8.64972C101.721 8.86571 102.071 9.27805 102.478 9.90638C102.846 10.5151 103.467 11.7128 104.34 13.48L104.689 14.2458ZM101.566 7.8054H97.1248V1.77735H101.586C103.816 1.77735 104.805 2.70021 104.805 4.78156C104.805 6.86291 103.797 7.8054 101.566 7.8054ZM97.4933 7.43233H101.566C103.603 7.43233 104.437 6.66655 104.437 4.8012C104.437 2.89657 103.642 2.17006 101.586 2.17006H97.4933V7.43233Z" fill="#383838"/>
</svg>
