<svg width="98" height="19" viewBox="0 0 98 19" fill="none" xmlns="http://www.w3.org/2000/svg">
<path d="M40.2902 1.44043H51.8698C52.2403 1.44043 52.5182 1.44043 52.6108 1.53567C52.7961 1.72614 52.9814 1.91662 52.9814 2.20233C52.9814 2.48805 52.8888 2.67852 52.6108 2.869C52.4256 2.96424 52.1477 2.96424 51.8698 2.96424H46.96V16.869C46.96 17.25 46.8674 17.5357 46.7748 17.7261C46.5895 18.0119 46.4042 18.1071 46.0337 18.1071C45.6631 18.1071 45.4778 18.0119 45.2926 17.7261C45.1999 17.5357 45.1073 17.25 45.1073 16.869V3.05948H40.1976C39.827 3.05948 39.5491 3.05948 39.4565 2.96424C39.2712 2.77376 39.0859 2.58329 39.0859 2.29757C39.0859 2.01186 39.1786 1.82138 39.4565 1.63091C39.7344 1.53567 40.0123 1.44043 40.2902 1.44043Z" fill="#383838"/>
<path d="M54.6507 7.63114V8.01209C55.0213 7.5359 55.3918 7.15495 56.0403 6.86923C56.5961 6.58352 57.2445 6.48828 57.893 6.48828C58.7267 6.48828 59.3752 6.67876 60.0236 7.05971C60.4868 7.34542 60.6721 7.63114 60.6721 7.91685C60.6721 8.10733 60.5794 8.39304 60.3942 8.48828C60.2089 8.67876 60.0236 8.774 59.8383 8.774C59.6531 8.774 59.3752 8.67876 59.0046 8.48828C58.5414 8.20257 58.0783 8.10733 57.5224 8.10733C56.6887 8.10733 55.9476 8.39304 55.4844 8.96447C55.0213 9.5359 54.7434 10.2978 54.7434 11.1549V17.0597C54.7434 17.4407 54.6507 17.6311 54.5581 17.8216C54.3728 18.1073 54.1875 18.2026 53.817 18.2026C53.4464 18.2026 53.2612 18.1073 53.0759 17.8216C52.9833 17.6311 52.8906 17.4407 52.8906 17.0597V7.63114C52.8906 7.25019 52.9833 7.05971 53.0759 6.86923C53.2612 6.58352 53.4464 6.48828 53.817 6.48828C54.1875 6.48828 54.3728 6.58352 54.5581 6.86923C54.5581 6.96447 54.6507 7.25019 54.6507 7.63114Z" fill="#383838"/>
<path d="M61.6914 14.7755C61.6914 13.7279 62.062 12.966 62.803 12.3945C63.5441 11.8231 64.4705 11.5374 65.7674 11.5374H69.2876V10.585C69.2876 9.72786 69.1023 9.0612 68.6391 8.58501C68.176 8.10882 67.4349 7.91834 66.4159 7.91834C65.8601 7.91834 65.3969 8.01358 64.9337 8.10882C64.5631 8.29929 64.1 8.48977 63.7294 8.87072C63.5441 9.0612 63.2662 9.15644 62.9883 9.15644C62.803 9.15644 62.6178 9.0612 62.4325 8.96596C62.2472 8.77548 62.2472 8.58501 62.2472 8.39453C62.2472 8.01358 62.6178 7.63263 63.3589 7.15644C64.1926 6.68025 65.2116 6.39453 66.4159 6.39453C67.8981 6.39453 69.1023 6.68025 69.8434 7.34691C70.5845 8.01358 71.0477 8.96596 71.0477 10.2041V16.8707C71.0477 17.2517 70.9551 17.4422 70.8624 17.6326C70.6771 17.9183 70.4919 18.0136 70.1213 18.0136C69.7508 18.0136 69.5655 17.9183 69.3802 17.6326C69.2876 17.4422 69.195 17.2517 69.195 16.8707C68.7318 17.3469 68.2686 17.6326 67.7128 17.8231C67.157 18.0136 66.6011 18.1088 65.86 18.1088C65.0263 18.1088 64.3779 18.0136 63.9147 17.8231C63.3589 17.6326 62.9883 17.3469 62.6178 17.0612C61.9693 16.4898 61.6914 15.7279 61.6914 14.7755ZM63.4515 14.7755C63.4515 16.1088 64.3779 16.7755 66.138 16.7755C66.6938 16.7755 67.157 16.6802 67.6201 16.585C67.9907 16.4898 68.3612 16.2993 68.7318 15.9183C69.1023 15.5374 69.3802 14.8707 69.3802 13.9183V12.6802H66.0453C65.2116 12.6802 64.5631 12.8707 64.1926 13.1564C63.6368 13.5374 63.4515 14.1088 63.4515 14.7755Z" fill="#383838"/>
<path d="M74.5664 12.3C74.5664 10.0143 75.0296 8.39528 76.0486 7.44289C76.697 6.77623 77.716 6.49051 78.9203 6.49051C79.6614 6.49051 80.2172 6.58575 80.773 6.77623C81.3289 6.9667 81.792 7.34766 82.2552 7.91908V2.49051C82.2552 2.10956 82.3478 1.91908 82.4405 1.72861C82.6258 1.44289 82.811 1.34766 83.1816 1.34766C83.5521 1.34766 83.7374 1.44289 83.9227 1.72861C84.0153 1.91908 84.1079 2.10956 84.1079 2.49051V16.9667C84.1079 17.3477 84.0153 17.5381 83.9227 17.7286C83.7374 18.0143 83.5521 18.1096 83.1816 18.1096C82.811 18.1096 82.6258 18.0143 82.4405 17.7286C82.3478 17.5381 82.2552 17.3477 82.2552 16.9667V16.681C81.792 17.2524 81.3289 17.6334 80.773 17.8238C80.2172 18.0143 79.6614 18.1096 78.9203 18.1096C77.716 18.1096 76.7897 17.8238 76.0486 17.1572C75.0296 16.2048 74.5664 14.5858 74.5664 12.3ZM76.3265 10.9667C76.3265 11.3477 76.2339 11.8238 76.2339 12.3C76.2339 12.7762 76.2339 13.2524 76.3265 13.6334C76.3265 14.0143 76.4191 14.3953 76.6044 14.7762C76.697 15.1572 76.8823 15.5381 77.0676 15.7286C77.2529 16.0143 77.5308 16.2048 77.9013 16.3953C78.2719 16.5858 78.735 16.681 79.1982 16.681C79.6614 16.681 80.1246 16.5858 80.4951 16.3953C80.8657 16.2048 81.1436 16.0143 81.3289 15.7286C81.5141 15.4429 81.6994 15.1572 81.792 14.7762C81.8847 14.3953 81.9773 14.0143 82.0699 13.6334C82.0699 13.2524 82.1626 12.7762 82.1626 12.3C82.1626 11.8238 82.1626 11.3477 82.0699 10.9667C82.0699 10.5858 81.9773 10.2048 81.792 9.82385C81.6994 9.44289 81.5141 9.06194 81.3289 8.87147C81.1436 8.58575 80.8657 8.30004 80.4951 8.2048C80.1246 8.01432 79.6614 7.91908 79.1982 7.91908C78.735 7.91908 78.2719 8.01432 77.9013 8.2048C77.5308 8.39528 77.2529 8.58575 77.0676 8.87147C76.8823 9.15718 76.697 9.44289 76.6044 9.82385C76.5118 10.2048 76.4191 10.5858 76.3265 10.9667Z" fill="#383838"/>
<path d="M96.248 12.6802H89.3003C89.3003 13.9183 89.5782 14.8707 90.2266 15.6326C90.7825 16.2993 91.7088 16.6802 92.8205 16.6802C93.8395 16.6802 94.6732 16.3945 95.3216 15.8231C95.6922 15.5374 95.8775 15.4422 96.1554 15.4422C96.3406 15.4422 96.5259 15.5374 96.7112 15.6326C96.8965 15.7279 96.8965 15.9183 96.8965 16.1088C96.8965 16.4898 96.5259 16.966 95.6922 17.4422C94.9511 17.9183 93.9321 18.1088 92.8205 18.1088C91.2456 18.1088 89.9487 17.6326 89.0224 16.6802C88.096 15.7279 87.6328 14.2041 87.6328 12.2993C87.6328 10.3945 88.096 8.96596 88.9297 8.01358C89.7635 6.96596 90.8751 6.39453 92.3573 6.39453C93.8395 6.39453 94.9511 6.87072 95.8775 7.8231C96.7112 8.77548 97.1744 10.1088 97.1744 11.6326C97.1744 12.0136 97.0817 12.2041 96.8965 12.3945C96.8038 12.6802 96.5259 12.6802 96.248 12.6802ZM89.3003 11.4422H95.5069C95.5069 10.6802 95.3216 10.1088 95.1364 9.53739C94.9511 8.96596 94.5805 8.58501 94.1174 8.29929C93.6542 8.01358 93.0984 7.8231 92.4499 7.8231C91.8015 7.8231 91.2456 8.01358 90.6898 8.29929C90.134 8.58501 89.8561 9.0612 89.6708 9.53739C89.4855 10.1088 89.3003 10.6802 89.3003 11.4422Z" fill="#383838"/>
<path d="M11.0169 6.77558C10.8316 6.5851 10.5537 6.39462 10.1831 6.20415C9.90524 6.10891 9.44206 6.01367 8.88624 6.01367C8.33042 6.01367 7.95987 6.10891 7.58933 6.20415C7.21878 6.39462 6.94087 6.5851 6.7556 6.77558C6.57033 6.96605 6.38506 7.25177 6.29242 7.63272C6.10715 8.01367 6.10715 8.39462 6.01451 8.77558C6.01451 9.15653 5.92188 9.63272 5.92188 10.1089C5.92188 10.5851 5.92187 11.0613 6.01451 11.4422C6.01451 11.8232 6.10715 12.2041 6.29242 12.5851C6.38506 12.9661 6.57033 13.2518 6.7556 13.4422C6.94087 13.6327 7.21878 13.8232 7.58933 14.0137C8.33042 14.2994 9.53469 14.2994 10.2758 14.0137C10.6463 13.9184 10.9242 13.728 11.1095 13.4422C11.2948 13.2518 11.4801 12.9661 11.5727 12.5851C11.6653 12.2041 11.758 11.8232 11.8506 11.4422C11.8506 11.0613 11.9432 10.5851 11.9432 10.1089C11.9432 9.63272 11.9432 9.15653 11.8506 8.77558C11.8506 8.39462 11.758 8.01367 11.5727 7.63272C11.3874 7.25177 11.2948 6.96605 11.0169 6.77558Z" fill="#D21D1D"/>
<path d="M36.2152 8.87016C34.5477 7.15588 30.657 2.77493 28.3411 1.15588C27.7853 0.679688 26.9516 0.679688 26.7663 0.679688C25.2841 0.679688 19.9112 0.679688 14.8162 0.679688V14.9654C14.8162 15.4416 14.7236 15.8225 14.5383 16.1083C14.353 16.394 13.9825 16.6797 13.334 16.6797C12.6856 16.6797 12.315 16.394 12.1298 16.1083C12.0371 16.013 11.9445 15.8225 11.9445 15.7273C11.5739 16.013 11.2034 16.2987 10.7402 16.394C10.0918 16.6797 9.35067 16.7749 8.4243 16.7749C6.84949 16.7749 5.64521 16.394 4.81149 15.6321C3.60721 14.5844 2.95876 12.6797 2.95876 10.2035C2.95876 7.63207 3.60721 5.82255 4.81149 4.77493C5.64521 4.01302 6.94212 3.63207 8.4243 3.63207C9.25803 3.63207 10.0918 3.72731 10.7402 4.01302C11.1108 4.10826 11.4813 4.39397 11.8518 4.58445V0.679688C7.68321 0.679688 4.16303 0.679688 4.16303 0.679688C2.31031 0.679688 0.828125 2.2035 0.828125 4.10826V15.2511C0.828125 17.1559 2.31031 18.6797 4.16303 18.6797H26.6737C26.9516 18.6797 27.6 18.5844 28.3411 18.013C31.0276 16.013 35.5667 11.2511 36.2152 10.4892C36.6784 10.1083 36.6784 9.34635 36.2152 8.87016ZM27.2295 16.4892C26.9516 16.5844 26.6737 16.6797 26.4884 16.6797C26.2105 16.6797 25.9326 16.5844 25.6547 16.394C25.4694 16.2987 25.2841 16.013 25.0988 15.7273L22.5977 12.2035L20.0965 15.8225C19.9112 16.1083 19.7259 16.2987 19.5407 16.4892C19.0775 16.7749 18.5217 16.7749 17.9658 16.4892C17.41 16.1083 17.2248 15.7273 17.2248 15.3464C17.2248 15.0606 17.41 14.6797 17.6879 14.2987L20.7449 10.013L17.6879 5.82254C17.41 5.34635 17.2248 5.06064 17.2248 4.77493C17.2248 4.48921 17.3174 4.01302 17.9658 3.63207C18.5217 3.34635 19.0775 3.34635 19.5407 3.72731C19.7259 3.82254 19.9112 4.10826 20.0965 4.39397L22.505 7.91778L24.9136 4.39397C25.0988 4.10826 25.2841 3.91778 25.4694 3.72731C25.8399 3.44159 26.4884 3.34635 27.0442 3.72731C27.6927 4.10826 27.7853 4.58445 27.7853 4.87016C27.7853 5.15588 27.6927 5.44159 27.3221 5.91778L24.2651 10.1083L27.3221 14.394C27.6 14.7749 27.7853 15.1559 27.7853 15.4416C27.8779 15.7273 27.7853 16.2035 27.2295 16.4892Z" fill="#D21D1D"/>
</svg>
