<svg width="116" height="30" viewBox="0 0 116 30" fill="none" xmlns="http://www.w3.org/2000/svg">
<mask id="mask0" mask-type="alpha" maskUnits="userSpaceOnUse" x="0" y="1" width="30" height="29">
<path d="M0.886719 1.05371H29.6266V29.6764H0.886719V1.05371Z" fill="#3E3E3E"/>
</mask>
<g mask="url(#mask0)">
<path fill-rule="evenodd" clip-rule="evenodd" d="M15.2435 1.06306C7.30667 1.07055 0.879218 7.48354 0.886725 15.3875C0.893307 22.4656 6.09313 28.4754 13.1208 29.5268V25.196C6.64542 24.0183 2.35388 17.8354 3.53736 11.3869C4.71991 4.93742 10.9285 0.664591 17.4039 1.84224C23.8802 3.01989 28.1708 9.20277 26.9882 15.6522C26.0968 20.5088 22.2806 24.3092 17.4039 25.196V9.37862H16.3049L11.5052 13.7936V14.9535H14.586V29.6764H15.2529C23.1898 29.6783 29.6248 23.2709 29.6266 15.367C29.6276 7.46296 23.1945 1.05465 15.2576 1.05371H15.2529L15.2435 1.06306Z" fill="#4193CF"/>
</g>
<path fill-rule="evenodd" clip-rule="evenodd" d="M46.8086 25.2178H50.1683V25.9341H47.6049V27.1607H49.8738V27.8445H47.6049V29.6788H46.8086V25.2178Z" fill="#383838"/>
<mask id="mask1" mask-type="alpha" maskUnits="userSpaceOnUse" x="0" y="0" width="116" height="30">
<path d="M0.886719 29.6766H115.117V0.679688H0.886719V29.6766Z" fill="#F89898"/>
</mask>
<g mask="url(#mask1)">
<path fill-rule="evenodd" clip-rule="evenodd" d="M53.6836 29.6788H54.4899V25.2178H53.6836V29.6788Z" fill="#383838"/>
<path fill-rule="evenodd" clip-rule="evenodd" d="M59.125 25.2178H59.7503L61.8221 28.2996V25.2178H62.4847V29.6788H61.9154L59.7876 26.5108V29.6788H59.125V25.2178Z" fill="#383838"/>
<path fill-rule="evenodd" clip-rule="evenodd" d="M68.7971 27.9157L68.0561 26.1505L67.3367 27.9157H68.7971ZM67.7694 25.2188H68.4579L70.3273 29.6798H69.537L69.1054 28.61H67.05L66.6071 29.6798H65.8477L67.7694 25.2188Z" fill="#383838"/>
<path fill-rule="evenodd" clip-rule="evenodd" d="M74.8416 25.2178H75.4598L77.5092 28.2996V25.2178H78.1644V29.6788H77.6006L75.4598 26.5108V29.6788H74.8047L74.8416 25.2178Z" fill="#383838"/>
<path fill-rule="evenodd" clip-rule="evenodd" d="M81.5243 27.454C81.4994 26.2491 82.3107 25.2489 83.3361 25.2196C83.3628 25.2186 83.3903 25.2186 83.417 25.2196C83.9572 25.1935 84.4806 25.441 84.8565 25.8983L84.4389 26.4517C84.1714 26.1238 83.8035 25.9328 83.417 25.9192C82.7346 25.9296 82.189 26.5884 82.1979 27.3892C82.1988 27.407 82.1988 27.4258 82.1996 27.4435C82.165 28.2506 82.6928 28.9366 83.3797 28.9773C83.3921 28.9773 83.4045 28.9783 83.417 28.9783C83.8186 28.9731 84.1998 28.7685 84.4655 28.4145L84.8831 28.9052C84.5099 29.4148 83.9617 29.6977 83.3903 29.6779C82.3694 29.6904 81.5341 28.7277 81.5234 27.5271C81.5234 27.503 81.5234 27.478 81.5243 27.454Z" fill="#383838"/>
<path fill-rule="evenodd" clip-rule="evenodd" d="M89.5195 29.6788H90.3259V25.2178H89.5195V29.6788Z" fill="#383838"/>
<path fill-rule="evenodd" clip-rule="evenodd" d="M96.7864 27.9157L96.0637 26.1505L95.341 27.9157H96.7864ZM95.7685 25.2188H96.4698L98.3234 29.6798H97.4877L97.0714 28.61H95.0357L94.6071 29.6798H93.8438L95.7685 25.2188Z" fill="#383838"/>
<path fill-rule="evenodd" clip-rule="evenodd" d="M102.793 25.2178H103.623V28.9569H106.153V29.6788H102.85L102.793 25.2178Z" fill="#383838"/>
<path fill-rule="evenodd" clip-rule="evenodd" d="M40.8664 18.7712C41.3141 19.4616 42.0955 19.8298 42.8888 19.7274C43.6821 19.8279 44.4625 19.4597 44.9111 18.7712C45.322 17.8073 45.4994 16.7544 45.4258 15.7025C45.5031 14.6621 45.3128 13.6188 44.8743 12.6798C44.4101 12.0391 43.6554 11.7006 42.8888 11.7905C42.1194 11.6987 41.361 12.0372 40.894 12.6798C40.4556 13.6188 40.2653 14.6621 40.3425 15.7025C40.2772 16.742 40.4574 17.7824 40.8664 18.7329V18.7712ZM39.028 11.1211C39.8001 10.1074 41.0871 9.60156 42.8888 9.60156C44.6905 9.60156 45.9774 10.1074 46.7495 11.1211C47.6145 12.4684 48.0227 14.0769 47.9078 15.692C48.0181 17.3062 47.621 18.9137 46.7771 20.2725C46.0362 21.3378 44.7392 21.8695 42.8888 21.8695C41.0503 21.8695 39.745 21.3531 38.9912 20.3203C38.1547 18.9586 37.7622 17.353 37.8697 15.7408C37.7447 14.1094 38.1529 12.4818 39.028 11.1211Z" fill="#383838"/>
<path fill-rule="evenodd" clip-rule="evenodd" d="M52.4938 20.7284H50.168V9.81554H52.4677V10.4931C53.3554 9.93501 54.3711 9.62742 55.4121 9.60156C56.832 9.60156 57.8076 10.0108 58.3216 10.831C58.9383 12.0917 59.2093 13.5004 59.1056 14.9064V20.7542H56.7972V14.9421C56.8538 14.0888 56.7257 13.2329 56.4226 12.4368C56.1046 11.9 55.5053 11.6085 54.8981 11.6968C54.1734 11.678 53.4521 11.8144 52.7813 12.0971L52.4677 12.2219L52.4938 20.7284Z" fill="#383838"/>
<path fill-rule="evenodd" clip-rule="evenodd" d="M68.8833 14.8331C68.9564 13.9833 68.7505 13.1324 68.2964 12.409C67.8182 11.8983 67.1275 11.6405 66.4299 11.7095C65.7103 11.6472 65.0022 11.9155 64.5058 12.4377C64.0449 13.1487 63.8256 13.988 63.8804 14.8331H68.8833ZM70.2975 19.4802L70.9517 19.4036V21.3199C69.3884 21.6514 67.7971 21.8306 66.199 21.8565C64.8175 21.9609 63.4648 21.4311 62.5239 20.4192C61.6532 19.0567 61.2549 17.448 61.3886 15.8392C61.3886 11.6808 63.0915 9.60156 66.4982 9.60156C69.7876 9.60156 71.4424 11.3933 71.4424 14.9769L71.2789 16.807H63.9381C63.8871 17.5687 64.1123 18.3237 64.5741 18.9341C65.2052 19.4668 66.0307 19.7131 66.8533 19.6144C67.9693 19.6144 69.1142 19.5665 70.2975 19.4802Z" fill="#383838"/>
<path fill-rule="evenodd" clip-rule="evenodd" d="M73.6797 7.35639V5.14062H83.7497V7.57983L76.6357 18.1094V18.5376H83.7588V20.7543H73.6888V18.3328L80.7928 7.81258V7.35639H73.6797Z" fill="#383838"/>
<path fill-rule="evenodd" clip-rule="evenodd" d="M92.4885 14.8243C92.5702 13.9772 92.3751 13.1272 91.931 12.3998C91.4523 11.889 90.763 11.6312 90.0651 11.7002C89.3471 11.638 88.6395 11.9063 88.1426 12.4286C87.6831 13.1396 87.4629 13.9791 87.5187 14.8243H92.4885ZM93.9016 19.4721L94.5543 19.3954V21.312C92.9932 21.6436 91.4032 21.8228 89.8065 21.8487C88.3983 21.9838 87.0083 21.4558 86.0479 20.4198C85.1751 19.059 84.7723 17.451 84.9031 15.8401C84.9031 11.6811 86.6084 9.60156 90.018 9.60156C93.3056 9.60156 94.958 11.3936 94.958 14.9776L94.786 16.808H87.5466C87.4918 17.5708 87.7167 18.3269 88.182 18.9354C88.8126 19.4692 89.6383 19.7164 90.4602 19.6158C91.5753 19.6062 92.7192 19.5583 93.9016 19.4721Z" fill="#383838"/>
<path fill-rule="evenodd" clip-rule="evenodd" d="M97.2031 20.7542V9.84227H99.8124V11.1519C101.055 10.3968 102.451 9.8699 103.923 9.60156V11.9819C102.701 12.1869 101.509 12.5087 100.365 12.9447L99.8312 13.1399V20.7542H97.2031Z" fill="#383838"/>
<path fill-rule="evenodd" clip-rule="evenodd" d="M108.058 18.8071C109.093 19.9763 110.839 20.0503 111.96 18.9712C112.015 18.9184 112.067 18.8647 112.117 18.8071C112.525 17.8384 112.702 16.7814 112.634 15.7264C112.711 14.6819 112.52 13.6345 112.08 12.6918C111.026 11.5446 109.277 11.5062 108.177 12.6073C108.149 12.6352 108.122 12.664 108.095 12.6918C107.656 13.6345 107.466 14.6819 107.543 15.7264C107.464 16.7642 107.62 17.8067 108.003 18.7687L108.058 18.8071ZM106.218 11.127C106.992 10.1094 108.279 9.60156 110.074 9.60156C111.87 9.60156 113.167 10.1094 113.941 11.127C114.806 12.4797 115.214 14.0944 115.099 15.7158C115.208 17.3354 114.814 18.9472 113.977 20.3143C113.222 21.3511 111.924 21.8695 110.074 21.8695C108.225 21.8695 106.935 21.3511 106.181 20.3143C105.339 18.9491 104.946 17.3354 105.058 15.7158C104.944 14.0944 105.352 12.4797 106.218 11.127Z" fill="#383838"/>
</g>
</svg>
