<svg width="48" height="48" viewBox="0 0 48 48" fill="none" xmlns="http://www.w3.org/2000/svg">
<path d="M10 7H48V48H10V7Z" fill="url(#paint0_linear)"/>
<path d="M12.5478 0C19.4192 0 25.0955 5.25001 25.0955 11.8125V12.5625C25.0955 19.0312 19.5188 24.375 12.5478 24.375C5.67638 24.375 0 19.125 0 12.5625V11.8125C0.0995855 5.25001 5.67638 0 12.5478 0Z" fill="#1F2832"/>
<path d="M29.2519 32.9463C32.8492 32.9463 35.7654 30.0481 35.7654 26.4731C35.7654 22.8981 32.8492 20 29.2519 20C25.6545 20 22.7383 22.8981 22.7383 26.4731C22.7383 30.0481 25.6545 32.9463 29.2519 32.9463Z" fill="#1F2832"/>
<path d="M16.0234 47.8857C16.0234 40.6159 21.9358 34.7402 29.251 34.7402C36.5662 34.7402 42.4786 40.6159 42.4786 47.8857" fill="#1F2832"/>
<path d="M19.1199 10.3125H14.6386V6H10.5556V10.3125H6.07422V14.1563H10.5556V18.375H14.6386V14.1563H19.1199V10.3125Z" fill="white"/>
<defs>
<linearGradient id="paint0_linear" x1="10.6058" y1="27.5" x2="47.0624" y2="27.5" gradientUnits="userSpaceOnUse">
<stop stop-color="#00F2D5"/>
<stop offset="0.953125" stop-color="#01BD95"/>
</linearGradient>
</defs>
</svg>
