<svg width="48" height="48" viewBox="0 0 48 48" fill="none" xmlns="http://www.w3.org/2000/svg">
<path d="M40.9887 7.01123C50.3374 16.36 50.3374 31.6397 40.9887 40.9885C31.64 50.3372 16.3604 50.3372 7.01172 40.9885" fill="url(#paint0_linear)"/>
<path d="M7.01152 40.9888C-2.33717 31.6401 -2.33717 16.3603 7.01152 7.01157C16.3602 -2.33719 31.6398 -2.33719 40.9885 7.01157" fill="#1F2832"/>
<path d="M8.01758 24.3016C8.01758 15.3549 15.2553 8.0166 24.3024 8.0166C33.3495 8.0166 40.5872 15.2544 40.5872 24.3016C40.5872 33.2482 33.3495 40.5865 24.3024 40.5865C15.2553 40.5865 8.01758 33.2482 8.01758 24.3016Z" fill="white"/>
<path d="M30.6343 21.9899H26.1108V17.4663H21.8888V21.9899H17.3652V26.1114H21.8888V30.635H26.1108V26.1114H30.6343V21.9899Z" fill="url(#paint1_linear)"/>
<defs>
<linearGradient id="paint0_linear" x1="7.66517" y1="27.5056" x2="46.9888" y2="27.5056" gradientUnits="userSpaceOnUse">
<stop stop-color="#00F2D5"/>
<stop offset="0.953125" stop-color="#01BD95"/>
</linearGradient>
<linearGradient id="paint1_linear" x1="17.5768" y1="24.0506" x2="30.3069" y2="24.0506" gradientUnits="userSpaceOnUse">
<stop stop-color="#00F2D5"/>
<stop offset="0.953125" stop-color="#01BD95"/>
</linearGradient>
</defs>
</svg>
