<svg width="48" height="48" viewBox="0 0 48 48" fill="none" xmlns="http://www.w3.org/2000/svg">
<path d="M48 0.195801H0V7.53463H48V0.195801Z" fill="url(#paint0_linear)"/>
<path d="M48 13.688H0V21.0268H48V13.688Z" fill="url(#paint1_linear)"/>
<path d="M48 27.0762H0V34.415H48V27.0762Z" fill="url(#paint2_linear)"/>
<path d="M48 40.4644H0V47.8032H48V40.4644Z" fill="url(#paint3_linear)"/>
<path d="M48.001 48C34.4884 48 23.5977 37.2892 23.5977 24C23.5977 10.7108 34.4884 0 48.001 0" fill="#1F2832"/>
<path d="M7.96639 0.195801H0V7.53463H7.96639V0.195801Z" fill="#1F2832"/>
<path d="M7.96639 13.688H0V21.0268H7.96639V13.688Z" fill="#1F2832"/>
<path d="M7.96639 27.0762H0V34.415H7.96639V27.0762Z" fill="#1F2832"/>
<path d="M7.96639 40.4644H0V47.8032H7.96639V40.4644Z" fill="#1F2832"/>
<defs>
<linearGradient id="paint0_linear" x1="0.765231" y1="3.86521" x2="46.8157" y2="3.86521" gradientUnits="userSpaceOnUse">
<stop stop-color="#00F2D5"/>
<stop offset="0.953125" stop-color="#01BD95"/>
</linearGradient>
<linearGradient id="paint1_linear" x1="0.765231" y1="17.3574" x2="46.8157" y2="17.3574" gradientUnits="userSpaceOnUse">
<stop stop-color="#00F2D5"/>
<stop offset="0.953125" stop-color="#01BD95"/>
</linearGradient>
<linearGradient id="paint2_linear" x1="0.765231" y1="30.7456" x2="46.8157" y2="30.7456" gradientUnits="userSpaceOnUse">
<stop stop-color="#00F2D5"/>
<stop offset="0.953125" stop-color="#01BD95"/>
</linearGradient>
<linearGradient id="paint3_linear" x1="0.765231" y1="44.1338" x2="46.8157" y2="44.1338" gradientUnits="userSpaceOnUse">
<stop stop-color="#00F2D5"/>
<stop offset="0.953125" stop-color="#01BD95"/>
</linearGradient>
</defs>
</svg>
