<svg width="97" height="15" viewBox="0 0 97 15" fill="none" xmlns="http://www.w3.org/2000/svg">
<path d="M44.5475 0.976562H55.0733C55.4101 0.976562 55.6627 0.976562 55.747 1.05165C55.9154 1.20183 56.0838 1.35201 56.0838 1.57728C56.0838 1.80254 55.9996 1.95272 55.747 2.1029C55.5785 2.17799 55.3259 2.17799 55.0733 2.17799H50.6104V13.141C50.6104 13.4414 50.5261 13.6666 50.4419 13.8168C50.2735 14.0421 50.1051 14.1172 49.7683 14.1172C49.4315 14.1172 49.263 14.0421 49.0946 13.8168C49.0104 13.6666 48.9262 13.4414 48.9262 13.141V2.25308H44.4633C44.1264 2.25308 43.8738 2.25308 43.7896 2.17799C43.6212 2.02781 43.4528 1.87763 43.4528 1.65237C43.4528 1.4271 43.537 1.27692 43.7896 1.12674C44.0422 1.05165 44.2949 0.976562 44.5475 0.976562Z" fill="#4B4B4B"/>
<path d="M57.5988 5.85615V6.15651C57.9357 5.78106 58.2725 5.4807 58.8619 5.25544C59.3672 5.03017 59.9566 4.95508 60.5461 4.95508C61.3039 4.95508 61.8934 5.10526 62.4828 5.40561C62.9039 5.63088 63.0723 5.85615 63.0723 6.08142C63.0723 6.2316 62.9881 6.45686 62.8197 6.53195C62.6512 6.68213 62.4828 6.75722 62.3144 6.75722C62.146 6.75722 61.8934 6.68213 61.5566 6.53195C61.1355 6.30668 60.7145 6.2316 60.2092 6.2316C59.4514 6.2316 58.7777 6.45686 58.3567 6.9074C57.9357 7.35793 57.683 7.95865 57.683 8.63445V13.29C57.683 13.5903 57.5988 13.7405 57.5146 13.8907C57.3462 14.116 57.1778 14.1911 56.841 14.1911C56.5042 14.1911 56.3357 14.116 56.1673 13.8907C56.0831 13.7405 55.9989 13.5903 55.9989 13.29V5.85615C55.9989 5.55579 56.0831 5.40561 56.1673 5.25544C56.3357 5.03017 56.5042 4.95508 56.841 4.95508C57.1778 4.95508 57.3462 5.03017 57.5146 5.25544C57.5146 5.33052 57.5988 5.55579 57.5988 5.85615Z" fill="#4B4B4B"/>
<path d="M63.9991 11.4877C63.9991 10.6618 64.3359 10.061 65.0096 9.61051C65.6832 9.15997 66.5253 8.9347 67.7042 8.9347H70.904V8.18381C70.904 7.50801 70.7356 6.98238 70.3146 6.60694C69.8936 6.23149 69.2199 6.08131 68.2936 6.08131C67.7884 6.08131 67.3674 6.1564 66.9463 6.23149C66.6095 6.38167 66.1885 6.53185 65.8516 6.8322C65.6832 6.98238 65.4306 7.05747 65.178 7.05747C65.0096 7.05747 64.8412 6.98238 64.6728 6.90729C64.5043 6.75711 64.5043 6.60694 64.5043 6.45676C64.5043 6.1564 64.8412 5.85604 65.5148 5.4806C66.2727 5.10515 67.199 4.87988 68.2936 4.87988C69.6409 4.87988 70.7356 5.10515 71.4093 5.63078C72.0829 6.1564 72.504 6.90729 72.504 7.88345V13.1397C72.504 13.4401 72.4198 13.5902 72.3356 13.7404C72.1671 13.9657 71.9987 14.0408 71.6619 14.0408C71.3251 14.0408 71.1567 13.9657 70.9883 13.7404C70.904 13.5902 70.8198 13.4401 70.8198 13.1397C70.3988 13.5151 69.9778 13.7404 69.4725 13.8906C68.9673 14.0408 68.462 14.1159 67.7884 14.1159C67.0305 14.1159 66.4411 14.0408 66.0201 13.8906C65.5148 13.7404 65.178 13.5151 64.8412 13.2899C64.2517 12.8393 63.9991 12.2386 63.9991 11.4877ZM65.599 11.4877C65.599 12.539 66.4411 13.0646 68.041 13.0646C68.5463 13.0646 68.9673 12.9895 69.3883 12.9144C69.7252 12.8393 70.062 12.6892 70.3988 12.3888C70.7356 12.0885 70.9883 11.5628 70.9883 10.8119V9.83577H67.9568C67.199 9.83577 66.6095 9.98595 66.2727 10.2112C65.7674 10.5116 65.599 10.9621 65.599 11.4877Z" fill="#4B4B4B"/>
<path d="M75.7067 9.53566C75.7067 7.73351 76.1277 6.457 77.054 5.7061C77.6434 5.18048 78.5697 4.95521 79.6644 4.95521C80.3381 4.95521 80.8433 5.0303 81.3485 5.18048C81.8538 5.33066 82.2748 5.63101 82.6958 6.08155V1.80146C82.6958 1.5011 82.7801 1.35093 82.8643 1.20075C83.0327 0.97548 83.2011 0.900391 83.5379 0.900391C83.8747 0.900391 84.0432 0.97548 84.2116 1.20075C84.2958 1.35093 84.38 1.5011 84.38 1.80146V13.215C84.38 13.5154 84.2958 13.6656 84.2116 13.8157C84.0432 14.041 83.8747 14.1161 83.5379 14.1161C83.2011 14.1161 83.0327 14.041 82.8643 13.8157C82.7801 13.6656 82.6958 13.5154 82.6958 13.215V12.9898C82.2748 13.4403 81.8538 13.7407 81.3485 13.8908C80.8433 14.041 80.3381 14.1161 79.6644 14.1161C78.5697 14.1161 77.7277 13.8908 77.054 13.3652C76.1277 12.6143 75.7067 11.3378 75.7067 9.53566ZM77.3066 8.48441C77.3066 8.78476 77.2224 9.16021 77.2224 9.53566C77.2224 9.9111 77.2224 10.2865 77.3066 10.5869C77.3066 10.8873 77.3908 11.1876 77.5592 11.488C77.6435 11.7883 77.8119 12.0887 77.9803 12.2389C78.1487 12.4641 78.4013 12.6143 78.7381 12.7645C79.075 12.9147 79.496 12.9898 79.917 12.9898C80.3381 12.9898 80.7591 12.9147 81.0959 12.7645C81.4327 12.6143 81.6854 12.4641 81.8538 12.2389C82.0222 12.0136 82.1906 11.7883 82.2748 11.488C82.359 11.1876 82.4432 10.8873 82.5274 10.5869C82.5274 10.2865 82.6116 9.9111 82.6116 9.53566C82.6116 9.16021 82.6116 8.78476 82.5274 8.48441C82.5274 8.18405 82.4432 7.88369 82.2748 7.58333C82.1906 7.28298 82.0222 6.98262 81.8538 6.83244C81.6854 6.60717 81.4327 6.38191 81.0959 6.30682C80.7591 6.15664 80.3381 6.08155 79.917 6.08155C79.496 6.08155 79.075 6.15664 78.7381 6.30682C78.4013 6.457 78.1487 6.60717 77.9803 6.83244C77.8119 7.05771 77.6435 7.28298 77.5592 7.58333C77.475 7.88369 77.3908 8.18405 77.3066 8.48441Z" fill="#4B4B4B"/>
<path d="M95.408 9.83577H89.0925C89.0925 10.8119 89.3451 11.5628 89.9346 12.1635C90.4398 12.6892 91.2819 12.9895 92.2924 12.9895C93.2186 12.9895 93.9765 12.7643 94.566 12.3137C94.9028 12.0885 95.0712 12.0134 95.3238 12.0134C95.4922 12.0134 95.6606 12.0885 95.8291 12.1635C95.9975 12.2386 95.9975 12.3888 95.9975 12.539C95.9975 12.8393 95.6606 13.2148 94.9028 13.5902C94.2291 13.9657 93.3029 14.1159 92.2924 14.1159C90.8609 14.1159 89.682 13.7404 88.8399 12.9895C87.9978 12.2386 87.5768 11.0372 87.5768 9.53542C87.5768 8.03363 87.9978 6.90729 88.7557 6.1564C89.5136 5.33042 90.524 4.87988 91.8713 4.87988C93.2186 4.87988 94.2291 5.25533 95.0712 6.00622C95.829 6.75711 96.2501 7.80836 96.2501 9.00979C96.2501 9.31015 96.1659 9.46033 95.9975 9.61051C95.9133 9.83577 95.6606 9.83577 95.408 9.83577ZM89.0925 8.85961H94.7344C94.7344 8.2589 94.566 7.80836 94.3975 7.35783C94.2291 6.90729 93.8923 6.60694 93.4713 6.38167C93.0502 6.1564 92.545 6.00622 91.9555 6.00622C91.3661 6.00622 90.8609 6.1564 90.3556 6.38167C89.8504 6.60694 89.5978 6.98238 89.4293 7.35783C89.2609 7.80836 89.0925 8.2589 89.0925 8.85961Z" fill="#4B4B4B"/>
<path d="M10.0141 5.18079C9.84568 5.03061 9.59306 4.88044 9.25623 4.73026C9.00361 4.65517 8.58258 4.58008 8.07734 4.58008C7.5721 4.58008 7.23527 4.65517 6.89845 4.73026C6.56162 4.88044 6.309 5.03061 6.14059 5.18079C5.97217 5.33097 5.80376 5.55624 5.71956 5.8566C5.55114 6.15695 5.55114 6.45731 5.46694 6.75767C5.46694 7.05802 5.38273 7.43347 5.38273 7.80892C5.38273 8.18436 5.38273 8.55981 5.46694 8.86017C5.46694 9.16052 5.55114 9.46088 5.71956 9.76124C5.80376 10.0616 5.97217 10.2869 6.14059 10.437C6.309 10.5872 6.56162 10.7374 6.89845 10.8876C7.5721 11.1128 8.66679 11.1128 9.34044 10.8876C9.67727 10.8125 9.92989 10.6623 10.0983 10.437C10.2667 10.2869 10.4351 10.0616 10.5193 9.76124C10.6035 9.46088 10.6877 9.16052 10.772 8.86017C10.772 8.55981 10.8562 8.18436 10.8562 7.80892C10.8562 7.43347 10.8562 7.05802 10.772 6.75767C10.772 6.45731 10.6877 6.15695 10.5193 5.8566C10.3509 5.55624 10.2667 5.33097 10.0141 5.18079Z" fill="#D9492C"/>
<path d="M32.9168 6.83268C31.4011 5.48107 27.8644 2.02696 25.7593 0.750446C25.254 0.375 24.4962 0.375 24.3278 0.375C22.9805 0.375 18.0965 0.375 13.4651 0.375V11.6384C13.4651 12.0138 13.3809 12.3142 13.2125 12.5395C13.0441 12.7647 12.7073 12.99 12.1178 12.99C11.5284 12.99 11.1915 12.7647 11.0231 12.5395C10.9389 12.4644 10.8547 12.3142 10.8547 12.2391C10.5179 12.4644 10.1811 12.6896 9.76002 12.7647C9.17058 12.99 8.49692 13.0651 7.65486 13.0651C6.22334 13.0651 5.12866 12.7647 4.3708 12.164C3.27611 11.338 2.68667 9.83625 2.68667 7.88393C2.68667 5.85652 3.27611 4.42982 4.3708 3.60384C5.12866 3.00312 6.30755 2.70277 7.65486 2.70277C8.41272 2.70277 9.17058 2.77786 9.76002 3.00312C10.0968 3.07821 10.4337 3.30348 10.7705 3.45366V0.375C6.9812 0.375 3.78135 0.375 3.78135 0.375C2.09722 0.375 0.749916 1.57643 0.749916 3.07821V11.8637C0.749916 13.3654 2.09722 14.5669 3.78135 14.5669H24.2436C24.4962 14.5669 25.0856 14.4918 25.7593 14.0412C28.2013 12.4644 32.3274 8.70991 32.9168 8.10919C33.3379 7.80884 33.3379 7.20812 32.9168 6.83268ZM24.7488 12.8398C24.4962 12.9149 24.2436 12.99 24.0751 12.99C23.8225 12.99 23.5699 12.9149 23.3173 12.7647C23.1489 12.6896 22.9805 12.4644 22.812 12.2391L20.5385 9.4608L18.2649 12.3142C18.0965 12.5395 17.9281 12.6896 17.7596 12.8398C17.3386 13.0651 16.8334 13.0651 16.3281 12.8398C15.8229 12.5395 15.6545 12.2391 15.6545 11.9387C15.6545 11.7135 15.8229 11.4131 16.0755 11.1128L18.8543 7.73375L16.0755 4.42982C15.8229 4.05437 15.6545 3.82911 15.6545 3.60384C15.6545 3.37857 15.7387 3.00312 16.3281 2.70277C16.8334 2.4775 17.3386 2.4775 17.7596 2.77786C17.9281 2.85295 18.0965 3.07821 18.2649 3.30348L20.4543 6.08178L22.6436 3.30348C22.812 3.07821 22.9805 2.92803 23.1489 2.77786C23.4857 2.55259 24.0751 2.4775 24.5804 2.77786C25.1698 3.07821 25.254 3.45366 25.254 3.67893C25.254 3.90419 25.1698 4.12946 24.833 4.50491L22.0542 7.80884L24.833 11.1879C25.0856 11.4882 25.254 11.7886 25.254 12.0138C25.3382 12.2391 25.254 12.6145 24.7488 12.8398Z" fill="#D9492C"/>
</svg>
