<svg width="49" height="50" viewBox="0 0 49 50" fill="none" xmlns="http://www.w3.org/2000/svg">
<g clip-path="url(#clip0)">
<path d="M24.5 49.0762C38.031 49.0762 49 38.1071 49 24.5762C49 11.0452 38.031 0.0761719 24.5 0.0761719C10.969 0.0761719 0 11.0452 0 24.5762C0 38.1071 10.969 49.0762 24.5 49.0762Z" fill="#F0F0F0"/>
<path d="M47.4761 33.0981C48.461 30.4439 49 27.5732 49 24.5764C49 21.5795 48.461 18.7088 47.4761 16.0547H1.52388C0.539096 18.7088 0 21.5795 0 24.5764C0 27.5732 0.539096 30.4439 1.52388 33.0981L24.5 35.2285L47.4761 33.0981Z" fill="#0052B4"/>
<path d="M24.4996 49.076C35.0337 49.076 44.014 42.4273 47.4757 33.0977H1.52344C4.98512 42.4273 13.9654 49.076 24.4996 49.076Z" fill="#D80027"/>
</g>
<defs>
<clipPath id="clip0">
<rect y="0.0761719" width="49" height="49" fill="white"/>
</clipPath>
</defs>
</svg>
