<svg width="48" height="48" viewBox="0 0 48 48" fill="none" xmlns="http://www.w3.org/2000/svg">
<path d="M24 48C37.2548 48 48 37.2548 48 24C48 10.7452 37.2548 0 24 0C10.7452 0 0 10.7452 0 24C0 37.2548 10.7452 48 24 48Z" fill="#00D7B4"/>
<path d="M40.9 7C50.3 16.4 50.3 31.6 40.9 40.9C31.5 50.3 16.3 50.3 7 40.9" fill="#1F2832"/>
<path d="M24.2206 42.3425C34.3742 42.3425 42.6052 34.1114 42.6052 23.9579C42.6052 13.8043 34.3742 5.57324 24.2206 5.57324C14.067 5.57324 5.83594 13.8043 5.83594 23.9579C5.83594 34.1114 14.067 42.3425 24.2206 42.3425Z" fill="white"/>
<path d="M37.1491 10.9077C44.3609 18.1196 44.3609 29.7569 37.1491 36.8048C29.9372 43.8528 18.2999 44.0167 11.252 36.8048" fill="white"/>
<path d="M24.272 23.8161C26.7231 23.8161 28.7101 21.8415 28.7101 19.4056C28.7101 16.9698 26.7231 14.9951 24.272 14.9951C21.821 14.9951 19.834 16.9698 19.834 19.4056C19.834 21.8415 21.821 23.8161 24.272 23.8161Z" fill="#1F2832"/>
<path d="M15.2598 33.9953C15.2598 29.0419 19.2881 25.0386 24.2724 25.0386C29.2567 25.0386 33.285 29.0419 33.285 33.9953" fill="#1F2832"/>
</svg>
