<svg width="48" height="48" viewBox="0 0 48 48" fill="none" xmlns="http://www.w3.org/2000/svg">
<path d="M24 48C37.2548 48 48 37.2548 48 24C48 10.7452 37.2548 0 24 0C10.7452 0 0 10.7452 0 24C0 37.2548 10.7452 48 24 48Z" fill="#00D7B4"/>
<path d="M40.9 7C50.3 16.4 50.3 31.6 40.9 40.9C31.5 50.3 16.3 50.3 7 40.9" fill="#1F2832"/>
<path d="M31.9324 31.8809C36.3062 27.5071 36.3062 20.4157 31.9324 16.0419C27.5586 11.6681 20.4672 11.6681 16.0934 16.0419C11.7195 20.4157 11.7195 27.5071 16.0933 31.8809C20.4672 36.2548 27.5586 36.2548 31.9324 31.8809Z" fill="white"/>
<path d="M31.8996 16C36.2996 20.4 36.2996 27.5 31.8996 31.8C27.4996 36.1 20.3996 36.2 16.0996 31.8" fill="white"/>
<path d="M29.2464 29.194C32.1363 26.3041 32.1363 21.6187 29.2464 18.7289C26.3566 15.839 21.6712 15.839 18.7814 18.7289C15.8915 21.6187 15.8915 26.3041 18.7814 29.194C21.6712 32.0838 26.3566 32.0838 29.2464 29.194Z" fill="#1F2832"/>
<path d="M18.8 29.2C15.9 26.3 15.9 21.7 18.8 18.8C21.7 15.9 26.3 15.9 29.2 18.8" fill="#00D7B4"/>
</svg>
