<svg width="48" height="48" viewBox="0 0 48 48" fill="none" xmlns="http://www.w3.org/2000/svg">
<path d="M40.4492 47.5016V0.00585938H47.7496V47.5016H40.4492Z" fill="url(#paint0_linear)"/>
<path d="M27.0312 47.5016V0.00585938H34.4303V47.5016H27.0312Z" fill="url(#paint1_linear)"/>
<path d="M13.7129 47.5016V0.00585938H21.0133V47.5016H13.7129Z" fill="url(#paint2_linear)"/>
<path d="M0 47.5016V0.00585938H7.30039V47.5016H0Z" fill="url(#paint3_linear)"/>
<path d="M47.7266 7.89735V0.0146484L40.4262 0.0146484V7.89735L47.7266 7.89735Z" fill="#1F2832"/>
<path d="M34.3789 7.92762V0.0449219L27.0785 0.0449219V7.92762L34.3789 7.92762Z" fill="#1F2832"/>
<path d="M21.0312 7.9579V0.0751953L13.7309 0.0751953L13.7309 7.9579L21.0312 7.9579Z" fill="#1F2832"/>
<path d="M7.30078 7.88854L7.30078 0.00585938L0.000399113 0.00585937L0.000399113 7.88854L7.30078 7.88854Z" fill="#1F2832"/>
<path d="M47.8471 25.749H0V48.0002H47.8471V25.749Z" fill="#1F2832"/>
<defs>
<linearGradient id="paint0_linear" x1="40.5656" y1="23.7537" x2="47.5695" y2="23.7537" gradientUnits="userSpaceOnUse">
<stop stop-color="#00F2D5"/>
<stop offset="0.953125" stop-color="#01BD95"/>
</linearGradient>
<linearGradient id="paint1_linear" x1="27.1492" y1="23.7537" x2="34.2477" y2="23.7537" gradientUnits="userSpaceOnUse">
<stop stop-color="#00F2D5"/>
<stop offset="0.953125" stop-color="#01BD95"/>
</linearGradient>
<linearGradient id="paint2_linear" x1="13.8293" y1="23.7537" x2="20.8332" y2="23.7537" gradientUnits="userSpaceOnUse">
<stop stop-color="#00F2D5"/>
<stop offset="0.953125" stop-color="#01BD95"/>
</linearGradient>
<linearGradient id="paint3_linear" x1="0.116385" y1="23.7537" x2="7.12026" y2="23.7537" gradientUnits="userSpaceOnUse">
<stop stop-color="#00F2D5"/>
<stop offset="0.953125" stop-color="#01BD95"/>
</linearGradient>
</defs>
</svg>
