<svg width="25" height="25" viewBox="0 0 25 25" fill="none" xmlns="http://www.w3.org/2000/svg">
<path d="M15.7236 13.4C15.865 11.582 14.4779 9.99576 12.6255 9.85705C10.7732 9.71834 9.15699 11.0797 9.01566 12.8977C8.87434 14.7157 10.2614 16.3019 12.1138 16.4406C13.9661 16.5793 15.5823 15.218 15.7236 13.4Z" stroke="white" stroke-width="2.7" stroke-miterlimit="10" stroke-linecap="round" stroke-linejoin="round"/>
<path d="M5.9834 5.3102C7.96207 3.65952 10.5343 2.78563 13.3045 2.97983C18.8448 3.36822 23 8.12605 22.6042 13.5636C22.4064 16.2823 21.1202 18.7098 19.1416 20.3605" stroke="url(#paint0_linear)" stroke-width="2.7" stroke-miterlimit="10" stroke-linecap="round" stroke-linejoin="round"/>
<path d="M18.6469 20.8466C16.6682 22.4973 14.096 23.3712 11.3258 23.177C5.78555 22.7886 1.63034 18.0307 2.02608 12.4961C2.22394 9.77736 3.51008 7.34989 5.48875 5.69922" stroke="white" stroke-width="2.7" stroke-miterlimit="10" stroke-linecap="round" stroke-linejoin="round"/>
<path d="M14.3926 10.5536L22.9998 2.20312" stroke="white" stroke-width="2.7" stroke-miterlimit="10" stroke-linecap="round" stroke-linejoin="round"/>
<path d="M17.4592 11.3304L13.2051 11.6217L13.4029 7.64062" stroke="url(#paint1_linear)" stroke-width="2.7" stroke-miterlimit="10" stroke-linecap="round" stroke-linejoin="round"/>
<defs>
<linearGradient id="paint0_linear" x1="24.1031" y1="12.253" x2="4.26949" y2="10.7111" gradientUnits="userSpaceOnUse">
<stop stop-color="#00E8B6"/>
<stop offset="1" stop-color="#01BD95"/>
</linearGradient>
<linearGradient id="paint1_linear" x1="11.8487" y1="9.63688" x2="18.8216" y2="9.63688" gradientUnits="userSpaceOnUse">
<stop stop-color="#00E8B6"/>
<stop offset="1" stop-color="#01BD95"/>
</linearGradient>
</defs>
</svg>
