<svg width="23" height="23" viewBox="0 0 23 23" fill="none" xmlns="http://www.w3.org/2000/svg">
<path d="M11.5001 19.5014H3.86681C5.55208 16.2207 8.42694 14.1944 11.5992 14.0014V8.98383C9.8148 8.98383 8.42694 7.63295 8.42694 5.89611C8.42694 4.15927 9.8148 2.80839 11.5992 2.80839V0.203125C8.3278 0.203125 5.75034 2.80839 5.75034 5.89611C5.75034 8.69435 7.83214 11.0101 10.6079 11.4926C6.14688 12.0715 2.28068 15.4487 0.595422 20.4663C0.496289 20.8522 0.496289 21.3347 0.793688 21.6242C1.09109 22.0101 1.48762 22.2031 1.88415 22.2031H11.5992V19.5014H11.5001Z" fill="url(#paint0_linear)"/>
<path d="M11.5 19.5014H19.2324C17.5471 16.2207 14.6723 14.1944 11.5 14.0014V8.98383C13.1853 8.98383 14.6723 7.53646 14.6723 5.89611C14.6723 4.25576 13.2844 2.80839 11.5 2.80839V0.203125C14.6723 0.203125 17.3489 2.80839 17.3489 5.89611C17.3489 8.69435 15.2671 11.0101 12.4913 11.4926C16.9523 12.0715 20.8185 15.4487 22.5038 20.3698C22.6029 20.7558 22.6029 21.2382 22.3055 21.5277C22.0081 21.9137 21.6116 22.1066 21.215 22.1066H11.5V19.5014V19.5014Z" fill="white"/>
<defs>
<linearGradient id="paint0_linear" x1="0.496289" y1="11.1716" x2="11.5466" y2="11.1716" gradientUnits="userSpaceOnUse">
<stop stop-color="#00E8B6"/>
<stop offset="1" stop-color="#01BD95"/>
</linearGradient>
</defs>
</svg>
