<svg width="25" height="26" viewBox="0 0 25 26" fill="none" xmlns="http://www.w3.org/2000/svg">
<path d="M12.2034 16.5172C14.0901 16.5172 15.6196 15.0548 15.6196 13.2508C15.6196 11.4468 14.0901 9.98438 12.2034 9.98438C10.3166 9.98438 8.78711 11.4468 8.78711 13.2508C8.78711 15.0548 10.3166 16.5172 12.2034 16.5172Z" stroke="url(#paint0_linear)" stroke-width="3" stroke-miterlimit="10" stroke-linecap="round" stroke-linejoin="round"/>
<path d="M19.2372 20.4553C17.4285 22.1845 14.8161 23.3374 12.0027 23.3374C6.37592 23.3374 1.75391 18.9181 1.75391 13.5382C1.75391 10.8482 2.85917 8.35037 4.76826 6.62109" stroke="url(#paint1_linear)" stroke-width="3" stroke-miterlimit="10" stroke-linecap="round" stroke-linejoin="round"/>
<path d="M5.27051 6.14189C7.07912 4.41261 9.69156 3.25977 12.505 3.25977C18.1318 3.25977 22.7538 7.67902 22.7538 13.059C22.7538 15.749 21.6485 18.2468 19.7394 19.9761" stroke="white" stroke-width="2.6972" stroke-miterlimit="10" stroke-linecap="round" stroke-linejoin="round"/>
<path d="M15.2178 19.7832L19.5384 20.2636L18.5336 24.2025" stroke="url(#paint2_linear)" stroke-width="3" stroke-miterlimit="10" stroke-linecap="round" stroke-linejoin="round"/>
<path d="M8.68678 7.00666L4.36621 5.94988L5.97387 2.20312" stroke="white" stroke-width="2.6972" stroke-miterlimit="10" stroke-linecap="round" stroke-linejoin="round"/>
<defs>
<linearGradient id="paint0_linear" x1="7.31631" y1="13.2139" x2="17.1627" y2="13.2139" gradientUnits="userSpaceOnUse">
<stop stop-color="#00E8B6"/>
<stop offset="1" stop-color="#01BD95"/>
</linearGradient>
<linearGradient id="paint1_linear" x1="0.234069" y1="14.9512" x2="20.7417" y2="14.9512" gradientUnits="userSpaceOnUse">
<stop stop-color="#00E8B6"/>
<stop offset="1" stop-color="#01BD95"/>
</linearGradient>
<linearGradient id="paint2_linear" x1="13.3911" y1="21.4425" x2="20.6864" y2="22.5795" gradientUnits="userSpaceOnUse">
<stop stop-color="#00E8B6"/>
<stop offset="1" stop-color="#01BD95"/>
</linearGradient>
</defs>
</svg>
