<svg width="48" height="48" viewBox="0 0 48 48" fill="none" xmlns="http://www.w3.org/2000/svg">
<mask id="mask0" mask-type="alpha" maskUnits="userSpaceOnUse" x="0" y="0" width="48" height="48">
<rect width="48" height="48" transform="matrix(1 0 0 -1 0 48)" fill="#C4C4C4"/>
</mask>
<g mask="url(#mask0)">
<path d="M48.6998 48H0.799805V-0.199997H48.6998V48Z" fill="#1F2832"/>
<path d="M8.9 -2.8C31.4884 -2.8 49.8 15.5116 49.8 38.1C49.8 60.6884 31.4884 79 8.9 79C-13.6884 79 -32 60.6884 -32 38.1C-32 15.5116 -13.6884 -2.8 8.9 -2.8Z" fill="url(#paint0_linear)"/>
<path d="M8 48L8 21L21 21L21 48L8 48Z" fill="white"/>
<path d="M27 48L27 34L40 34L40 48L27 48Z" fill="white"/>
</g>
<defs>
<linearGradient id="paint0_linear" x1="-30.6959" y1="38.1" x2="47.7817" y2="38.1" gradientUnits="userSpaceOnUse">
<stop stop-color="#00F2D5"/>
<stop offset="0.953125" stop-color="#01BD95"/>
</linearGradient>
</defs>
</svg>
