<svg width="49" height="50" viewBox="0 0 49 50" fill="none" xmlns="http://www.w3.org/2000/svg">
<g clip-path="url(#clip0)">
<path d="M24.5 49.0762C38.031 49.0762 49 38.1071 49 24.5762C49 11.0452 38.031 0.0761719 24.5 0.0761719C10.969 0.0761719 0 11.0452 0 24.5762C0 38.1071 10.969 49.0762 24.5 49.0762Z" fill="#F0F0F0"/>
<path d="M5.06435 9.66016C3.13986 12.164 1.68871 15.05 0.84375 18.1851H13.5893L5.06435 9.66016Z" fill="#0052B4"/>
<path d="M48.1555 18.185C47.3106 15.05 45.8593 12.164 43.9349 9.66016L35.4102 18.185H48.1555Z" fill="#0052B4"/>
<path d="M0.84375 30.9668C1.68881 34.1018 3.13996 36.9878 5.06435 39.4916L13.589 30.9668H0.84375Z" fill="#0052B4"/>
<path d="M39.4155 5.14062C36.9116 3.21613 34.0258 1.76498 30.8906 0.919922V13.6654L39.4155 5.14062Z" fill="#0052B4"/>
<path d="M9.58398 44.011C12.0879 45.9355 14.9738 47.3866 18.1088 48.2317V35.4863L9.58398 44.011Z" fill="#0052B4"/>
<path d="M18.1087 0.919922C14.9737 1.76498 12.0878 3.21613 9.58398 5.14052L18.1087 13.6653V0.919922Z" fill="#0052B4"/>
<path d="M30.8906 48.2317C34.0257 47.3866 36.9116 45.9355 39.4154 44.0111L30.8906 35.4863V48.2317Z" fill="#0052B4"/>
<path d="M35.4102 30.9668L43.9349 39.4916C45.8593 36.9879 47.3106 34.1018 48.1555 30.9668H35.4102Z" fill="#0052B4"/>
<path d="M48.7926 21.3805H27.6958H27.6957V0.283561C26.6496 0.147375 25.5831 0.0761719 24.5 0.0761719C23.4167 0.0761719 22.3504 0.147375 21.3044 0.283561V21.3804V21.3805H0.207389C0.0712031 22.4266 0 23.4931 0 24.5762C0 25.6594 0.0712031 26.7258 0.207389 27.7718H21.3042H21.3043V48.8688C22.3504 49.005 23.4167 49.0762 24.5 49.0762C25.5831 49.0762 26.6496 49.0051 27.6956 48.8688V27.772V27.7719H48.7926C48.9288 26.7258 49 25.6594 49 24.5762C49 23.4931 48.9288 22.4266 48.7926 21.3805Z" fill="#D80027"/>
<path d="M30.8916 30.9669L41.8243 41.8996C42.3272 41.397 42.8068 40.8715 43.2645 40.3268L33.9045 30.9668H30.8916V30.9669Z" fill="#D80027"/>
<path d="M18.1086 30.9668H18.1084L7.17578 41.8994C7.67841 42.4023 8.20392 42.8819 8.74866 43.3396L18.1086 33.9794V30.9668Z" fill="#D80027"/>
<path d="M18.1082 18.185V18.1848L7.17549 7.25195C6.67267 7.75459 6.193 8.28009 5.73535 8.82483L15.0954 18.1849H18.1082V18.185Z" fill="#D80027"/>
<path d="M30.8916 18.1855L41.8244 7.25254C41.3218 6.74972 40.7963 6.27006 40.2516 5.8125L30.8916 15.1726V18.1855Z" fill="#D80027"/>
</g>
<defs>
<clipPath id="clip0">
<rect y="0.0761719" width="49" height="49" fill="white"/>
</clipPath>
</defs>
</svg>
