<svg width="49" height="49" viewBox="0 0 49 49" fill="none" xmlns="http://www.w3.org/2000/svg">
<path d="M24.1504 0.927732C10.8956 0.927731 0.150394 11.6729 0.150393 24.9277C0.150392 38.1826 10.8956 48.9277 24.1504 48.9277C37.4052 48.9277 48.1504 38.1826 48.1504 24.9277C48.1504 11.6729 37.4052 0.927733 24.1504 0.927732Z" fill="#637786"/>
<path d="M24.1504 48.9277C10.8504 48.9277 0.150392 38.2277 0.150393 24.9277C0.150394 11.6277 10.8504 0.927733 24.1504 0.927734" fill="url(#paint0_linear)"/>
<path d="M24.4516 13.6195C18.266 13.6195 13.2516 18.6339 13.2516 24.8195C13.2516 31.0051 18.266 36.0195 24.4516 36.0195C30.6372 36.0195 35.6516 31.0051 35.6516 24.8195C35.6516 18.6339 30.6372 13.6195 24.4516 13.6195Z" fill="white"/>
<path d="M24.4517 36.0195C18.2517 36.0195 13.2517 31.0195 13.2517 24.8195C13.2517 18.6195 18.2517 13.6195 24.4517 13.6195" fill="white"/>
<mask id="mask0" mask-type="alpha" maskUnits="userSpaceOnUse" x="19" y="19" width="12" height="12">
<rect x="19.1504" y="19.0039" width="11" height="11" fill="#C4C4C4"/>
</mask>
<g mask="url(#mask0)">
<path d="M24.4517 14.0039C18.3765 14.0039 13.4517 18.9288 13.4517 25.0039C13.4517 31.079 18.3765 36.0039 24.4517 36.0039C30.5268 36.0039 35.4517 31.079 35.4517 25.0039C35.4517 18.9288 30.5268 14.0039 24.4517 14.0039Z" fill="#637786"/>
<path d="M24.4517 14.0039C30.5463 14.0039 35.4517 18.9093 35.4517 25.0039C35.4517 31.0985 30.5463 36.0039 24.4517 36.0039" fill="url(#paint1_linear)"/>
</g>
<defs>
<linearGradient id="paint0_linear" x1="23.7678" y1="24.9278" x2="0.742567" y2="24.9278" gradientUnits="userSpaceOnUse">
<stop stop-color="#00F2D5"/>
<stop offset="0.953125" stop-color="#01BD95"/>
</linearGradient>
<linearGradient id="paint1_linear" x1="35.2763" y1="25.0039" x2="24.7231" y2="25.0039" gradientUnits="userSpaceOnUse">
<stop stop-color="#01BD95"/>
<stop offset="0.625" stop-color="#00F2D5"/>
</linearGradient>
</defs>
</svg>
