<svg width="88" height="88" viewBox="0 0 88 88" fill="none" xmlns="http://www.w3.org/2000/svg">
<circle cx="44.0548" cy="43.9054" r="43.2979" fill="#313A44"/>
<path d="M51.5529 47.3653C51.5529 47.3653 53.3143 43.1821 52.984 39.2191C52.5437 34.7056 50.7823 32.9443 50.7823 32.9443L48.1403 34.9258C48.1403 34.9258 47.6999 31.0728 44.1772 25.6787" stroke="white" stroke-width="3.88203" stroke-miterlimit="10" stroke-linecap="round" stroke-linejoin="round"/>
<path d="M39.8838 32.3936C39.8838 32.3936 40.5444 37.0171 37.3519 41.3104C33.499 46.3743 34.82 55.2911 43.7368 55.2911C48.8007 55.2911 51.3326 51.4382 51.3326 47.6953C51.3326 45.1634 48.8007 40.0995 48.8007 40.0995L46.2688 43.9524C46.2688 43.8423 44.9477 36.1364 39.8838 32.3936Z" stroke="url(#paint0_linear)" stroke-width="3.88203" stroke-miterlimit="10" stroke-linecap="round" stroke-linejoin="round"/>
<path d="M36.0308 60.6855H51.3325" stroke="white" stroke-width="3.88203" stroke-miterlimit="10" stroke-linecap="round" stroke-linejoin="round"/>
<defs>
<linearGradient id="paint0_linear" x1="43.3353" y1="30.7033" x2="43.3353" y2="56.947" gradientUnits="userSpaceOnUse">
<stop stop-color="#23E9AB"/>
<stop offset="1" stop-color="#01B48C"/>
</linearGradient>
</defs>
</svg>
