<svg width="88" height="88" viewBox="0 0 88 88" fill="none" xmlns="http://www.w3.org/2000/svg">
<circle cx="44.0548" cy="43.714" r="43.2979" fill="#313A44"/>
<path d="M48.078 51.8465H25.3151C24.8936 51.8465 24.3316 51.5655 24.0505 51.2844C23.7695 50.8629 23.629 50.4414 23.91 49.8793C26.0177 43.5563 31.0761 39.4814 36.6966 39.4814C42.3171 39.4814 47.3755 43.5563 49.4831 49.8793C49.6237 50.3009 49.6237 50.8629 49.3427 51.2844C48.9211 51.5655 48.4996 51.8465 48.078 51.8465ZM27.5633 48.7552H45.6894C43.7222 44.8209 40.3499 42.4322 36.5561 42.4322C32.9028 42.4322 29.5305 44.8209 27.5633 48.7552Z" fill="white"/>
<path d="M36.4161 39.6241C32.7628 39.6241 29.812 36.6734 29.812 33.0201C29.812 29.3668 32.7628 26.416 36.4161 26.416C40.0694 26.416 43.0202 29.3668 43.0202 33.0201C43.0202 36.6734 40.0694 39.6241 36.4161 39.6241ZM36.4161 29.3668C34.4489 29.3668 32.7628 31.0529 32.7628 33.0201C32.7628 34.9872 34.4489 36.6734 36.4161 36.6734C38.3833 36.6734 40.0694 34.9872 40.0694 33.0201C40.0694 31.0529 38.3833 29.3668 36.4161 29.3668Z" fill="white"/>
<path d="M59.6972 62.2264H36.9343C36.5127 62.2264 35.9507 61.9453 35.6697 61.6643C35.3887 61.2428 35.2481 60.8213 35.5292 60.2592C37.6368 53.9362 42.6953 49.8613 48.3157 49.8613C53.9362 49.8613 58.9946 53.9362 61.1023 60.2592C61.2428 60.6807 61.2428 61.2428 60.9618 61.6643C60.5403 61.9453 60.1187 62.2264 59.6972 62.2264ZM39.1825 59.1351H57.3085C55.3413 55.2008 51.969 52.8121 48.1752 52.8121C44.5219 52.8121 41.1496 55.2008 39.1825 59.1351Z" fill="url(#paint0_linear)"/>
<path d="M48.035 48.4577C50.8287 48.4577 53.0934 46.1929 53.0934 43.3992C53.0934 40.6056 50.8287 38.3408 48.035 38.3408C45.2413 38.3408 42.9766 40.6056 42.9766 43.3992C42.9766 46.1929 45.2413 48.4577 48.035 48.4577Z" fill="#313a44"/>
<path d="M48.0347 50.004C44.3814 50.004 41.4307 47.0533 41.4307 43.4C41.4307 39.7466 44.3814 36.7959 48.0347 36.7959C51.688 36.7959 54.6388 39.7466 54.6388 43.4C54.6388 47.0533 51.688 50.004 48.0347 50.004ZM48.0347 39.7466C46.0676 39.7466 44.3814 41.4328 44.3814 43.4C44.3814 45.3671 46.0676 47.0533 48.0347 47.0533C50.0019 47.0533 51.6881 45.3671 51.6881 43.4C51.6881 41.4328 50.0019 39.7466 48.0347 39.7466Z" fill="url(#paint1_linear)"/>
<path d="M49.376 26.7959C55.4511 26.7959 60.376 31.7208 60.376 37.7959C60.376 39.5496 59.9656 41.2075 59.2356 42.6787" stroke="white" stroke-width="3.2" stroke-miterlimit="10" stroke-linecap="round" stroke-linejoin="round"/>
<defs>
<linearGradient id="paint0_linear" x1="35.4402" y1="55.9848" x2="61.1572" y2="55.9848" gradientUnits="userSpaceOnUse">
<stop stop-color="#00DFAD"/>
<stop offset="1" stop-color="#01B48C"/>
</linearGradient>
<linearGradient id="paint1_linear" x1="41.3646" y1="43.3766" x2="54.619" y2="43.3766" gradientUnits="userSpaceOnUse">
<stop stop-color="#00DFAD"/>
<stop offset="1" stop-color="#01B48C"/>
</linearGradient>
</defs>
</svg>
