<svg width="88" height="87" viewBox="0 0 88 87" fill="none" xmlns="http://www.w3.org/2000/svg">
<circle cx="44.0548" cy="43.3097" r="43.2979" fill="#313A44"/>
<path d="M44.6091 53.6636C46.4843 53.6636 48.0044 52.1434 48.0044 50.2683C48.0044 48.3932 46.4843 46.873 44.6091 46.873C42.734 46.873 41.2139 48.3932 41.2139 50.2683C41.2139 52.1434 42.734 53.6636 44.6091 53.6636Z" stroke="white" stroke-width="3.18146" stroke-miterlimit="10" stroke-linecap="round" stroke-linejoin="round"/>
<path d="M26.5996 34.4736H31.471" stroke="white" stroke-width="3.73475" stroke-miterlimit="10" stroke-linecap="round" stroke-linejoin="round"/>
<path d="M58.5996 34.4736H63.0996" stroke="white" stroke-width="3.73475" stroke-miterlimit="10" stroke-linecap="round" stroke-linejoin="round"/>
<path d="M58.4857 29.0117C58.4857 38.9022 52.4333 47.0213 44.9047 47.0213C37.3761 47.0213 31.3237 38.9022 31.3237 29.0117H58.4857Z" stroke="url(#paint0_linear)" stroke-width="3.73475" stroke-miterlimit="10" stroke-linecap="round" stroke-linejoin="round"/>
<path d="M53.0238 60.0115C47.119 59.5687 49.1857 53.8115 44.4619 53.8115C39.738 53.8115 40.7713 59.5687 35.8999 60.0115H53.0238Z" stroke="url(#paint1_linear)" stroke-width="3.73475" stroke-miterlimit="10" stroke-linecap="round" stroke-linejoin="round"/>
<defs>
<linearGradient id="paint0_linear" x1="44.7882" y1="26.945" x2="44.7882" y2="48.9108" gradientUnits="userSpaceOnUse">
<stop stop-color="#23E9AB"/>
<stop offset="1" stop-color="#01B48C"/>
</linearGradient>
<linearGradient id="paint1_linear" x1="44.5472" y1="51.7449" x2="44.5472" y2="61.9306" gradientUnits="userSpaceOnUse">
<stop stop-color="#23E9AB"/>
<stop offset="1" stop-color="#01B48C"/>
</linearGradient>
</defs>
</svg>
