<svg width="88" height="87" viewBox="0 0 88 87" fill="none" xmlns="http://www.w3.org/2000/svg">
<circle cx="44.0548" cy="43.3097" r="43.2979" fill="#313A44"/>
<path d="M51.0949 45.4573L47.3152 41.6775L44.6154 43.0274L49.0701 47.4821C49.4751 47.8871 49.4751 48.4271 49.0701 48.832C48.8001 49.102 48.3951 49.102 47.9902 49.102C47.8552 48.832 47.7202 48.697 47.5852 48.562L47.0452 48.0221C46.5053 47.4821 45.6953 47.4821 45.0204 48.0221C44.6154 48.4271 44.2104 48.967 45.0204 50.1819C45.2903 50.5869 45.5603 50.8569 45.6953 50.9919C45.8303 51.1269 45.9653 51.2619 45.9653 51.2619C45.9653 51.2619 45.9653 51.3969 45.5603 51.9368C45.4253 52.2068 44.8854 52.2068 44.6154 52.0718C44.4804 51.8018 44.2104 51.5318 43.9404 51.2619L43.4005 50.7219C42.9955 50.4519 42.5905 50.3169 42.1855 50.3169C41.7806 50.3169 41.5106 50.4519 41.2406 50.7219C40.7006 51.2619 40.7006 52.2068 41.2406 52.7468L42.3205 53.8267C42.4555 53.9617 42.4555 54.0967 42.5905 54.0967C42.5905 54.3667 42.4555 54.5016 42.3205 54.6366C41.9156 55.0416 41.2406 55.0416 40.8356 54.7716L36.7859 51.2619C35.166 49.912 33.1411 48.967 31.1163 48.832L30.8463 40.0576L37.4609 37.2228C38.0008 36.9528 38.8108 37.0878 39.3507 37.4928C39.6207 37.2228 40.0257 36.9528 40.5657 36.6828L42.1855 35.8729L41.7806 35.4679C40.4307 34.118 38.2708 33.7131 36.5159 34.523L30.8463 36.9528V36.5479C30.8463 35.7379 30.3063 35.198 29.3614 35.198L24.2317 35.3329C23.4218 35.3329 22.8818 36.0079 22.8818 36.8178L23.2868 52.2068C23.2868 52.6118 23.4218 53.0168 23.6918 53.1518C23.9618 53.4217 24.3667 53.5567 24.7717 53.5567L29.9014 53.4217C30.7113 53.4217 31.2513 52.7468 31.2513 51.9368C32.6012 52.2068 33.9511 52.7468 35.031 53.5567L39.0808 57.0665C39.6207 57.4715 40.4307 58.0114 41.5106 58.0114H41.6456C42.7255 58.0114 43.6704 57.4715 44.4804 56.6615C44.8854 56.2565 45.1553 55.7166 45.2903 55.0416C46.2353 55.0416 47.1802 54.6367 47.9902 53.8267C48.5301 53.2867 48.8001 52.4768 48.9351 51.8018C49.4751 51.8018 50.015 51.5318 50.555 51.2619C50.825 51.1269 51.0949 50.9919 51.3649 50.8569L51.4999 50.7219C51.9049 50.1819 52.3099 49.507 52.4449 48.967C52.3099 47.7521 52.0399 46.4022 51.0949 45.4573ZM25.8516 50.7219L25.4467 38.1677H27.7415L28.1465 50.7219H25.8516Z" fill="url(#paint0_linear)"/>
<path d="M64.0539 35.0616H58.9243C58.1143 35.0616 57.4394 35.6016 57.4394 36.5465V36.6815L50.2849 33.8467C49.07 33.3067 47.72 33.4417 46.2351 33.9817L41.9154 36.1415L40.2955 36.9515C39.8906 37.0865 39.4856 37.3564 39.0806 37.7614C38.6756 38.3014 38.2707 38.8413 38.1357 39.6513C38.0007 40.7312 38.2707 41.9461 39.0806 43.0261L39.2156 43.161C39.7556 43.566 40.7005 44.106 41.7804 44.106C42.3204 44.106 42.9954 43.971 43.5353 43.701L44.3453 43.296L47.0451 41.9461L48.8 41.0012L48.935 40.8662C49.4749 40.3262 49.6099 39.5163 49.3399 38.9763L49.2049 38.8413C48.665 38.3014 47.855 38.1664 47.3151 38.4364L42.0504 41.1362C41.7804 41.2712 41.3755 41.2712 40.9705 40.8662C40.8355 40.7312 40.8355 40.5962 40.8355 40.0562C40.8355 39.9213 40.8355 39.7863 41.3755 39.5163L47.4501 36.5465C47.72 36.4115 48.395 36.2765 48.935 36.5465L57.1694 39.9213V47.7507L55.4145 49.3706C54.8746 49.9106 54.0646 50.0456 53.3897 49.7756L51.6348 49.2356C51.4998 49.9106 51.2298 50.4506 50.6898 50.9905L50.5549 51.1255C50.2849 51.2605 50.0149 51.3955 49.7449 51.5305L52.3097 52.3404C52.8497 52.4754 53.3897 52.4754 53.7946 52.4754C54.7396 52.4754 55.8195 52.0705 56.8994 51.3955V51.8005C56.8994 52.6104 57.4394 53.2854 58.3843 53.2854H63.514C64.3239 53.2854 64.9989 52.7454 64.9989 51.8005V36.4115C65.4039 35.6015 64.8639 35.0616 64.0539 35.0616ZM62.569 50.4506H60.2742V37.8964H62.569V50.4506Z" fill="white"/>
<defs>
<linearGradient id="paint0_linear" x1="22.5719" y1="46.14" x2="52.1075" y2="46.14" gradientUnits="userSpaceOnUse">
<stop stop-color="#00DFAD"/>
<stop offset="1" stop-color="#01B48C"/>
</linearGradient>
</defs>
</svg>
