<svg width="11" height="13" viewBox="0 0 11 13" fill="none" xmlns="http://www.w3.org/2000/svg">
<path d="M6.29825 9.29675C5.54809 9.2387 5.23288 8.86648 4.64457 8.50914C4.32123 10.2067 3.92608 11.8339 2.75564 12.684C2.39392 10.1183 3.28594 8.19126 3.7002 6.14578C2.99408 4.9564 3.7851 2.56241 5.27445 3.15232C7.10749 3.87763 3.68746 7.5748 5.9834 8.03657C8.38034 8.5187 9.35885 3.87498 7.87233 2.36454C5.72462 0.183829 1.62076 2.31498 2.12541 5.43675C2.24834 6.19993 3.03653 6.43162 2.44026 7.48471C1.0657 7.18011 0.655691 6.09533 0.708402 4.64914C0.793482 2.28188 2.83418 0.62436 4.88107 0.394979C7.46974 0.105068 9.8994 1.34613 10.2348 3.78259C10.6121 6.5325 9.06611 9.51055 6.29825 9.29675Z" fill="white"/>
</svg>
